<svg width="876" height="189" viewBox="0 0 876 189" fill="none" xmlns="http://www.w3.org/2000/svg">
<mask id="path-1-outside-1_110_283" maskUnits="userSpaceOnUse" x="-3" y="-2" width="881" height="193" fill="black">
<rect fill="white" x="-3" y="-2" width="881" height="193"/>
<path d="M0.156 149L49.548 2.97999L89.924 2.97999L139.316 149H106.192L96.392 119.208L42.884 119.208L33.084 149H0.156ZM51.312 92.748L87.964 92.748L65.62 23.756H73.852L51.312 92.748ZM152.335 188.2V41.984H179.775V62.368L177.227 56.488C180.755 51.1307 185.524 47.0147 191.535 44.14C197.676 41.1347 204.667 39.632 212.507 39.632C222.699 39.632 231.911 42.1147 240.143 47.08C248.375 52.0453 254.908 58.7747 259.743 67.268C264.577 75.6307 266.995 85.0387 266.995 95.492C266.995 105.815 264.577 115.223 259.743 123.716C255.039 132.209 248.571 138.939 240.339 143.904C232.107 148.869 222.764 151.352 212.311 151.352C204.993 151.352 198.199 150.045 191.927 147.432C185.785 144.688 180.82 140.703 177.031 135.476L181.735 129.4V188.2H152.335ZM208.783 124.892C214.271 124.892 219.105 123.651 223.287 121.168C227.468 118.685 230.735 115.223 233.087 110.78C235.439 106.337 236.615 101.241 236.615 95.492C236.615 89.7427 235.439 84.712 233.087 80.4C230.735 75.9573 227.468 72.4947 223.287 70.012C219.105 67.3987 214.271 66.092 208.783 66.092C203.556 66.092 198.852 67.3333 194.671 69.816C190.62 72.2987 187.419 75.7613 185.067 80.204C182.845 84.6467 181.735 89.7427 181.735 95.492C181.735 101.241 182.845 106.337 185.067 110.78C187.419 115.223 190.62 118.685 194.671 121.168C198.852 123.651 203.556 124.892 208.783 124.892ZM284.214 188.2L284.214 41.984L311.654 41.984V62.368L309.106 56.488C312.634 51.1307 317.403 47.0147 323.414 44.14C329.555 41.1347 336.546 39.632 344.386 39.632C354.578 39.632 363.79 42.1147 372.022 47.08C380.254 52.0453 386.787 58.7747 391.622 67.268C396.456 75.6307 398.874 85.0387 398.874 95.492C398.874 105.815 396.456 115.223 391.622 123.716C386.918 132.209 380.45 138.939 372.218 143.904C363.986 148.869 354.643 151.352 344.19 151.352C336.872 151.352 330.078 150.045 323.806 147.432C317.664 144.688 312.699 140.703 308.91 135.476L313.614 129.4V188.2H284.214ZM340.662 124.892C346.15 124.892 350.984 123.651 355.166 121.168C359.347 118.685 362.614 115.223 364.966 110.78C367.318 106.337 368.494 101.241 368.494 95.492C368.494 89.7427 367.318 84.712 364.966 80.4C362.614 75.9573 359.347 72.4947 355.166 70.012C350.984 67.3987 346.15 66.092 340.662 66.092C335.435 66.092 330.731 67.3333 326.55 69.816C322.499 72.2987 319.298 75.7613 316.946 80.204C314.724 84.6467 313.614 89.7427 313.614 95.492C313.614 101.241 314.724 106.337 316.946 110.78C319.298 115.223 322.499 118.685 326.55 121.168C330.731 123.651 335.435 124.892 340.662 124.892ZM469.209 151.352C458.625 151.352 448.955 148.935 440.201 144.1C431.577 139.265 424.651 132.667 419.425 124.304C414.329 115.811 411.78 106.207 411.78 95.492C411.78 84.6467 414.329 75.0427 419.425 66.68C424.651 58.3173 431.577 51.7187 440.201 46.884C448.955 42.0493 458.625 39.632 469.209 39.632C479.793 39.632 489.397 42.0493 498.021 46.884C506.645 51.7187 513.505 58.3173 518.601 66.68C523.827 75.0427 526.441 84.6467 526.441 95.492C526.441 106.207 523.827 115.811 518.601 124.304C513.505 132.667 506.645 139.265 498.021 144.1C489.397 148.935 479.793 151.352 469.209 151.352ZM469.209 124.892C474.566 124.892 479.205 123.651 483.125 121.168C487.175 118.685 490.311 115.223 492.533 110.78C494.885 106.337 496.061 101.241 496.061 95.492C496.061 89.7427 494.885 84.712 492.533 80.4C490.311 75.9573 487.175 72.4947 483.125 70.012C479.205 67.3987 474.566 66.092 469.209 66.092C463.851 66.092 459.147 67.3987 455.097 70.012C451.046 72.4947 447.845 75.9573 445.493 80.4C443.271 84.712 442.161 89.7427 442.161 95.492C442.161 101.241 443.271 106.337 445.493 110.78C447.845 115.223 451.046 118.685 455.097 121.168C459.147 123.651 463.851 124.892 469.209 124.892ZM576.884 151.352C569.175 151.352 562.511 150.111 556.892 147.628C551.274 145.145 546.962 141.617 543.956 137.044C540.951 132.34 539.448 126.787 539.448 120.384C539.448 114.373 540.82 109.081 543.564 104.508C546.308 99.804 550.49 95.884 556.108 92.748C561.858 89.612 568.979 87.3907 577.472 86.084L610.204 80.792V102.352L582.764 107.252C578.583 108.036 575.382 109.408 573.16 111.368C570.939 113.197 569.828 115.876 569.828 119.404C569.828 122.671 571.07 125.219 573.552 127.048C576.035 128.877 579.106 129.792 582.764 129.792C587.599 129.792 591.846 128.747 595.504 126.656C599.163 124.565 601.972 121.756 603.932 118.228C606.023 114.569 607.068 110.584 607.068 106.272V78.44C607.068 74.3893 605.435 70.992 602.168 68.248C599.032 65.504 594.72 64.132 589.232 64.132C584.006 64.132 579.367 65.5693 575.316 68.444C571.396 71.3187 568.522 75.108 566.692 79.812L543.172 68.64C545.263 62.6293 548.595 57.468 553.168 53.156C557.742 48.844 563.23 45.512 569.632 43.16C576.035 40.808 583.026 39.632 590.604 39.632C599.62 39.632 607.591 41.2653 614.516 44.532C621.442 47.7987 626.799 52.372 630.588 58.252C634.508 64.0013 636.468 70.7307 636.468 78.44V149L609.028 149V131.752L615.692 130.576C612.556 135.28 609.094 139.2 605.304 142.336C601.515 145.341 597.268 147.563 592.564 149C587.86 150.568 582.634 151.352 576.884 151.352ZM710.558 151.352C699.843 151.352 690.174 148.935 681.55 144.1C673.057 139.135 666.262 132.405 661.166 123.912C656.201 115.419 653.718 105.88 653.718 95.296C653.718 84.712 656.201 75.2387 661.166 66.876C666.131 58.3827 672.926 51.7187 681.55 46.884C690.174 42.0493 699.843 39.632 710.558 39.632C718.529 39.632 725.911 41.004 732.706 43.748C739.501 46.492 745.315 50.3467 750.15 55.312C754.985 60.1467 758.447 65.896 760.538 72.56L735.058 83.536C733.229 78.1787 730.093 73.932 725.65 70.796C721.338 67.66 716.307 66.092 710.558 66.092C705.462 66.092 700.889 67.3333 696.838 69.816C692.918 72.2987 689.782 75.7613 687.43 80.204C685.209 84.6467 684.098 89.7427 684.098 95.492C684.098 101.241 685.209 106.337 687.43 110.78C689.782 115.223 692.918 118.685 696.838 121.168C700.889 123.651 705.462 124.892 710.558 124.892C716.438 124.892 721.534 123.324 725.846 120.188C730.158 117.052 733.229 112.805 735.058 107.448L760.538 118.62C758.578 124.892 755.181 130.511 750.346 135.476C745.511 140.441 739.697 144.361 732.902 147.236C726.107 149.98 718.659 151.352 710.558 151.352ZM777.85 149V0.627994H807.25V63.152L803.722 58.448C806.205 52.0453 810.19 47.3413 815.678 44.336C821.297 41.2 827.83 39.632 835.278 39.632C843.38 39.632 850.436 41.3307 856.446 44.728C862.588 48.1253 867.357 52.8947 870.754 59.036C874.152 65.0467 875.85 72.1027 875.85 80.204V149H846.45V86.476C846.45 82.2947 845.601 78.7013 843.902 75.696C842.334 72.6907 840.048 70.3387 837.042 68.64C834.168 66.9413 830.77 66.092 826.85 66.092C823.061 66.092 819.664 66.9413 816.658 68.64C813.653 70.3387 811.301 72.6907 809.602 75.696C808.034 78.7013 807.25 82.2947 807.25 86.476V149L777.85 149Z"/>
</mask>
<path d="M0.156 149L-1.73855 148.359L-2.63183 151H0.156V149ZM49.548 2.97999V0.979988H48.1132L47.6535 2.33915L49.548 2.97999ZM89.924 2.97999L91.8186 2.33915L91.3588 0.979988H89.924V2.97999ZM139.316 149V151H142.104L141.211 148.359L139.316 149ZM106.192 149L104.292 149.625L104.744 151H106.192V149ZM96.392 119.208L98.2919 118.583L97.8395 117.208H96.392V119.208ZM42.884 119.208V117.208H41.4365L40.9841 118.583L42.884 119.208ZM33.084 149V151H34.5315L34.9839 149.625L33.084 149ZM51.312 92.748L49.4109 92.1269L48.5546 94.748H51.312V92.748ZM87.964 92.748V94.748H90.714L89.8667 92.1318L87.964 92.748ZM65.62 23.756V21.756H62.87L63.7173 24.3722L65.62 23.756ZM73.852 23.756L75.7531 24.3771L76.6094 21.756H73.852V23.756ZM2.05055 149.641L51.4426 3.62083L47.6535 2.33915L-1.73855 148.359L2.05055 149.641ZM49.548 4.97999L89.924 4.97999V0.979988L49.548 0.979988V4.97999ZM88.0294 3.62083L137.421 149.641L141.211 148.359L91.8186 2.33915L88.0294 3.62083ZM139.316 147H106.192V151H139.316V147ZM108.092 148.375L98.2919 118.583L94.4922 119.833L104.292 149.625L108.092 148.375ZM96.392 117.208L42.884 117.208V121.208L96.392 121.208V117.208ZM40.9841 118.583L31.1842 148.375L34.9839 149.625L44.7839 119.833L40.9841 118.583ZM33.084 147H0.156L0.156 151H33.084V147ZM51.312 94.748L87.964 94.748V90.748L51.312 90.748V94.748ZM89.8667 92.1318L67.5227 23.1398L63.7173 24.3722L86.0613 93.3642L89.8667 92.1318ZM65.62 25.756H73.852V21.756H65.62V25.756ZM71.9509 23.1349L49.4109 92.1269L53.2131 93.3691L75.7531 24.3771L71.9509 23.1349ZM152.335 188.2H150.335V190.2H152.335V188.2ZM152.335 41.984V39.984H150.335V41.984H152.335ZM179.775 41.984H181.775V39.984H179.775V41.984ZM179.775 62.368L177.94 63.1632L181.775 62.368H179.775ZM177.227 56.488L175.556 55.388L174.962 56.2911L175.392 57.2832L177.227 56.488ZM191.535 44.14L192.398 45.9443L192.406 45.9404L192.414 45.9364L191.535 44.14ZM240.143 47.08L241.176 45.3674L240.143 47.08ZM259.743 67.268L258.005 68.2574L258.011 68.269L259.743 67.268ZM259.743 123.716L258.005 122.727L257.999 122.737L257.993 122.747L259.743 123.716ZM240.339 143.904L239.306 142.191L240.339 143.904ZM191.927 147.432L191.111 149.258L191.134 149.268L191.157 149.278L191.927 147.432ZM177.031 135.476L175.449 134.252L174.532 135.437L175.411 136.65L177.031 135.476ZM181.735 129.4H183.735V123.55L180.153 128.176L181.735 129.4ZM181.735 188.2V190.2H183.735V188.2H181.735ZM223.287 121.168L224.308 122.888L223.287 121.168ZM233.087 110.78L231.319 109.844L233.087 110.78ZM233.087 80.4L231.319 81.3358L231.325 81.3468L231.331 81.3577L233.087 80.4ZM223.287 70.012L222.227 71.708L222.246 71.7201L222.266 71.7317L223.287 70.012ZM194.671 69.816L193.65 68.0963L193.638 68.1035L193.626 68.1108L194.671 69.816ZM185.067 80.204L183.299 79.2682L183.288 79.2888L183.278 79.3096L185.067 80.204ZM185.067 110.78L183.278 111.674L183.288 111.695L183.299 111.716L185.067 110.78ZM194.671 121.168L193.626 122.873L193.638 122.881L193.65 122.888L194.671 121.168ZM154.335 188.2V41.984H150.335V188.2H154.335ZM152.335 43.984H179.775V39.984H152.335V43.984ZM177.775 41.984V62.368H181.775V41.984H177.775ZM181.61 61.5728L179.062 55.6928L175.392 57.2832L177.94 63.1632L181.61 61.5728ZM178.897 57.588C182.217 52.5465 186.702 48.6683 192.398 45.9443L190.672 42.3357C184.346 45.361 179.292 49.7148 175.556 55.388L178.897 57.588ZM192.414 45.9364C198.244 43.0834 204.927 41.632 212.507 41.632V37.632C204.407 37.632 197.108 39.1859 190.656 42.3436L192.414 45.9364ZM212.507 41.632C222.357 41.632 231.208 44.0267 239.11 48.7926L241.176 45.3674C232.613 40.2026 223.04 37.632 212.507 37.632V41.632ZM239.11 48.7926C247.044 53.5781 253.336 60.0563 258.005 68.2574L261.481 66.2786C256.48 57.493 249.706 50.5126 241.176 45.3674L239.11 48.7926ZM258.011 68.269C262.656 76.3026 264.995 85.3603 264.995 95.492H268.995C268.995 84.717 266.499 74.9587 261.474 66.267L258.011 68.269ZM264.995 95.492C264.995 105.488 262.658 114.552 258.005 122.727L261.481 124.705C266.497 115.893 268.995 106.141 268.995 95.492H264.995ZM257.993 122.747C253.457 130.937 247.235 137.409 239.306 142.191L241.372 145.617C249.907 140.469 256.62 133.481 261.492 124.685L257.993 122.747ZM239.306 142.191C231.412 146.952 222.433 149.352 212.311 149.352V153.352C223.095 153.352 232.801 150.786 241.372 145.617L239.306 142.191ZM212.311 149.352C205.237 149.352 198.706 148.09 192.696 145.586L191.157 149.278C197.691 152.001 204.75 153.352 212.311 153.352V149.352ZM192.743 145.606C186.908 142.999 182.224 139.232 178.65 134.302L175.411 136.65C179.416 142.173 184.663 146.377 191.111 149.258L192.743 145.606ZM178.612 136.7L183.316 130.624L180.153 128.176L175.449 134.252L178.612 136.7ZM179.735 129.4V188.2H183.735V129.4H179.735ZM181.735 186.2H152.335V190.2H181.735V186.2ZM208.783 126.892C214.583 126.892 219.779 125.577 224.308 122.888L222.266 119.448C218.432 121.725 213.959 122.892 208.783 122.892V126.892ZM224.308 122.888C228.816 120.211 232.336 116.472 234.854 111.716L231.319 109.844C229.133 113.973 226.12 117.16 222.266 119.448L224.308 122.888ZM234.854 111.716C237.38 106.946 238.615 101.52 238.615 95.492H234.615C234.615 100.962 233.498 105.729 231.319 109.844L234.854 111.716ZM238.615 95.492C238.615 89.4653 237.38 84.0946 234.842 79.4423L231.331 81.3577C233.497 85.3294 234.615 90.02 234.615 95.492H238.615ZM234.854 79.4642C232.336 74.7081 228.816 70.9692 224.308 68.2923L222.266 71.7317C226.12 74.0201 229.133 77.2066 231.319 81.3358L234.854 79.4642ZM224.347 68.316C219.812 65.4821 214.602 64.092 208.783 64.092V68.092C213.94 68.092 218.398 69.3153 222.227 71.708L224.347 68.316ZM208.783 64.092C203.225 64.092 198.163 65.4164 193.65 68.0963L195.692 71.5357C199.541 69.2502 203.888 68.092 208.783 68.092V64.092ZM193.626 68.1108C189.252 70.7916 185.809 74.5281 183.299 79.2682L186.834 81.1398C189.029 76.9945 191.988 73.8057 195.716 71.5212L193.626 68.1108ZM183.278 79.3096C180.897 84.0706 179.735 89.4811 179.735 95.492H183.735C183.735 90.0042 184.793 85.2227 186.856 81.0984L183.278 79.3096ZM179.735 95.492C179.735 101.503 180.897 106.913 183.278 111.674L186.856 109.886C184.793 105.761 183.735 100.98 183.735 95.492H179.735ZM183.299 111.716C185.809 116.456 189.252 120.192 193.626 122.873L195.716 119.463C191.988 117.178 189.029 113.989 186.834 109.844L183.299 111.716ZM193.65 122.888C198.163 125.568 203.225 126.892 208.783 126.892V122.892C203.888 122.892 199.541 121.734 195.692 119.448L193.65 122.888ZM284.214 188.2H282.214V190.2H284.214V188.2ZM284.214 41.984V39.984H282.214V41.984H284.214ZM311.654 41.984H313.654V39.984H311.654V41.984ZM311.654 62.368L309.818 63.1632L313.654 62.368H311.654ZM309.106 56.488L307.435 55.388L306.841 56.2911L307.27 57.2832L309.106 56.488ZM323.414 44.14L324.277 45.9443L324.285 45.9404L324.293 45.9364L323.414 44.14ZM372.022 47.08L373.055 45.3674L372.022 47.08ZM391.622 67.268L389.883 68.2574L389.89 68.269L391.622 67.268ZM391.622 123.716L389.883 122.727L389.878 122.737L389.872 122.747L391.622 123.716ZM372.218 143.904L371.185 142.191L372.218 143.904ZM323.806 147.432L322.99 149.258L323.013 149.268L323.036 149.278L323.806 147.432ZM308.91 135.476L307.328 134.252L306.411 135.437L307.29 136.65L308.91 135.476ZM313.614 129.4H315.614V123.55L312.032 128.176L313.614 129.4ZM313.614 188.2V190.2H315.614V188.2H313.614ZM355.166 121.168L356.187 122.888L355.166 121.168ZM364.966 110.78L363.198 109.844L364.966 110.78ZM364.966 80.4L363.198 81.3358L363.204 81.3468L363.21 81.3577L364.966 80.4ZM355.166 70.012L354.106 71.708L354.125 71.7201L354.145 71.7317L355.166 70.012ZM326.55 69.816L325.529 68.0963L325.516 68.1035L325.504 68.1108L326.55 69.816ZM316.946 80.204L315.178 79.2682L315.167 79.2888L315.157 79.3096L316.946 80.204ZM316.946 110.78L315.157 111.674L315.167 111.695L315.178 111.716L316.946 110.78ZM326.55 121.168L325.504 122.873L325.516 122.881L325.529 122.888L326.55 121.168ZM286.214 188.2L286.214 41.984H282.214L282.214 188.2H286.214ZM284.214 43.984L311.654 43.984V39.984L284.214 39.984V43.984ZM309.654 41.984V62.368H313.654V41.984H309.654ZM313.489 61.5728L310.941 55.6928L307.27 57.2832L309.818 63.1632L313.489 61.5728ZM310.776 57.588C314.096 52.5465 318.581 48.6683 324.277 45.9443L322.551 42.3357C316.225 45.361 311.171 49.7148 307.435 55.388L310.776 57.588ZM324.293 45.9364C330.123 43.0834 336.806 41.632 344.386 41.632V37.632C336.286 37.632 328.987 39.1859 322.534 42.3436L324.293 45.9364ZM344.386 41.632C354.236 41.632 363.087 44.0267 370.989 48.7926L373.055 45.3674C364.492 40.2026 354.919 37.632 344.386 37.632V41.632ZM370.989 48.7926C378.923 53.5781 385.215 60.0563 389.883 68.2574L393.36 66.2786C388.359 57.493 381.585 50.5126 373.055 45.3674L370.989 48.7926ZM389.89 68.269C394.535 76.3026 396.874 85.3603 396.874 95.492H400.874C400.874 84.717 398.378 74.9587 393.353 66.267L389.89 68.269ZM396.874 95.492C396.874 105.488 394.537 114.552 389.883 122.727L393.36 124.705C398.376 115.893 400.874 106.141 400.874 95.492H396.874ZM389.872 122.747C385.336 130.937 379.114 137.409 371.185 142.191L373.251 145.617C381.786 140.469 388.499 133.481 393.371 124.685L389.872 122.747ZM371.185 142.191C363.291 146.952 354.312 149.352 344.19 149.352V153.352C354.974 153.352 364.68 150.786 373.251 145.617L371.185 142.191ZM344.19 149.352C337.116 149.352 330.585 148.09 324.575 145.586L323.036 149.278C329.57 152.001 336.629 153.352 344.19 153.352V149.352ZM324.621 145.606C318.786 142.999 314.103 139.232 310.529 134.302L307.29 136.65C311.294 142.173 316.542 146.377 322.99 149.258L324.621 145.606ZM310.491 136.7L315.195 130.624L312.032 128.176L307.328 134.252L310.491 136.7ZM311.614 129.4V188.2H315.614V129.4H311.614ZM313.614 186.2H284.214V190.2H313.614V186.2ZM340.662 126.892C346.462 126.892 351.658 125.577 356.187 122.888L354.145 119.448C350.31 121.725 345.837 122.892 340.662 122.892V126.892ZM356.187 122.888C360.695 120.211 364.215 116.472 366.733 111.716L363.198 109.844C361.012 113.973 357.999 117.16 354.145 119.448L356.187 122.888ZM366.733 111.716C369.258 106.946 370.494 101.52 370.494 95.492H366.494C366.494 100.962 365.377 105.729 363.198 109.844L366.733 111.716ZM370.494 95.492C370.494 89.4653 369.259 84.0946 366.721 79.4423L363.21 81.3577C365.376 85.3294 366.494 90.02 366.494 95.492H370.494ZM366.733 79.4642C364.215 74.7081 360.695 70.9692 356.187 68.2923L354.145 71.7317C357.999 74.0201 361.012 77.2066 363.198 81.3358L366.733 79.4642ZM356.226 68.316C351.691 65.4821 346.481 64.092 340.662 64.092V68.092C345.818 68.092 350.277 69.3153 354.106 71.708L356.226 68.316ZM340.662 64.092C335.103 64.092 330.042 65.4164 325.529 68.0963L327.571 71.5357C331.42 69.2502 335.766 68.092 340.662 68.092V64.092ZM325.504 68.1108C321.13 70.7916 317.687 74.5281 315.178 79.2682L318.713 81.1398C320.908 76.9945 323.867 73.8057 327.595 71.5212L325.504 68.1108ZM315.157 79.3096C312.776 84.0706 311.614 89.4811 311.614 95.492H315.614C315.614 90.0042 316.672 85.2227 318.734 81.0984L315.157 79.3096ZM311.614 95.492C311.614 101.503 312.776 106.913 315.157 111.674L318.734 109.886C316.672 105.761 315.614 100.98 315.614 95.492H311.614ZM315.178 111.716C317.687 116.456 321.13 120.192 325.504 122.873L327.595 119.463C323.867 117.178 320.908 113.989 318.713 109.844L315.178 111.716ZM325.529 122.888C330.042 125.568 335.103 126.892 340.662 126.892V122.892C335.766 122.892 331.42 121.734 327.571 119.448L325.529 122.888ZM440.201 144.1L439.222 145.845L439.234 145.851L440.201 144.1ZM419.424 124.304L417.71 125.333L417.719 125.349L417.729 125.364L419.424 124.304ZM419.424 66.68L417.729 65.62L417.723 65.6296L417.717 65.6393L419.424 66.68ZM440.201 46.884L439.234 45.1332L439.223 45.1394L440.201 46.884ZM518.601 66.68L516.893 67.7207L516.898 67.7304L516.904 67.74L518.601 66.68ZM518.601 124.304L516.897 123.256L516.893 123.263L518.601 124.304ZM498.021 144.1L498.999 145.845L498.021 144.1ZM483.125 121.168L482.079 119.463L482.067 119.47L482.054 119.478L483.125 121.168ZM492.533 110.78L490.765 109.844L490.754 109.865L490.744 109.886L492.533 110.78ZM492.533 80.4L490.744 81.2944L490.76 81.3264L490.777 81.3577L492.533 80.4ZM483.125 70.012L482.015 71.6761L482.047 71.6973L482.079 71.7172L483.125 70.012ZM455.096 70.012L456.142 71.7172L456.161 71.7051L456.181 71.6926L455.096 70.012ZM445.492 80.4L443.725 79.4642L443.72 79.4741L443.715 79.4841L445.492 80.4ZM445.492 110.78L443.704 111.674L443.714 111.695L443.725 111.716L445.492 110.78ZM455.096 121.168L454.051 122.873L455.096 121.168ZM469.208 149.352C458.942 149.352 449.609 147.011 441.167 142.349L439.234 145.851C448.302 150.859 458.307 153.352 469.208 153.352V149.352ZM441.178 142.355C432.847 137.685 426.169 131.321 421.12 123.244L417.729 125.364C423.134 134.012 430.306 140.846 439.223 145.845L441.178 142.355ZM421.139 123.275C416.245 115.118 413.78 105.875 413.78 95.492H409.78C409.78 106.538 412.412 116.504 417.71 125.333L421.139 123.275ZM413.78 95.492C413.78 84.9732 416.248 75.7369 421.132 67.7207L417.717 65.6393C412.409 74.3484 409.78 84.3202 409.78 95.492H413.78ZM421.12 67.74C426.169 59.6629 432.847 53.2994 441.178 48.6286L439.223 45.1394C430.306 50.1379 423.134 56.9717 417.729 65.62L421.12 67.74ZM441.167 48.6348C449.609 43.9732 458.942 41.632 469.208 41.632V37.632C458.307 37.632 448.302 40.1255 439.234 45.1332L441.167 48.6348ZM469.208 41.632C479.475 41.632 488.738 43.9732 497.042 48.6286L498.999 45.1394C490.055 40.1255 480.11 37.632 469.208 37.632V41.632ZM497.042 48.6286C505.37 53.2969 511.977 59.6544 516.893 67.7207L520.308 65.6393C515.032 56.9803 507.919 50.1404 498.999 45.1394L497.042 48.6286ZM516.904 67.74C521.913 75.7535 524.44 84.9828 524.44 95.492H528.44C528.44 84.3105 525.741 74.3318 520.297 65.62L516.904 67.74ZM524.44 95.492C524.44 105.865 521.915 115.101 516.897 123.256L520.304 125.352C525.739 116.52 528.44 106.548 528.44 95.492H524.44ZM516.893 123.263C511.977 131.33 505.37 137.687 497.042 142.355L498.999 145.845C507.919 140.844 515.032 134.004 520.308 125.345L516.893 123.263ZM497.042 142.355C488.738 147.011 479.475 149.352 469.208 149.352V153.352C480.11 153.352 490.055 150.858 498.999 145.845L497.042 142.355ZM469.208 126.892C474.885 126.892 479.907 125.573 484.195 122.858L482.054 119.478C478.502 121.729 474.247 122.892 469.208 122.892V126.892ZM484.17 122.873C488.554 120.186 491.941 116.436 494.321 111.674L490.744 109.886C488.682 114.01 485.796 117.185 482.079 119.463L484.17 122.873ZM494.3 111.716C496.825 106.946 498.061 101.52 498.061 95.492H494.061C494.061 100.962 492.944 105.729 490.765 109.844L494.3 111.716ZM498.061 95.492C498.061 89.4653 496.826 84.0946 494.288 79.4423L490.777 81.3577C492.943 85.3294 494.061 90.02 494.061 95.492H498.061ZM494.321 79.5056C491.941 74.7444 488.554 70.994 484.17 68.3068L482.079 71.7172C485.796 73.9953 488.682 77.1703 490.744 81.2944L494.321 79.5056ZM484.234 68.3479C479.942 65.4865 474.905 64.092 469.208 64.092V68.092C474.227 68.092 478.467 69.3108 482.015 71.6761L484.234 68.3479ZM469.208 64.092C463.511 64.092 458.421 65.4868 454.012 68.3314L456.181 71.6926C459.873 69.3106 464.191 68.092 469.208 68.092V64.092ZM454.051 68.3068C449.677 70.9876 446.234 74.7241 443.725 79.4642L447.26 81.3358C449.455 77.1905 452.414 74.0017 456.142 71.7172L454.051 68.3068ZM443.715 79.4841C441.323 84.1273 440.16 89.4828 440.16 95.492H444.16C444.16 90.0025 445.22 85.2966 447.27 81.3159L443.715 79.4841ZM440.16 95.492C440.16 101.503 441.323 106.913 443.704 111.674L447.281 109.886C445.219 105.761 444.16 100.98 444.16 95.492H440.16ZM443.725 111.716C446.234 116.456 449.677 120.192 454.051 122.873L456.142 119.463C452.414 117.178 449.455 113.989 447.26 109.844L443.725 111.716ZM454.051 122.873C458.455 125.572 463.531 126.892 469.208 126.892V122.892C464.172 122.892 459.839 121.729 456.142 119.463L454.051 122.873ZM556.892 147.628L557.701 145.799L556.892 147.628ZM543.956 137.044L542.271 138.121L542.278 138.132L542.285 138.142L543.956 137.044ZM543.564 104.508L545.279 105.537L545.286 105.526L545.292 105.516L543.564 104.508ZM556.108 92.748L555.151 90.9922L555.142 90.9969L555.134 91.0016L556.108 92.748ZM577.472 86.084L577.777 88.0607L577.784 88.0596L577.792 88.0584L577.472 86.084ZM610.204 80.792H612.204V78.4427L609.885 78.8176L610.204 80.792ZM610.204 102.352L610.556 104.321L612.204 104.026V102.352H610.204ZM582.764 107.252L582.413 105.283L582.404 105.285L582.396 105.286L582.764 107.252ZM573.16 111.368L574.432 112.912L574.458 112.89L574.484 112.868L573.16 111.368ZM573.552 127.048L574.739 125.438L573.552 127.048ZM603.932 118.228L602.196 117.236L602.19 117.246L602.184 117.257L603.932 118.228ZM602.168 68.248L600.851 69.7532L600.867 69.7664L600.882 69.7794L602.168 68.248ZM575.316 68.444L574.159 66.813L574.146 66.822L574.134 66.8312L575.316 68.444ZM566.692 79.812L565.834 81.6185L567.777 82.5413L568.556 80.5369L566.692 79.812ZM543.172 68.64L541.283 67.983L540.694 69.677L542.314 70.4465L543.172 68.64ZM553.168 53.156L551.796 51.7008L553.168 53.156ZM569.632 43.16L568.943 41.2827L569.632 43.16ZM614.516 44.532L615.37 42.7231L614.516 44.532ZM630.589 58.252L628.907 59.3354L628.921 59.3572L628.936 59.3787L630.589 58.252ZM636.468 149V151H638.468V149H636.468ZM609.028 149H607.028V151H609.028V149ZM609.028 131.752L608.681 129.782L607.028 130.074V131.752H609.028ZM615.692 130.576L617.357 131.685L619.951 127.794L615.345 128.606L615.692 130.576ZM605.304 142.336L606.547 143.903L606.564 143.89L606.58 143.877L605.304 142.336ZM592.564 149L591.98 147.087L591.956 147.095L591.932 147.103L592.564 149ZM576.884 149.352C569.385 149.352 563.009 148.144 557.701 145.799L556.084 149.457C562.014 152.077 568.965 153.352 576.884 153.352V149.352ZM557.701 145.799C552.39 143.452 548.397 140.159 545.628 135.946L542.285 138.142C545.527 143.076 550.158 146.839 556.084 149.457L557.701 145.799ZM545.642 135.967C542.871 131.63 541.448 126.463 541.448 120.384H537.448C537.448 127.111 539.031 133.05 542.271 138.121L545.642 135.967ZM541.448 120.384C541.448 114.689 542.745 109.761 545.279 105.537L541.849 103.479C538.896 108.401 537.448 114.058 537.448 120.384H541.448ZM545.292 105.516C547.825 101.173 551.72 97.4879 557.083 94.4944L555.134 91.0016C549.26 94.2801 544.792 98.4351 541.837 103.5L545.292 105.516ZM557.066 94.5038C562.56 91.5073 569.445 89.3426 577.777 88.0607L577.168 84.1073C568.513 85.4388 561.156 87.7167 555.151 90.9922L557.066 94.5038ZM577.792 88.0584L610.524 82.7664L609.885 78.8176L577.153 84.1096L577.792 88.0584ZM608.204 80.792V102.352H612.204V80.792H608.204ZM609.853 100.383L582.413 105.283L583.116 109.221L610.556 104.321L609.853 100.383ZM582.396 105.286C578.006 106.109 574.422 107.588 571.837 109.868L574.484 112.868C576.342 111.228 579.16 109.963 583.133 109.218L582.396 105.286ZM571.889 109.824C569.103 112.119 567.828 115.427 567.828 119.404H571.828C571.828 116.325 572.775 114.276 574.432 112.912L571.889 109.824ZM567.828 119.404C567.828 123.262 569.337 126.426 572.366 128.658L574.739 125.438C572.802 124.011 571.828 122.079 571.828 119.404H567.828ZM572.366 128.658C575.253 130.785 578.761 131.792 582.764 131.792V127.792C579.451 127.792 576.817 126.969 574.739 125.438L572.366 128.658ZM582.764 131.792C587.895 131.792 592.494 130.68 596.497 128.392L594.512 124.92C591.198 126.813 587.303 127.792 582.764 127.792V131.792ZM596.497 128.392C600.458 126.129 603.535 123.061 605.681 119.199L602.184 117.257C600.41 120.451 597.868 123.002 594.512 124.92L596.497 128.392ZM605.669 119.22C607.936 115.252 609.068 110.924 609.068 106.272H605.068C605.068 110.244 604.11 113.887 602.196 117.236L605.669 119.22ZM609.068 106.272V78.44H605.068V106.272H609.068ZM609.068 78.44C609.068 73.7634 607.146 69.8174 603.455 66.7166L600.882 69.7794C603.724 72.1665 605.068 75.0152 605.068 78.44H609.068ZM603.485 66.7428C599.882 63.5901 595.049 62.132 589.232 62.132V66.132C594.392 66.132 598.183 67.4179 600.851 69.7532L603.485 66.7428ZM589.232 62.132C583.614 62.132 578.566 63.6853 574.159 66.813L576.474 70.075C580.168 67.4534 584.398 66.132 589.232 66.132V62.132ZM574.134 66.8312C569.895 69.9399 566.79 74.0426 564.828 79.0871L568.556 80.5369C570.253 76.1734 572.898 72.6975 576.499 70.0568L574.134 66.8312ZM567.551 78.0054L544.031 66.8334L542.314 70.4465L565.834 81.6185L567.551 78.0054ZM545.061 69.297C547.048 63.5862 550.204 58.6997 554.54 54.6112L551.796 51.7008C546.986 56.2363 543.478 61.6725 541.283 67.983L545.061 69.297ZM554.54 54.6112C558.901 50.4998 564.151 47.3042 570.322 45.0373L568.943 41.2827C562.308 43.7198 556.583 47.1881 551.796 51.7008L554.54 54.6112ZM570.322 45.0373C576.481 42.775 583.235 41.632 590.604 41.632V37.632C582.817 37.632 575.59 38.841 568.943 41.2827L570.322 45.0373ZM590.604 41.632C599.377 41.632 607.048 43.2205 613.663 46.3409L615.37 42.7231C608.134 39.3102 599.864 37.632 590.604 37.632V41.632ZM613.663 46.3409C620.283 49.4635 625.34 53.7994 628.907 59.3354L632.27 57.1686C628.259 50.9446 622.6 46.1338 615.37 42.7231L613.663 46.3409ZM628.936 59.3787C632.605 64.7604 634.468 71.0874 634.468 78.44H638.468C638.468 70.3739 636.412 63.2422 632.241 57.1253L628.936 59.3787ZM634.468 78.44V149H638.468V78.44H634.468ZM636.468 147L609.028 147V151L636.468 151V147ZM611.028 149V131.752H607.028V149H611.028ZM609.376 133.722L616.04 132.546L615.345 128.606L608.681 129.782L609.376 133.722ZM614.028 129.467C610.985 134.032 607.648 137.8 604.029 140.795L606.58 143.877C610.539 140.6 614.128 136.528 617.357 131.685L614.028 129.467ZM604.062 140.769C600.472 143.616 596.449 145.722 591.98 147.087L593.149 150.913C598.088 149.404 602.559 147.066 606.547 143.903L604.062 140.769ZM591.932 147.103C587.462 148.593 582.452 149.352 576.884 149.352V153.352C582.815 153.352 588.259 152.543 593.197 150.897L591.932 147.103ZM681.55 144.1L680.541 145.827L680.556 145.836L680.572 145.845L681.55 144.1ZM661.166 123.912L659.439 124.921L659.445 124.931L659.451 124.941L661.166 123.912ZM661.166 66.876L662.886 67.8971L662.893 67.8854L661.166 66.876ZM681.55 46.884L682.528 48.6286L681.55 46.884ZM732.706 43.748L731.957 45.6025L732.706 43.748ZM750.15 55.312L748.717 56.7072L748.726 56.7168L748.736 56.7262L750.15 55.312ZM760.538 72.56L761.329 74.3968L762.986 73.683L762.446 71.9613L760.538 72.56ZM735.058 83.536L733.165 84.1823L733.864 86.2281L735.849 85.3728L735.058 83.536ZM725.65 70.796L724.474 72.4135L724.485 72.4218L724.497 72.4299L725.65 70.796ZM696.838 69.816L695.793 68.1108L695.78 68.1185L695.768 68.1264L696.838 69.816ZM687.43 80.204L685.662 79.2682L685.652 79.2888L685.641 79.3096L687.43 80.204ZM687.43 110.78L685.641 111.674L685.652 111.695L685.662 111.716L687.43 110.78ZM696.838 121.168L695.768 122.858L695.78 122.866L695.793 122.873L696.838 121.168ZM725.846 120.188L727.022 121.805L725.846 120.188ZM735.058 107.448L735.861 105.616L733.868 104.743L733.165 106.802L735.058 107.448ZM760.538 118.62L762.447 119.217L762.981 117.507L761.341 116.788L760.538 118.62ZM750.346 135.476L748.913 134.081L750.346 135.476ZM732.902 147.236L733.651 149.09L733.666 149.084L733.681 149.078L732.902 147.236ZM710.558 149.352C700.156 149.352 690.829 147.009 682.528 142.355L680.572 145.845C689.519 150.861 699.53 153.352 710.558 153.352V149.352ZM682.559 142.373C674.358 137.579 667.805 131.09 662.881 122.883L659.451 124.941C664.719 133.72 671.755 140.69 680.541 145.827L682.559 142.373ZM662.893 122.903C658.12 114.739 655.718 105.553 655.718 95.296H651.718C651.718 106.207 654.281 116.099 659.439 124.921L662.893 122.903ZM655.718 95.296C655.718 85.0386 658.12 75.9237 662.886 67.8971L659.446 65.8549C654.281 74.5536 651.718 84.3854 651.718 95.296H655.718ZM662.893 67.8854C667.677 59.701 674.213 53.2901 682.528 48.6286L680.572 45.1394C671.639 50.1473 664.585 57.0644 659.439 65.8666L662.893 67.8854ZM682.528 48.6286C690.829 43.9752 700.156 41.632 710.558 41.632V37.632C699.53 37.632 689.519 40.1234 680.572 45.1394L682.528 48.6286ZM710.558 41.632C718.295 41.632 725.421 42.9627 731.957 45.6025L733.455 41.8935C726.402 39.0453 718.763 37.632 710.558 37.632V41.632ZM731.957 45.6025C738.509 48.2486 744.087 51.9521 748.717 56.7072L751.583 53.9168C746.544 48.7412 740.492 44.7354 733.455 41.8935L731.957 45.6025ZM748.736 56.7262C753.337 61.3278 756.633 66.7955 758.63 73.1587L762.446 71.9613C760.261 64.9965 756.632 58.9655 751.564 53.8978L748.736 56.7262ZM759.747 70.7232L734.267 81.6992L735.849 85.3728L761.329 74.3968L759.747 70.7232ZM736.951 82.8897C734.991 77.1509 731.605 72.5516 726.803 69.1621L724.497 72.4299C728.58 75.3124 731.466 79.2064 733.165 84.1823L736.951 82.8897ZM726.826 69.1785C722.145 65.7741 716.695 64.092 710.558 64.092V68.092C715.92 68.092 720.531 69.5459 724.474 72.4135L726.826 69.1785ZM710.558 64.092C705.121 64.092 700.181 65.4213 695.793 68.1108L697.883 71.5212C701.596 69.2454 705.803 68.092 710.558 68.092V64.092ZM695.768 68.1264C691.529 70.8107 688.163 74.5443 685.662 79.2682L689.198 81.1398C691.401 76.9784 694.307 73.7866 697.908 71.5056L695.768 68.1264ZM685.641 79.3096C683.261 84.0706 682.098 89.4811 682.098 95.492H686.098C686.098 90.0042 687.157 85.2227 689.219 81.0984L685.641 79.3096ZM682.098 95.492C682.098 101.503 683.261 106.913 685.641 111.674L689.219 109.886C687.157 105.761 686.098 100.98 686.098 95.492H682.098ZM685.662 111.716C688.163 116.44 691.529 120.173 695.768 122.858L697.908 119.478C694.307 117.197 691.401 114.006 689.198 109.844L685.662 111.716ZM695.793 122.873C700.181 125.563 705.121 126.892 710.558 126.892V122.892C705.803 122.892 701.596 121.739 697.883 119.463L695.793 122.873ZM710.558 126.892C716.815 126.892 722.333 125.216 727.022 121.805L724.67 118.571C720.735 121.432 716.061 122.892 710.558 122.892V126.892ZM727.022 121.805C731.689 118.412 734.997 113.816 736.951 108.094L733.165 106.802C731.46 111.795 728.627 115.692 724.67 118.571L727.022 121.805ZM734.255 109.28L759.735 120.452L761.341 116.788L735.861 105.616L734.255 109.28ZM758.629 118.023C756.768 123.979 753.541 129.328 748.913 134.081L751.779 136.871C756.82 131.693 760.388 125.805 762.447 119.217L758.629 118.023ZM748.913 134.081C744.276 138.843 738.688 142.616 732.123 145.394L733.681 149.078C740.705 146.106 746.747 142.04 751.779 136.871L748.913 134.081ZM732.153 145.382C725.62 148.02 718.43 149.352 710.558 149.352V153.352C718.889 153.352 726.594 151.94 733.651 149.09L732.153 145.382ZM777.85 149H775.85V151H777.85V149ZM777.85 0.627995V-1.37201H775.85V0.627995H777.85ZM807.25 0.627995H809.25V-1.37201H807.25V0.627995ZM807.25 63.152L805.65 64.352L809.25 69.152V63.152H807.25ZM803.722 58.448L801.858 57.7249L801.456 58.7599L802.122 59.648L803.722 58.448ZM815.678 44.336L816.639 46.0902L816.646 46.0863L816.653 46.0824L815.678 44.336ZM856.446 44.728L855.462 46.4691L855.47 46.4736L855.478 46.4781L856.446 44.728ZM870.754 59.036L869.004 60.0041L869.009 60.0121L869.013 60.0201L870.754 59.036ZM875.85 149V151H877.85V149H875.85ZM846.45 149H844.45V151H846.45V149ZM843.902 75.696L842.129 76.6211L842.145 76.6509L842.161 76.6801L843.902 75.696ZM837.042 68.64L836.025 70.3618L836.041 70.3716L836.058 70.3811L837.042 68.64ZM816.658 68.64L815.674 66.8989V66.8989L816.658 68.64ZM809.602 75.696L807.861 74.7119L807.845 74.7411L807.829 74.7709L809.602 75.696ZM807.25 149V151H809.25V149H807.25ZM779.85 149V0.627995H775.85V149H779.85ZM777.85 2.62799H807.25V-1.37201H777.85V2.62799ZM805.25 0.627995V63.152H809.25V0.627995H805.25ZM808.85 61.952L805.322 57.248L802.122 59.648L805.65 64.352L808.85 61.952ZM805.587 59.1711C807.917 53.162 811.606 48.8465 816.639 46.0902L814.718 42.5818C808.775 45.8362 804.493 50.9287 801.858 57.7249L805.587 59.1711ZM816.653 46.0824C821.93 43.1373 828.117 41.632 835.278 41.632V37.632C827.543 37.632 820.664 39.2627 814.704 42.5896L816.653 46.0824ZM835.278 41.632C843.095 41.632 849.8 43.2688 855.462 46.4691L857.43 42.9869C851.071 39.3925 843.664 37.632 835.278 37.632V41.632ZM855.478 46.4781C861.291 49.6934 865.789 54.1917 869.004 60.0041L872.504 58.0679C868.925 51.5976 863.885 46.5572 857.414 42.9779L855.478 46.4781ZM869.013 60.0201C872.214 65.6822 873.85 72.3874 873.85 80.204H877.85C877.85 71.8179 876.09 64.4111 872.495 58.0519L869.013 60.0201ZM873.85 80.204V149H877.85V80.204H873.85ZM875.85 147H846.45V151H875.85V147ZM848.45 149V86.476H844.45V149H848.45ZM848.45 86.476C848.45 82.0224 847.544 78.0749 845.643 74.7119L842.161 76.6801C843.658 79.3278 844.45 82.567 844.45 86.476H848.45ZM845.675 74.7709C843.925 71.4164 841.362 68.7839 838.026 66.8989L836.058 70.3811C838.734 71.8934 840.743 73.9649 842.129 76.6211L845.675 74.7709ZM838.06 66.9181C834.827 65.0079 831.065 64.092 826.85 64.092V68.092C830.475 68.092 833.508 68.8748 836.025 70.3618L838.06 66.9181ZM826.85 64.092C822.751 64.092 819.008 65.0143 815.674 66.8989L817.642 70.3811C820.319 68.8684 823.371 68.092 826.85 68.092V64.092ZM815.674 66.8989C812.352 68.7764 809.739 71.3901 807.861 74.7119L811.343 76.6801C812.863 73.9912 814.954 71.9009 817.642 70.3811L815.674 66.8989ZM807.829 74.7709C806.081 78.1209 805.25 82.0466 805.25 86.476H809.25C809.25 82.5428 809.987 79.2817 811.375 76.6211L807.829 74.7709ZM805.25 86.476V149H809.25V86.476H805.25ZM807.25 147L777.85 147V151L807.25 151V147Z" fill="#777777" mask="url(#path-1-outside-1_110_283)"/>
</svg>
