<svg width="1011" height="267" viewBox="0 0 1011 267" fill="none" xmlns="http://www.w3.org/2000/svg">
<mask id="path-1-outside-1_790_2078" maskUnits="userSpaceOnUse" x="23" y="62" width="957" height="193" fill="black">
<rect fill="white" x="23" y="62" width="957" height="193"/>
<path d="M26.156 213L75.548 66.98L115.924 66.98L165.316 213H132.192L122.392 183.208L68.884 183.208L59.084 213H26.156ZM77.312 156.748L113.964 156.748L91.62 87.756H99.852L77.312 156.748ZM178.335 252.2V105.984H205.775V126.368L203.227 120.488C206.755 115.131 211.524 111.015 217.535 108.14C223.676 105.135 230.667 103.632 238.507 103.632C248.699 103.632 257.911 106.115 266.143 111.08C274.375 116.045 280.908 122.775 285.743 131.268C290.577 139.631 292.995 149.039 292.995 159.492C292.995 169.815 290.577 179.223 285.743 187.716C281.039 196.209 274.571 202.939 266.339 207.904C258.107 212.869 248.764 215.352 238.311 215.352C230.993 215.352 224.199 214.045 217.927 211.432C211.785 208.688 206.82 204.703 203.031 199.476L207.735 193.4V252.2H178.335ZM234.783 188.892C240.271 188.892 245.105 187.651 249.287 185.168C253.468 182.685 256.735 179.223 259.087 174.78C261.439 170.337 262.615 165.241 262.615 159.492C262.615 153.743 261.439 148.712 259.087 144.4C256.735 139.957 253.468 136.495 249.287 134.012C245.105 131.399 240.271 130.092 234.783 130.092C229.556 130.092 224.852 131.333 220.671 133.816C216.62 136.299 213.419 139.761 211.067 144.204C208.845 148.647 207.735 153.743 207.735 159.492C207.735 165.241 208.845 170.337 211.067 174.78C213.419 179.223 216.62 182.685 220.671 185.168C224.852 187.651 229.556 188.892 234.783 188.892ZM310.214 252.2L310.214 105.984L337.654 105.984V126.368L335.106 120.488C338.634 115.131 343.403 111.015 349.414 108.14C355.555 105.135 362.546 103.632 370.386 103.632C380.578 103.632 389.79 106.115 398.022 111.08C406.254 116.045 412.787 122.775 417.622 131.268C422.456 139.631 424.874 149.039 424.874 159.492C424.874 169.815 422.456 179.223 417.622 187.716C412.918 196.209 406.45 202.939 398.218 207.904C389.986 212.869 380.643 215.352 370.19 215.352C362.872 215.352 356.078 214.045 349.806 211.432C343.664 208.688 338.699 204.703 334.91 199.476L339.614 193.4V252.2H310.214ZM366.662 188.892C372.15 188.892 376.984 187.651 381.166 185.168C385.347 182.685 388.614 179.223 390.966 174.78C393.318 170.337 394.494 165.241 394.494 159.492C394.494 153.743 393.318 148.712 390.966 144.4C388.614 139.957 385.347 136.495 381.166 134.012C376.984 131.399 372.15 130.092 366.662 130.092C361.435 130.092 356.731 131.333 352.55 133.816C348.499 136.299 345.298 139.761 342.946 144.204C340.724 148.647 339.614 153.743 339.614 159.492C339.614 165.241 340.724 170.337 342.946 174.78C345.298 179.223 348.499 182.685 352.55 185.168C356.731 187.651 361.435 188.892 366.662 188.892ZM442.093 213L442.093 105.984H469.533V131.66L467.573 127.936C469.925 118.92 473.779 112.844 479.137 109.708C484.625 106.441 491.093 104.808 498.541 104.808H504.813V130.288H495.601C488.414 130.288 482.599 132.509 478.157 136.952C473.714 141.264 471.493 147.405 471.493 155.376L471.493 213L442.093 213ZM570.814 215.352C560.23 215.352 550.561 212.935 541.806 208.1C533.182 203.265 526.257 196.667 521.03 188.304C515.934 179.811 513.386 170.207 513.386 159.492C513.386 148.647 515.934 139.043 521.03 130.68C526.257 122.317 533.182 115.719 541.806 110.884C550.561 106.049 560.23 103.632 570.814 103.632C581.398 103.632 591.002 106.049 599.626 110.884C608.25 115.719 615.11 122.317 620.206 130.68C625.433 139.043 628.046 148.647 628.046 159.492C628.046 170.207 625.433 179.811 620.206 188.304C615.11 196.667 608.25 203.265 599.626 208.1C591.002 212.935 581.398 215.352 570.814 215.352ZM570.814 188.892C576.171 188.892 580.81 187.651 584.73 185.168C588.781 182.685 591.917 179.223 594.138 174.78C596.49 170.337 597.666 165.241 597.666 159.492C597.666 153.743 596.49 148.712 594.138 144.4C591.917 139.957 588.781 136.495 584.73 134.012C580.81 131.399 576.171 130.092 570.814 130.092C565.457 130.092 560.753 131.399 556.702 134.012C552.651 136.495 549.45 139.957 547.098 144.4C544.877 148.712 543.766 153.743 543.766 159.492C543.766 165.241 544.877 170.337 547.098 174.78C549.45 179.223 552.651 182.685 556.702 185.168C560.753 187.651 565.457 188.892 570.814 188.892ZM678.49 215.352C670.781 215.352 664.117 214.111 658.498 211.628C652.879 209.145 648.567 205.617 645.562 201.044C642.557 196.34 641.054 190.787 641.054 184.384C641.054 178.373 642.426 173.081 645.17 168.508C647.914 163.804 652.095 159.884 657.714 156.748C663.463 153.612 670.585 151.391 679.078 150.084L711.81 144.792V166.352L684.37 171.252C680.189 172.036 676.987 173.408 674.766 175.368C672.545 177.197 671.434 179.876 671.434 183.404C671.434 186.671 672.675 189.219 675.158 191.048C677.641 192.877 680.711 193.792 684.37 193.792C689.205 193.792 693.451 192.747 697.11 190.656C700.769 188.565 703.578 185.756 705.538 182.228C707.629 178.569 708.674 174.584 708.674 170.272V142.44C708.674 138.389 707.041 134.992 703.774 132.248C700.638 129.504 696.326 128.132 690.838 128.132C685.611 128.132 680.973 129.569 676.922 132.444C673.002 135.319 670.127 139.108 668.298 143.812L644.778 132.64C646.869 126.629 650.201 121.468 654.774 117.156C659.347 112.844 664.835 109.512 671.238 107.16C677.641 104.808 684.631 103.632 692.21 103.632C701.226 103.632 709.197 105.265 716.122 108.532C723.047 111.799 728.405 116.372 732.194 122.252C736.114 128.001 738.074 134.731 738.074 142.44V213H710.634V195.752L717.298 194.576C714.162 199.28 710.699 203.2 706.91 206.336C703.121 209.341 698.874 211.563 694.17 213C689.466 214.568 684.239 215.352 678.49 215.352ZM812.163 215.352C801.449 215.352 791.779 212.935 783.155 208.1C774.662 203.135 767.867 196.405 762.771 187.912C757.806 179.419 755.323 169.88 755.323 159.296C755.323 148.712 757.806 139.239 762.771 130.876C767.737 122.383 774.531 115.719 783.155 110.884C791.779 106.049 801.449 103.632 812.163 103.632C820.134 103.632 827.517 105.004 834.311 107.748C841.106 110.492 846.921 114.347 851.755 119.312C856.59 124.147 860.053 129.896 862.143 136.56L836.663 147.536C834.834 142.179 831.698 137.932 827.255 134.796C822.943 131.66 817.913 130.092 812.163 130.092C807.067 130.092 802.494 131.333 798.443 133.816C794.523 136.299 791.387 139.761 789.035 144.204C786.814 148.647 785.703 153.743 785.703 159.492C785.703 165.241 786.814 170.337 789.035 174.78C791.387 179.223 794.523 182.685 798.443 185.168C802.494 187.651 807.067 188.892 812.163 188.892C818.043 188.892 823.139 187.324 827.451 184.188C831.763 181.052 834.834 176.805 836.663 171.448L862.143 182.62C860.183 188.892 856.786 194.511 851.951 199.476C847.117 204.441 841.302 208.361 834.507 211.236C827.713 213.98 820.265 215.352 812.163 215.352ZM879.456 213V64.628H908.856V127.152L905.328 122.448C907.81 116.045 911.796 111.341 917.284 108.336C922.902 105.2 929.436 103.632 936.884 103.632C944.985 103.632 952.041 105.331 958.052 108.728C964.193 112.125 968.962 116.895 972.36 123.036C975.757 129.047 977.456 136.103 977.456 144.204V213H948.056V150.476C948.056 146.295 947.206 142.701 945.508 139.696C943.94 136.691 941.653 134.339 938.648 132.64C935.773 130.941 932.376 130.092 928.456 130.092C924.666 130.092 921.269 130.941 918.264 132.64C915.258 134.339 912.906 136.691 911.208 139.696C909.64 142.701 908.856 146.295 908.856 150.476V213H879.456Z"/>
</mask>
<path d="M26.156 213L24.2614 212.359L23.3682 215H26.156V213ZM75.548 66.98V64.98H74.1132L73.6535 66.3391L75.548 66.98ZM115.924 66.98L117.819 66.3391L117.359 64.98H115.924V66.98ZM165.316 213V215H168.104L167.211 212.359L165.316 213ZM132.192 213L130.292 213.625L130.744 215H132.192V213ZM122.392 183.208L124.292 182.583L123.84 181.208H122.392V183.208ZM68.884 183.208V181.208H67.4365L66.9842 182.583L68.884 183.208ZM59.084 213V215H60.5315L60.9839 213.625L59.084 213ZM77.312 156.748L75.4109 156.127L74.5546 158.748H77.312V156.748ZM113.964 156.748V158.748H116.714L115.867 156.132L113.964 156.748ZM91.62 87.756V85.756H88.87L89.7173 88.3722L91.62 87.756ZM99.852 87.756L101.753 88.3771L102.609 85.756H99.852V87.756ZM28.0506 213.641L77.4426 67.6208L73.6535 66.3391L24.2614 212.359L28.0506 213.641ZM75.548 68.98L115.924 68.98V64.98L75.548 64.98V68.98ZM114.029 67.6208L163.421 213.641L167.211 212.359L117.819 66.3391L114.029 67.6208ZM165.316 211H132.192V215H165.316V211ZM134.092 212.375L124.292 182.583L120.492 183.833L130.292 213.625L134.092 212.375ZM122.392 181.208L68.884 181.208V185.208L122.392 185.208V181.208ZM66.9842 182.583L57.1841 212.375L60.9839 213.625L70.7839 183.833L66.9842 182.583ZM59.084 211H26.156V215H59.084V211ZM77.312 158.748L113.964 158.748V154.748L77.312 154.748V158.748ZM115.867 156.132L93.5227 87.1398L89.7173 88.3722L112.061 157.364L115.867 156.132ZM91.62 89.756H99.852V85.756H91.62V89.756ZM97.9509 87.1349L75.4109 156.127L79.2131 157.369L101.753 88.3771L97.9509 87.1349ZM178.335 252.2H176.335V254.2H178.335V252.2ZM178.335 105.984V103.984H176.335V105.984H178.335ZM205.775 105.984H207.775V103.984H205.775V105.984ZM205.775 126.368L203.94 127.163L207.775 126.368H205.775ZM203.227 120.488L201.556 119.388L200.962 120.291L201.392 121.283L203.227 120.488ZM217.535 108.14L218.398 109.944L218.406 109.94L218.414 109.936L217.535 108.14ZM266.143 111.08L267.176 109.367L267.176 109.367L266.143 111.08ZM285.743 131.268L284.005 132.257L284.011 132.269L285.743 131.268ZM285.743 187.716L284.005 186.727L283.999 186.737L283.993 186.747L285.743 187.716ZM266.339 207.904L265.306 206.191L265.306 206.191L266.339 207.904ZM217.927 211.432L217.111 213.258L217.134 213.268L217.157 213.278L217.927 211.432ZM203.031 199.476L201.449 198.252L200.532 199.437L201.411 200.65L203.031 199.476ZM207.735 193.4H209.735V187.55L206.153 192.176L207.735 193.4ZM207.735 252.2V254.2H209.735V252.2H207.735ZM249.287 185.168L250.308 186.888L250.308 186.888L249.287 185.168ZM259.087 174.78L257.319 173.844L257.319 173.844L259.087 174.78ZM259.087 144.4L257.319 145.336L257.325 145.347L257.331 145.358L259.087 144.4ZM249.287 134.012L248.227 135.708L248.246 135.72L248.266 135.732L249.287 134.012ZM220.671 133.816L219.65 132.096L219.638 132.103L219.626 132.111L220.671 133.816ZM211.067 144.204L209.299 143.268L209.288 143.289L209.278 143.31L211.067 144.204ZM211.067 174.78L209.278 175.674L209.288 175.695L209.299 175.716L211.067 174.78ZM220.671 185.168L219.626 186.873L219.638 186.881L219.65 186.888L220.671 185.168ZM180.335 252.2V105.984H176.335V252.2H180.335ZM178.335 107.984H205.775V103.984H178.335V107.984ZM203.775 105.984V126.368H207.775V105.984H203.775ZM207.61 125.573L205.062 119.693L201.392 121.283L203.94 127.163L207.61 125.573ZM204.897 121.588C208.217 116.547 212.702 112.668 218.398 109.944L216.672 106.336C210.346 109.361 205.292 113.715 201.556 119.388L204.897 121.588ZM218.414 109.936C224.244 107.083 230.927 105.632 238.507 105.632V101.632C230.407 101.632 223.108 103.186 216.656 106.344L218.414 109.936ZM238.507 105.632C248.357 105.632 257.208 108.027 265.11 112.793L267.176 109.367C258.613 104.203 249.04 101.632 238.507 101.632V105.632ZM265.11 112.793C273.044 117.578 279.336 124.056 284.005 132.257L287.481 130.279C282.48 121.493 275.706 114.513 267.176 109.367L265.11 112.793ZM284.011 132.269C288.656 140.303 290.995 149.36 290.995 159.492H294.995C294.995 148.717 292.499 138.959 287.474 130.267L284.011 132.269ZM290.995 159.492C290.995 169.488 288.658 178.552 284.005 186.727L287.481 188.705C292.497 179.893 294.995 170.141 294.995 159.492H290.995ZM283.993 186.747C279.457 194.937 273.235 201.409 265.306 206.191L267.372 209.617C275.907 204.469 282.62 197.481 287.492 188.685L283.993 186.747ZM265.306 206.191C257.412 210.952 248.433 213.352 238.311 213.352V217.352C249.095 217.352 258.801 214.786 267.372 209.617L265.306 206.191ZM238.311 213.352C231.237 213.352 224.706 212.09 218.696 209.586L217.157 213.278C223.691 216.001 230.75 217.352 238.311 217.352V213.352ZM218.743 209.606C212.908 206.999 208.224 203.233 204.65 198.302L201.411 200.65C205.416 206.173 210.663 210.377 217.111 213.258L218.743 209.606ZM204.612 200.7L209.316 194.624L206.153 192.176L201.449 198.252L204.612 200.7ZM205.735 193.4V252.2H209.735V193.4H205.735ZM207.735 250.2H178.335V254.2H207.735V250.2ZM234.783 190.892C240.583 190.892 245.779 189.577 250.308 186.888L248.266 183.448C244.432 185.725 239.959 186.892 234.783 186.892V190.892ZM250.308 186.888C254.816 184.211 258.336 180.472 260.854 175.716L257.319 173.844C255.133 177.973 252.12 181.16 248.266 183.448L250.308 186.888ZM260.854 175.716C263.38 170.946 264.615 165.52 264.615 159.492H260.615C260.615 164.962 259.498 169.729 257.319 173.844L260.854 175.716ZM264.615 159.492C264.615 153.465 263.38 148.095 260.842 143.442L257.331 145.358C259.497 149.329 260.615 154.02 260.615 159.492H264.615ZM260.854 143.464C258.336 138.708 254.816 134.969 250.308 132.292L248.266 135.732C252.12 138.02 255.133 141.207 257.319 145.336L260.854 143.464ZM250.347 132.316C245.812 129.482 240.602 128.092 234.783 128.092V132.092C239.94 132.092 244.398 133.315 248.227 135.708L250.347 132.316ZM234.783 128.092C229.225 128.092 224.163 129.416 219.65 132.096L221.692 135.536C225.541 133.25 229.888 132.092 234.783 132.092V128.092ZM219.626 132.111C215.252 134.792 211.809 138.528 209.299 143.268L212.834 145.14C215.029 140.995 217.988 137.806 221.716 135.521L219.626 132.111ZM209.278 143.31C206.897 148.071 205.735 153.481 205.735 159.492H209.735C209.735 154.004 210.793 149.223 212.856 145.098L209.278 143.31ZM205.735 159.492C205.735 165.503 206.897 170.913 209.278 175.674L212.856 173.886C210.793 169.761 209.735 164.98 209.735 159.492H205.735ZM209.299 175.716C211.809 180.456 215.252 184.192 219.626 186.873L221.716 183.463C217.988 181.178 215.029 177.989 212.834 173.844L209.299 175.716ZM219.65 186.888C224.163 189.568 229.225 190.892 234.783 190.892V186.892C229.888 186.892 225.541 185.734 221.692 183.448L219.65 186.888ZM310.214 252.2H308.214V254.2H310.214V252.2ZM310.214 105.984V103.984H308.214V105.984H310.214ZM337.654 105.984H339.654V103.984H337.654V105.984ZM337.654 126.368L335.818 127.163L339.654 126.368H337.654ZM335.106 120.488L333.435 119.388L332.841 120.291L333.27 121.283L335.106 120.488ZM349.414 108.14L350.277 109.944L350.285 109.94L350.293 109.936L349.414 108.14ZM398.022 111.08L399.055 109.367L399.055 109.367L398.022 111.08ZM417.622 131.268L415.883 132.257L415.89 132.269L417.622 131.268ZM417.622 187.716L415.883 186.727L415.878 186.737L415.872 186.747L417.622 187.716ZM398.218 207.904L397.185 206.191L397.185 206.191L398.218 207.904ZM349.806 211.432L348.99 213.258L349.013 213.268L349.036 213.278L349.806 211.432ZM334.91 199.476L333.328 198.252L332.411 199.437L333.29 200.65L334.91 199.476ZM339.614 193.4H341.614V187.55L338.032 192.176L339.614 193.4ZM339.614 252.2V254.2H341.614V252.2H339.614ZM381.166 185.168L382.187 186.888L382.187 186.888L381.166 185.168ZM390.966 174.78L389.198 173.844L389.198 173.844L390.966 174.78ZM390.966 144.4L389.198 145.336L389.204 145.347L389.21 145.358L390.966 144.4ZM381.166 134.012L380.106 135.708L380.125 135.72L380.145 135.732L381.166 134.012ZM352.55 133.816L351.529 132.096L351.516 132.103L351.504 132.111L352.55 133.816ZM342.946 144.204L341.178 143.268L341.167 143.289L341.157 143.31L342.946 144.204ZM342.946 174.78L341.157 175.674L341.167 175.695L341.178 175.716L342.946 174.78ZM352.55 185.168L351.504 186.873L351.516 186.881L351.529 186.888L352.55 185.168ZM312.214 252.2L312.214 105.984H308.214L308.214 252.2H312.214ZM310.214 107.984L337.654 107.984V103.984L310.214 103.984V107.984ZM335.654 105.984V126.368H339.654V105.984H335.654ZM339.489 125.573L336.941 119.693L333.27 121.283L335.818 127.163L339.489 125.573ZM336.776 121.588C340.096 116.547 344.581 112.668 350.277 109.944L348.551 106.336C342.225 109.361 337.171 113.715 333.435 119.388L336.776 121.588ZM350.293 109.936C356.123 107.083 362.806 105.632 370.386 105.632V101.632C362.286 101.632 354.987 103.186 348.534 106.344L350.293 109.936ZM370.386 105.632C380.236 105.632 389.087 108.027 396.989 112.793L399.055 109.367C390.492 104.203 380.919 101.632 370.386 101.632V105.632ZM396.989 112.793C404.923 117.578 411.215 124.056 415.883 132.257L419.36 130.279C414.359 121.493 407.585 114.513 399.055 109.367L396.989 112.793ZM415.89 132.269C420.535 140.303 422.874 149.36 422.874 159.492H426.874C426.874 148.717 424.378 138.959 419.353 130.267L415.89 132.269ZM422.874 159.492C422.874 169.488 420.537 178.552 415.883 186.727L419.36 188.705C424.376 179.893 426.874 170.141 426.874 159.492H422.874ZM415.872 186.747C411.336 194.937 405.114 201.409 397.185 206.191L399.251 209.617C407.786 204.469 414.499 197.481 419.371 188.685L415.872 186.747ZM397.185 206.191C389.291 210.952 380.312 213.352 370.19 213.352V217.352C380.974 217.352 390.68 214.786 399.251 209.617L397.185 206.191ZM370.19 213.352C363.116 213.352 356.585 212.09 350.575 209.586L349.036 213.278C355.57 216.001 362.629 217.352 370.19 217.352V213.352ZM350.621 209.606C344.786 206.999 340.103 203.233 336.529 198.302L333.29 200.65C337.294 206.173 342.542 210.377 348.99 213.258L350.621 209.606ZM336.491 200.7L341.195 194.624L338.032 192.176L333.328 198.252L336.491 200.7ZM337.614 193.4V252.2H341.614V193.4H337.614ZM339.614 250.2H310.214V254.2H339.614V250.2ZM366.662 190.892C372.462 190.892 377.658 189.577 382.187 186.888L380.145 183.448C376.31 185.725 371.837 186.892 366.662 186.892V190.892ZM382.187 186.888C386.695 184.211 390.215 180.472 392.733 175.716L389.198 173.844C387.012 177.973 383.999 181.16 380.145 183.448L382.187 186.888ZM392.733 175.716C395.258 170.946 396.494 165.52 396.494 159.492H392.494C392.494 164.962 391.377 169.729 389.198 173.844L392.733 175.716ZM396.494 159.492C396.494 153.465 395.259 148.095 392.721 143.442L389.21 145.358C391.376 149.329 392.494 154.02 392.494 159.492H396.494ZM392.733 143.464C390.215 138.708 386.695 134.969 382.187 132.292L380.145 135.732C383.999 138.02 387.012 141.207 389.198 145.336L392.733 143.464ZM382.226 132.316C377.691 129.482 372.481 128.092 366.662 128.092V132.092C371.818 132.092 376.277 133.315 380.106 135.708L382.226 132.316ZM366.662 128.092C361.103 128.092 356.042 129.416 351.529 132.096L353.571 135.536C357.42 133.25 361.766 132.092 366.662 132.092V128.092ZM351.504 132.111C347.131 134.792 343.687 138.528 341.178 143.268L344.713 145.14C346.908 140.995 349.867 137.806 353.595 135.521L351.504 132.111ZM341.157 143.31C338.776 148.071 337.614 153.481 337.614 159.492H341.614C341.614 154.004 342.672 149.223 344.734 145.098L341.157 143.31ZM337.614 159.492C337.614 165.503 338.776 170.913 341.157 175.674L344.734 173.886C342.672 169.761 341.614 164.98 341.614 159.492H337.614ZM341.178 175.716C343.687 180.456 347.131 184.192 351.504 186.873L353.595 183.463C349.867 181.178 346.908 177.989 344.713 173.844L341.178 175.716ZM351.529 186.888C356.042 189.568 361.103 190.892 366.662 190.892V186.892C361.766 186.892 357.42 185.734 353.571 183.448L351.529 186.888ZM442.093 213H440.093V215H442.093V213ZM442.093 105.984V103.984H440.093V105.984H442.093ZM469.533 105.984H471.533V103.984H469.533V105.984ZM469.533 131.66L467.763 132.591L471.533 131.66H469.533ZM467.573 127.936L465.637 127.431L465.442 128.181L465.803 128.867L467.573 127.936ZM479.137 109.708L480.147 111.434L480.153 111.43L480.159 111.427L479.137 109.708ZM504.813 104.808H506.813V102.808H504.813V104.808ZM504.813 130.288V132.288H506.813V130.288H504.813ZM478.157 136.952L479.549 138.387L479.56 138.377L479.571 138.366L478.157 136.952ZM471.493 213V215H473.493V213H471.493ZM444.093 213L444.093 105.984H440.093L440.093 213H444.093ZM442.093 107.984H469.533V103.984H442.093V107.984ZM467.533 105.984V131.66H471.533V105.984H467.533ZM471.302 130.729L469.342 127.005L465.803 128.867L467.763 132.591L471.302 130.729ZM469.508 128.441C471.792 119.684 475.433 114.193 480.147 111.434L478.126 107.982C472.125 111.495 468.057 118.156 465.637 127.431L469.508 128.441ZM480.159 111.427C485.29 108.373 491.392 106.808 498.541 106.808V102.808C490.793 102.808 483.959 104.51 478.114 107.989L480.159 111.427ZM498.541 106.808H504.813V102.808H498.541V106.808ZM502.813 104.808V130.288H506.813V104.808H502.813ZM504.813 128.288H495.601V132.288H504.813V128.288ZM495.601 128.288C487.966 128.288 481.615 130.665 476.742 135.538L479.571 138.366C483.584 134.353 488.861 132.288 495.601 132.288V128.288ZM476.764 135.517C471.829 140.306 469.493 147.028 469.493 155.376H473.493C473.493 147.783 475.598 142.222 479.549 138.387L476.764 135.517ZM469.493 155.376L469.493 213H473.493L473.493 155.376H469.493ZM471.493 211L442.093 211V215L471.493 215V211ZM541.806 208.1L540.828 209.845L540.839 209.851L541.806 208.1ZM521.03 188.304L519.315 189.333L519.324 189.349L519.334 189.364L521.03 188.304ZM521.03 130.68L519.334 129.62L519.328 129.63L519.322 129.639L521.03 130.68ZM541.806 110.884L540.839 109.133L540.828 109.139L541.806 110.884ZM620.206 130.68L618.498 131.721L618.504 131.73L618.51 131.74L620.206 130.68ZM620.206 188.304L618.503 187.256L618.498 187.263L620.206 188.304ZM599.626 208.1L600.604 209.845L599.626 208.1ZM584.73 185.168L583.685 183.463L583.672 183.47L583.66 183.478L584.73 185.168ZM594.138 174.78L592.37 173.844L592.36 173.865L592.349 173.886L594.138 174.78ZM594.138 144.4L592.349 145.294L592.365 145.326L592.382 145.358L594.138 144.4ZM584.73 134.012L583.621 135.676L583.652 135.697L583.685 135.717L584.73 134.012ZM556.702 134.012L557.747 135.717L557.767 135.705L557.786 135.693L556.702 134.012ZM547.098 144.4L545.33 143.464L545.325 143.474L545.32 143.484L547.098 144.4ZM547.098 174.78L545.309 175.674L545.32 175.695L545.33 175.716L547.098 174.78ZM556.702 185.168L555.657 186.873L555.657 186.873L556.702 185.168ZM570.814 213.352C560.548 213.352 551.214 211.011 542.773 206.349L540.839 209.851C549.907 214.859 559.912 217.352 570.814 217.352V213.352ZM542.784 206.355C534.452 201.685 527.774 195.321 522.726 187.244L519.334 189.364C524.739 198.012 531.912 204.846 540.828 209.845L542.784 206.355ZM522.745 187.275C517.851 179.118 515.386 169.875 515.386 159.492H511.386C511.386 170.538 514.017 180.504 519.315 189.333L522.745 187.275ZM515.386 159.492C515.386 148.973 517.853 139.737 522.738 131.721L519.322 129.639C514.015 138.348 511.386 148.32 511.386 159.492H515.386ZM522.726 131.74C527.774 123.663 534.452 117.299 542.784 112.629L540.828 109.139C531.912 114.138 524.739 120.972 519.334 129.62L522.726 131.74ZM542.773 112.635C551.214 107.973 560.548 105.632 570.814 105.632V101.632C559.912 101.632 549.907 104.125 540.839 109.133L542.773 112.635ZM570.814 105.632C581.08 105.632 590.344 107.973 598.648 112.629L600.604 109.139C591.66 104.125 581.716 101.632 570.814 101.632V105.632ZM598.648 112.629C606.975 117.297 613.583 123.654 618.498 131.721L621.914 129.639C616.637 120.98 609.525 114.14 600.604 109.139L598.648 112.629ZM618.51 131.74C623.518 139.754 626.046 148.983 626.046 159.492H630.046C630.046 148.311 627.347 138.332 621.902 129.62L618.51 131.74ZM626.046 159.492C626.046 169.865 623.521 179.101 618.503 187.256L621.909 189.352C627.344 180.52 630.046 170.548 630.046 159.492H626.046ZM618.498 187.263C613.583 195.33 606.975 201.687 598.648 206.355L600.604 209.845C609.525 204.844 616.637 198.004 621.914 189.345L618.498 187.263ZM598.648 206.355C590.344 211.011 581.08 213.352 570.814 213.352V217.352C581.716 217.352 591.66 214.858 600.604 209.845L598.648 206.355ZM570.814 190.892C576.49 190.892 581.513 189.573 585.8 186.858L583.66 183.478C580.107 185.728 575.852 186.892 570.814 186.892V190.892ZM585.775 186.873C590.159 184.186 593.546 180.436 595.927 175.674L592.349 173.886C590.287 178.01 587.402 181.185 583.685 183.463L585.775 186.873ZM595.906 175.716C598.431 170.946 599.666 165.52 599.666 159.492H595.666C595.666 164.962 594.549 169.729 592.37 173.844L595.906 175.716ZM599.666 159.492C599.666 153.465 598.431 148.095 595.894 143.442L592.382 145.358C594.549 149.329 595.666 154.02 595.666 159.492H599.666ZM595.927 143.506C593.546 138.744 590.159 134.994 585.775 132.307L583.685 135.717C587.402 137.995 590.287 141.17 592.349 145.294L595.927 143.506ZM585.839 132.348C581.547 129.486 576.51 128.092 570.814 128.092V132.092C575.832 132.092 580.073 133.311 583.621 135.676L585.839 132.348ZM570.814 128.092C565.116 128.092 560.027 129.487 555.618 132.331L557.786 135.693C561.478 133.311 565.797 132.092 570.814 132.092V128.092ZM555.657 132.307C551.283 134.988 547.84 138.724 545.33 143.464L548.866 145.336C551.06 141.191 554.02 138.002 557.747 135.717L555.657 132.307ZM545.32 143.484C542.928 148.127 541.766 153.483 541.766 159.492H545.766C545.766 154.003 546.825 149.297 548.876 145.316L545.32 143.484ZM541.766 159.492C541.766 165.503 542.929 170.913 545.309 175.674L548.887 173.886C546.825 169.761 545.766 164.98 545.766 159.492H541.766ZM545.33 175.716C547.84 180.456 551.283 184.192 555.657 186.873L557.747 183.463C554.02 181.178 551.06 177.989 548.866 173.844L545.33 175.716ZM555.657 186.873C560.061 189.572 565.136 190.892 570.814 190.892V186.892C565.777 186.892 561.444 185.729 557.747 183.463L555.657 186.873ZM658.498 211.628L659.306 209.799L659.306 209.799L658.498 211.628ZM645.562 201.044L643.877 202.121L643.883 202.132L643.891 202.142L645.562 201.044ZM645.17 168.508L646.885 169.537L646.891 169.526L646.897 169.516L645.17 168.508ZM657.714 156.748L656.756 154.992L656.748 154.997L656.739 155.002L657.714 156.748ZM679.078 150.084L679.382 152.061L679.39 152.06L679.397 152.058L679.078 150.084ZM711.81 144.792H713.81V142.443L711.491 142.818L711.81 144.792ZM711.81 166.352L712.162 168.321L713.81 168.026V166.352H711.81ZM684.37 171.252L684.018 169.283L684.01 169.285L684.001 169.286L684.37 171.252ZM674.766 175.368L676.037 176.912L676.064 176.89L676.089 176.868L674.766 175.368ZM675.158 191.048L676.344 189.438L676.344 189.438L675.158 191.048ZM705.538 182.228L703.801 181.236L703.795 181.246L703.79 181.257L705.538 182.228ZM703.774 132.248L702.457 133.753L702.472 133.766L702.488 133.779L703.774 132.248ZM676.922 132.444L675.764 130.813L675.752 130.822L675.739 130.831L676.922 132.444ZM668.298 143.812L667.44 145.619L669.382 146.541L670.162 144.537L668.298 143.812ZM644.778 132.64L642.889 131.983L642.3 133.677L643.92 134.447L644.778 132.64ZM654.774 117.156L653.402 115.701L654.774 117.156ZM671.238 107.16L670.548 105.283L670.548 105.283L671.238 107.16ZM716.122 108.532L716.975 106.723L716.975 106.723L716.122 108.532ZM732.194 122.252L730.513 123.335L730.527 123.357L730.541 123.379L732.194 122.252ZM738.074 213V215H740.074V213H738.074ZM710.634 213H708.634V215H710.634V213ZM710.634 195.752L710.286 193.782L708.634 194.074V195.752H710.634ZM717.298 194.576L718.962 195.685L721.557 191.794L716.95 192.606L717.298 194.576ZM706.91 206.336L708.153 207.903L708.169 207.89L708.185 207.877L706.91 206.336ZM694.17 213L693.586 211.087L693.561 211.095L693.537 211.103L694.17 213ZM678.49 213.352C670.99 213.352 664.614 212.144 659.306 209.799L657.69 213.457C663.619 216.077 670.571 217.352 678.49 217.352V213.352ZM659.306 209.799C653.995 207.452 650.002 204.159 647.233 199.946L643.891 202.142C647.132 207.076 651.763 210.839 657.69 213.457L659.306 209.799ZM647.247 199.967C644.476 195.63 643.054 190.463 643.054 184.384L639.054 184.384C639.054 191.111 640.637 197.05 643.877 202.121L647.247 199.967ZM643.054 184.384C643.054 178.689 644.35 173.761 646.885 169.537L643.455 167.479C640.502 172.401 639.054 178.058 639.054 184.384L643.054 184.384ZM646.897 169.516C649.431 165.173 653.325 161.488 658.689 158.494L656.739 155.002C650.865 158.28 646.397 162.435 643.442 167.5L646.897 169.516ZM658.672 158.504C664.165 155.507 671.05 153.343 679.382 152.061L678.774 148.107C670.119 149.439 662.761 151.717 656.756 154.992L658.672 158.504ZM679.397 152.058L712.129 146.766L711.491 142.818L678.759 148.11L679.397 152.058ZM709.81 144.792V166.352H713.81V144.792H709.81ZM711.458 164.383L684.018 169.283L684.722 173.221L712.162 168.321L711.458 164.383ZM684.001 169.286C679.611 170.109 676.027 171.588 673.443 173.868L676.089 176.868C677.947 175.228 680.766 173.963 684.739 173.218L684.001 169.286ZM673.495 173.824C670.708 176.119 669.434 179.427 669.434 183.404H673.434C673.434 180.325 674.381 178.276 676.037 176.912L673.495 173.824ZM669.434 183.404C669.434 187.262 670.943 190.426 673.972 192.658L676.344 189.438C674.408 188.011 673.434 186.079 673.434 183.404H669.434ZM673.972 192.658C676.859 194.785 680.366 195.792 684.37 195.792V191.792C681.056 191.792 678.423 190.969 676.344 189.438L673.972 192.658ZM684.37 195.792C689.501 195.792 694.099 194.68 698.102 192.392L696.118 188.92C692.803 190.813 688.909 191.792 684.37 191.792V195.792ZM698.102 192.392C702.063 190.129 705.141 187.061 707.286 183.199L703.79 181.257C702.015 184.451 699.474 187.002 696.118 188.92L698.102 192.392ZM707.274 183.22C709.542 179.252 710.674 174.924 710.674 170.272H706.674C706.674 174.244 705.715 177.887 703.801 181.236L707.274 183.22ZM710.674 170.272V142.44H706.674V170.272H710.674ZM710.674 142.44C710.674 137.763 708.752 133.817 705.06 130.717L702.488 133.779C705.329 136.167 706.674 139.015 706.674 142.44H710.674ZM705.091 130.743C701.488 127.59 696.654 126.132 690.838 126.132V130.132C695.998 130.132 699.788 131.418 702.457 133.753L705.091 130.743ZM690.838 126.132C685.22 126.132 680.172 127.685 675.764 130.813L678.079 134.075C681.774 131.453 686.003 130.132 690.838 130.132V126.132ZM675.739 130.831C671.5 133.94 668.396 138.043 666.434 143.087L670.162 144.537C671.859 140.173 674.504 136.697 678.105 134.057L675.739 130.831ZM669.156 142.005L645.636 130.833L643.92 134.447L667.44 145.619L669.156 142.005ZM646.667 133.297C648.653 127.586 651.81 122.7 656.146 118.611L653.402 115.701C648.592 120.236 645.084 125.672 642.889 131.983L646.667 133.297ZM656.146 118.611C660.506 114.5 665.757 111.304 671.928 109.037L670.548 105.283C663.914 107.72 658.188 111.188 653.402 115.701L656.146 118.611ZM671.928 109.037C678.086 106.775 684.841 105.632 692.21 105.632V101.632C684.422 101.632 677.195 102.841 670.548 105.283L671.928 109.037ZM692.21 105.632C700.983 105.632 708.653 107.22 715.269 110.341L716.975 106.723C709.74 103.31 701.469 101.632 692.21 101.632V105.632ZM715.269 110.341C721.889 113.464 726.945 117.799 730.513 123.335L733.875 121.169C729.864 114.945 724.206 110.134 716.975 106.723L715.269 110.341ZM730.541 123.379C734.211 128.76 736.074 135.087 736.074 142.44H740.074C740.074 134.374 738.017 127.242 733.846 121.125L730.541 123.379ZM736.074 142.44V213H740.074V142.44H736.074ZM738.074 211H710.634V215H738.074V211ZM712.634 213V195.752H708.634V213H712.634ZM710.982 197.722L717.646 196.546L716.95 192.606L710.286 193.782L710.982 197.722ZM715.634 193.467C712.59 198.032 709.254 201.8 705.635 204.795L708.185 207.877C712.145 204.6 715.734 200.528 718.962 195.685L715.634 193.467ZM705.667 204.769C702.077 207.616 698.055 209.722 693.586 211.087L694.754 214.913C699.693 213.404 704.164 211.066 708.153 207.903L705.667 204.769ZM693.537 211.103C689.067 212.593 684.058 213.352 678.49 213.352V217.352C684.421 217.352 689.865 216.543 694.802 214.897L693.537 211.103ZM783.155 208.1L782.146 209.827L782.162 209.836L782.177 209.845L783.155 208.1ZM762.771 187.912L761.045 188.921L761.051 188.931L761.056 188.941L762.771 187.912ZM762.771 130.876L764.491 131.897L764.498 131.885L762.771 130.876ZM783.155 110.884L784.133 112.629L784.133 112.629L783.155 110.884ZM834.311 107.748L833.563 109.602L833.563 109.602L834.311 107.748ZM851.755 119.312L850.323 120.707L850.332 120.717L850.341 120.726L851.755 119.312ZM862.143 136.56L862.935 138.397L864.592 137.683L864.052 135.961L862.143 136.56ZM836.663 147.536L834.771 148.182L835.469 150.228L837.455 149.373L836.663 147.536ZM827.255 134.796L826.079 136.413L826.091 136.422L826.102 136.43L827.255 134.796ZM798.443 133.816L797.398 132.111L797.386 132.118L797.373 132.126L798.443 133.816ZM789.035 144.204L787.268 143.268L787.257 143.289L787.247 143.31L789.035 144.204ZM789.035 174.78L787.247 175.674L787.257 175.695L787.268 175.716L789.035 174.78ZM798.443 185.168L797.373 186.858L797.386 186.866L797.398 186.873L798.443 185.168ZM827.451 184.188L828.628 185.805L828.628 185.805L827.451 184.188ZM836.663 171.448L837.467 169.616L835.474 168.743L834.771 170.802L836.663 171.448ZM862.143 182.62L864.052 183.217L864.587 181.507L862.947 180.788L862.143 182.62ZM851.951 199.476L850.519 198.081L850.519 198.081L851.951 199.476ZM834.507 211.236L835.256 213.09L835.272 213.084L835.287 213.078L834.507 211.236ZM812.163 213.352C801.762 213.352 792.434 211.009 784.133 206.355L782.177 209.845C791.125 214.861 801.136 217.352 812.163 217.352V213.352ZM784.165 206.373C775.964 201.579 769.411 195.09 764.486 186.883L761.056 188.941C766.324 197.72 773.361 204.69 782.146 209.827L784.165 206.373ZM764.498 186.903C759.725 178.739 757.323 169.553 757.323 159.296H753.323C753.323 170.207 755.887 180.099 761.045 188.921L764.498 186.903ZM757.323 159.296C757.323 149.039 759.725 139.924 764.491 131.897L761.052 129.855C755.887 138.554 753.323 148.385 753.323 159.296H757.323ZM764.498 131.885C769.283 123.701 775.818 117.29 784.133 112.629L782.177 109.139C773.245 114.147 766.191 121.064 761.045 129.867L764.498 131.885ZM784.133 112.629C792.434 107.975 801.762 105.632 812.163 105.632V101.632C801.136 101.632 791.125 104.123 782.177 109.139L784.133 112.629ZM812.163 105.632C819.9 105.632 827.026 106.963 833.563 109.602L835.06 105.894C828.008 103.045 820.368 101.632 812.163 101.632V105.632ZM833.563 109.602C840.115 112.249 845.693 115.952 850.323 120.707L853.188 117.917C848.149 112.741 842.097 108.735 835.06 105.894L833.563 109.602ZM850.341 120.726C854.943 125.328 858.239 130.796 860.235 137.159L864.052 135.961C861.867 128.996 858.237 122.966 853.17 117.898L850.341 120.726ZM861.352 134.723L835.872 145.699L837.455 149.373L862.935 138.397L861.352 134.723ZM838.556 146.89C836.597 141.151 833.211 136.552 828.409 133.162L826.102 136.43C830.186 139.312 833.072 143.206 834.771 148.182L838.556 146.89ZM828.432 133.179C823.751 129.774 818.3 128.092 812.163 128.092V132.092C817.525 132.092 822.136 133.546 826.079 136.413L828.432 133.179ZM812.163 128.092C806.726 128.092 801.786 129.421 797.398 132.111L799.489 135.521C803.202 133.245 807.409 132.092 812.163 132.092V128.092ZM797.373 132.126C793.135 134.811 789.769 138.544 787.268 143.268L790.803 145.14C793.006 140.978 795.912 137.787 799.514 135.506L797.373 132.126ZM787.247 143.31C784.866 148.071 783.703 153.481 783.703 159.492H787.703C787.703 154.004 788.762 149.223 790.824 145.098L787.247 143.31ZM783.703 159.492C783.703 165.503 784.866 170.913 787.247 175.674L790.824 173.886C788.762 169.761 787.703 164.98 787.703 159.492H783.703ZM787.268 175.716C789.769 180.44 793.135 184.173 797.373 186.858L799.514 183.478C795.912 181.197 793.006 178.006 790.803 173.844L787.268 175.716ZM797.398 186.873C801.786 189.563 806.726 190.892 812.163 190.892V186.892C807.409 186.892 803.202 185.739 799.489 183.463L797.398 186.873ZM812.163 190.892C818.42 190.892 823.939 189.216 828.628 185.805L826.275 182.571C822.34 185.432 817.666 186.892 812.163 186.892V190.892ZM828.628 185.805C833.294 182.412 836.602 177.816 838.556 172.094L834.771 170.802C833.066 175.795 830.233 179.692 826.275 182.571L828.628 185.805ZM835.86 173.28L861.34 184.452L862.947 180.788L837.467 169.616L835.86 173.28ZM860.235 182.023C858.373 187.979 855.146 193.328 850.519 198.081L853.384 200.871C858.426 195.693 861.994 189.805 864.052 183.217L860.235 182.023ZM850.519 198.081C845.882 202.843 840.293 206.616 833.728 209.394L835.287 213.078C842.311 210.106 848.352 206.04 853.384 200.871L850.519 198.081ZM833.759 209.382C827.226 212.02 820.035 213.352 812.163 213.352V217.352C820.494 217.352 828.2 215.94 835.256 213.09L833.759 209.382ZM879.456 213H877.456V215H879.456V213ZM879.456 64.628V62.628H877.456V64.628H879.456ZM908.856 64.628H910.856V62.628H908.856V64.628ZM908.856 127.152L907.256 128.352L910.856 133.152V127.152H908.856ZM905.328 122.448L903.463 121.725L903.062 122.76L903.728 123.648L905.328 122.448ZM917.284 108.336L918.244 110.09L918.251 110.086L918.259 110.082L917.284 108.336ZM958.052 108.728L957.068 110.469L957.076 110.474L957.084 110.478L958.052 108.728ZM972.36 123.036L970.61 124.004L970.614 124.012L970.619 124.02L972.36 123.036ZM977.456 213V215H979.456V213H977.456ZM948.056 213H946.056V215H948.056V213ZM945.508 139.696L943.735 140.621L943.75 140.651L943.767 140.68L945.508 139.696ZM938.648 132.64L937.63 134.362L937.647 134.372L937.664 134.381L938.648 132.64ZM918.264 132.64L917.28 130.899L917.28 130.899L918.264 132.64ZM911.208 139.696L909.467 138.712L909.45 138.741L909.435 138.771L911.208 139.696ZM908.856 213V215H910.856V213H908.856ZM881.456 213V64.628H877.456V213H881.456ZM879.456 66.628H908.856V62.628L879.456 62.628V66.628ZM906.856 64.628V127.152H910.856V64.628H906.856ZM910.456 125.952L906.928 121.248L903.728 123.648L907.256 128.352L910.456 125.952ZM907.193 123.171C909.523 117.162 913.211 112.847 918.244 110.09L916.323 106.582C910.38 109.836 906.098 114.929 903.463 121.725L907.193 123.171ZM918.259 110.082C923.535 107.137 929.723 105.632 936.884 105.632V101.632C929.149 101.632 922.27 103.263 916.309 106.59L918.259 110.082ZM936.884 105.632C944.7 105.632 951.406 107.269 957.068 110.469L959.036 106.987C952.677 103.393 945.27 101.632 936.884 101.632V105.632ZM957.084 110.478C962.896 113.693 967.394 118.192 970.61 124.004L974.11 122.068C970.531 115.598 965.49 110.557 959.02 106.978L957.084 110.478ZM970.619 124.02C973.819 129.682 975.456 136.387 975.456 144.204H979.456C979.456 135.818 977.695 128.411 974.101 122.052L970.619 124.02ZM975.456 144.204V213H979.456V144.204H975.456ZM977.456 211H948.056V215H977.456V211ZM950.056 213V150.476H946.056V213H950.056ZM950.056 150.476C950.056 146.022 949.15 142.075 947.249 138.712L943.767 140.68C945.263 143.328 946.056 146.567 946.056 150.476H950.056ZM947.281 138.771C945.531 135.416 942.967 132.784 939.632 130.899L937.664 134.381C940.339 135.893 942.349 137.965 943.735 140.621L947.281 138.771ZM939.665 130.918C936.432 129.008 932.671 128.092 928.456 128.092V132.092C932.081 132.092 935.114 132.875 937.63 134.362L939.665 130.918ZM928.456 128.092C924.356 128.092 920.614 129.014 917.28 130.899L919.248 134.381C921.924 132.868 924.977 132.092 928.456 132.092V128.092ZM917.28 130.899C913.958 132.776 911.344 135.39 909.467 138.712L912.949 140.68C914.469 137.991 916.559 135.901 919.248 134.381L917.28 130.899ZM909.435 138.771C907.687 142.121 906.856 146.047 906.856 150.476H910.856C910.856 146.543 911.593 143.282 912.981 140.621L909.435 138.771ZM906.856 150.476V213H910.856V150.476H906.856ZM908.856 211H879.456V215H908.856V211Z" fill="#777777" mask="url(#path-1-outside-1_790_2078)"/>
</svg>
