<svg width="22" height="66" viewBox="0 0 22 66" fill="none" xmlns="http://www.w3.org/2000/svg">
<path d="M12.144 44.968C12.144 45.536 12.036 46.048 11.82 46.504C11.604 46.952 11.32 47.328 10.968 47.632C10.616 47.928 10.236 48.14 9.828 48.268L9.576 47.572C10.184 47.348 10.648 47.016 10.968 46.576C11.288 46.128 11.448 45.596 11.448 44.98C11.448 44.572 11.38 44.216 11.244 43.912C11.108 43.6 10.916 43.356 10.668 43.18C10.42 43.004 10.128 42.916 9.792 42.916C9.328 42.916 8.968 43.048 8.712 43.312C8.456 43.568 8.272 43.904 8.16 44.32L7.68 45.952C7.488 46.616 7.18 47.108 6.756 47.428C6.324 47.74 5.836 47.896 5.292 47.896C4.82 47.896 4.408 47.784 4.056 47.56C3.696 47.328 3.416 47.016 3.216 46.624C3.016 46.232 2.916 45.788 2.916 45.292C2.916 44.772 3.016 44.308 3.216 43.9C3.408 43.484 3.664 43.136 3.984 42.856C4.296 42.568 4.644 42.364 5.028 42.244L5.28 42.928C4.728 43.128 4.312 43.436 4.032 43.852C3.744 44.268 3.6 44.744 3.6 45.28C3.6 45.632 3.668 45.948 3.804 46.228C3.94 46.508 4.132 46.728 4.38 46.888C4.628 47.048 4.92 47.128 5.256 47.128C5.664 47.128 6.012 47.012 6.3 46.78C6.588 46.548 6.816 46.16 6.984 45.616L7.416 44.152C7.608 43.512 7.904 43.02 8.304 42.676C8.696 42.324 9.18 42.148 9.756 42.148C10.228 42.148 10.644 42.268 11.004 42.508C11.356 42.748 11.636 43.084 11.844 43.516C12.044 43.94 12.144 44.424 12.144 44.968ZM12.144 37.3891C12.144 37.9971 12 38.5411 11.712 39.0211C11.416 39.4931 11.016 39.8691 10.512 40.1491C10.008 40.4211 9.44 40.5571 8.808 40.5571C8.168 40.5571 7.6 40.4211 7.104 40.1491C6.6 39.8691 6.204 39.4931 5.916 39.0211C5.628 38.5411 5.484 37.9971 5.484 37.3891C5.484 36.9891 5.552 36.6211 5.688 36.2851C5.824 35.9411 6.008 35.6371 6.24 35.3731C6.472 35.1091 6.74 34.9091 7.044 34.7731L7.38 35.4091C7.012 35.6011 6.72 35.8691 6.504 36.2131C6.288 36.5571 6.18 36.9491 6.18 37.3891C6.18 37.8451 6.292 38.2571 6.516 38.6251C6.74 38.9851 7.052 39.2731 7.452 39.4891C7.844 39.7051 8.296 39.8131 8.808 39.8131C9.32 39.8131 9.776 39.7051 10.176 39.4891C10.568 39.2731 10.876 38.9851 11.1 38.6251C11.324 38.2571 11.436 37.8451 11.436 37.3891C11.436 36.9491 11.328 36.5571 11.112 36.2131C10.896 35.8691 10.6 35.6011 10.224 35.4091L10.572 34.7731C10.868 34.9091 11.136 35.1091 11.376 35.3731C11.608 35.6371 11.796 35.9411 11.94 36.2851C12.076 36.6211 12.144 36.9891 12.144 37.3891ZM12 33.0509L5.628 33.0509L5.628 32.3309L6.816 32.3309L6.708 32.4629C6.348 32.3269 6.064 32.0949 5.856 31.7669C5.648 31.4309 5.544 31.0349 5.544 30.5789L5.544 30.1709L6.264 30.1709L6.264 30.6629C6.264 31.1829 6.432 31.5909 6.768 31.8869C7.096 32.1829 7.54 32.3309 8.1 32.3309L12 32.3309L12 33.0509ZM12.144 26.0205C12.144 26.6285 12 27.1765 11.712 27.6645C11.424 28.1525 11.028 28.5405 10.524 28.8285C10.012 29.1085 9.44 29.2485 8.808 29.2485C8.176 29.2485 7.608 29.1085 7.104 28.8285C6.6 28.5405 6.204 28.1565 5.916 27.6765C5.628 27.1885 5.484 26.6365 5.484 26.0205C5.484 25.4125 5.628 24.8645 5.916 24.3765C6.204 23.8885 6.6 23.5045 7.104 23.2245C7.6 22.9445 8.168 22.8045 8.808 22.8045C9.448 22.8045 10.02 22.9485 10.524 23.2365C11.028 23.5245 11.424 23.9125 11.712 24.4005C12 24.8805 12.144 25.4205 12.144 26.0205ZM11.436 26.0205C11.436 25.5645 11.324 25.1525 11.1 24.7845C10.868 24.4085 10.552 24.1125 10.152 23.8965C9.752 23.6805 9.304 23.5725 8.808 23.5725C8.312 23.5725 7.868 23.6805 7.476 23.8965C7.084 24.1125 6.772 24.4045 6.54 24.7725C6.308 25.1405 6.192 25.5565 6.192 26.0205C6.192 26.4845 6.308 26.9045 6.54 27.2805C6.764 27.6485 7.076 27.9405 7.476 28.1565C7.868 28.3725 8.312 28.4805 8.808 28.4805C9.304 28.4805 9.752 28.3725 10.152 28.1565C10.552 27.9325 10.868 27.6365 11.1 27.2685C11.324 26.9005 11.436 26.4845 11.436 26.0205ZM12 21.0743L2.916 21.0743L2.916 20.3543L12 20.3543L12 21.0743ZM12 18.379L2.916 18.379L2.916 17.659L12 17.659L12 18.379Z" fill="#777777"/>
<path d="M17.6464 65.3536C17.8417 65.5488 18.1583 65.5488 18.3536 65.3536L21.5355 62.1716C21.7308 61.9763 21.7308 61.6597 21.5355 61.4645C21.3403 61.2692 21.0237 61.2692 20.8284 61.4645L18 64.2929L15.1716 61.4645C14.9763 61.2692 14.6597 61.2692 14.4645 61.4645C14.2692 61.6597 14.2692 61.9763 14.4645 62.1716L17.6464 65.3536ZM17.5 2.18557e-08L17.5 65L18.5 65L18.5 -2.18557e-08L17.5 2.18557e-08Z" fill="#777777"/>
</svg>
