<svg width="640" height="322" viewBox="0 0 640 322" fill="none" xmlns="http://www.w3.org/2000/svg">
<mask id="path-1-inside-1_790_2102" fill="white">
<path fill-rule="evenodd" clip-rule="evenodd" d="M59.5576 22.0198C62.5969 16.2312 57.8206 10 51.2826 10H20C14.4772 10 10 14.4772 10 20V41.9731C10 47.4959 14.5122 52.0637 19.9471 51.0822C29.1482 49.4205 37.8436 45.469 45.1982 39.5209C51.1691 34.6918 56.0378 28.7234 59.5576 22.0198ZM19.9643 63.2661C14.5011 64.0754 10 68.4772 10 74.0001V302C10 307.523 14.4771 312 20 312H620C625.523 312 630 307.523 630 302V20C630 14.4772 625.523 10 620 10H91H84.6583C79.9289 10 75.9209 13.3439 74.4032 17.8232C70.2909 29.9592 62.8112 40.7442 52.7613 48.8722C43.2633 56.5538 31.9247 61.4944 19.9643 63.2661Z"/>
</mask>
<path fill-rule="evenodd" clip-rule="evenodd" d="M59.5576 22.0198C62.5969 16.2312 57.8206 10 51.2826 10H20C14.4772 10 10 14.4772 10 20V41.9731C10 47.4959 14.5122 52.0637 19.9471 51.0822C29.1482 49.4205 37.8436 45.469 45.1982 39.5209C51.1691 34.6918 56.0378 28.7234 59.5576 22.0198ZM19.9643 63.2661C14.5011 64.0754 10 68.4772 10 74.0001V302C10 307.523 14.4771 312 20 312H620C625.523 312 630 307.523 630 302V20C630 14.4772 625.523 10 620 10H91H84.6583C79.9289 10 75.9209 13.3439 74.4032 17.8232C70.2909 29.9592 62.8112 40.7442 52.7613 48.8722C43.2633 56.5538 31.9247 61.4944 19.9643 63.2661Z" fill="white"/>
<path d="M45.1982 39.5209L44.5694 38.7434L44.5694 38.7434L45.1982 39.5209ZM52.7613 48.8722L52.1324 48.0947L52.7613 48.8722ZM74.4032 17.8232L73.456 17.5022L74.4032 17.8232ZM19.9643 63.2661L19.8178 62.2769L19.9643 63.2661ZM20 11H51.2826V9H20V11ZM11 41.9731V20H9V41.9731H11ZM20.1249 52.0663C29.4902 50.3749 38.341 46.3529 45.827 40.2984L44.5694 38.7434C37.3462 44.5852 28.8061 48.4661 19.7694 50.0981L20.1249 52.0663ZM45.827 40.2984C51.9046 35.3831 56.8603 29.308 60.443 22.4847L58.6722 21.5549C55.2153 28.1388 50.4336 34.0006 44.5694 38.7434L45.827 40.2984ZM11 302V74.0001H9V302H11ZM620 311H20V313H620V311ZM629 20V302H631V20H629ZM91 11H620V9H91V11ZM84.6583 11H91V9H84.6583V11ZM73.456 17.5022C69.4043 29.4598 62.0345 40.0862 52.1324 48.0947L53.3901 49.6498C63.5878 41.4022 71.1776 30.4585 75.3503 18.1441L73.456 17.5022ZM52.1324 48.0947C42.7742 55.6633 31.6023 60.5312 19.8178 62.2769L20.1108 64.2553C32.2471 62.4575 43.7525 57.4444 53.3901 49.6498L52.1324 48.0947ZM84.6583 9C79.4331 9 75.0885 12.6846 73.456 17.5022L75.3503 18.1441C76.7533 14.0033 80.4247 11 84.6583 11V9ZM631 20C631 13.9249 626.075 9 620 9V11C624.971 11 629 15.0294 629 20H631ZM620 313C626.075 313 631 308.075 631 302H629C629 306.971 624.971 311 620 311V313ZM9 302C9 308.075 13.9249 313 20 313V311C15.0294 311 11 306.971 11 302H9ZM9 41.9731C9 47.9882 13.9539 53.1807 20.1249 52.0663L19.7694 50.0981C15.0706 50.9467 11 47.0036 11 41.9731H9ZM51.2826 11C54.2325 11 56.7566 12.405 58.1982 14.4209C59.6272 16.4192 60.0028 19.0207 58.6722 21.5549L60.443 22.4847C62.1517 19.2303 61.6588 15.8219 59.825 13.2575C58.0037 10.7106 54.8707 9 51.2826 9V11ZM11 74.0001C11 69.0598 15.0467 65.0055 20.1108 64.2553L19.8178 62.2769C13.9554 63.1453 9 67.8946 9 74.0001H11ZM20 9C13.9249 9 9 13.9249 9 20H11C11 15.0294 15.0294 11 20 11V9Z" fill="#777777" mask="url(#path-1-inside-1_790_2102)"/>
</svg>
