<svg width="304" height="170" viewBox="0 0 304 170" fill="none" xmlns="http://www.w3.org/2000/svg">
<mask id="path-1-inside-1_36_534" fill="white">
<path fill-rule="evenodd" clip-rule="evenodd" d="M49.5576 12.0198C52.5969 6.23122 47.8206 0 41.2826 0H10C4.47715 0 0 4.47716 0 10V31.9731C0 37.4959 4.51224 42.0637 9.94715 41.0822C19.1482 39.4205 27.8436 35.469 35.1982 29.5209C41.1691 24.6918 46.0378 18.7234 49.5576 12.0198ZM9.96431 53.2661C4.50106 54.0754 0 58.4772 0 64L0 159.5C0 165.023 4.47715 169.5 10 169.5H294C299.523 169.5 304 165.023 304 159.5V10C304 4.47715 299.523 0 294 0H81H74.6583C69.9289 0 65.9209 3.34394 64.4032 7.82316C60.2909 19.9592 52.8112 30.7442 42.7613 38.8722C33.2633 46.5538 21.9247 51.4944 9.96431 53.2661Z"/>
</mask>
<path fill-rule="evenodd" clip-rule="evenodd" d="M49.5576 12.0198C52.5969 6.23122 47.8206 0 41.2826 0H10C4.47715 0 0 4.47716 0 10V31.9731C0 37.4959 4.51224 42.0637 9.94715 41.0822C19.1482 39.4205 27.8436 35.469 35.1982 29.5209C41.1691 24.6918 46.0378 18.7234 49.5576 12.0198ZM9.96431 53.2661C4.50106 54.0754 0 58.4772 0 64L0 159.5C0 165.023 4.47715 169.5 10 169.5H294C299.523 169.5 304 165.023 304 159.5V10C304 4.47715 299.523 0 294 0H81H74.6583C69.9289 0 65.9209 3.34394 64.4032 7.82316C60.2909 19.9592 52.8112 30.7442 42.7613 38.8722C33.2633 46.5538 21.9247 51.4944 9.96431 53.2661Z" fill="white"/>
<path d="M35.1982 29.5209L34.5694 28.7434L34.5694 28.7434L35.1982 29.5209ZM42.7613 38.8722L42.1324 38.0947L42.7613 38.8722ZM64.4032 7.82316L63.456 7.50223L64.4032 7.82316ZM9.96431 53.2661L9.81777 52.2769L9.96431 53.2661ZM10 1H41.2826V-1H10V1ZM1 31.9731V10H-1V31.9731H1ZM10.1249 42.0663C19.4902 40.3749 28.341 36.3529 35.827 30.2984L34.5694 28.7434C27.3462 34.5852 18.8061 38.4661 9.76943 40.0981L10.1249 42.0663ZM35.827 30.2984C41.9046 25.3831 46.8603 19.308 50.443 12.4847L48.6722 11.5549C45.2153 18.1388 40.4336 24.0006 34.5694 28.7434L35.827 30.2984ZM1 159.5L1 64H-1L-1 159.5H1ZM294 168.5H10V170.5H294V168.5ZM303 10V159.5H305V10H303ZM81 1H294V-1H81V1ZM74.6583 1H81V-1H74.6583V1ZM63.456 7.50223C59.4043 19.4598 52.0345 30.0862 42.1324 38.0947L43.3901 39.6498C53.5878 31.4022 61.1776 20.4585 65.3503 8.14408L63.456 7.50223ZM42.1324 38.0947C32.7742 45.6633 21.6023 50.5312 9.81777 52.2769L10.1108 54.2553C22.2471 52.4575 33.7525 47.4444 43.3901 39.6498L42.1324 38.0947ZM74.6583 -1C69.4331 -1 65.0885 2.68457 63.456 7.50223L65.3503 8.14408C66.7533 4.00331 70.4247 1 74.6583 1V-1ZM305 10C305 3.92487 300.075 -1 294 -1V1C298.971 1 303 5.02944 303 10H305ZM294 170.5C300.075 170.5 305 165.575 305 159.5H303C303 164.471 298.971 168.5 294 168.5V170.5ZM-1 159.5C-1 165.575 3.92487 170.5 10 170.5V168.5C5.02944 168.5 1 164.471 1 159.5H-1ZM-1 31.9731C-1 37.9882 3.95386 43.1807 10.1249 42.0663L9.76943 40.0981C5.07061 40.9467 1 37.0036 1 31.9731H-1ZM41.2826 1C44.2325 1 46.7566 2.40499 48.1982 4.42086C49.6272 6.41924 50.0028 9.02069 48.6722 11.5549L50.443 12.4847C52.1517 9.23031 51.6588 5.82187 49.825 3.2575C48.0037 0.710622 44.8707 -1 41.2826 -1V1ZM1 64C1 59.0598 5.04671 55.0055 10.1108 54.2553L9.81777 52.2769C3.95541 53.1453 -1 57.8945 -1 64H1ZM10 -1C3.92487 -1 -1 3.92487 -1 10H1C1 5.02944 5.02944 1 10 1V-1Z" fill="#777777" mask="url(#path-1-inside-1_36_534)"/>
</svg>
