<svg width="64" height="64" viewBox="0 0 64 64" fill="none" xmlns="http://www.w3.org/2000/svg">
<circle cx="32" cy="32" r="32" fill="white"/>
<path d="M14.32 39C14.08 39 13.8267 38.9667 13.56 38.9C12.96 38.7533 12.5333 38.4133 12.28 37.88C12.1067 37.5333 12.0267 37.22 12.04 36.94C12.0667 36.6467 12.0867 36.4333 12.1 36.3C12.1133 36.2333 12.1267 36.1667 12.14 36.1C12.1667 36.02 12.1867 35.94 12.2 35.86C12.1067 35.9133 12.02 35.96 11.94 36C11.86 36.0267 11.7733 36.0533 11.68 36.08C11.4667 36.16 11.24 36.2 11 36.2C10.5867 36.2 10.2067 36.0867 9.86 35.86C9.51333 35.62 9.26667 35.2933 9.12 34.88C8.94667 34.3733 8.97333 33.8667 9.2 33.36C9.42667 32.8533 9.8 32.5067 10.32 32.32C10.3733 32.3067 10.4933 32.2533 10.68 32.16C10.8667 32.0533 11.1467 31.86 11.52 31.58C11.9067 31.3 12.4067 30.8933 13.02 30.36C13.5533 29.8933 14.0067 29.4867 14.38 29.14C14.7533 28.78 14.9467 28.5933 14.96 28.58C15.2133 28.3267 15.5067 28.1533 15.84 28.06C16.1867 27.9667 16.5333 27.9733 16.88 28.08C17.4533 28.2267 17.8667 28.56 18.12 29.08C18.2 29.2133 18.2667 29.42 18.32 29.7C18.3867 29.9667 18.3667 30.2733 18.26 30.62C18.26 30.6333 18.2533 30.6467 18.24 30.66C18.2267 30.6733 18.22 30.6933 18.22 30.72C18.2067 30.7467 18.1933 30.78 18.18 30.82C18.18 30.86 18.1733 30.8933 18.16 30.92C18.1333 31.0133 18.0933 31.1133 18.04 31.22C18 31.3267 17.9533 31.4533 17.9 31.6C17.8467 31.7333 17.7867 31.8933 17.72 32.08C17.6667 32.2533 17.6 32.4333 17.52 32.62C17.5467 32.6067 17.5733 32.5933 17.6 32.58C17.6267 32.5533 17.6533 32.5333 17.68 32.52C18.1467 32.2133 18.6467 32.12 19.18 32.24C19.7133 32.3467 20.1267 32.6333 20.42 33.1C20.74 33.5533 20.84 34.0533 20.72 34.6C20.6133 35.1467 20.3267 35.5733 19.86 35.88C19.54 36.0933 19.2333 36.3067 18.94 36.52C18.66 36.72 18.3733 36.9333 18.08 37.16C17.7467 37.4133 17.4333 37.6467 17.14 37.86C16.86 38.0733 16.5733 38.26 16.28 38.42C16.0667 38.54 15.8667 38.6333 15.68 38.7C15.4933 38.78 15.3067 38.8467 15.12 38.9C14.8267 38.9667 14.56 39 14.32 39ZM25.793 37.62C25.6063 37.62 25.3996 37.5867 25.173 37.52C24.493 37.36 24.0263 36.9467 23.773 36.28C23.5596 35.7733 23.5663 35.2 23.793 34.56C23.873 34.3333 23.993 34.0667 24.153 33.76C24.1796 33.7067 24.2063 33.6467 24.233 33.58C24.273 33.5133 24.313 33.4533 24.353 33.4C24.0596 33.56 23.7596 33.7333 23.453 33.92C23.1596 34.0933 22.8596 34.26 22.553 34.42C22.0196 34.7533 21.4996 35.06 20.993 35.34C20.4863 35.6067 20.0196 35.8333 19.593 36.02C19.0996 36.2467 18.593 36.26 18.073 36.06C17.553 35.86 17.1863 35.5067 16.973 35C16.7463 34.4933 16.733 33.9867 16.933 33.48C17.133 32.96 17.4863 32.5933 17.993 32.38C18.2996 32.2333 18.6796 32.04 19.133 31.8C19.5863 31.5467 20.0596 31.2733 20.553 30.98C21.1396 30.6333 21.7596 30.28 22.413 29.92C23.0663 29.5467 23.6996 29.2267 24.313 28.96C25.0196 28.6133 25.6796 28.38 26.293 28.26C26.7196 28.1533 27.1196 28.0933 27.493 28.08C27.8663 28.0667 28.2196 28.1067 28.553 28.2C29.2863 28.4133 29.7863 28.8667 30.053 29.56C30.253 30.0533 30.2796 30.5467 30.133 31.04C29.9996 31.52 29.8196 31.9733 29.593 32.4C29.633 32.3867 29.673 32.3733 29.713 32.36C29.7663 32.3467 29.813 32.3333 29.853 32.32C30.3596 32.1333 30.8596 32.16 31.353 32.4C31.8596 32.6267 32.2063 33 32.393 33.52C32.5796 34.04 32.5596 34.5533 32.333 35.06C32.1063 35.5533 31.7263 35.8933 31.193 36.08C30.5796 36.2933 30.0063 36.4933 29.473 36.68C28.953 36.8667 28.493 37.0267 28.093 37.16C27.5463 37.32 27.093 37.44 26.733 37.52C26.3863 37.5867 26.073 37.62 25.793 37.62ZM32.0503 39.12C31.9036 39.12 31.7636 39.1133 31.6303 39.1C31.5103 39.1 31.417 39.0933 31.3503 39.08C30.977 38.9733 30.6436 38.8 30.3503 38.56C30.057 38.3333 29.837 38.0533 29.6903 37.72C29.597 37.5333 29.537 37.3667 29.5103 37.22C29.4836 37.06 29.4703 36.9 29.4703 36.74C29.4703 36.5267 29.4903 36.32 29.5303 36.12C29.4103 36.04 29.2836 35.9533 29.1503 35.86C29.017 35.7533 28.917 35.6533 28.8503 35.56C28.5303 35.1333 28.3703 34.68 28.3703 34.2C28.3703 33.88 28.4436 33.5733 28.5903 33.28C28.7236 32.9867 28.9103 32.7333 29.1503 32.52C29.217 32.4533 29.3436 32.3267 29.5303 32.14C29.7036 31.9533 29.8636 31.7667 30.0103 31.58L30.4103 31.14C30.597 30.94 30.7903 30.7333 30.9903 30.52C31.1903 30.3067 31.377 30.1133 31.5503 29.94C31.7636 29.7533 31.9503 29.5933 32.1103 29.46C32.2703 29.3267 32.4103 29.22 32.5303 29.14C33.2236 28.7133 33.9436 28.58 34.6903 28.74C35.4636 28.94 35.977 29.3733 36.2303 30.04L36.2103 30.02C36.2636 30.14 36.3036 30.26 36.3303 30.38C36.3703 30.4867 36.397 30.6 36.4103 30.72C36.597 30.52 36.7636 30.3333 36.9103 30.16C37.057 29.9733 37.1903 29.8067 37.3103 29.66L37.5903 29.34C37.617 29.3133 37.637 29.2867 37.6503 29.26C37.677 29.22 37.6903 29.2 37.6903 29.2C37.997 28.84 38.357 28.5867 38.7703 28.44C39.197 28.28 39.6236 28.2533 40.0503 28.36C40.3436 28.44 40.6103 28.5867 40.8503 28.8C41.1036 29.0133 41.3103 29.26 41.4703 29.54C41.657 29.9667 41.737 30.3333 41.7103 30.64C41.697 30.9333 41.677 31.1333 41.6503 31.24C41.637 31.2933 41.617 31.3533 41.5903 31.42C41.577 31.4867 41.5636 31.5467 41.5503 31.6L41.4303 31.98L41.4103 32.04C41.677 32.0533 41.9436 32.1267 42.2103 32.26C42.477 32.38 42.697 32.5467 42.8703 32.76C43.0436 32.9733 43.1703 33.2067 43.2503 33.46C43.3436 33.7133 43.3903 33.96 43.3903 34.2C43.3903 34.8667 43.117 35.4333 42.5703 35.9L42.4703 36C42.1903 36.24 41.8903 36.48 41.5703 36.72C41.2636 36.96 40.937 37.1867 40.5903 37.4C39.8036 37.8667 39.0303 38.1 38.2703 38.1C37.9503 38.1 37.6303 38.0533 37.3103 37.96C37.0703 37.9067 36.8436 37.8133 36.6303 37.68C36.4303 37.5467 36.257 37.3933 36.1103 37.22C35.9503 37.3533 35.797 37.48 35.6503 37.6C35.5036 37.7067 35.337 37.82 35.1503 37.94H35.1703C34.8636 38.1533 34.5703 38.3333 34.2903 38.48C34.0103 38.6267 33.7436 38.7533 33.4903 38.86C33.277 38.9533 33.037 39.02 32.7703 39.06C32.517 39.1 32.277 39.12 32.0503 39.12ZM48.2148 37.62C48.0282 37.62 47.8215 37.5867 47.5948 37.52C46.9148 37.36 46.4482 36.9467 46.1948 36.28C45.9815 35.7733 45.9882 35.2 46.2148 34.56C46.2948 34.3333 46.4148 34.0667 46.5748 33.76C46.6015 33.7067 46.6282 33.6467 46.6548 33.58C46.6948 33.5133 46.7348 33.4533 46.7748 33.4C46.4815 33.56 46.1815 33.7333 45.8748 33.92C45.5815 34.0933 45.2815 34.26 44.9748 34.42C44.4415 34.7533 43.9215 35.06 43.4148 35.34C42.9082 35.6067 42.4415 35.8333 42.0148 36.02C41.5215 36.2467 41.0148 36.26 40.4948 36.06C39.9748 35.86 39.6082 35.5067 39.3948 35C39.1682 34.4933 39.1548 33.9867 39.3548 33.48C39.5548 32.96 39.9082 32.5933 40.4148 32.38C40.7215 32.2333 41.1015 32.04 41.5548 31.8C42.0082 31.5467 42.4815 31.2733 42.9748 30.98C43.5615 30.6333 44.1815 30.28 44.8348 29.92C45.4882 29.5467 46.1215 29.2267 46.7348 28.96C47.4415 28.6133 48.1015 28.38 48.7148 28.26C49.1415 28.1533 49.5415 28.0933 49.9148 28.08C50.2882 28.0667 50.6415 28.1067 50.9748 28.2C51.7082 28.4133 52.2082 28.8667 52.4748 29.56C52.6748 30.0533 52.7015 30.5467 52.5548 31.04C52.4215 31.52 52.2415 31.9733 52.0148 32.4C52.0548 32.3867 52.0948 32.3733 52.1348 32.36C52.1882 32.3467 52.2348 32.3333 52.2748 32.32C52.7815 32.1333 53.2815 32.16 53.7748 32.4C54.2815 32.6267 54.6282 33 54.8148 33.52C55.0015 34.04 54.9815 34.5533 54.7548 35.06C54.5282 35.5533 54.1482 35.8933 53.6148 36.08C53.0015 36.2933 52.4282 36.4933 51.8948 36.68C51.3748 36.8667 50.9148 37.0267 50.5148 37.16C49.9682 37.32 49.5148 37.44 49.1548 37.52C48.8082 37.5867 48.4948 37.62 48.2148 37.62Z" fill="black"/>
</svg>
