<svg width="763" height="267" viewBox="0 0 763 267" fill="none" xmlns="http://www.w3.org/2000/svg">
<mask id="path-1-outside-1_790_2079" maskUnits="userSpaceOnUse" x="30" y="62" width="705" height="156" fill="black">
<rect fill="white" x="30" y="62" width="705" height="156"/>
<path d="M106.32 215.352C95.8667 215.352 86.132 213.457 77.116 209.668C68.2307 205.879 60.456 200.587 53.792 193.792C47.128 186.997 41.9013 179.027 38.112 169.88C34.4533 160.733 32.624 150.737 32.624 139.892C32.624 129.047 34.4533 119.051 38.112 109.904C41.7707 100.627 46.932 92.656 53.596 85.992C60.26 79.1973 68.0347 73.9707 76.92 70.312C85.936 66.5227 95.736 64.628 106.32 64.628C116.904 64.628 126.377 66.392 134.74 69.92C143.233 73.448 150.42 78.152 156.3 84.032C162.18 89.912 166.361 96.4453 168.844 103.632L141.992 116.568C139.509 109.512 135.132 103.697 128.86 99.124C122.719 94.42 115.205 92.068 106.32 92.068C97.696 92.068 90.1173 94.0933 83.584 98.144C77.0507 102.195 71.9547 107.813 68.296 115C64.768 122.056 63.004 130.353 63.004 139.892C63.004 149.431 64.768 157.793 68.296 164.98C71.9547 172.167 77.0507 177.785 83.584 181.836C90.1173 185.887 97.696 187.912 106.32 187.912C115.205 187.912 122.719 185.625 128.86 181.052C135.132 176.348 139.509 170.468 141.992 163.412L168.844 176.348C166.361 183.535 162.18 190.068 156.3 195.948C150.42 201.828 143.233 206.532 134.74 210.06C126.377 213.588 116.904 215.352 106.32 215.352ZM224.598 215.352C215.974 215.352 208.592 213.523 202.45 209.864C196.44 206.075 191.866 200.848 188.73 194.184C185.594 187.52 184.026 179.745 184.026 170.86V105.984H213.426V168.508C213.426 172.559 214.21 176.152 215.778 179.288C217.477 182.293 219.829 184.645 222.834 186.344C225.84 188.043 229.237 188.892 233.026 188.892C236.946 188.892 240.344 188.043 243.218 186.344C246.224 184.645 248.51 182.293 250.078 179.288C251.777 176.152 252.626 172.559 252.626 168.508V105.984H282.026L282.026 213H254.586V191.832L256.154 196.536C253.672 202.939 249.621 207.708 244.002 210.844C238.514 213.849 232.046 215.352 224.598 215.352ZM303.514 213L303.514 64.628L332.914 64.628L332.914 213H303.514ZM405.976 214.176C393.04 214.176 382.979 210.713 375.792 203.788C368.736 196.732 365.208 186.932 365.208 174.388V131.464H347.176V105.984H348.156C353.644 105.984 357.826 104.612 360.7 101.868C363.706 99.124 365.208 95.008 365.208 89.52V81.68H394.608V105.984H419.696V131.464H394.608V172.428C394.608 176.087 395.262 179.157 396.568 181.64C397.875 183.992 399.9 185.756 402.644 186.932C405.388 188.108 408.786 188.696 412.836 188.696C413.751 188.696 414.796 188.631 415.972 188.5C417.148 188.369 418.39 188.239 419.696 188.108V213C417.736 213.261 415.515 213.523 413.032 213.784C410.55 214.045 408.198 214.176 405.976 214.176ZM475.341 215.352C466.717 215.352 459.334 213.523 453.193 209.864C447.182 206.075 442.609 200.848 439.473 194.184C436.337 187.52 434.769 179.745 434.769 170.86V105.984H464.169V168.508C464.169 172.559 464.953 176.152 466.521 179.288C468.219 182.293 470.571 184.645 473.577 186.344C476.582 188.043 479.979 188.892 483.769 188.892C487.689 188.892 491.086 188.043 493.961 186.344C496.966 184.645 499.253 182.293 500.821 179.288C502.519 176.152 503.369 172.559 503.369 168.508V105.984L532.769 105.984V213H505.329V191.832L506.897 196.536C504.414 202.939 500.363 207.708 494.745 210.844C489.257 213.849 482.789 215.352 475.341 215.352ZM554.257 213V105.984H581.697V131.66L579.737 127.936C582.089 118.92 585.943 112.844 591.301 109.708C596.789 106.441 603.257 104.808 610.705 104.808H616.977V130.288H607.765C600.578 130.288 594.763 132.509 590.321 136.952C585.878 141.264 583.657 147.405 583.657 155.376V213H554.257ZM681.41 215.352C670.042 215.352 660.177 212.869 651.814 207.904C643.451 202.808 636.983 196.013 632.41 187.52C627.837 179.027 625.55 169.619 625.55 159.296C625.55 148.581 627.902 139.043 632.606 130.68C637.441 122.317 643.909 115.719 652.01 110.884C660.111 106.049 669.258 103.632 679.45 103.632C687.943 103.632 695.457 105.004 701.99 107.748C708.523 110.361 714.011 114.085 718.454 118.92C723.027 123.755 726.49 129.373 728.842 135.776C731.194 142.048 732.37 148.908 732.37 156.356C732.37 158.447 732.239 160.537 731.978 162.628C731.847 164.588 731.521 166.287 730.998 167.724H650.834V146.164H714.338L700.422 156.356C701.729 150.737 701.663 145.772 700.226 141.46C698.789 137.017 696.241 133.555 692.582 131.072C689.054 128.459 684.677 127.152 679.45 127.152C674.354 127.152 669.977 128.393 666.318 130.876C662.659 133.359 659.915 137.017 658.086 141.852C656.257 146.687 655.538 152.567 655.93 159.492C655.407 165.503 656.126 170.795 658.086 175.368C660.046 179.941 663.051 183.535 667.102 186.148C671.153 188.631 676.053 189.872 681.802 189.872C687.029 189.872 691.471 188.827 695.13 186.736C698.919 184.645 701.859 181.771 703.95 178.112L727.47 189.284C725.379 194.511 722.047 199.084 717.474 203.004C713.031 206.924 707.739 209.995 701.598 212.216C695.457 214.307 688.727 215.352 681.41 215.352Z"/>
</mask>
<path d="M77.116 209.668L76.3314 211.508L76.3411 211.512L77.116 209.668ZM53.792 193.792L55.2199 192.392L55.2199 192.392L53.792 193.792ZM38.112 169.88L36.255 170.623L36.2596 170.634L36.2643 170.645L38.112 169.88ZM38.112 109.904L39.969 110.647L39.9725 110.638L38.112 109.904ZM53.596 85.992L55.0102 87.4062L55.0171 87.3993L55.0239 87.3924L53.596 85.992ZM76.92 70.312L77.6815 72.1613L77.6882 72.1586L77.6949 72.1558L76.92 70.312ZM134.74 69.92L133.963 71.7628L133.973 71.767L134.74 69.92ZM168.844 103.632L169.712 105.434L171.316 104.661L170.734 102.979L168.844 103.632ZM141.992 116.568L140.105 117.232L140.847 119.34L142.86 118.37L141.992 116.568ZM128.86 99.124L127.644 100.712L127.663 100.726L127.682 100.74L128.86 99.124ZM83.584 98.144L84.6379 99.8438L84.6379 99.8438L83.584 98.144ZM68.296 115L66.5137 114.093L66.5104 114.099L66.5071 114.106L68.296 115ZM68.296 164.98L66.5007 165.861L66.5071 165.874L66.5137 165.887L68.296 164.98ZM83.584 181.836L84.6379 180.136L84.6379 180.136L83.584 181.836ZM128.86 181.052L130.055 182.656L130.06 182.652L128.86 181.052ZM141.992 163.412L142.86 161.61L140.847 160.64L140.105 162.748L141.992 163.412ZM168.844 176.348L170.734 177.001L171.316 175.319L169.712 174.546L168.844 176.348ZM156.3 195.948L154.886 194.534L154.886 194.534L156.3 195.948ZM134.74 210.06L133.973 208.213L133.963 208.217L134.74 210.06ZM106.32 213.352C96.1142 213.352 86.645 211.503 77.8909 207.824L76.3411 211.512C85.619 215.411 95.6191 217.352 106.32 217.352V213.352ZM77.9006 207.828C69.2527 204.14 61.6975 198.996 55.2199 192.392L52.3641 195.192C59.2145 202.177 67.2086 207.617 76.3314 211.508L77.9006 207.828ZM55.2199 192.392C48.7424 185.787 43.6551 178.034 39.9597 169.115L36.2643 170.645C40.1476 180.019 45.5136 188.208 52.3641 195.192L55.2199 192.392ZM39.969 169.137C36.4139 160.25 34.624 150.509 34.624 139.892H30.624C30.624 150.966 32.4928 161.217 36.255 170.623L39.969 169.137ZM34.624 139.892C34.624 129.275 36.4139 119.534 39.969 110.647L36.255 109.161C32.4928 118.567 30.624 128.818 30.624 139.892H34.624ZM39.9725 110.638C43.5366 101.6 48.5512 93.8652 55.0102 87.4062L52.1818 84.5778C45.3128 91.4468 40.0047 99.653 36.2515 109.17L39.9725 110.638ZM55.0239 87.3924C61.4965 80.7928 69.0439 75.718 77.6815 72.1613L76.1585 68.4626C67.0254 72.2233 59.0235 77.6018 52.1681 84.5916L55.0239 87.3924ZM77.6949 72.1558C86.446 68.4778 95.98 66.628 106.32 66.628V62.628C95.492 62.628 85.426 64.5675 76.1451 68.4682L77.6949 72.1558ZM106.32 66.628C116.681 66.628 125.883 68.3543 133.963 71.7627L135.517 68.0773C126.871 64.4297 117.127 62.628 106.32 62.628V66.628ZM133.973 71.767C142.25 75.2052 149.21 79.7702 154.886 85.4462L157.714 82.6178C151.63 76.5338 144.217 71.6908 135.507 68.073L133.973 71.767ZM154.886 85.4462C160.572 91.1322 164.579 97.411 166.954 104.285L170.734 102.979C168.144 95.4797 163.788 88.6918 157.714 82.6178L154.886 85.4462ZM167.976 101.83L141.124 114.766L142.86 118.37L169.712 105.434L167.976 101.83ZM143.879 115.904C141.256 108.451 136.624 102.31 130.038 97.508L127.682 100.74C133.64 105.084 137.762 110.573 140.105 117.232L143.879 115.904ZM130.076 97.5362C123.535 92.5261 115.577 90.068 106.32 90.068V94.068C114.834 94.068 121.902 96.3138 127.644 100.712L130.076 97.5362ZM106.32 90.068C97.3703 90.068 89.4174 92.1741 82.5301 96.4442L84.6379 99.8438C90.8173 96.0126 98.0217 94.068 106.32 94.068V90.068ZM82.5301 96.4442C75.6706 100.697 70.3297 106.597 66.5137 114.093L70.0783 115.907C73.5797 109.03 78.4308 103.692 84.6379 99.8438L82.5301 96.4442ZM66.5071 114.106C62.8142 121.491 61.004 130.107 61.004 139.892H65.004C65.004 130.6 66.7218 122.621 70.0849 115.894L66.5071 114.106ZM61.004 139.892C61.004 149.678 62.8146 158.353 66.5007 165.861L70.0913 164.099C66.7214 157.234 65.004 149.183 65.004 139.892H61.004ZM66.5137 165.887C70.3297 173.383 75.6706 179.283 82.5301 183.536L84.6379 180.136C78.4308 176.288 73.5797 170.95 70.0783 164.073L66.5137 165.887ZM82.5301 183.536C89.4174 187.806 97.3703 189.912 106.32 189.912V185.912C98.0217 185.912 90.8173 183.967 84.6379 180.136L82.5301 183.536ZM106.32 189.912C115.564 189.912 123.515 187.526 130.055 182.656L127.665 179.448C121.923 183.724 114.847 185.912 106.32 185.912V189.912ZM130.06 182.652C136.632 177.723 141.258 171.523 143.879 164.076L140.105 162.748C137.76 169.413 133.632 174.973 127.66 179.452L130.06 182.652ZM141.124 165.214L167.976 178.15L169.712 174.546L142.86 161.61L141.124 165.214ZM166.954 175.695C164.579 182.569 160.572 188.848 154.886 194.534L157.714 197.362C163.788 191.288 168.144 184.5 170.734 177.001L166.954 175.695ZM154.886 194.534C149.21 200.21 142.25 204.775 133.973 208.213L135.507 211.907C144.217 208.289 151.63 203.446 157.714 197.362L154.886 194.534ZM133.963 208.217C125.883 211.626 116.681 213.352 106.32 213.352V217.352C117.127 217.352 126.871 215.55 135.517 211.903L133.963 208.217ZM202.45 209.864L201.384 211.556L201.405 211.569L201.427 211.582L202.45 209.864ZM188.73 194.184L186.921 195.036L186.921 195.036L188.73 194.184ZM184.026 105.984V103.984H182.026V105.984H184.026ZM213.426 105.984H215.426V103.984H213.426V105.984ZM215.778 179.288L213.989 180.182L214.012 180.228L214.037 180.272L215.778 179.288ZM222.834 186.344L223.818 184.603L223.818 184.603L222.834 186.344ZM243.218 186.344L242.234 184.603L242.217 184.612L242.201 184.622L243.218 186.344ZM250.078 179.288L248.32 178.335L248.312 178.349L248.305 178.363L250.078 179.288ZM252.626 105.984V103.984H250.626V105.984H252.626ZM282.026 105.984H284.026V103.984H282.026V105.984ZM282.026 213V215H284.026V213H282.026ZM254.586 213H252.586V215H254.586V213ZM254.586 191.832L256.484 191.2L252.586 191.832H254.586ZM256.154 196.536L258.019 197.259L258.28 196.587L258.052 195.904L256.154 196.536ZM244.002 210.844L244.963 212.598L244.97 212.594L244.977 212.59L244.002 210.844ZM224.598 213.352C216.26 213.352 209.247 211.585 203.474 208.146L201.427 211.582C207.936 215.46 215.689 217.352 224.598 217.352V213.352ZM203.517 208.172C197.841 204.594 193.52 199.664 190.54 193.332L186.921 195.036C190.213 202.032 195.038 207.555 201.384 211.556L203.517 208.172ZM190.54 193.332C187.553 186.984 186.026 179.511 186.026 170.86H182.026C182.026 179.98 183.636 188.056 186.921 195.036L190.54 193.332ZM186.026 170.86V105.984H182.026V170.86H186.026ZM184.026 107.984H213.426V103.984H184.026V107.984ZM211.426 105.984V168.508H215.426V105.984H211.426ZM211.426 168.508C211.426 172.821 212.263 176.729 213.989 180.182L217.567 178.394C216.158 175.575 215.426 172.296 215.426 168.508H211.426ZM214.037 180.272C215.915 183.594 218.528 186.208 221.85 188.085L223.818 184.603C221.13 183.083 219.039 180.993 217.519 178.304L214.037 180.272ZM221.85 188.085C225.185 189.97 228.927 190.892 233.026 190.892V186.892C229.547 186.892 226.495 186.116 223.818 184.603L221.85 188.085ZM233.026 190.892C237.241 190.892 241.003 189.976 244.236 188.066L242.201 184.622C239.684 186.109 236.651 186.892 233.026 186.892V190.892ZM244.202 188.085C247.538 186.2 250.101 183.568 251.852 180.213L248.305 178.363C246.919 181.019 244.91 183.091 242.234 184.603L244.202 188.085ZM251.837 180.241C253.714 176.774 254.626 172.846 254.626 168.508H250.626C250.626 172.272 249.84 175.53 248.32 178.335L251.837 180.241ZM254.626 168.508V105.984H250.626V168.508H254.626ZM252.626 107.984H282.026V103.984H252.626V107.984ZM280.026 105.984L280.026 213H284.026L284.026 105.984H280.026ZM282.026 211H254.586V215H282.026V211ZM256.586 213V191.832H252.586V213H256.586ZM252.689 192.464L254.257 197.168L258.052 195.904L256.484 191.2L252.689 192.464ZM254.29 195.813C251.963 201.813 248.211 206.205 243.028 209.098L244.977 212.59C251.031 209.211 255.38 204.065 258.019 197.259L254.29 195.813ZM243.042 209.09C237.9 211.906 231.774 213.352 224.598 213.352V217.352C232.318 217.352 239.129 215.793 244.963 212.598L243.042 209.09ZM303.514 213H301.514V215H303.514V213ZM303.514 64.628V62.628H301.514V64.628H303.514ZM332.914 64.628H334.914V62.628H332.914V64.628ZM332.914 213V215H334.914V213H332.914ZM305.514 213L305.514 64.628H301.514L301.514 213H305.514ZM303.514 66.628L332.914 66.628V62.628L303.514 62.628V66.628ZM330.914 64.628L330.914 213H334.914L334.914 64.628H330.914ZM332.914 211H303.514V215H332.914V211ZM375.792 203.788L374.378 205.202L374.391 205.215L374.405 205.228L375.792 203.788ZM365.208 131.464H367.208V129.464H365.208V131.464ZM347.176 131.464H345.176V133.464H347.176V131.464ZM347.176 105.984V103.984H345.176V105.984H347.176ZM360.7 101.868L359.352 100.391L359.336 100.406L359.319 100.421L360.7 101.868ZM365.208 81.68V79.68H363.208V81.68H365.208ZM394.608 81.68H396.608V79.68H394.608V81.68ZM394.608 105.984H392.608V107.984H394.608V105.984ZM419.696 105.984L421.696 105.984V103.984L419.696 103.984V105.984ZM419.696 131.464V133.464H421.696V131.464H419.696ZM394.608 131.464V129.464H392.608V131.464H394.608ZM396.568 181.64L394.799 182.571L394.809 182.592L394.82 182.611L396.568 181.64ZM402.644 186.932L403.432 185.094L403.432 185.094L402.644 186.932ZM415.972 188.5L416.193 190.488L416.193 190.488L415.972 188.5ZM419.696 188.108H421.696L421.696 185.898L419.497 186.118L419.696 188.108ZM419.696 213L419.961 214.982L421.696 214.751V213H419.696ZM413.032 213.784L412.823 211.795L412.823 211.795L413.032 213.784ZM405.976 212.176C393.399 212.176 383.894 208.817 377.18 202.348L374.405 205.228C382.065 212.61 392.682 216.176 405.976 216.176V212.176ZM377.207 202.374C370.616 195.784 367.208 186.545 367.208 174.388H363.208C363.208 187.319 366.856 197.68 374.378 205.202L377.207 202.374ZM367.208 174.388V131.464H363.208V174.388H367.208ZM365.208 129.464H347.176V133.464H365.208V129.464ZM349.176 131.464V105.984H345.176V131.464H349.176ZM347.176 107.984H348.156V103.984H347.176V107.984ZM348.156 107.984C353.96 107.984 358.712 106.531 362.081 103.315L359.319 100.421C356.939 102.693 353.329 103.984 348.156 103.984V107.984ZM362.049 103.345C365.599 100.103 367.208 95.3655 367.208 89.52H363.208C363.208 94.6505 361.812 98.1448 359.352 100.391L362.049 103.345ZM367.208 89.52V81.68H363.208V89.52H367.208ZM365.208 83.68H394.608V79.68H365.208V83.68ZM392.608 81.68V105.984H396.608V81.68H392.608ZM394.608 107.984H419.696V103.984H394.608V107.984ZM417.696 105.984V131.464H421.696V105.984L417.696 105.984ZM419.696 129.464H394.608V133.464H419.696V129.464ZM392.608 131.464V172.428H396.608V131.464H392.608ZM392.608 172.428C392.608 176.316 393.302 179.728 394.799 182.571L398.338 180.709C397.222 178.587 396.608 175.858 396.608 172.428H392.608ZM394.82 182.611C396.366 185.393 398.752 187.44 401.857 188.77L403.432 185.094C401.048 184.072 399.385 182.591 398.317 180.669L394.82 182.611ZM401.857 188.77C404.921 190.084 408.606 190.696 412.836 190.696L412.836 186.696C408.966 186.696 405.855 186.132 403.432 185.094L401.857 188.77ZM412.836 190.696C413.843 190.696 414.964 190.624 416.193 190.488L415.752 186.512C414.629 186.637 413.66 186.696 412.836 186.696L412.836 190.696ZM416.193 190.488C417.361 190.358 418.595 190.228 419.895 190.098L419.497 186.118C418.184 186.249 416.936 186.381 415.752 186.512L416.193 190.488ZM417.696 188.108V213H421.696V188.108H417.696ZM419.432 211.018C417.494 211.276 415.292 211.535 412.823 211.795L413.242 215.773C415.738 215.51 417.978 215.247 419.961 214.982L419.432 211.018ZM412.823 211.795C410.402 212.05 408.12 212.176 405.976 212.176V216.176C408.276 216.176 410.698 216.041 413.242 215.773L412.823 211.795ZM453.193 209.864L452.126 211.556L452.147 211.569L452.169 211.582L453.193 209.864ZM439.473 194.184L437.663 195.036L437.663 195.036L439.473 194.184ZM434.769 105.984V103.984H432.769V105.984H434.769ZM464.169 105.984H466.169V103.984H464.169V105.984ZM466.521 179.288L464.732 180.182L464.754 180.228L464.779 180.272L466.521 179.288ZM473.577 186.344L474.561 184.603L474.561 184.603L473.577 186.344ZM493.961 186.344L492.976 184.603L492.96 184.612L492.943 184.622L493.961 186.344ZM500.821 179.288L499.062 178.335L499.055 178.349L499.047 178.363L500.821 179.288ZM503.369 105.984V103.984H501.369V105.984H503.369ZM532.769 105.984H534.769V103.984H532.769V105.984ZM532.769 213V215H534.769V213H532.769ZM505.329 213H503.329V215H505.329V213ZM505.329 191.832L507.226 191.2L503.329 191.832H505.329ZM506.897 196.536L508.761 197.259L509.022 196.587L508.794 195.904L506.897 196.536ZM494.745 210.844L495.705 212.598L495.712 212.594L495.719 212.59L494.745 210.844ZM475.341 213.352C467.002 213.352 459.99 211.585 454.216 208.146L452.169 211.582C458.678 215.46 466.431 217.352 475.341 217.352V213.352ZM454.259 208.172C448.583 204.594 444.262 199.664 441.282 193.332L437.663 195.036C440.955 202.032 445.78 207.555 452.126 211.556L454.259 208.172ZM441.282 193.332C438.295 186.984 436.769 179.511 436.769 170.86H432.769C432.769 179.98 434.378 188.056 437.663 195.036L441.282 193.332ZM436.769 170.86V105.984H432.769V170.86H436.769ZM434.769 107.984H464.169V103.984H434.769V107.984ZM462.169 105.984V168.508L466.169 168.508V105.984H462.169ZM462.169 168.508C462.169 172.821 463.005 176.729 464.732 180.182L468.309 178.394C466.9 175.575 466.169 172.296 466.169 168.508L462.169 168.508ZM464.779 180.272C466.657 183.594 469.271 186.208 472.592 188.085L474.561 184.603C471.872 183.083 469.781 180.993 468.262 178.304L464.779 180.272ZM472.592 188.085C475.927 189.97 479.669 190.892 483.769 190.892V186.892C480.29 186.892 477.237 186.116 474.561 184.603L472.592 188.085ZM483.769 190.892C487.984 190.892 491.745 189.976 494.978 188.066L492.943 184.622C490.427 186.109 487.393 186.892 483.769 186.892V190.892ZM494.945 188.085C498.28 186.2 500.844 183.568 502.594 180.213L499.047 178.363C497.662 181.019 495.652 183.091 492.976 184.603L494.945 188.085ZM502.579 180.241C504.457 176.774 505.369 172.846 505.369 168.508H501.369C501.369 172.272 500.582 175.53 499.062 178.335L502.579 180.241ZM505.369 168.508V105.984H501.369V168.508H505.369ZM503.369 107.984L532.769 107.984V103.984L503.369 103.984V107.984ZM530.769 105.984V213H534.769V105.984H530.769ZM532.769 211H505.329V215H532.769V211ZM507.329 213V191.832H503.329V213H507.329ZM503.431 192.464L504.999 197.168L508.794 195.904L507.226 191.2L503.431 192.464ZM505.032 195.813C502.705 201.813 498.953 206.205 493.77 209.098L495.719 212.59C501.773 209.211 506.122 204.065 508.761 197.259L505.032 195.813ZM493.784 209.09C488.642 211.906 482.517 213.352 475.341 213.352V217.352C483.06 217.352 489.871 215.793 495.705 212.598L493.784 209.09ZM554.257 213H552.257V215H554.257V213ZM554.257 105.984V103.984H552.257V105.984H554.257ZM581.697 105.984H583.697V103.984H581.697V105.984ZM581.697 131.66L579.927 132.591L583.697 131.66H581.697ZM579.737 127.936L577.801 127.431L577.606 128.181L577.967 128.867L579.737 127.936ZM591.301 109.708L592.311 111.434L592.317 111.43L592.324 111.427L591.301 109.708ZM616.977 104.808H618.977V102.808H616.977V104.808ZM616.977 130.288V132.288H618.977V130.288H616.977ZM590.321 136.952L591.714 138.387L591.724 138.377L591.735 138.366L590.321 136.952ZM583.657 213V215H585.657V213H583.657ZM556.257 213V105.984H552.257V213H556.257ZM554.257 107.984H581.697V103.984H554.257V107.984ZM579.697 105.984V131.66H583.697V105.984H579.697ZM583.466 130.729L581.506 127.005L577.967 128.867L579.927 132.591L583.466 130.729ZM581.672 128.441C583.956 119.684 587.597 114.193 592.311 111.434L590.29 107.982C584.289 111.495 580.221 118.156 577.801 127.431L581.672 128.441ZM592.324 111.427C597.454 108.373 603.556 106.808 610.705 106.808V102.808C602.957 102.808 596.123 104.51 590.278 107.989L592.324 111.427ZM610.705 106.808H616.977V102.808H610.705V106.808ZM614.977 104.808V130.288H618.977V104.808H614.977ZM616.977 128.288H607.765V132.288H616.977V128.288ZM607.765 128.288C600.13 128.288 593.779 130.665 588.906 135.538L591.735 138.366C595.748 134.353 601.025 132.288 607.765 132.288V128.288ZM588.928 135.517C583.994 140.306 581.657 147.028 581.657 155.376H585.657C585.657 147.783 587.762 142.222 591.714 138.387L588.928 135.517ZM581.657 155.376V213H585.657V155.376H581.657ZM583.657 211H554.257V215H583.657V211ZM651.814 207.904L650.773 209.612L650.783 209.618L650.793 209.624L651.814 207.904ZM632.41 187.52L634.171 186.572L634.171 186.572L632.41 187.52ZM632.606 130.68L630.875 129.679L630.869 129.689L630.863 129.699L632.606 130.68ZM652.01 110.884L653.035 112.601L653.035 112.601L652.01 110.884ZM701.99 107.748L701.216 109.592L701.231 109.599L701.247 109.605L701.99 107.748ZM718.454 118.92L716.981 120.273L716.991 120.284L717.001 120.294L718.454 118.92ZM728.842 135.776L726.965 136.466L726.969 136.478L728.842 135.776ZM731.978 162.628L729.993 162.38L729.986 162.437L729.982 162.495L731.978 162.628ZM730.998 167.724V169.724H732.399L732.878 168.407L730.998 167.724ZM650.834 167.724H648.834V169.724H650.834V167.724ZM650.834 146.164V144.164H648.834V146.164H650.834ZM714.338 146.164L715.52 147.778L720.454 144.164H714.338V146.164ZM700.422 156.356L698.474 155.903L697.252 161.157L701.604 157.97L700.422 156.356ZM700.226 141.46L698.323 142.076L698.326 142.084L698.329 142.092L700.226 141.46ZM692.582 131.072L691.392 132.679L691.425 132.704L691.459 132.727L692.582 131.072ZM666.318 130.876L665.195 129.221L665.195 129.221L666.318 130.876ZM658.086 141.852L659.957 142.56L659.957 142.56L658.086 141.852ZM655.93 159.492L657.923 159.665L657.935 159.522L657.927 159.379L655.93 159.492ZM658.086 175.368L656.248 176.156L656.248 176.156L658.086 175.368ZM667.102 186.148L666.018 187.829L666.037 187.841L666.057 187.853L667.102 186.148ZM695.13 186.736L694.164 184.985L694.151 184.992L694.138 185L695.13 186.736ZM703.95 178.112L704.808 176.305L703.133 175.51L702.214 177.12L703.95 178.112ZM727.47 189.284L729.327 190.027L730.024 188.283L728.328 187.477L727.47 189.284ZM717.474 203.004L716.172 201.485L716.162 201.495L716.151 201.504L717.474 203.004ZM701.598 212.216L702.243 214.109L702.26 214.103L702.278 214.097L701.598 212.216ZM681.41 213.352C670.34 213.352 660.84 210.937 652.835 206.184L650.793 209.624C659.513 214.802 669.744 217.352 681.41 217.352V213.352ZM652.855 206.196C644.791 201.282 638.573 194.747 634.171 186.572L630.649 188.468C635.393 197.279 642.112 204.334 650.773 209.612L652.855 206.196ZM634.171 186.572C629.766 178.39 627.55 169.312 627.55 159.296H623.55C623.55 169.926 625.908 179.663 630.649 188.468L634.171 186.572ZM627.55 159.296C627.55 148.884 629.833 139.69 634.349 131.661L630.863 129.699C625.972 138.395 623.55 148.279 623.55 159.296H627.55ZM634.338 131.681C639.006 123.606 645.234 117.257 653.035 112.601L650.985 109.167C642.584 114.18 635.876 121.029 630.875 129.679L634.338 131.681ZM653.035 112.601C660.802 107.966 669.589 105.632 679.45 105.632V101.632C668.927 101.632 659.421 104.132 650.985 109.167L653.035 112.601ZM679.45 105.632C687.729 105.632 694.971 106.969 701.216 109.592L702.764 105.904C695.942 103.039 688.158 101.632 679.45 101.632V105.632ZM701.247 109.605C707.523 112.115 712.756 115.675 716.981 120.273L719.927 117.567C715.267 112.496 709.524 108.607 702.733 105.891L701.247 109.605ZM717.001 120.294C721.383 124.927 724.704 130.311 726.965 136.466L730.719 135.086C728.276 128.436 724.671 122.582 719.907 117.546L717.001 120.294ZM726.969 136.478C729.228 142.502 730.37 149.121 730.37 156.356H734.37C734.37 148.695 733.16 141.594 730.715 135.074L726.969 136.478ZM730.37 156.356C730.37 158.363 730.245 160.371 729.993 162.38L733.963 162.876C734.234 160.704 734.37 158.53 734.37 156.356H730.37ZM729.982 162.495C729.861 164.317 729.561 165.822 729.118 167.041L732.878 168.407C733.48 166.751 733.834 164.859 733.974 162.761L729.982 162.495ZM730.998 165.724H650.834V169.724H730.998V165.724ZM652.834 167.724V146.164H648.834V167.724H652.834ZM650.834 148.164H714.338V144.164H650.834V148.164ZM713.156 144.55L699.24 154.742L701.604 157.97L715.52 147.778L713.156 144.55ZM702.37 156.809C703.738 150.926 703.705 145.573 702.123 140.828L698.329 142.092C699.622 145.971 699.719 150.548 698.474 155.903L702.37 156.809ZM702.129 140.844C700.563 136.004 697.754 132.164 693.705 129.417L691.459 132.727C694.728 134.945 697.015 138.031 698.323 142.076L702.129 140.844ZM693.772 129.465C689.838 126.551 685.021 125.152 679.45 125.152V129.152C684.332 129.152 688.27 130.367 691.392 132.679L693.772 129.465ZM679.45 125.152C674.016 125.152 669.234 126.481 665.195 129.221L667.441 132.531C670.72 130.306 674.692 129.152 679.45 129.152V125.152ZM665.195 129.221C661.141 131.972 658.165 135.991 656.215 141.144L659.957 142.56C661.666 138.043 664.178 134.745 667.441 132.531L665.195 129.221ZM656.215 141.144C654.259 146.314 653.531 152.491 653.933 159.605L657.927 159.379C657.546 152.643 658.254 147.059 659.957 142.56L656.215 141.144ZM653.938 159.319C653.392 165.588 654.133 171.222 656.248 176.156L659.924 174.58C658.119 170.368 657.422 165.417 657.923 159.665L653.938 159.319ZM656.248 176.156C658.359 181.083 661.621 184.992 666.018 187.829L668.186 184.467C664.481 182.077 661.733 178.8 659.924 174.58L656.248 176.156ZM666.057 187.853C670.482 190.566 675.762 191.872 681.802 191.872V187.872C676.344 187.872 671.823 186.696 668.147 184.443L666.057 187.853ZM681.802 191.872C687.294 191.872 692.097 190.773 696.122 188.472L694.138 185C690.846 186.881 686.763 187.872 681.802 187.872V191.872ZM696.096 188.487C700.198 186.224 703.409 183.091 705.687 179.104L702.214 177.12C700.31 180.451 697.641 183.067 694.164 184.985L696.096 188.487ZM703.092 179.919L726.612 191.091L728.328 187.477L704.808 176.305L703.092 179.919ZM725.613 188.541C723.651 193.447 720.518 197.76 716.172 201.485L718.776 204.523C723.576 200.408 727.108 195.574 729.327 190.027L725.613 188.541ZM716.151 201.504C711.915 205.242 706.847 208.191 700.918 210.335L702.278 214.097C708.632 211.799 714.148 208.606 718.797 204.504L716.151 201.504ZM700.954 210.323C695.044 212.334 688.536 213.352 681.41 213.352V217.352C688.919 217.352 695.869 216.279 702.243 214.109L700.954 210.323Z" fill="#777777" mask="url(#path-1-outside-1_790_2079)"/>
</svg>
