<svg width="634" height="267" viewBox="0 0 634 267" fill="none" xmlns="http://www.w3.org/2000/svg">
<mask id="path-1-outside-1_790_2080" maskUnits="userSpaceOnUse" x="34" y="62" width="572" height="156" fill="black">
<rect fill="white" x="34" y="62" width="572" height="156"/>
<path d="M36.936 213L36.936 66.98L136.896 66.98V93.44L67.316 93.44L67.316 130.484H127.096L127.096 156.944L67.316 156.944V213H36.936ZM199.449 215.352C188.081 215.352 178.216 212.869 169.853 207.904C161.49 202.808 155.022 196.013 150.449 187.52C145.876 179.027 143.589 169.619 143.589 159.296C143.589 148.581 145.941 139.043 150.645 130.68C155.48 122.317 161.948 115.719 170.049 110.884C178.15 106.049 187.297 103.632 197.489 103.632C205.982 103.632 213.496 105.004 220.029 107.748C226.562 110.361 232.05 114.085 236.493 118.92C241.066 123.755 244.529 129.373 246.881 135.776C249.233 142.048 250.409 148.908 250.409 156.356C250.409 158.447 250.278 160.537 250.017 162.628C249.886 164.588 249.56 166.287 249.037 167.724H168.873V146.164H232.377L218.461 156.356C219.768 150.737 219.702 145.772 218.265 141.46C216.828 137.017 214.28 133.555 210.621 131.072C207.093 128.459 202.716 127.152 197.489 127.152C192.393 127.152 188.016 128.393 184.357 130.876C180.698 133.359 177.954 137.017 176.125 141.852C174.296 146.687 173.577 152.567 173.969 159.492C173.446 165.503 174.165 170.795 176.125 175.368C178.085 179.941 181.09 183.535 185.141 186.148C189.192 188.631 194.092 189.872 199.841 189.872C205.068 189.872 209.51 188.827 213.169 186.736C216.958 184.645 219.898 181.771 221.989 178.112L245.509 189.284C243.418 194.511 240.086 199.084 235.513 203.004C231.07 206.924 225.778 209.995 219.637 212.216C213.496 214.307 206.766 215.352 199.449 215.352ZM319.269 215.352C307.901 215.352 298.036 212.869 289.673 207.904C281.311 202.808 274.843 196.013 270.269 187.52C265.696 179.027 263.409 169.619 263.409 159.296C263.409 148.581 265.761 139.043 270.465 130.68C275.3 122.317 281.768 115.719 289.869 110.884C297.971 106.049 307.117 103.632 317.309 103.632C325.803 103.632 333.316 105.004 339.849 107.748C346.383 110.361 351.871 114.085 356.313 118.92C360.887 123.755 364.349 129.373 366.701 135.776C369.053 142.048 370.229 148.908 370.229 156.356C370.229 158.447 370.099 160.537 369.837 162.628C369.707 164.588 369.38 166.287 368.857 167.724L288.693 167.724V146.164L352.197 146.164L338.281 156.356C339.588 150.737 339.523 145.772 338.085 141.46C336.648 137.017 334.1 133.555 330.441 131.072C326.913 128.459 322.536 127.152 317.309 127.152C312.213 127.152 307.836 128.393 304.177 130.876C300.519 133.359 297.775 137.017 295.945 141.852C294.116 146.687 293.397 152.567 293.789 159.492C293.267 165.503 293.985 170.795 295.945 175.368C297.905 179.941 300.911 183.535 304.961 186.148C309.012 188.631 313.912 189.872 319.661 189.872C324.888 189.872 329.331 188.827 332.989 186.736C336.779 184.645 339.719 181.771 341.809 178.112L365.329 189.284C363.239 194.511 359.907 199.084 355.333 203.004C350.891 206.924 345.599 209.995 339.457 212.216C333.316 214.307 326.587 215.352 319.269 215.352ZM437.914 215.352C427.46 215.352 418.118 212.869 409.886 207.904C401.654 202.939 395.12 196.209 390.286 187.716C385.582 179.223 383.23 169.815 383.23 159.492C383.23 149.039 385.647 139.631 390.482 131.268C395.316 122.775 401.85 116.045 410.082 111.08C418.314 106.115 427.526 103.632 437.718 103.632C445.558 103.632 452.483 105.135 458.494 108.14C464.635 111.015 469.47 115.131 472.998 120.488L468.49 126.368V64.628L497.89 64.628L497.89 213H470.45V193.4L473.194 199.476C469.535 204.703 464.57 208.688 458.298 211.432C452.026 214.045 445.231 215.352 437.914 215.352ZM441.442 188.892C446.799 188.892 451.503 187.651 455.554 185.168C459.604 182.685 462.74 179.223 464.962 174.78C467.314 170.337 468.49 165.241 468.49 159.492C468.49 153.743 467.314 148.647 464.962 144.204C462.74 139.761 459.604 136.299 455.554 133.816C451.503 131.333 446.799 130.092 441.442 130.092C436.084 130.092 431.25 131.399 426.938 134.012C422.756 136.495 419.49 139.957 417.138 144.4C414.786 148.712 413.61 153.743 413.61 159.492C413.61 165.241 414.786 170.337 417.138 174.78C419.49 179.223 422.756 182.685 426.938 185.168C431.25 187.651 436.084 188.892 441.442 188.892ZM561.365 215.352C549.605 215.352 539.347 212.608 530.593 207.12C521.969 201.501 516.089 193.988 512.953 184.58L534.513 174.388C537.257 180.137 540.981 184.645 545.685 187.912C550.389 191.179 555.615 192.812 561.365 192.812C565.546 192.812 568.747 191.963 570.969 190.264C573.19 188.565 574.301 186.213 574.301 183.208C574.301 181.64 573.909 180.333 573.125 179.288C572.341 178.112 571.165 177.067 569.597 176.152C568.029 175.237 566.069 174.453 563.717 173.8L545.489 168.704C536.734 166.221 530.005 162.236 525.301 156.748C520.597 151.129 518.245 144.531 518.245 136.952C518.245 130.288 519.943 124.473 523.341 119.508C526.738 114.543 531.507 110.688 537.649 107.944C543.79 105.069 550.846 103.632 558.817 103.632C569.27 103.632 578.417 106.115 586.257 111.08C594.227 115.915 599.846 122.775 603.113 131.66L581.357 141.852C579.789 137.409 576.914 133.881 572.733 131.268C568.682 128.524 564.043 127.152 558.817 127.152C555.027 127.152 552.022 127.936 549.801 129.504C547.71 131.072 546.665 133.228 546.665 135.972C546.665 137.409 547.057 138.716 547.841 139.892C548.625 141.068 549.866 142.113 551.565 143.028C553.394 143.943 555.615 144.792 558.229 145.576L575.281 150.672C584.166 153.285 590.961 157.271 595.665 162.628C600.369 167.855 602.721 174.323 602.721 182.032C602.721 188.696 600.957 194.511 597.429 199.476C594.031 204.441 589.262 208.361 583.121 211.236C576.979 213.98 569.727 215.352 561.365 215.352Z"/>
</mask>
<path d="M36.936 213H34.936L34.936 215H36.936L36.936 213ZM36.936 66.98V64.98H34.936V66.98H36.936ZM136.896 66.98H138.896V64.98H136.896V66.98ZM136.896 93.44V95.44H138.896V93.44H136.896ZM67.316 93.44V91.44H65.316V93.44H67.316ZM67.316 130.484H65.316V132.484H67.316V130.484ZM127.096 130.484H129.096V128.484H127.096V130.484ZM127.096 156.944V158.944H129.096V156.944H127.096ZM67.316 156.944V154.944H65.316V156.944H67.316ZM67.316 213V215H69.316V213H67.316ZM38.936 213L38.936 66.98H34.936L34.936 213H38.936ZM36.936 68.98L136.896 68.98V64.98L36.936 64.98V68.98ZM134.896 66.98V93.44H138.896V66.98H134.896ZM136.896 91.44L67.316 91.44V95.44L136.896 95.44V91.44ZM65.316 93.44L65.316 130.484H69.316L69.316 93.44L65.316 93.44ZM67.316 132.484H127.096V128.484H67.316V132.484ZM125.096 130.484L125.096 156.944H129.096L129.096 130.484H125.096ZM127.096 154.944L67.316 154.944V158.944L127.096 158.944V154.944ZM65.316 156.944V213H69.316V156.944H65.316ZM67.316 211H36.936L36.936 215H67.316V211ZM169.853 207.904L168.812 209.612L168.822 209.618L168.832 209.624L169.853 207.904ZM150.449 187.52L152.21 186.572L152.21 186.572L150.449 187.52ZM150.645 130.68L148.914 129.679L148.908 129.689L148.902 129.699L150.645 130.68ZM170.049 110.884L171.074 112.601L171.074 112.601L170.049 110.884ZM220.029 107.748L219.255 109.592L219.27 109.599L219.286 109.605L220.029 107.748ZM236.493 118.92L235.02 120.273L235.03 120.284L235.04 120.294L236.493 118.92ZM246.881 135.776L245.004 136.466L245.008 136.478L246.881 135.776ZM250.017 162.628L248.033 162.38L248.025 162.437L248.022 162.495L250.017 162.628ZM249.037 167.724V169.724H250.438L250.917 168.407L249.037 167.724ZM168.873 167.724H166.873V169.724H168.873V167.724ZM168.873 146.164V144.164H166.873V146.164H168.873ZM232.377 146.164L233.559 147.778L238.493 144.164H232.377V146.164ZM218.461 156.356L216.513 155.903L215.291 161.157L219.643 157.97L218.461 156.356ZM218.265 141.46L216.362 142.076L216.365 142.084L216.368 142.092L218.265 141.46ZM210.621 131.072L209.431 132.679L209.464 132.704L209.498 132.727L210.621 131.072ZM184.357 130.876L183.234 129.221L183.234 129.221L184.357 130.876ZM176.125 141.852L177.996 142.56L177.996 142.56L176.125 141.852ZM173.969 159.492L175.962 159.665L175.974 159.522L175.966 159.379L173.969 159.492ZM176.125 175.368L174.287 176.156L174.287 176.156L176.125 175.368ZM185.141 186.148L184.057 187.829L184.076 187.841L184.096 187.853L185.141 186.148ZM213.169 186.736L212.203 184.985L212.19 184.992L212.177 185L213.169 186.736ZM221.989 178.112L222.847 176.305L221.172 175.51L220.253 177.12L221.989 178.112ZM245.509 189.284L247.366 190.027L248.063 188.283L246.367 187.477L245.509 189.284ZM235.513 203.004L234.212 201.485L234.201 201.495L234.19 201.504L235.513 203.004ZM219.637 212.216L220.282 214.109L220.3 214.103L220.317 214.097L219.637 212.216ZM199.449 213.352C188.379 213.352 178.879 210.937 170.874 206.184L168.832 209.624C177.553 214.802 187.783 217.352 199.449 217.352V213.352ZM170.894 206.196C162.83 201.282 156.612 194.747 152.21 186.572L148.688 188.468C153.433 197.279 160.151 204.334 168.812 209.612L170.894 206.196ZM152.21 186.572C147.805 178.39 145.589 169.312 145.589 159.296H141.589C141.589 169.926 143.947 179.663 148.688 188.468L152.21 186.572ZM145.589 159.296C145.589 148.884 147.872 139.69 152.388 131.661L148.902 129.699C144.011 138.395 141.589 148.279 141.589 159.296H145.589ZM152.377 131.681C157.045 123.606 163.273 117.257 171.074 112.601L169.024 109.167C160.623 114.18 153.915 121.029 148.914 129.679L152.377 131.681ZM171.074 112.601C178.841 107.966 187.628 105.632 197.489 105.632V101.632C186.966 101.632 177.46 104.132 169.024 109.167L171.074 112.601ZM197.489 105.632C205.768 105.632 213.01 106.969 219.255 109.592L220.804 105.904C213.981 103.039 206.197 101.632 197.489 101.632V105.632ZM219.286 109.605C225.562 112.115 230.795 115.675 235.02 120.273L237.966 117.567C233.306 112.496 227.563 108.607 220.772 105.891L219.286 109.605ZM235.04 120.294C239.422 124.927 242.743 130.311 245.004 136.466L248.758 135.086C246.315 128.436 242.711 122.582 237.946 117.546L235.04 120.294ZM245.008 136.478C247.267 142.502 248.409 149.121 248.409 156.356H252.409C252.409 148.695 251.199 141.594 248.754 135.074L245.008 136.478ZM248.409 156.356C248.409 158.363 248.284 160.371 248.033 162.38L252.002 162.876C252.273 160.704 252.409 158.53 252.409 156.356H248.409ZM248.022 162.495C247.9 164.317 247.601 165.822 247.158 167.041L250.917 168.407C251.519 166.751 251.873 164.859 252.013 162.761L248.022 162.495ZM249.037 165.724H168.873V169.724H249.037V165.724ZM170.873 167.724V146.164H166.873V167.724H170.873ZM168.873 148.164H232.377V144.164H168.873V148.164ZM231.195 144.55L217.279 154.742L219.643 157.97L233.559 147.778L231.195 144.55ZM220.409 156.809C221.777 150.926 221.744 145.573 220.162 140.828L216.368 142.092C217.661 145.971 217.758 150.548 216.513 155.903L220.409 156.809ZM220.168 140.844C218.602 136.004 215.793 132.164 211.744 129.417L209.498 132.727C212.767 134.945 215.054 138.031 216.362 142.076L220.168 140.844ZM211.812 129.465C207.877 126.551 203.06 125.152 197.489 125.152V129.152C202.371 129.152 206.309 130.367 209.431 132.679L211.812 129.465ZM197.489 125.152C192.056 125.152 187.273 126.481 183.234 129.221L185.48 132.531C188.759 130.306 192.731 129.152 197.489 129.152V125.152ZM183.234 129.221C179.18 131.972 176.204 135.991 174.255 141.144L177.996 142.56C179.705 138.043 182.217 134.745 185.48 132.531L183.234 129.221ZM174.255 141.144C172.298 146.314 171.57 152.491 171.972 159.605L175.966 159.379C175.585 152.643 176.293 147.059 177.996 142.56L174.255 141.144ZM171.977 159.319C171.431 165.588 172.172 171.222 174.287 176.156L177.963 174.58C176.158 170.368 175.461 165.417 175.962 159.665L171.977 159.319ZM174.287 176.156C176.398 181.083 179.66 184.992 184.057 187.829L186.225 184.467C182.521 182.077 179.772 178.8 177.963 174.58L174.287 176.156ZM184.096 187.853C188.521 190.566 193.801 191.872 199.841 191.872V187.872C194.383 187.872 189.862 186.696 186.186 184.443L184.096 187.853ZM199.841 191.872C205.333 191.872 210.136 190.773 214.161 188.472L212.177 185C208.885 186.881 204.802 187.872 199.841 187.872V191.872ZM214.135 188.487C218.237 186.224 221.448 183.091 223.726 179.104L220.253 177.12C218.349 180.451 215.68 183.067 212.203 184.985L214.135 188.487ZM221.131 179.919L244.651 191.091L246.367 187.477L222.847 176.305L221.131 179.919ZM243.652 188.541C241.69 193.447 238.557 197.76 234.212 201.485L236.815 204.523C241.615 200.408 245.147 195.574 247.366 190.027L243.652 188.541ZM234.19 201.504C229.954 205.242 224.886 208.191 218.957 210.335L220.317 214.097C226.671 211.799 232.187 208.606 236.836 204.504L234.19 201.504ZM218.993 210.323C213.083 212.334 206.575 213.352 199.449 213.352V217.352C206.958 217.352 213.908 216.279 220.282 214.109L218.993 210.323ZM289.673 207.904L288.633 209.612L288.642 209.618L288.652 209.624L289.673 207.904ZM270.269 187.52L272.03 186.572L272.03 186.572L270.269 187.52ZM270.465 130.68L268.734 129.679L268.728 129.689L268.722 129.699L270.465 130.68ZM289.869 110.884L290.894 112.601L290.894 112.601L289.869 110.884ZM339.849 107.748L339.075 109.592L339.091 109.599L339.107 109.605L339.849 107.748ZM356.313 118.92L354.841 120.273L354.851 120.284L354.86 120.294L356.313 118.92ZM366.701 135.776L364.824 136.466L364.829 136.478L366.701 135.776ZM369.837 162.628L367.853 162.38L367.846 162.437L367.842 162.495L369.837 162.628ZM368.857 167.724V169.724H370.258L370.737 168.407L368.857 167.724ZM288.693 167.724H286.693V169.724H288.693V167.724ZM288.693 146.164V144.164H286.693V146.164H288.693ZM352.197 146.164L353.379 147.778L358.313 144.164H352.197V146.164ZM338.281 156.356L336.333 155.903L335.112 161.157L339.463 157.97L338.281 156.356ZM338.085 141.46L336.183 142.076L336.185 142.084L336.188 142.092L338.085 141.46ZM330.441 131.072L329.251 132.679L329.284 132.704L329.318 132.727L330.441 131.072ZM304.177 130.876L303.054 129.221L303.054 129.221L304.177 130.876ZM295.945 141.852L297.816 142.56L297.816 142.56L295.945 141.852ZM293.789 159.492L295.782 159.665L295.794 159.522L295.786 159.379L293.789 159.492ZM295.945 175.368L294.107 176.156L294.107 176.156L295.945 175.368ZM304.961 186.148L303.877 187.829L303.897 187.841L303.916 187.853L304.961 186.148ZM332.989 186.736L332.023 184.985L332.01 184.992L331.997 185L332.989 186.736ZM341.809 178.112L342.668 176.305L340.993 175.51L340.073 177.12L341.809 178.112ZM365.329 189.284L367.186 190.027L367.884 188.283L366.188 187.477L365.329 189.284ZM355.333 203.004L354.032 201.485L354.021 201.495L354.01 201.504L355.333 203.004ZM339.457 212.216L340.102 214.109L340.12 214.103L340.138 214.097L339.457 212.216ZM319.269 213.352C308.199 213.352 298.699 210.937 290.694 206.184L288.652 209.624C297.373 214.802 307.603 217.352 319.269 217.352V213.352ZM290.714 206.196C282.65 201.282 276.433 194.747 272.03 186.572L268.508 188.468C273.253 197.279 279.972 204.334 288.633 209.612L290.714 206.196ZM272.03 186.572C267.625 178.39 265.409 169.312 265.409 159.296H261.409C261.409 169.926 263.767 179.663 268.508 188.468L272.03 186.572ZM265.409 159.296C265.409 148.884 267.692 139.69 272.209 131.661L268.722 129.699C263.831 138.395 261.409 148.279 261.409 159.296H265.409ZM272.197 131.681C276.865 123.606 283.093 117.257 290.894 112.601L288.844 109.167C280.443 114.18 273.735 121.029 268.734 129.679L272.197 131.681ZM290.894 112.601C298.661 107.966 307.448 105.632 317.309 105.632V101.632C306.787 101.632 297.281 104.132 288.844 109.167L290.894 112.601ZM317.309 105.632C325.589 105.632 332.83 106.969 339.075 109.592L340.624 105.904C333.802 103.039 326.017 101.632 317.309 101.632V105.632ZM339.107 109.605C345.382 112.115 350.615 115.675 354.841 120.273L357.786 117.567C353.127 112.496 347.383 108.607 340.592 105.891L339.107 109.605ZM354.86 120.294C359.243 124.927 362.563 130.311 364.824 136.466L368.579 135.086C366.136 128.436 362.531 122.582 357.766 117.546L354.86 120.294ZM364.829 136.478C367.088 142.502 368.229 149.121 368.229 156.356H372.229C372.229 148.695 371.019 141.594 368.574 135.074L364.829 136.478ZM368.229 156.356C368.229 158.363 368.104 160.371 367.853 162.38L371.822 162.876C372.094 160.704 372.229 158.53 372.229 156.356H368.229ZM367.842 162.495C367.72 164.317 367.421 165.822 366.978 167.041L370.737 168.407C371.339 166.751 371.693 164.859 371.833 162.761L367.842 162.495ZM368.857 165.724L288.693 165.724V169.724L368.857 169.724V165.724ZM290.693 167.724V146.164L286.693 146.164V167.724L290.693 167.724ZM288.693 148.164L352.197 148.164V144.164L288.693 144.164V148.164ZM351.016 144.55L337.1 154.742L339.463 157.97L353.379 147.778L351.016 144.55ZM340.229 156.809C341.597 150.926 341.564 145.573 339.983 140.828L336.188 142.092C337.481 145.971 337.579 150.548 336.333 155.903L340.229 156.809ZM339.988 140.844C338.422 136.004 335.613 132.164 331.564 129.417L329.318 132.727C332.587 134.945 334.874 138.031 336.183 142.076L339.988 140.844ZM331.632 129.465C327.697 126.551 322.881 125.152 317.309 125.152V129.152C322.191 129.152 326.129 130.367 329.251 132.679L331.632 129.465ZM317.309 125.152C311.876 125.152 307.093 126.481 303.054 129.221L305.3 132.531C308.579 130.306 312.551 129.152 317.309 129.152V125.152ZM303.054 129.221C299 131.972 296.025 135.991 294.075 141.144L297.816 142.56C299.525 138.043 302.037 134.745 305.3 132.531L303.054 129.221ZM294.075 141.144C292.119 146.314 291.39 152.491 291.793 159.605L295.786 159.379C295.405 152.643 296.113 147.059 297.816 142.56L294.075 141.144ZM291.797 159.319C291.252 165.588 291.993 171.222 294.107 176.156L297.784 174.58C295.978 170.368 295.282 165.417 295.782 159.665L291.797 159.319ZM294.107 176.156C296.219 181.083 299.481 184.992 303.877 187.829L306.046 184.467C302.341 182.077 299.592 178.8 297.784 174.58L294.107 176.156ZM303.916 187.853C308.342 190.566 313.621 191.872 319.661 191.872V187.872C314.203 187.872 309.682 186.696 306.007 184.443L303.916 187.853ZM319.661 191.872C325.153 191.872 329.956 190.773 333.982 188.472L331.997 185C328.705 186.881 324.623 187.872 319.661 187.872V191.872ZM333.956 188.487C338.057 186.224 341.268 183.091 343.546 179.104L340.073 177.12C338.17 180.451 335.5 183.067 332.023 184.985L333.956 188.487ZM340.951 179.919L364.471 191.091L366.188 187.477L342.668 176.305L340.951 179.919ZM363.472 188.541C361.51 193.447 358.378 197.76 354.032 201.485L356.635 204.523C361.436 200.408 364.968 195.574 367.186 190.027L363.472 188.541ZM354.01 201.504C349.774 205.242 344.706 208.191 338.777 210.335L340.138 214.097C346.491 211.799 352.007 208.606 356.657 204.504L354.01 201.504ZM338.813 210.323C332.904 212.334 326.395 213.352 319.269 213.352V217.352C326.778 217.352 333.728 216.279 340.102 214.109L338.813 210.323ZM409.886 207.904L410.919 206.191L410.919 206.191L409.886 207.904ZM390.286 187.716L388.536 188.685L388.542 188.695L388.548 188.705L390.286 187.716ZM390.482 131.268L392.213 132.269L392.22 132.257L390.482 131.268ZM410.082 111.08L409.049 109.367L409.049 109.367L410.082 111.08ZM458.494 108.14L457.599 109.929L457.622 109.94L457.646 109.951L458.494 108.14ZM472.998 120.488L474.585 121.705L475.45 120.576L474.668 119.388L472.998 120.488ZM468.49 126.368H466.49V132.264L470.077 127.585L468.49 126.368ZM468.49 64.628V62.628H466.49V64.628H468.49ZM497.89 64.628H499.89V62.628H497.89V64.628ZM497.89 213V215H499.89V213H497.89ZM470.45 213H468.45V215H470.45V213ZM470.45 193.4L472.272 192.577L468.45 193.4H470.45ZM473.194 199.476L474.832 200.623L475.485 199.69L475.016 198.653L473.194 199.476ZM458.298 211.432L459.067 213.278L459.083 213.271L459.099 213.264L458.298 211.432ZM455.554 185.168L454.509 183.463L454.509 183.463L455.554 185.168ZM464.962 174.78L463.194 173.844L463.183 173.865L463.173 173.886L464.962 174.78ZM464.962 144.204L463.173 145.098L463.183 145.119L463.194 145.14L464.962 144.204ZM455.554 133.816L454.509 135.521L454.509 135.521L455.554 133.816ZM426.938 134.012L427.959 135.732L427.967 135.727L427.974 135.722L426.938 134.012ZM417.138 144.4L418.894 145.358L418.899 145.347L418.905 145.336L417.138 144.4ZM417.138 174.78L418.905 173.844L418.905 173.844L417.138 174.78ZM426.938 185.168L425.917 186.888L425.928 186.895L425.94 186.901L426.938 185.168ZM437.914 213.352C427.792 213.352 418.812 210.952 410.919 206.191L408.853 209.617C417.424 214.786 427.129 217.352 437.914 217.352V213.352ZM410.919 206.191C402.985 201.406 396.692 194.928 392.024 186.727L388.548 188.705C393.549 197.491 400.323 204.471 408.853 209.617L410.919 206.191ZM392.035 186.747C387.506 178.569 385.23 169.498 385.23 159.492H381.23C381.23 170.132 383.657 179.876 388.536 188.685L392.035 186.747ZM385.23 159.492C385.23 149.36 387.569 140.303 392.213 132.269L388.75 130.267C383.725 138.959 381.23 148.717 381.23 159.492H385.23ZM392.22 132.257C396.888 124.056 403.181 117.578 411.115 112.793L409.049 109.367C400.519 114.513 393.745 121.493 388.744 130.279L392.22 132.257ZM411.115 112.793C419.016 108.027 427.867 105.632 437.718 105.632V101.632C427.184 101.632 417.611 104.203 409.049 109.367L411.115 112.793ZM437.718 105.632C445.299 105.632 451.909 107.084 457.599 109.929L459.388 106.351C453.057 103.186 445.817 101.632 437.718 101.632V105.632ZM457.646 109.951C463.473 112.679 468.014 116.557 471.327 121.588L474.668 119.388C470.925 113.704 465.798 109.351 459.342 106.329L457.646 109.951ZM471.411 119.271L466.903 125.151L470.077 127.585L474.585 121.705L471.411 119.271ZM470.49 126.368V64.628H466.49V126.368H470.49ZM468.49 66.628L497.89 66.628V62.628L468.49 62.628V66.628ZM495.89 64.628L495.89 213H499.89L499.89 64.628H495.89ZM497.89 211H470.45V215H497.89V211ZM472.45 213V193.4H468.45V213H472.45ZM468.627 194.223L471.371 200.299L475.016 198.653L472.272 192.577L468.627 194.223ZM471.555 198.329C468.123 203.233 463.457 206.992 457.496 209.6L459.099 213.264C465.682 210.384 470.947 206.173 474.832 200.623L471.555 198.329ZM457.528 209.586C451.518 212.09 444.988 213.352 437.914 213.352V217.352C445.475 217.352 452.533 216.001 459.067 213.278L457.528 209.586ZM441.442 190.892C447.12 190.892 452.195 189.572 456.599 186.873L454.509 183.463C450.811 185.729 446.478 186.892 441.442 186.892V190.892ZM456.599 186.873C460.983 184.186 464.37 180.436 466.751 175.674L463.173 173.886C461.111 178.01 458.226 181.185 454.509 183.463L456.599 186.873ZM466.729 175.716C469.255 170.946 470.49 165.52 470.49 159.492H466.49C466.49 164.962 465.373 169.729 463.194 173.844L466.729 175.716ZM470.49 159.492C470.49 153.464 469.255 148.038 466.729 143.268L463.194 145.14C465.373 149.255 466.49 154.022 466.49 159.492H470.49ZM466.751 143.31C464.37 138.548 460.983 134.798 456.599 132.111L454.509 135.521C458.226 137.799 461.111 140.974 463.173 145.098L466.751 143.31ZM456.599 132.111C452.195 129.412 447.12 128.092 441.442 128.092V132.092C446.478 132.092 450.811 133.255 454.509 135.521L456.599 132.111ZM441.442 128.092C435.743 128.092 430.545 129.487 425.901 132.302L427.974 135.722C431.954 133.31 436.426 132.092 441.442 132.092V128.092ZM425.917 132.292C421.408 134.969 417.888 138.708 415.37 143.464L418.905 145.336C421.091 141.207 424.105 138.02 427.959 135.732L425.917 132.292ZM415.382 143.442C412.844 148.095 411.61 153.465 411.61 159.492H415.61C415.61 154.02 416.727 149.329 418.894 145.358L415.382 143.442ZM411.61 159.492C411.61 165.52 412.845 170.946 415.37 175.716L418.905 173.844C416.727 169.729 415.61 164.962 415.61 159.492H411.61ZM415.37 175.716C417.888 180.472 421.408 184.211 425.917 186.888L427.959 183.448C424.105 181.16 421.091 177.973 418.905 173.844L415.37 175.716ZM425.94 186.901C430.579 189.572 435.762 190.892 441.442 190.892V186.892C436.407 186.892 431.921 185.729 427.936 183.435L425.94 186.901ZM530.593 207.12L529.501 208.796L529.516 208.805L529.53 208.815L530.593 207.12ZM512.953 184.58L512.098 182.772L510.494 183.53L511.055 185.212L512.953 184.58ZM534.513 174.388L536.318 173.527L535.459 171.728L533.658 172.58L534.513 174.388ZM545.685 187.912L544.544 189.555L544.544 189.555L545.685 187.912ZM570.969 190.264L572.184 191.853L572.184 191.853L570.969 190.264ZM573.125 179.288L571.461 180.397L571.491 180.444L571.525 180.488L573.125 179.288ZM563.717 173.8L563.178 175.726L563.181 175.727L563.717 173.8ZM545.489 168.704L544.943 170.628L544.95 170.63L545.489 168.704ZM525.301 156.748L523.767 158.032L523.775 158.041L523.782 158.05L525.301 156.748ZM537.649 107.944L538.465 109.77L538.481 109.763L538.497 109.755L537.649 107.944ZM586.257 111.08L585.187 112.77L585.203 112.78L585.219 112.79L586.257 111.08ZM603.113 131.66L603.961 133.471L605.623 132.693L604.99 130.97L603.113 131.66ZM581.357 141.852L579.471 142.518L580.206 144.6L582.205 143.663L581.357 141.852ZM572.733 131.268L571.611 132.924L571.641 132.944L571.673 132.964L572.733 131.268ZM549.801 129.504L548.647 127.87L548.624 127.887L548.601 127.904L549.801 129.504ZM547.841 139.892L546.177 141.001L546.177 141.001L547.841 139.892ZM551.565 143.028L550.616 144.789L550.643 144.803L550.67 144.817L551.565 143.028ZM558.229 145.576L557.654 147.492L557.656 147.492L558.229 145.576ZM575.281 150.672L574.708 152.588L574.716 152.591L575.281 150.672ZM595.665 162.628L594.162 163.948L594.17 163.957L594.178 163.966L595.665 162.628ZM597.429 199.476L595.798 198.318L595.788 198.332L595.778 198.347L597.429 199.476ZM583.121 211.236L583.937 213.062L583.953 213.055L583.969 213.047L583.121 211.236ZM561.365 213.352C549.927 213.352 540.049 210.687 531.655 205.425L529.53 208.815C538.646 214.529 549.282 217.352 561.365 217.352V213.352ZM531.684 205.444C523.424 200.062 517.837 192.91 514.85 183.948L511.055 185.212C514.34 195.066 520.514 202.94 529.501 208.796L531.684 205.444ZM513.807 186.388L535.367 176.196L533.658 172.58L512.098 182.772L513.807 186.388ZM532.708 175.249C535.584 181.276 539.523 186.068 544.544 189.555L546.825 186.269C542.438 183.222 538.929 178.998 536.318 173.527L532.708 175.249ZM544.544 189.555C549.584 193.055 555.209 194.812 561.365 194.812V190.812C556.021 190.812 551.193 189.302 546.825 186.269L544.544 189.555ZM561.365 194.812C565.778 194.812 569.478 193.921 572.184 191.853L569.754 188.675C568.016 190.004 565.314 190.812 561.365 190.812V194.812ZM572.184 191.853C574.941 189.744 576.301 186.782 576.301 183.208H572.301C572.301 185.644 571.439 187.387 569.754 188.675L572.184 191.853ZM576.301 183.208C576.301 181.296 575.817 179.545 574.725 178.088L571.525 180.488C572 181.122 572.301 181.984 572.301 183.208H576.301ZM574.789 178.179C573.795 176.688 572.363 175.45 570.604 174.424L568.589 177.88C569.966 178.683 570.886 179.536 571.461 180.397L574.789 178.179ZM570.604 174.424C568.847 173.399 566.716 172.558 564.252 171.873L563.181 175.727C565.421 176.349 567.21 177.075 568.589 177.88L570.604 174.424ZM564.255 171.874L546.027 166.778L544.95 170.63L563.178 175.726L564.255 171.874ZM546.034 166.78C537.56 164.377 531.208 160.567 526.819 155.446L523.782 158.05C528.801 163.905 535.908 168.066 544.943 170.628L546.034 166.78ZM526.834 155.464C522.443 150.219 520.245 144.079 520.245 136.952H516.245C516.245 144.983 518.751 152.04 523.767 158.032L526.834 155.464ZM520.245 136.952C520.245 130.646 521.846 125.235 524.991 120.637L521.69 118.379C518.041 123.712 516.245 129.93 516.245 136.952H520.245ZM524.991 120.637C528.156 116.012 532.619 112.382 538.465 109.77L536.833 106.118C530.395 108.994 525.32 113.073 521.69 118.379L524.991 120.637ZM538.497 109.755C544.33 107.025 551.088 105.632 558.817 105.632V101.632C550.604 101.632 543.25 103.114 536.801 106.133L538.497 109.755ZM558.817 105.632C568.94 105.632 577.706 108.032 585.187 112.77L587.327 109.39C579.127 104.197 569.6 101.632 558.817 101.632V105.632ZM585.219 112.79C592.796 117.386 598.123 123.883 601.235 132.35L604.99 130.97C601.569 121.666 595.658 114.444 587.294 109.37L585.219 112.79ZM602.264 129.849L580.508 140.041L582.205 143.663L603.961 133.471L602.264 129.849ZM583.243 141.186C581.516 136.296 578.339 132.413 573.793 129.572L571.673 132.964C575.489 135.349 578.061 138.523 579.471 142.518L583.243 141.186ZM573.854 129.612C569.45 126.628 564.414 125.152 558.817 125.152V129.152C563.672 129.152 567.914 130.42 571.611 132.924L573.854 129.612ZM558.817 125.152C554.772 125.152 551.315 125.987 548.647 127.87L550.954 131.138C552.729 129.885 555.283 129.152 558.817 129.152V125.152ZM548.601 127.904C545.978 129.871 544.665 132.635 544.665 135.972H548.665C548.665 133.821 549.442 132.273 551.001 131.104L548.601 127.904ZM544.665 135.972C544.665 137.797 545.17 139.491 546.177 141.001L549.505 138.783C548.944 137.941 548.665 137.022 548.665 135.972H544.665ZM546.177 141.001C547.196 142.531 548.73 143.773 550.616 144.789L552.513 141.267C551.002 140.454 550.053 139.605 549.505 138.783L546.177 141.001ZM550.67 144.817C552.63 145.797 554.965 146.685 557.654 147.492L558.803 143.66C556.266 142.899 554.158 142.089 552.459 141.239L550.67 144.817ZM557.656 147.492L574.708 152.588L575.853 148.756L558.801 143.66L557.656 147.492ZM574.716 152.591C583.345 155.129 589.772 158.948 594.162 163.948L597.168 161.308C592.149 155.593 584.987 151.442 575.845 148.753L574.716 152.591ZM594.178 163.966C598.519 168.789 600.721 174.765 600.721 182.032H604.721C604.721 173.88 602.219 166.921 597.151 161.29L594.178 163.966ZM600.721 182.032C600.721 188.322 599.063 193.723 595.798 198.318L599.059 200.634C602.85 195.299 604.721 189.07 604.721 182.032H600.721ZM595.778 198.347C592.607 202.981 588.132 206.682 582.273 209.425L583.969 213.047C590.392 210.041 595.455 205.902 599.079 200.605L595.778 198.347ZM582.305 209.41C576.475 212.015 569.513 213.352 561.365 213.352V217.352C569.942 217.352 577.484 215.945 583.937 213.062L582.305 209.41Z" fill="#777777" mask="url(#path-1-outside-1_790_2080)"/>
</svg>
