<svg width="783" height="288" viewBox="0 0 783 288" fill="none" xmlns="http://www.w3.org/2000/svg">
<path d="M408 285V220.5H427.5" stroke="#8E8E8E" stroke-width="2"/>
<path d="M446.5 85.0012C446.5 85.0012 454.008 51.144 490 49.0012C532 46.5006 541.5 82.0012 541.5 82.0012M464.5 162.001H496.5M474.5 182.501H484.5" stroke="#8E8E8E" stroke-width="2"/>
<path d="M427 120V125.5V141V155V171.5V188V283.5L432.662 273.5L434 120H427Z" fill="#8E8E8E"/>
<path d="M322 284.5H305V86.5H320M322 284.5H335V188M322 284.5L320 86.5M335 86.5H320M335 86.5V95.5M335 86.5V80.5M427 120H434M427 120V125.5M427 120V110.5M504 147.5V120H434M504 147.5L570.5 35.5H632M504 147.5L432.662 273.5M632 35.5H733.5L599.5 283.5H493L632 35.5ZM434 120L432.662 273.5M432.662 273.5L427 283.5V188M381 35.5H335V50.75M381 35.5H427V50.75M381 35.5V284.5M335 188H427M335 188V171.5M427 188V171.5M335 171.5H427M335 171.5V156M427 171.5V155M335 156L427 155M335 156V141M427 155V141M335 141H427M335 141V125.5M427 141V125.5M335 125.5H427M335 125.5V110.5M335 110.5H427M335 110.5V95.5M427 110.5V95.5M335 95.5H427M427 95.5V80.5M335 80.5H427M335 80.5V66M427 80.5V66M335 66H427M335 66V50.75M427 66V50.75M335 50.75H427M445 117V56" stroke="#8E8E8E" stroke-width="2"/>
<path d="M0 286.5H782.5" stroke="#8E8E8E" stroke-width="2"/>
<circle cx="675.5" cy="188" r="94.5" fill="white" stroke="#8E8E8E" stroke-width="3"/>
<circle cx="657.5" cy="188" r="94.5" fill="white" stroke="#8E8E8E" stroke-width="3"/>
<path d="M722 118L733 112M745 124L732 130M753.5 134L740 141M761.5 146.5L745 154M766 159L749 165.5M769 172L751.5 177.5M751.5 192L770.5 187M769 203.5L751.5 207M749 217L766 215.5M743.5 228H761.5M755 241H736.5M729.5 251L743.5 255M720 259L732 264.5M713 264.5L720 270.5M704 270.5L713 275.5M713 112L722 105.5M713 101L704.5 105.5M697 101L704.5 99" stroke="#8E8E8E" stroke-width="2"/>
<path fill-rule="evenodd" clip-rule="evenodd" d="M118 175H117V176V189V190H118H129V197.5V225.5H118H117V226.5V235.5H43.5H42.5V236.5V247.5V248.5H43.5H55.5V261.5V274.5H43.5H42.5V275.5V284.5V285.5H43.5H305.5H306.5V284.5V176V175H305.5H118ZM131 196.5V190H285.5V188H130H119V177H286.5V283.5H44.5V276.5H56.5H285.5V274.5H57.5V262.5H226V260.5H57.5V248.5H285.5V246.5H56.5H44.5V237.5H118H285.5V235.5H119V227.5H130H285.5V225.5H131V198.5H226V196.5H131ZM132.5 218.5H272V216.5H132.5V218.5Z" fill="#8E8E8E"/>
<path d="M459 18C459 24.6565 455.788 34.5747 452.35 42.883C450.637 47.0247 448.878 50.7415 447.457 53.4183C446.745 54.7583 446.123 55.8288 445.637 56.5593C445.393 56.9265 445.192 57.1942 445.039 57.3648C445.024 57.3808 445.01 57.3955 444.998 57.409C444.984 57.3945 444.969 57.3785 444.952 57.361C444.795 57.1897 444.589 56.9214 444.338 56.5541C443.838 55.8232 443.197 54.7523 442.462 53.4124C440.994 50.7354 439.173 47.0187 437.397 42.8771C433.834 34.568 430.5 24.6526 430.5 18C430.5 11.3323 432.424 6.97415 435.158 4.28217C437.897 1.58566 441.51 0.5 445 0.5C448.488 0.5 451.971 1.58426 454.584 4.27422C457.195 6.96347 459 11.3231 459 18ZM444.86 57.5321C444.86 57.5319 444.863 57.5301 444.868 57.5275C444.863 57.531 444.86 57.5324 444.86 57.5321ZM445.129 57.5263C445.134 57.5289 445.137 57.5306 445.137 57.5309C445.137 57.5311 445.135 57.5298 445.129 57.5263Z" fill="white" stroke="#8E8E8E"/>
<path d="M233 142C233 135.343 236.212 125.425 239.65 117.117C241.363 112.975 243.122 109.258 244.543 106.582C245.255 105.242 245.877 104.171 246.363 103.441C246.607 103.074 246.808 102.806 246.961 102.635C246.976 102.619 246.99 102.604 247.002 102.591C247.016 102.606 247.031 102.621 247.048 102.639C247.205 102.81 247.411 103.079 247.662 103.446C248.162 104.177 248.803 105.248 249.538 106.588C251.006 109.265 252.827 112.981 254.603 117.123C258.166 125.432 261.5 135.347 261.5 142C261.5 148.668 259.576 153.026 256.842 155.718C254.103 158.414 250.49 159.5 247 159.5C243.512 159.5 240.029 158.416 237.416 155.726C234.805 153.037 233 148.677 233 142ZM247.14 102.468C247.14 102.468 247.137 102.47 247.132 102.473C247.137 102.469 247.14 102.468 247.14 102.468ZM246.871 102.474C246.866 102.471 246.863 102.469 246.863 102.469C246.863 102.469 246.865 102.47 246.871 102.474Z" fill="white" stroke="#8E8E8E"/>
<path d="M132 142C132 135.343 135.212 125.425 138.65 117.117C140.363 112.975 142.122 109.258 143.543 106.582C144.255 105.242 144.877 104.171 145.363 103.441C145.607 103.074 145.808 102.806 145.961 102.635C145.976 102.619 145.99 102.604 146.002 102.591C146.016 102.606 146.031 102.621 146.048 102.639C146.205 102.81 146.411 103.079 146.662 103.446C147.162 104.177 147.803 105.248 148.538 106.588C150.006 109.265 151.827 112.981 153.603 117.123C157.166 125.432 160.5 135.347 160.5 142C160.5 148.668 158.576 153.026 155.842 155.718C153.103 158.414 149.49 159.5 146 159.5C142.512 159.5 139.029 158.416 136.416 155.726C133.805 153.037 132 148.677 132 142ZM146.14 102.468C146.14 102.468 146.137 102.47 146.132 102.473C146.137 102.469 146.14 102.468 146.14 102.468ZM145.871 102.474C145.866 102.471 145.863 102.469 145.863 102.469C145.863 102.469 145.865 102.47 145.871 102.474Z" fill="white" stroke="#8E8E8E"/>
<path d="M146 102.5C146 102.5 148.5 50.001 196 50C250.003 49.9989 247 102.5 247 102.5C247 102.5 252 50 298 50C328.5 50 334.5 67.001 334.5 67.001" stroke="#8E8E8E" stroke-width="2"/>
<path fill-rule="evenodd" clip-rule="evenodd" d="M417.5 232C419.157 232 420.5 230.656 420.5 229C420.5 227.344 419.157 226 417.5 226C415.843 226 414.5 227.344 414.5 229C414.5 230.656 415.843 232 417.5 232ZM417.5 247C419.157 247 420.5 245.656 420.5 244C420.5 242.344 419.157 241 417.5 241C415.843 241 414.5 242.344 414.5 244C414.5 245.656 415.843 247 417.5 247ZM420.5 259C420.5 260.656 419.157 262 417.5 262C415.843 262 414.5 260.656 414.5 259C414.5 257.344 415.843 256 417.5 256C419.157 256 420.5 257.344 420.5 259ZM417.5 279C419.157 279 420.5 277.656 420.5 276C420.5 274.344 419.157 273 417.5 273C415.843 273 414.5 274.344 414.5 276C414.5 277.656 415.843 279 417.5 279Z" fill="#8E8E8E"/>
<path d="M631.85 73.4568C632.439 72.259 633.657 71.5 634.992 71.5H696.161C698.838 71.5 700.524 74.3828 699.211 76.7159L690.267 92.6159C689.621 93.7642 688.385 94.4525 687.069 94.3968L654.451 93.0186C654.13 93.005 653.807 93.026 653.49 93.0812L619.465 98.9986C619.465 98.9986 619.465 98.9987 619.465 98.9987C619.459 98.9996 619.454 99 619.449 99C619.382 99 619.337 98.9292 619.367 98.8687L631.85 73.4568Z" stroke="#8E8E8E"/>
<path d="M633.5 72C633.5 72 677.5 71.999 696.5 71.5009C698.024 71.461 699.063 72.6911 699.5 74.0009C699.937 75.3108 698.5 77.499 698.5 77.499L695.5 82.5009H627.5C627.5 82.5009 629.5 77.5 631.5 74C632.048 73.041 633.5 72 633.5 72Z" fill="#8E8E8E"/>
</svg>
