<svg width="433" height="281" viewBox="0 0 433 281" fill="none" xmlns="http://www.w3.org/2000/svg">
<path d="M122.818 200.348L166.141 111.105L237 111.105L283.792 200.348H122.818Z" fill="url(#paint0_linear_122_5203)"/>
<path d="M232.26 18.3612L173.895 17.9624L144.176 77.2484L268.739 76.2865L232.26 18.3612Z" fill="black"/>
<path d="M274.355 86.8161C274.316 82.9933 270.442 79.9009 265.747 79.9433L148.312 81.1322C143.611 81.1812 139.802 84.3534 139.835 88.1828L140.025 106.757L274.545 105.39L274.355 86.8161Z" fill="black"/>
<path d="M231.664 -114.694L173.323 -114.17L174.45 15.2369L232.771 14.7078L231.664 -114.694ZM212.453 -28.6078C212.487 -24.7724 208.667 -21.6115 203.978 -21.5697L201.837 -21.5503C197.136 -21.5078 193.272 -24.6122 193.232 -28.441L192.913 -69.0884C192.879 -72.9238 196.692 -76.0906 201.394 -76.1331L203.535 -76.1401C208.23 -76.1885 212.106 -73.0847 212.134 -69.2552L212.453 -28.6078Z" fill="black"/>
<defs>
<linearGradient id="paint0_linear_122_5203" x1="266.944" y1="85.7102" x2="156.53" y2="799.831" gradientUnits="userSpaceOnUse">
<stop stop-color="white" stop-opacity="0.36"/>
<stop offset="0.54" stop-color="#111111" stop-opacity="0.04"/>
<stop offset="1" stop-color="#0F0F0F" stop-opacity="0.04"/>
</linearGradient>
</defs>
</svg>
