<svg width="1010" height="836" viewBox="0 0 1010 836" fill="none" xmlns="http://www.w3.org/2000/svg">
<path d="M352.238 679.75L469.957 151.555L550.581 155.133L641.692 686.927L352.238 679.75Z" fill="url(#paint0_linear_186_1334)"/>
<path d="M544.573 48.1152L478.83 45.1738L442.814 110.703L583.201 114.938L544.573 48.1152Z" fill="black"/>
<path d="M589.184 127.573C589.333 123.265 585.126 119.586 579.835 119.396L447.499 114.795C442.201 114.612 437.75 117.992 437.593 122.307L436.867 143.238L588.458 148.505L589.184 127.573Z" fill="black"/>
<path d="M549.768 -101.634L484.025 -103.894L478.973 41.932L544.695 44.1848L549.768 -101.634ZM523.923 -5.60083C523.774 -1.27876 519.317 2.09524 514.033 1.91329L511.62 1.83067C506.322 1.64885 502.121 -2.0369 502.263 -6.35184L503.889 -52.155C504.038 -56.4771 508.489 -59.858 513.787 -59.6762L516.199 -59.5795C521.49 -59.4047 525.705 -55.719 525.549 -51.404L523.923 -5.60083Z" fill="black"/>
<path d="M515.518 -55.1268C512.215 -55.2753 509.373 -53.2247 509.288 -50.4952L507.372 -7.35464C507.252 -4.64642 509.861 -2.33418 513.17 -2.17862C516.479 -2.02305 519.315 -4.08074 519.4 -6.82431L521.316 -49.9649C521.436 -52.659 518.827 -54.9854 515.518 -55.1268Z" fill="black"/>
<defs>
<linearGradient id="paint0_linear_186_1334" x1="583.617" y1="122.932" x2="459.124" y2="928.114" gradientUnits="userSpaceOnUse">
<stop stop-color="white" stop-opacity="0.32"/>
<stop offset="0.54" stop-color="#111111" stop-opacity="0.2"/>
<stop offset="0.55" stop-color="#0F0F0F" stop-opacity="0"/>
</linearGradient>
</defs>
</svg>
