<svg width="853" height="267" viewBox="0 0 853 267" fill="none" xmlns="http://www.w3.org/2000/svg">
<mask id="path-1-outside-1_790_2110" maskUnits="userSpaceOnUse" x="34" y="64" width="791" height="195" fill="black">
<rect fill="white" x="34" y="64" width="791" height="195"/>
<path d="M36.936 213L36.936 66.98L92.992 66.98C103.053 66.98 111.939 68.744 119.648 72.272C127.488 75.8 133.629 81.0267 138.072 87.952C142.515 94.8773 144.736 103.436 144.736 113.628C144.736 123.559 142.449 131.987 137.876 138.912C133.433 145.837 127.292 151.129 119.452 154.788C111.743 158.316 102.923 160.08 92.992 160.08H67.316V213H36.936ZM67.316 133.62H93.188C97.5 133.62 101.224 132.771 104.36 131.072C107.496 129.373 109.913 127.021 111.612 124.016C113.441 121.011 114.356 117.548 114.356 113.628C114.356 109.577 113.441 106.049 111.612 103.044C109.913 100.039 107.496 97.6867 104.36 95.988C101.224 94.2893 97.5 93.44 93.188 93.44L67.316 93.44L67.316 133.62ZM162.065 213V105.984H189.505V131.66L187.545 127.936C189.897 118.92 193.752 112.844 199.109 109.708C204.597 106.441 211.065 104.808 218.513 104.808H224.785V130.288H215.573C208.386 130.288 202.572 132.509 198.129 136.952C193.686 141.264 191.465 147.405 191.465 155.376V213H162.065ZM290.787 215.352C280.203 215.352 270.533 212.935 261.779 208.1C253.155 203.265 246.229 196.667 241.003 188.304C235.907 179.811 233.359 170.207 233.359 159.492C233.359 148.647 235.907 139.043 241.003 130.68C246.229 122.317 253.155 115.719 261.779 110.884C270.533 106.049 280.203 103.632 290.787 103.632C301.371 103.632 310.975 106.049 319.599 110.884C328.223 115.719 335.083 122.317 340.179 130.68C345.405 139.043 348.019 148.647 348.019 159.492C348.019 170.207 345.405 179.811 340.179 188.304C335.083 196.667 328.223 203.265 319.599 208.1C310.975 212.935 301.371 215.352 290.787 215.352ZM290.787 188.892C296.144 188.892 300.783 187.651 304.703 185.168C308.753 182.685 311.889 179.223 314.111 174.78C316.463 170.337 317.639 165.241 317.639 159.492C317.639 153.743 316.463 148.712 314.111 144.4C311.889 139.957 308.753 136.495 304.703 134.012C300.783 131.399 296.144 130.092 290.787 130.092C285.429 130.092 280.725 131.399 276.675 134.012C272.624 136.495 269.423 139.957 267.071 144.4C264.849 148.712 263.739 153.743 263.739 159.492C263.739 165.241 264.849 170.337 267.071 174.78C269.423 179.223 272.624 182.685 276.675 185.168C280.725 187.651 285.429 188.892 290.787 188.892ZM352.403 256.512C350.443 256.512 348.548 256.381 346.719 256.12C344.759 255.989 343.125 255.793 341.819 255.532V230.444C344.04 230.836 346.261 231.032 348.483 231.032C354.101 231.032 358.283 229.856 361.027 227.504C363.901 225.152 365.339 221.624 365.339 216.92L365.339 105.984H394.739L394.739 216.92C394.739 225.283 393.04 232.404 389.643 238.284C386.376 244.295 381.541 248.803 375.139 251.808C368.867 254.944 361.288 256.512 352.403 256.512ZM365.339 96.38V66.98H394.739V96.38H365.339ZM467.801 215.352C456.433 215.352 446.567 212.869 438.205 207.904C429.842 202.808 423.374 196.013 418.801 187.52C414.227 179.027 411.941 169.619 411.941 159.296C411.941 148.581 414.293 139.043 418.997 130.68C423.831 122.317 430.299 115.719 438.401 110.884C446.502 106.049 455.649 103.632 465.841 103.632C474.334 103.632 481.847 105.004 488.381 107.748C494.914 110.361 500.402 114.085 504.845 118.92C509.418 123.755 512.881 129.373 515.233 135.776C517.585 142.048 518.761 148.908 518.761 156.356C518.761 158.447 518.63 160.537 518.369 162.628C518.238 164.588 517.911 166.287 517.389 167.724L437.225 167.724V146.164L500.729 146.164L486.813 156.356C488.119 150.737 488.054 145.772 486.617 141.46C485.179 137.017 482.631 133.555 478.973 131.072C475.445 128.459 471.067 127.152 465.841 127.152C460.745 127.152 456.367 128.393 452.709 130.876C449.05 133.359 446.306 137.017 444.477 141.852C442.647 146.687 441.929 152.567 442.321 159.492C441.798 165.503 442.517 170.795 444.477 175.368C446.437 179.941 449.442 183.535 453.493 186.148C457.543 188.631 462.443 189.872 468.193 189.872C473.419 189.872 477.862 188.827 481.521 186.736C485.31 184.645 488.25 181.771 490.341 178.112L513.861 189.284C511.77 194.511 508.438 199.084 503.865 203.004C499.422 206.924 494.13 209.995 487.989 212.216C481.847 214.307 475.118 215.352 467.801 215.352ZM588.601 215.352C577.886 215.352 568.217 212.935 559.593 208.1C551.1 203.135 544.305 196.405 539.209 187.912C534.244 179.419 531.761 169.88 531.761 159.296C531.761 148.712 534.244 139.239 539.209 130.876C544.174 122.383 550.969 115.719 559.593 110.884C568.217 106.049 577.886 103.632 588.601 103.632C596.572 103.632 603.954 105.004 610.749 107.748C617.544 110.492 623.358 114.347 628.193 119.312C633.028 124.147 636.49 129.896 638.581 136.56L613.101 147.536C611.272 142.179 608.136 137.932 603.693 134.796C599.381 131.66 594.35 130.092 588.601 130.092C583.505 130.092 578.932 131.333 574.881 133.816C570.961 136.299 567.825 139.761 565.473 144.204C563.252 148.647 562.141 153.743 562.141 159.492C562.141 165.241 563.252 170.337 565.473 174.78C567.825 179.223 570.961 182.685 574.881 185.168C578.932 187.651 583.505 188.892 588.601 188.892C594.481 188.892 599.577 187.324 603.889 184.188C608.201 181.052 611.272 176.805 613.101 171.448L638.581 182.62C636.621 188.892 633.224 194.511 628.389 199.476C623.554 204.441 617.74 208.361 610.945 211.236C604.15 213.98 596.702 215.352 588.601 215.352ZM707.441 214.176C694.505 214.176 684.444 210.713 677.257 203.788C670.201 196.732 666.673 186.932 666.673 174.388V131.464H648.641V105.984H649.621C655.109 105.984 659.291 104.612 662.165 101.868C665.171 99.124 666.673 95.008 666.673 89.52V81.68L696.073 81.68V105.984H721.161V131.464H696.073V172.428C696.073 176.087 696.727 179.157 698.033 181.64C699.34 183.992 701.365 185.756 704.109 186.932C706.853 188.108 710.251 188.696 714.301 188.696C715.216 188.696 716.261 188.631 717.437 188.5C718.613 188.369 719.855 188.239 721.161 188.108V213C719.201 213.261 716.98 213.523 714.497 213.784C712.015 214.045 709.663 214.176 707.441 214.176ZM780.333 215.352C768.573 215.352 758.316 212.608 749.561 207.12C740.937 201.501 735.057 193.988 731.921 184.58L753.481 174.388C756.225 180.137 759.949 184.645 764.653 187.912C769.357 191.179 774.584 192.812 780.333 192.812C784.515 192.812 787.716 191.963 789.937 190.264C792.159 188.565 793.269 186.213 793.269 183.208C793.269 181.64 792.877 180.333 792.093 179.288C791.309 178.112 790.133 177.067 788.565 176.152C786.997 175.237 785.037 174.453 782.685 173.8L764.457 168.704C755.703 166.221 748.973 162.236 744.269 156.748C739.565 151.129 737.213 144.531 737.213 136.952C737.213 130.288 738.912 124.473 742.309 119.508C745.707 114.543 750.476 110.688 756.617 107.944C762.759 105.069 769.815 103.632 777.785 103.632C788.239 103.632 797.385 106.115 805.225 111.08C813.196 115.915 818.815 122.775 822.081 131.66L800.325 141.852C798.757 137.409 795.883 133.881 791.701 131.268C787.651 128.524 783.012 127.152 777.785 127.152C773.996 127.152 770.991 127.936 768.769 129.504C766.679 131.072 765.633 133.228 765.633 135.972C765.633 137.409 766.025 138.716 766.809 139.892C767.593 141.068 768.835 142.113 770.533 143.028C772.363 143.943 774.584 144.792 777.197 145.576L794.249 150.672C803.135 153.285 809.929 157.271 814.633 162.628C819.337 167.855 821.689 174.323 821.689 182.032C821.689 188.696 819.925 194.511 816.397 199.476C813 204.441 808.231 208.361 802.089 211.236C795.948 213.98 788.696 215.352 780.333 215.352Z"/>
</mask>
<path d="M36.936 213H34.936L34.936 215H36.936L36.936 213ZM36.936 66.98V64.98H34.936V66.98H36.936ZM119.648 72.272L118.816 74.0906L118.827 74.0958L119.648 72.272ZM138.072 87.952L136.389 89.0319L136.389 89.0319L138.072 87.952ZM137.876 138.912L136.207 137.81L136.2 137.821L136.193 137.832L137.876 138.912ZM119.452 154.788L120.284 156.607L120.291 156.604L120.298 156.6L119.452 154.788ZM67.316 160.08V158.08H65.316V160.08H67.316ZM67.316 213V215H69.316V213H67.316ZM67.316 133.62H65.316V135.62H67.316V133.62ZM104.36 131.072L105.313 132.831L105.313 132.831L104.36 131.072ZM111.612 124.016L109.904 122.976L109.887 123.004L109.871 123.032L111.612 124.016ZM111.612 103.044L109.871 104.028L109.887 104.056L109.904 104.084L111.612 103.044ZM104.36 95.988L103.407 97.7466L103.407 97.7466L104.36 95.988ZM67.316 93.44V91.44H65.316V93.44H67.316ZM38.936 213L38.936 66.98H34.936L34.936 213H38.936ZM36.936 68.98L92.992 68.98V64.98L36.936 64.98V68.98ZM92.992 68.98C102.819 68.98 111.412 70.7024 118.816 74.0906L120.48 70.4534C112.466 66.7856 103.288 64.98 92.992 64.98V68.98ZM118.827 74.0958C126.33 77.4722 132.165 82.448 136.389 89.0319L139.755 86.8721C135.094 79.6053 128.646 74.1277 120.469 70.4481L118.827 74.0958ZM136.389 89.0319C140.58 95.5658 142.736 103.727 142.736 113.628H146.736C146.736 103.145 144.449 94.1889 139.755 86.8721L136.389 89.0319ZM142.736 113.628C142.736 123.245 140.525 131.271 136.207 137.81L139.545 140.014C144.374 132.702 146.736 123.872 146.736 113.628H142.736ZM136.193 137.832C131.965 144.422 126.122 149.468 118.606 152.976L120.298 156.6C128.462 152.79 134.902 147.252 139.559 139.992L136.193 137.832ZM118.62 152.969C111.213 156.359 102.684 158.08 92.992 158.08V162.08C103.161 162.08 112.273 160.273 120.284 156.607L118.62 152.969ZM92.992 158.08H67.316V162.08H92.992V158.08ZM65.316 160.08V213H69.316V160.08H65.316ZM67.316 211H36.936L36.936 215H67.316V211ZM67.316 135.62H93.188V131.62H67.316V135.62ZM93.188 135.62C97.7636 135.62 101.829 134.718 105.313 132.831L103.407 129.313C100.619 130.824 97.2364 131.62 93.188 131.62V135.62ZM105.313 132.831C108.767 130.959 111.463 128.344 113.353 125L109.871 123.032C108.363 125.699 106.225 127.787 103.407 129.313L105.313 132.831ZM113.32 125.056C115.362 121.702 116.356 117.872 116.356 113.628H112.356C112.356 117.224 111.521 120.319 109.904 122.976L113.32 125.056ZM116.356 113.628C116.356 109.267 115.368 105.368 113.32 102.004L109.904 104.084C111.515 106.731 112.356 109.888 112.356 113.628H116.356ZM113.353 102.06C111.463 98.7162 108.767 96.1008 105.313 94.2294L103.407 97.7466C106.225 99.2725 108.363 101.361 109.871 104.028L113.353 102.06ZM105.313 94.2294C101.829 92.3424 97.7636 91.44 93.188 91.44V95.44C97.2364 95.44 100.619 96.2363 103.407 97.7466L105.313 94.2294ZM93.188 91.44L67.316 91.44V95.44L93.188 95.44V91.44ZM65.316 93.44L65.316 133.62H69.316L69.316 93.44L65.316 93.44ZM162.065 213H160.065V215H162.065V213ZM162.065 105.984V103.984H160.065V105.984H162.065ZM189.505 105.984H191.505V103.984H189.505V105.984ZM189.505 131.66L187.735 132.591L191.505 131.66H189.505ZM187.545 127.936L185.61 127.431L185.414 128.181L185.775 128.867L187.545 127.936ZM199.109 109.708L200.12 111.434L200.126 111.43L200.132 111.427L199.109 109.708ZM224.785 104.808H226.785V102.808H224.785V104.808ZM224.785 130.288V132.288H226.785V130.288H224.785ZM198.129 136.952L199.522 138.387L199.533 138.377L199.543 138.366L198.129 136.952ZM191.465 213V215H193.465V213H191.465ZM164.065 213V105.984H160.065V213H164.065ZM162.065 107.984H189.505V103.984H162.065V107.984ZM187.505 105.984V131.66H191.505V105.984H187.505ZM191.275 130.729L189.315 127.005L185.775 128.867L187.735 132.591L191.275 130.729ZM189.48 128.441C191.765 119.684 195.406 114.193 200.12 111.434L198.099 107.982C192.098 111.495 188.03 118.156 185.61 127.431L189.48 128.441ZM200.132 111.427C205.262 108.373 211.365 106.808 218.513 106.808V102.808C210.766 102.808 203.932 104.51 198.086 107.989L200.132 111.427ZM218.513 106.808H224.785V102.808H218.513V106.808ZM222.785 104.808V130.288H226.785V104.808H222.785ZM224.785 128.288H215.573V132.288H224.785V128.288ZM215.573 128.288C207.939 128.288 201.587 130.665 196.715 135.538L199.543 138.366C203.556 134.353 208.834 132.288 215.573 132.288V128.288ZM196.736 135.517C191.802 140.306 189.465 147.028 189.465 155.376H193.465C193.465 147.783 195.571 142.222 199.522 138.387L196.736 135.517ZM189.465 155.376V213H193.465V155.376H189.465ZM191.465 211H162.065V215H191.465V211ZM261.779 208.1L260.801 209.845L260.812 209.851L261.779 208.1ZM241.003 188.304L239.288 189.333L239.297 189.349L239.307 189.364L241.003 188.304ZM241.003 130.68L239.307 129.62L239.301 129.63L239.295 129.639L241.003 130.68ZM261.779 110.884L260.812 109.133L260.801 109.139L261.779 110.884ZM340.179 130.68L338.471 131.721L338.477 131.73L338.483 131.74L340.179 130.68ZM340.179 188.304L338.475 187.256L338.471 187.263L340.179 188.304ZM319.599 208.1L320.577 209.845L319.599 208.1ZM304.703 185.168L303.658 183.463L303.645 183.47L303.633 183.478L304.703 185.168ZM314.111 174.78L312.343 173.844L312.332 173.865L312.322 173.886L314.111 174.78ZM314.111 144.4L312.322 145.294L312.338 145.326L312.355 145.358L314.111 144.4ZM304.703 134.012L303.593 135.676L303.625 135.697L303.658 135.717L304.703 134.012ZM276.675 134.012L277.72 135.717L277.739 135.705L277.759 135.693L276.675 134.012ZM267.071 144.4L265.303 143.464L265.298 143.474L265.293 143.484L267.071 144.4ZM267.071 174.78L265.282 175.674L265.292 175.695L265.303 175.716L267.071 174.78ZM276.675 185.168L275.63 186.873L275.63 186.873L276.675 185.168ZM290.787 213.352C280.52 213.352 271.187 211.011 262.745 206.349L260.812 209.851C269.88 214.859 279.885 217.352 290.787 217.352V213.352ZM262.757 206.355C254.425 201.685 247.747 195.321 242.699 187.244L239.307 189.364C244.712 198.012 251.884 204.846 260.801 209.845L262.757 206.355ZM242.718 187.275C237.823 179.118 235.359 169.875 235.359 159.492H231.359C231.359 170.538 233.99 180.504 239.288 189.333L242.718 187.275ZM235.359 159.492C235.359 148.973 237.826 139.737 242.711 131.721L239.295 129.639C233.988 138.348 231.359 148.32 231.359 159.492H235.359ZM242.699 131.74C247.747 123.663 254.425 117.299 262.757 112.629L260.801 109.139C251.884 114.138 244.712 120.972 239.307 129.62L242.699 131.74ZM262.745 112.635C271.187 107.973 280.52 105.632 290.787 105.632V101.632C279.885 101.632 269.88 104.125 260.812 109.133L262.745 112.635ZM290.787 105.632C301.053 105.632 310.316 107.973 318.621 112.629L320.577 109.139C311.633 104.125 301.688 101.632 290.787 101.632V105.632ZM318.621 112.629C326.948 117.297 333.555 123.654 338.471 131.721L341.887 129.639C336.61 120.98 329.497 114.14 320.577 109.139L318.621 112.629ZM338.483 131.74C343.491 139.754 346.019 148.983 346.019 159.492H350.019C350.019 148.311 347.32 138.332 341.875 129.62L338.483 131.74ZM346.019 159.492C346.019 169.865 343.494 179.101 338.475 187.256L341.882 189.352C347.317 180.52 350.019 170.548 350.019 159.492H346.019ZM338.471 187.263C333.555 195.33 326.948 201.687 318.621 206.355L320.577 209.845C329.497 204.844 336.61 198.004 341.887 189.345L338.471 187.263ZM318.621 206.355C310.316 211.011 301.053 213.352 290.787 213.352V217.352C301.688 217.352 311.633 214.858 320.577 209.845L318.621 206.355ZM290.787 190.892C296.463 190.892 301.486 189.573 305.773 186.858L303.633 183.478C300.08 185.728 295.825 186.892 290.787 186.892V190.892ZM305.748 186.873C310.132 184.186 313.519 180.436 315.899 175.674L312.322 173.886C310.26 178.01 307.374 181.185 303.658 183.463L305.748 186.873ZM315.878 175.716C318.404 170.946 319.639 165.52 319.639 159.492H315.639C315.639 164.962 314.522 169.729 312.343 173.844L315.878 175.716ZM319.639 159.492C319.639 153.465 318.404 148.095 315.866 143.442L312.355 145.358C314.521 149.329 315.639 154.02 315.639 159.492H319.639ZM315.899 143.506C313.519 138.744 310.132 134.994 305.748 132.307L303.658 135.717C307.374 137.995 310.26 141.17 312.322 145.294L315.899 143.506ZM305.812 132.348C301.52 129.486 296.483 128.092 290.787 128.092V132.092C295.805 132.092 300.045 133.311 303.593 135.676L305.812 132.348ZM290.787 128.092C285.089 128.092 280 129.487 275.59 132.331L277.759 135.693C281.451 133.311 285.77 132.092 290.787 132.092V128.092ZM275.63 132.307C271.256 134.988 267.813 138.724 265.303 143.464L268.838 145.336C271.033 141.191 273.992 138.002 277.72 135.717L275.63 132.307ZM265.293 143.484C262.901 148.127 261.739 153.483 261.739 159.492H265.739C265.739 154.003 266.798 149.297 268.849 145.316L265.293 143.484ZM261.739 159.492C261.739 165.503 262.901 170.913 265.282 175.674L268.859 173.886C266.797 169.761 265.739 164.98 265.739 159.492H261.739ZM265.303 175.716C267.813 180.456 271.256 184.192 275.63 186.873L277.72 183.463C273.992 181.178 271.033 177.989 268.838 173.844L265.303 175.716ZM275.63 186.873C280.033 189.572 285.109 190.892 290.787 190.892V186.892C285.75 186.892 281.417 185.729 277.72 183.463L275.63 186.873ZM346.719 256.12L347.001 254.14L346.927 254.129L346.852 254.124L346.719 256.12ZM341.819 255.532H339.819V257.172L341.426 257.493L341.819 255.532ZM341.819 230.444L342.166 228.474L339.819 228.06V230.444H341.819ZM361.027 227.504L359.76 225.956L359.742 225.971L359.725 225.985L361.027 227.504ZM365.339 105.984V103.984H363.339V105.984H365.339ZM394.739 105.984H396.739V103.984H394.739V105.984ZM389.643 238.284L387.911 237.283L387.898 237.306L387.885 237.329L389.643 238.284ZM375.139 251.808L374.289 249.998L374.266 250.008L374.244 250.019L375.139 251.808ZM365.339 96.38H363.339V98.38H365.339V96.38ZM365.339 66.98V64.98H363.339V66.98H365.339ZM394.739 66.98H396.739V64.98H394.739V66.98ZM394.739 96.38V98.38H396.739V96.38H394.739ZM352.403 254.512C350.532 254.512 348.732 254.387 347.001 254.14L346.436 258.1C348.364 258.375 350.354 258.512 352.403 258.512V254.512ZM346.852 254.124C344.942 253.997 343.402 253.809 342.211 253.571L341.426 257.493C342.848 257.778 344.575 257.982 346.586 258.116L346.852 254.124ZM343.819 255.532V230.444H339.819V255.532H343.819ZM341.471 232.414C343.805 232.826 346.143 233.032 348.483 233.032V229.032C346.38 229.032 344.275 228.846 342.166 228.474L341.471 232.414ZM348.483 233.032C354.326 233.032 359.068 231.817 362.328 229.023L359.725 225.985C357.498 227.895 353.876 229.032 348.483 229.032V233.032ZM362.293 229.052C365.752 226.222 367.339 222.05 367.339 216.92H363.339C363.339 221.198 362.051 224.082 359.76 225.956L362.293 229.052ZM367.339 216.92L367.339 105.984H363.339L363.339 216.92H367.339ZM365.339 107.984H394.739V103.984H365.339V107.984ZM392.739 105.984L392.739 216.92H396.739L396.739 105.984H392.739ZM392.739 216.92C392.739 225.012 391.096 231.771 387.911 237.283L391.374 239.285C394.984 233.037 396.739 225.553 396.739 216.92H392.739ZM387.885 237.329C384.83 242.952 380.32 247.167 374.289 249.998L375.988 253.618C382.763 250.439 387.922 245.638 391.4 239.239L387.885 237.329ZM374.244 250.019C368.314 252.984 361.058 254.512 352.403 254.512V258.512C361.518 258.512 369.419 256.904 376.033 253.597L374.244 250.019ZM367.339 96.38V66.98H363.339V96.38H367.339ZM365.339 68.98H394.739V64.98H365.339V68.98ZM392.739 66.98V96.38H396.739V66.98H392.739ZM394.739 94.38H365.339V98.38H394.739V94.38ZM438.205 207.904L437.164 209.612L437.174 209.618L437.184 209.624L438.205 207.904ZM418.801 187.52L420.562 186.572L420.562 186.572L418.801 187.52ZM418.997 130.68L417.265 129.679L417.259 129.689L417.254 129.699L418.997 130.68ZM438.401 110.884L439.426 112.601L439.426 112.601L438.401 110.884ZM488.381 107.748L487.606 109.592L487.622 109.599L487.638 109.605L488.381 107.748ZM504.845 118.92L503.372 120.273L503.382 120.284L503.392 120.294L504.845 118.92ZM515.233 135.776L513.355 136.466L513.36 136.478L515.233 135.776ZM518.369 162.628L516.384 162.38L516.377 162.437L516.373 162.495L518.369 162.628ZM517.389 167.724V169.724H518.79L519.268 168.407L517.389 167.724ZM437.225 167.724H435.225V169.724H437.225V167.724ZM437.225 146.164V144.164H435.225V146.164H437.225ZM500.729 146.164L501.91 147.778L506.844 144.164H500.729V146.164ZM486.813 156.356L484.865 155.903L483.643 161.157L487.994 157.97L486.813 156.356ZM486.617 141.46L484.714 142.076L484.716 142.084L484.719 142.092L486.617 141.46ZM478.973 131.072L477.782 132.679L477.815 132.704L477.85 132.727L478.973 131.072ZM452.709 130.876L451.586 129.221L451.586 129.221L452.709 130.876ZM444.477 141.852L446.347 142.56L446.347 142.56L444.477 141.852ZM442.321 159.492L444.313 159.665L444.326 159.522L444.317 159.379L442.321 159.492ZM444.477 175.368L442.638 176.156L442.638 176.156L444.477 175.368ZM453.493 186.148L452.408 187.829L452.428 187.841L452.448 187.853L453.493 186.148ZM481.521 186.736L480.555 184.985L480.541 184.992L480.528 185L481.521 186.736ZM490.341 178.112L491.199 176.305L489.524 175.51L488.604 177.12L490.341 178.112ZM513.861 189.284L515.718 190.027L516.415 188.283L514.719 187.477L513.861 189.284ZM503.865 203.004L502.563 201.485L502.552 201.495L502.541 201.504L503.865 203.004ZM487.989 212.216L488.633 214.109L488.651 214.103L488.669 214.097L487.989 212.216ZM467.801 213.352C456.731 213.352 447.231 210.937 439.226 206.184L437.184 209.624C445.904 214.802 456.135 217.352 467.801 217.352V213.352ZM439.245 206.196C431.181 201.282 424.964 194.747 420.562 186.572L417.04 188.468C421.784 197.279 428.503 204.334 437.164 209.612L439.245 206.196ZM420.562 186.572C416.156 178.39 413.941 169.312 413.941 159.296H409.941C409.941 169.926 412.299 179.663 417.04 188.468L420.562 186.572ZM413.941 159.296C413.941 148.884 416.223 139.69 420.74 131.661L417.254 129.699C412.362 138.395 409.941 148.279 409.941 159.296H413.941ZM420.728 131.681C425.396 123.606 431.624 117.257 439.426 112.601L437.376 109.167C428.974 114.18 422.266 121.029 417.265 129.679L420.728 131.681ZM439.426 112.601C447.192 107.966 455.98 105.632 465.841 105.632V101.632C455.318 101.632 445.812 104.132 437.376 109.167L439.426 112.601ZM465.841 105.632C474.12 105.632 481.362 106.969 487.606 109.592L489.155 105.904C482.333 103.039 474.548 101.632 465.841 101.632V105.632ZM487.638 109.605C493.914 112.115 499.146 115.675 503.372 120.273L506.317 117.567C501.658 112.496 495.914 108.607 489.123 105.891L487.638 109.605ZM503.392 120.294C507.774 124.927 511.094 130.311 513.355 136.466L517.11 135.086C514.667 128.436 511.062 122.582 506.298 117.546L503.392 120.294ZM513.36 136.478C515.619 142.502 516.761 149.121 516.761 156.356H520.761C520.761 148.695 519.55 141.594 517.105 135.074L513.36 136.478ZM516.761 156.356C516.761 158.363 516.635 160.371 516.384 162.38L520.353 162.876C520.625 160.704 520.761 158.53 520.761 156.356H516.761ZM516.373 162.495C516.252 164.317 515.952 165.822 515.509 167.041L519.268 168.407C519.871 166.751 520.224 164.859 520.364 162.761L516.373 162.495ZM517.389 165.724L437.225 165.724V169.724L517.389 169.724V165.724ZM439.225 167.724V146.164H435.225V167.724H439.225ZM437.225 148.164L500.729 148.164V144.164L437.225 144.164V148.164ZM499.547 144.55L485.631 154.742L487.994 157.97L501.91 147.778L499.547 144.55ZM488.761 156.809C490.129 150.926 490.096 145.573 488.514 140.828L484.719 142.092C486.012 145.971 486.11 150.548 484.865 155.903L488.761 156.809ZM488.52 140.844C486.953 136.004 484.144 132.164 480.096 129.417L477.85 132.727C481.118 134.945 483.405 138.031 484.714 142.076L488.52 140.844ZM480.163 129.465C476.229 126.551 471.412 125.152 465.841 125.152V129.152C470.723 129.152 474.661 130.367 477.782 132.679L480.163 129.465ZM465.841 125.152C460.407 125.152 455.624 126.481 451.586 129.221L453.832 132.531C457.111 130.306 461.082 129.152 465.841 129.152V125.152ZM451.586 129.221C447.531 131.972 444.556 135.991 442.606 141.144L446.347 142.56C448.056 138.043 450.569 134.745 453.832 132.531L451.586 129.221ZM442.606 141.144C440.65 146.314 439.921 152.491 440.324 159.605L444.317 159.379C443.936 152.643 444.645 147.059 446.347 142.56L442.606 141.144ZM440.328 159.319C439.783 165.588 440.524 171.222 442.638 176.156L446.315 174.58C444.51 170.368 443.813 165.417 444.313 159.665L440.328 159.319ZM442.638 176.156C444.75 181.083 448.012 184.992 452.408 187.829L454.577 184.467C450.872 182.077 448.123 178.8 446.315 174.58L442.638 176.156ZM452.448 187.853C456.873 190.566 462.152 191.872 468.193 191.872V187.872C462.734 187.872 458.214 186.696 454.538 184.443L452.448 187.853ZM468.193 191.872C473.685 191.872 478.488 190.773 482.513 188.472L480.528 185C477.236 186.881 473.154 187.872 468.193 187.872V191.872ZM482.487 188.487C486.589 186.224 489.799 183.091 492.077 179.104L488.604 177.12C486.701 180.451 484.031 183.067 480.555 184.985L482.487 188.487ZM489.483 179.919L513.003 191.091L514.719 187.477L491.199 176.305L489.483 179.919ZM512.004 188.541C510.041 193.447 506.909 197.76 502.563 201.485L505.166 204.523C509.967 200.408 513.499 195.574 515.718 190.027L512.004 188.541ZM502.541 201.504C498.306 205.242 493.238 208.191 487.308 210.335L488.669 214.097C495.022 211.799 500.538 208.606 505.188 204.504L502.541 201.504ZM487.344 210.323C481.435 212.334 474.926 213.352 467.801 213.352V217.352C475.31 217.352 482.26 216.279 488.633 214.109L487.344 210.323ZM559.593 208.1L558.584 209.827L558.599 209.836L558.615 209.845L559.593 208.1ZM539.209 187.912L537.482 188.921L537.488 188.931L537.494 188.941L539.209 187.912ZM539.209 130.876L540.929 131.897L540.936 131.885L539.209 130.876ZM559.593 110.884L560.571 112.629L560.571 112.629L559.593 110.884ZM610.749 107.748L610 109.602L610 109.602L610.749 107.748ZM628.193 119.312L626.76 120.707L626.769 120.717L626.779 120.726L628.193 119.312ZM638.581 136.56L639.372 138.397L641.029 137.683L640.489 135.961L638.581 136.56ZM613.101 147.536L611.208 148.182L611.907 150.228L613.892 149.373L613.101 147.536ZM603.693 134.796L602.517 136.413L602.528 136.422L602.54 136.43L603.693 134.796ZM574.881 133.816L573.836 132.111L573.823 132.118L573.811 132.126L574.881 133.816ZM565.473 144.204L563.705 143.268L563.695 143.289L563.684 143.31L565.473 144.204ZM565.473 174.78L563.684 175.674L563.695 175.695L563.705 175.716L565.473 174.78ZM574.881 185.168L573.811 186.858L573.823 186.866L573.836 186.873L574.881 185.168ZM603.889 184.188L605.065 185.805L605.065 185.805L603.889 184.188ZM613.101 171.448L613.904 169.616L611.911 168.743L611.208 170.802L613.101 171.448ZM638.581 182.62L640.49 183.217L641.024 181.507L639.384 180.788L638.581 182.62ZM628.389 199.476L626.956 198.081L626.956 198.081L628.389 199.476ZM610.945 211.236L611.694 213.09L611.709 213.084L611.724 213.078L610.945 211.236ZM588.601 213.352C578.199 213.352 568.872 211.009 560.571 206.355L558.615 209.845C567.562 214.861 577.573 217.352 588.601 217.352V213.352ZM560.602 206.373C552.401 201.579 545.848 195.09 540.924 186.883L537.494 188.941C542.762 197.72 549.798 204.69 558.584 209.827L560.602 206.373ZM540.936 186.903C536.163 178.739 533.761 169.553 533.761 159.296H529.761C529.761 170.207 532.324 180.099 537.482 188.921L540.936 186.903ZM533.761 159.296C533.761 149.039 536.163 139.924 540.929 131.897L537.489 129.855C532.324 138.554 529.761 148.385 529.761 159.296H533.761ZM540.936 131.885C545.72 123.701 552.256 117.29 560.571 112.629L558.615 109.139C549.682 114.147 542.628 121.064 537.482 129.867L540.936 131.885ZM560.571 112.629C568.872 107.975 578.199 105.632 588.601 105.632V101.632C577.573 101.632 567.562 104.123 558.615 109.139L560.571 112.629ZM588.601 105.632C596.338 105.632 603.464 106.963 610 109.602L611.498 105.894C604.445 103.045 596.806 101.632 588.601 101.632V105.632ZM610 109.602C616.552 112.249 622.13 115.952 626.76 120.707L629.626 117.917C624.587 112.741 618.535 108.735 611.498 105.894L610 109.602ZM626.779 120.726C631.38 125.328 634.676 130.796 636.673 137.159L640.489 135.961C638.304 128.996 634.675 122.966 629.607 117.898L626.779 120.726ZM637.79 134.723L612.31 145.699L613.892 149.373L639.372 138.397L637.79 134.723ZM614.994 146.89C613.034 141.151 609.648 136.552 604.846 133.162L602.54 136.43C606.623 139.312 609.509 143.206 611.208 148.182L614.994 146.89ZM604.869 133.179C600.188 129.774 594.738 128.092 588.601 128.092V132.092C593.963 132.092 598.574 133.546 602.517 136.413L604.869 133.179ZM588.601 128.092C583.164 128.092 578.224 129.421 573.836 132.111L575.926 135.521C579.639 133.245 583.846 132.092 588.601 132.092V128.092ZM573.811 132.126C569.572 134.811 566.206 138.544 563.705 143.268L567.241 145.14C569.444 140.978 572.35 137.787 575.951 135.506L573.811 132.126ZM563.684 143.31C561.304 148.071 560.141 153.481 560.141 159.492H564.141C564.141 154.004 565.2 149.223 567.262 145.098L563.684 143.31ZM560.141 159.492C560.141 165.503 561.304 170.913 563.684 175.674L567.262 173.886C565.2 169.761 564.141 164.98 564.141 159.492H560.141ZM563.705 175.716C566.206 180.44 569.572 184.173 573.811 186.858L575.951 183.478C572.35 181.197 569.444 178.006 567.241 173.844L563.705 175.716ZM573.836 186.873C578.224 189.563 583.164 190.892 588.601 190.892V186.892C583.846 186.892 579.639 185.739 575.926 183.463L573.836 186.873ZM588.601 190.892C594.858 190.892 600.376 189.216 605.065 185.805L602.713 182.571C598.778 185.432 594.104 186.892 588.601 186.892V190.892ZM605.065 185.805C609.732 182.412 613.04 177.816 614.994 172.094L611.208 170.802C609.503 175.795 606.67 179.692 602.713 182.571L605.065 185.805ZM612.298 173.28L637.778 184.452L639.384 180.788L613.904 169.616L612.298 173.28ZM636.672 182.023C634.811 187.979 631.584 193.328 626.956 198.081L629.822 200.871C634.863 195.693 638.431 189.805 640.49 183.217L636.672 182.023ZM626.956 198.081C622.319 202.843 616.731 206.616 610.166 209.394L611.724 213.078C618.748 210.106 624.79 206.04 629.822 200.871L626.956 198.081ZM610.196 209.382C603.663 212.02 596.473 213.352 588.601 213.352V217.352C596.932 217.352 604.637 215.94 611.694 213.09L610.196 209.382ZM677.257 203.788L675.843 205.202L675.856 205.215L675.869 205.228L677.257 203.788ZM666.673 131.464H668.673V129.464H666.673V131.464ZM648.641 131.464H646.641V133.464H648.641V131.464ZM648.641 105.984V103.984H646.641V105.984H648.641ZM662.165 101.868L660.817 100.391L660.8 100.406L660.784 100.421L662.165 101.868ZM666.673 81.68V79.68H664.673V81.68H666.673ZM696.073 81.68H698.073V79.68H696.073V81.68ZM696.073 105.984H694.073V107.984H696.073V105.984ZM721.161 105.984H723.161V103.984H721.161V105.984ZM721.161 131.464V133.464H723.161V131.464H721.161ZM696.073 131.464V129.464H694.073V131.464H696.073ZM698.033 181.64L696.263 182.571L696.274 182.592L696.285 182.611L698.033 181.64ZM704.109 186.932L704.897 185.094L704.897 185.094L704.109 186.932ZM717.437 188.5L717.658 190.488L717.658 190.488L717.437 188.5ZM721.161 188.108H723.161V185.898L720.962 186.118L721.161 188.108ZM721.161 213L721.426 214.982L723.161 214.751V213H721.161ZM714.497 213.784L714.288 211.795L714.288 211.795L714.497 213.784ZM707.441 212.176C694.864 212.176 685.358 208.817 678.645 202.348L675.869 205.228C683.53 212.61 694.147 216.176 707.441 216.176V212.176ZM678.671 202.374C672.081 195.784 668.673 186.545 668.673 174.388H664.673C664.673 187.319 668.321 197.68 675.843 205.202L678.671 202.374ZM668.673 174.388V131.464H664.673V174.388H668.673ZM666.673 129.464H648.641V133.464H666.673V129.464ZM650.641 131.464V105.984H646.641V131.464H650.641ZM648.641 107.984H649.621V103.984H648.641V107.984ZM649.621 107.984C655.425 107.984 660.177 106.531 663.546 103.315L660.784 100.421C658.404 102.693 654.793 103.984 649.621 103.984V107.984ZM663.514 103.345C667.064 100.103 668.673 95.3655 668.673 89.52H664.673C664.673 94.6505 663.277 98.1448 660.817 100.391L663.514 103.345ZM668.673 89.52V81.68H664.673V89.52H668.673ZM666.673 83.68L696.073 83.68V79.68L666.673 79.68V83.68ZM694.073 81.68V105.984H698.073V81.68H694.073ZM696.073 107.984H721.161V103.984H696.073V107.984ZM719.161 105.984V131.464H723.161V105.984H719.161ZM721.161 129.464H696.073V133.464H721.161V129.464ZM694.073 131.464V172.428H698.073V131.464H694.073ZM694.073 172.428C694.073 176.316 694.767 179.728 696.263 182.571L699.803 180.709C698.687 178.587 698.073 175.858 698.073 172.428H694.073ZM696.285 182.611C697.831 185.393 700.217 187.44 703.321 188.77L704.897 185.094C702.513 184.072 700.849 182.591 699.782 180.669L696.285 182.611ZM703.321 188.77C706.386 190.084 710.071 190.696 714.301 190.696V186.696C710.431 186.696 707.32 186.132 704.897 185.094L703.321 188.77ZM714.301 190.696C715.307 190.696 716.429 190.624 717.658 190.488L717.216 186.512C716.094 186.637 715.124 186.696 714.301 186.696V190.696ZM717.658 190.488C718.826 190.358 720.06 190.228 721.36 190.098L720.962 186.118C719.649 186.249 718.4 186.381 717.216 186.512L717.658 190.488ZM719.161 188.108V213H723.161V188.108H719.161ZM720.897 211.018C718.959 211.276 716.757 211.535 714.288 211.795L714.707 215.773C717.203 215.51 719.443 215.247 721.426 214.982L720.897 211.018ZM714.288 211.795C711.866 212.05 709.585 212.176 707.441 212.176V216.176C709.74 216.176 712.163 216.041 714.707 215.773L714.288 211.795ZM749.561 207.12L748.47 208.796L748.484 208.805L748.499 208.815L749.561 207.12ZM731.921 184.58L731.067 182.772L729.463 183.53L730.024 185.212L731.921 184.58ZM753.481 174.388L755.286 173.527L754.428 171.728L752.627 172.58L753.481 174.388ZM764.653 187.912L763.513 189.555L763.513 189.555L764.653 187.912ZM789.937 190.264L791.152 191.853L791.152 191.853L789.937 190.264ZM792.093 179.288L790.429 180.397L790.46 180.444L790.493 180.488L792.093 179.288ZM782.685 173.8L782.147 175.726L782.15 175.727L782.685 173.8ZM764.457 168.704L763.912 170.628L763.919 170.63L764.457 168.704ZM744.269 156.748L742.736 158.032L742.743 158.041L742.751 158.05L744.269 156.748ZM756.617 107.944L757.433 109.77L757.449 109.763L757.465 109.755L756.617 107.944ZM805.225 111.08L804.155 112.77L804.172 112.78L804.188 112.79L805.225 111.08ZM822.081 131.66L822.93 133.471L824.592 132.693L823.959 130.97L822.081 131.66ZM800.325 141.852L798.439 142.518L799.174 144.6L801.174 143.663L800.325 141.852ZM791.701 131.268L790.58 132.924L790.61 132.944L790.641 132.964L791.701 131.268ZM768.769 129.504L767.616 127.87L767.592 127.887L767.569 127.904L768.769 129.504ZM766.809 139.892L765.145 141.001L765.145 141.001L766.809 139.892ZM770.533 143.028L769.585 144.789L769.612 144.803L769.639 144.817L770.533 143.028ZM777.197 145.576L776.623 147.492L776.625 147.492L777.197 145.576ZM794.249 150.672L793.677 152.588L793.685 152.591L794.249 150.672ZM814.633 162.628L813.131 163.948L813.139 163.957L813.147 163.966L814.633 162.628ZM816.397 199.476L814.767 198.318L814.757 198.332L814.747 198.347L816.397 199.476ZM802.089 211.236L802.905 213.062L802.921 213.055L802.937 213.047L802.089 211.236ZM780.333 213.352C768.896 213.352 759.018 210.687 750.624 205.425L748.499 208.815C757.614 214.529 768.251 217.352 780.333 217.352V213.352ZM750.653 205.444C742.392 200.062 736.806 192.91 733.819 183.948L730.024 185.212C733.309 195.066 739.482 202.94 748.47 208.796L750.653 205.444ZM732.776 186.388L754.336 176.196L752.627 172.58L731.067 182.772L732.776 186.388ZM751.676 175.249C754.553 181.276 758.492 186.068 763.513 189.555L765.794 186.269C761.407 183.222 757.898 178.998 755.286 173.527L751.676 175.249ZM763.513 189.555C768.553 193.055 774.178 194.812 780.333 194.812V190.812C774.99 190.812 770.162 189.302 765.794 186.269L763.513 189.555ZM780.333 194.812C784.746 194.812 788.447 193.921 791.152 191.853L788.722 188.675C786.985 190.004 784.283 190.812 780.333 190.812V194.812ZM791.152 191.853C793.91 189.744 795.269 186.782 795.269 183.208H791.269C791.269 185.644 790.408 187.387 788.722 188.675L791.152 191.853ZM795.269 183.208C795.269 181.296 794.786 179.545 793.693 178.088L790.493 180.488C790.969 181.122 791.269 181.984 791.269 183.208H795.269ZM793.757 178.179C792.764 176.688 791.332 175.45 789.573 174.424L787.558 177.88C788.935 178.683 789.855 179.536 790.429 180.397L793.757 178.179ZM789.573 174.424C787.816 173.399 785.685 172.558 783.221 171.873L782.15 175.727C784.39 176.349 786.179 177.075 787.558 177.88L789.573 174.424ZM783.224 171.874L764.996 166.778L763.919 170.63L782.147 175.726L783.224 171.874ZM765.003 166.78C756.529 164.377 750.177 160.567 745.788 155.446L742.751 158.05C747.77 163.905 754.877 168.066 763.912 170.628L765.003 166.78ZM745.803 155.464C741.411 150.219 739.213 144.079 739.213 136.952H735.213C735.213 144.983 737.719 152.04 742.736 158.032L745.803 155.464ZM739.213 136.952C739.213 130.646 740.815 125.235 743.96 120.637L740.659 118.379C737.01 123.712 735.213 129.93 735.213 136.952H739.213ZM743.96 120.637C747.125 116.012 751.588 112.382 757.433 109.77L755.801 106.118C749.364 108.994 744.289 113.073 740.659 118.379L743.96 120.637ZM757.465 109.755C763.299 107.025 770.057 105.632 777.785 105.632V101.632C769.573 101.632 762.219 103.114 755.769 106.133L757.465 109.755ZM777.785 105.632C787.909 105.632 796.675 108.032 804.155 112.77L806.295 109.39C798.096 104.197 788.568 101.632 777.785 101.632V105.632ZM804.188 112.79C811.765 117.386 817.091 123.883 820.204 132.35L823.959 130.97C820.538 121.666 814.627 114.444 806.263 109.37L804.188 112.79ZM821.233 129.849L799.477 140.041L801.174 143.663L822.93 133.471L821.233 129.849ZM802.211 141.186C800.485 136.296 797.307 132.413 792.761 129.572L790.641 132.964C794.458 135.349 797.03 138.523 798.439 142.518L802.211 141.186ZM792.823 129.612C788.418 126.628 783.383 125.152 777.785 125.152V129.152C782.641 129.152 786.883 130.42 790.58 132.924L792.823 129.612ZM777.785 125.152C773.741 125.152 770.284 125.987 767.616 127.87L769.923 131.138C771.697 129.885 774.251 129.152 777.785 129.152V125.152ZM767.569 127.904C764.946 129.871 763.633 132.635 763.633 135.972H767.633C767.633 133.821 768.411 132.273 769.969 131.104L767.569 127.904ZM763.633 135.972C763.633 137.797 764.138 139.491 765.145 141.001L768.473 138.783C767.912 137.941 767.633 137.022 767.633 135.972H763.633ZM765.145 141.001C766.165 142.531 767.698 143.773 769.585 144.789L771.482 141.267C769.971 140.454 769.022 139.605 768.473 138.783L765.145 141.001ZM769.639 144.817C771.598 145.797 773.933 146.685 776.623 147.492L777.772 143.66C775.235 142.899 773.127 142.089 771.428 141.239L769.639 144.817ZM776.625 147.492L793.677 152.588L794.822 148.756L777.77 143.66L776.625 147.492ZM793.685 152.591C802.314 155.129 808.741 158.948 813.131 163.948L816.136 161.308C811.118 155.593 803.955 151.442 794.814 148.753L793.685 152.591ZM813.147 163.966C817.487 168.789 819.689 174.765 819.689 182.032H823.689C823.689 173.88 821.187 166.921 816.12 161.29L813.147 163.966ZM819.689 182.032C819.689 188.322 818.032 193.723 814.767 198.318L818.028 200.634C821.819 195.299 823.689 189.07 823.689 182.032H819.689ZM814.747 198.347C811.576 202.981 807.101 206.682 801.241 209.425L802.937 213.047C809.36 210.041 814.424 205.902 818.048 200.605L814.747 198.347ZM801.274 209.41C795.443 212.015 788.481 213.352 780.333 213.352V217.352C788.911 217.352 796.453 215.945 802.905 213.062L801.274 209.41Z" fill="black" mask="url(#path-1-outside-1_790_2110)"/>
</svg>
