<svg width="592" height="592" viewBox="0 0 592 592" fill="none" xmlns="http://www.w3.org/2000/svg">
<path d="M216.291 295.61C216.291 279.908 220.947 264.559 229.67 251.503C238.394 238.448 250.793 228.272 265.299 222.263C279.806 216.254 295.769 214.682 311.169 217.745C326.569 220.809 340.715 228.37 351.818 239.473C362.921 250.576 370.482 264.722 373.545 280.122C376.608 295.522 375.036 311.485 369.027 325.991C363.018 340.498 352.843 352.897 339.787 361.62C326.732 370.344 311.382 375 295.681 375C274.631 374.979 254.451 366.608 239.567 351.724C224.683 336.84 216.312 316.659 216.291 295.61ZM368.681 295.61C368.681 281.172 364.399 267.058 356.378 255.053C348.356 243.049 336.955 233.692 323.616 228.167C310.277 222.642 295.6 221.196 281.439 224.013C267.278 226.829 254.271 233.782 244.062 243.991C233.853 254.2 226.9 267.208 224.083 281.368C221.266 295.529 222.712 310.207 228.237 323.546C233.763 336.885 243.119 348.286 255.124 356.307C267.129 364.329 281.242 368.61 295.681 368.61C315.035 368.589 333.59 360.891 347.276 347.205C360.962 333.52 368.659 314.964 368.681 295.61Z" fill="url(#paint0_linear_27_41245)"/>
<path d="M192.26 295.61C192.26 275.155 198.326 255.16 209.69 238.153C221.054 221.146 237.206 207.89 256.103 200.062C275.001 192.235 295.795 190.187 315.857 194.177C335.918 198.168 354.346 208.017 368.809 222.481C383.273 236.945 393.123 255.372 397.113 275.434C401.104 295.495 399.056 316.29 391.228 335.187C383.401 354.085 370.145 370.237 353.138 381.601C336.13 392.965 316.135 399.03 295.68 399.03C268.261 399.001 241.972 388.096 222.584 368.707C203.195 349.318 192.29 323.03 192.26 295.61ZM393.33 295.61C393.332 276.294 387.606 257.411 376.876 241.349C366.146 225.288 350.893 212.769 333.048 205.376C315.203 197.983 295.566 196.048 276.62 199.816C257.675 203.584 240.273 212.885 226.614 226.544C212.956 240.203 203.654 257.605 199.887 276.55C196.119 295.495 198.053 315.132 205.446 332.977C212.839 350.823 225.358 366.075 241.42 376.805C257.481 387.536 276.364 393.262 295.68 393.26C321.57 393.231 346.391 382.933 364.697 364.627C383.004 346.32 393.301 321.499 393.33 295.61Z" fill="url(#paint1_linear_27_41245)"/>
<path d="M168.23 295.61C168.23 270.403 175.705 245.762 189.71 224.803C203.714 203.844 223.619 187.508 246.907 177.862C270.196 168.215 295.822 165.691 320.545 170.609C345.268 175.527 367.977 187.665 385.801 205.489C403.625 223.313 415.764 246.023 420.682 270.746C425.599 295.469 423.075 321.095 413.429 344.383C403.783 367.671 387.447 387.576 366.488 401.581C345.529 415.585 320.888 423.06 295.68 423.06C261.89 423.023 229.494 409.583 205.601 385.69C181.707 361.796 168.268 329.4 168.23 295.61ZM417.99 295.61C417.988 271.42 410.813 247.773 397.373 227.661C383.932 207.548 364.829 191.873 342.48 182.617C320.13 173.362 295.538 170.941 271.813 175.661C248.088 180.382 226.295 192.032 209.191 209.137C192.086 226.243 180.438 248.037 175.72 271.762C171.001 295.488 173.424 320.08 182.682 342.428C191.939 364.777 207.616 383.879 227.73 397.318C247.843 410.757 271.49 417.93 295.68 417.93C328.111 417.896 359.204 404.997 382.136 382.065C405.068 359.133 417.966 328.041 418 295.61H417.99Z" fill="url(#paint2_linear_27_41245)"/>
<path d="M144.19 295.61C144.19 212.08 212.19 144.12 295.68 144.12C379.17 144.12 447.16 212.12 447.16 295.61C447.16 379.1 379.16 447.09 295.68 447.09C212.2 447.09 144.19 379.14 144.19 295.61ZM442.64 295.61C442.64 214.61 376.71 148.61 295.64 148.61C214.57 148.61 148.64 214.53 148.64 295.61C148.64 376.69 214.56 442.61 295.64 442.61C376.72 442.61 442.64 376.64 442.64 295.61Z" fill="url(#paint3_linear_27_41245)"/>
<path d="M120.161 295.61C120.16 255.002 134.239 215.651 160 184.261C185.761 152.87 221.609 131.383 261.436 123.46C301.263 115.538 342.605 121.669 378.418 140.811C414.231 159.953 442.299 190.92 457.839 228.436C473.379 265.953 475.431 307.697 463.643 346.556C451.856 385.415 426.96 418.985 393.196 441.546C359.432 464.106 318.891 474.262 278.479 470.282C238.067 466.302 200.285 448.434 171.571 419.72C155.221 403.459 142.259 384.118 133.435 362.814C124.61 341.511 120.098 318.669 120.161 295.61ZM467.291 295.61C467.291 200.98 390.291 123.99 295.681 123.99C201.071 123.99 124.061 200.99 124.061 295.61C124.061 390.23 201.061 467.22 295.681 467.22C390.301 467.22 467.291 390.24 467.291 295.61Z" fill="url(#paint4_linear_27_41245)"/>
<path d="M96.1306 295.61C96.1282 249.44 112.135 204.698 141.423 169.007C170.711 133.316 211.468 108.885 256.751 99.8757C302.033 90.8666 349.038 97.8374 389.757 119.6C430.475 141.363 462.388 176.572 480.058 219.226C497.727 261.881 500.06 309.343 486.659 353.525C473.257 397.707 444.951 435.875 406.563 461.526C368.174 487.177 322.079 498.724 276.132 494.199C230.184 489.674 187.228 469.357 154.581 436.71C135.992 418.224 121.255 396.235 111.222 372.015C101.189 347.795 96.0596 321.826 96.1306 295.61ZM491.951 295.61C492.001 187.39 403.901 99.3401 295.681 99.3401C187.461 99.3401 99.4106 187.39 99.4106 295.61C99.4106 403.83 187.461 491.93 295.681 491.93C403.901 491.93 492.001 403.83 492.001 295.61H491.951Z" fill="url(#paint5_linear_27_41245)"/>
<path d="M72.1004 295.61C72.1005 243.883 90.0361 193.757 122.851 153.772C155.667 113.787 201.331 86.4167 252.064 76.3258C302.797 66.2348 355.459 74.0471 401.078 98.4315C446.696 122.816 482.449 162.264 502.243 210.053C522.037 257.843 524.648 311.017 509.632 360.516C494.615 410.015 462.9 452.776 419.89 481.513C376.88 510.25 325.237 523.184 273.76 518.113C222.282 513.041 174.156 490.277 137.58 453.7C116.756 432.987 100.246 408.35 89.0061 381.213C77.7665 354.077 72.0204 324.982 72.1004 295.61ZM516.6 295.61C516.6 173.79 417.49 74.69 295.68 74.69C173.87 74.69 74.7604 173.79 74.7604 295.61C74.7604 417.43 173.86 516.53 295.68 516.53C417.5 516.53 516.6 417.42 516.6 295.61Z" fill="url(#paint6_linear_27_41245)"/>
<path d="M48.0605 295.61C48.0572 246.634 62.5778 198.758 89.786 158.035C116.994 117.313 155.668 85.5732 200.915 66.8313C246.163 48.0893 295.952 43.1866 343.987 52.7432C392.021 62.2998 436.142 85.8864 470.77 120.52C517.207 166.957 543.295 229.939 543.295 295.61C543.295 361.282 517.207 424.263 470.77 470.7C424.334 517.137 361.352 543.225 295.68 543.225C230.009 543.225 167.027 517.137 120.59 470.7C97.5245 447.761 79.2374 420.474 66.7877 390.42C54.3379 360.366 47.9727 328.141 48.0605 295.61ZM541.25 295.61C541.25 160.2 431.09 50.0301 295.68 50.0301C160.27 50.0301 50.1005 160.2 50.1005 295.61C50.1005 431.02 160.27 541.18 295.68 541.18C431.09 541.18 541.25 431.02 541.25 295.61Z" fill="url(#paint7_linear_27_41245)"/>
<path d="M24.0004 295.61C23.9919 241.876 39.9201 189.347 69.7702 144.666C99.6203 99.9863 142.051 65.1629 191.696 44.6012C241.34 24.0396 295.967 18.6634 348.667 29.1529C401.368 39.6423 449.773 65.526 487.76 103.53C538.703 154.473 567.323 223.566 567.323 295.61C567.323 367.654 538.703 436.747 487.76 487.69C436.818 538.633 367.724 567.252 295.68 567.252C223.636 567.252 154.543 538.633 103.6 487.69C78.29 462.528 58.2222 432.595 44.5588 399.624C30.8953 366.653 23.9077 331.3 24.0004 295.61ZM565.88 295.61C565.88 146.61 444.65 25.3799 295.65 25.3799C146.65 25.3799 25.4504 146.6 25.4504 295.61C25.4504 444.62 146.67 565.84 295.68 565.84C444.69 565.84 565.91 444.61 565.91 295.61H565.88Z" fill="url(#paint8_linear_27_41245)"/>
<path d="M0.000539054 295.61C0.0488486 227.399 23.6727 161.302 66.8708 108.514C110.069 55.7252 170.185 19.4908 237.038 5.94772C303.891 -7.59532 373.37 2.38559 433.707 34.1999C494.044 66.0142 541.529 117.706 568.121 180.52C583.234 216.297 591.153 254.701 591.425 293.539C591.697 332.377 584.317 370.888 569.706 406.873C555.094 442.859 533.538 475.614 506.268 503.269C478.998 530.924 446.548 552.936 410.771 568.05C374.993 583.164 336.589 591.083 297.752 591.355C258.914 591.627 220.403 584.246 184.417 569.635C111.741 540.126 53.7643 482.956 23.2405 410.7C7.82928 374.291 -0.0751917 335.146 0.000539054 295.61ZM590.561 295.61C590.561 133.01 458.281 0.730058 295.681 0.730058C133.081 0.730058 0.800539 133.01 0.800539 295.61C0.800539 458.21 133.081 590.49 295.681 590.49C458.281 590.49 590.561 458.21 590.561 295.61Z" fill="url(#paint9_linear_27_41245)"/>
<path d="M158.321 251.53C175.011 247.85 191.57 246.06 206.68 240.38C223.49 234.06 239.001 224.19 255.001 215.93C265.001 210.75 275.111 205.57 285.251 200.57C292.961 196.76 295.631 198.49 295.641 206.95V384.24C295.641 395.24 293.451 396.7 283.811 391.71C264.73 381.82 245.54 372.11 226.811 361.58C206.867 350.304 184.436 344.154 161.531 343.68C160.591 343.68 159.671 343.51 158.271 343.39L158.321 251.53Z" fill="url(#paint10_linear_27_41245)"/>
<path d="M147.141 343.34C131.461 341.93 116.081 344.54 101.281 339.01C80.3705 331.19 67.4405 314.86 67.6205 296.08C67.8005 277.3 81.5105 260.59 102.621 253.51C117.091 248.66 132.021 250.44 147.171 249.7L147.141 343.34ZM112.561 320.93C117.271 320.93 122.071 321.43 126.671 320.71C128.801 320.38 131.751 317.93 132.211 315.95C133.031 312.39 130.211 310.62 126.641 310.6C117.211 310.6 107.771 310.31 98.3605 310.81C96.3605 310.91 93.4305 313.59 92.9505 315.57C92.0905 319.14 94.8005 320.93 98.4105 320.93H112.561ZM112.491 282.39C117.211 282.39 122.021 282.9 126.621 282.17C128.751 281.82 131.751 279.29 132.141 277.32C132.831 273.84 130.051 272.07 126.441 272.08C117.194 272.08 107.941 272.08 98.6805 272.08C95.1005 272.08 92.7805 273.48 92.8205 277.31C92.8605 281.14 95.4505 282.4 98.9005 282.4L112.491 282.39ZM112.201 301.7C117.09 301.7 122.061 302.21 126.84 301.46C128.91 301.14 130.571 298.21 132.421 296.46C130.561 294.75 128.78 291.66 126.84 291.55C117.257 291.04 107.654 291.04 98.0705 291.55C96.1905 291.65 94.4705 294.76 92.6805 296.49C94.4805 298.22 96.0905 301.12 98.1205 301.49C102.701 302.23 107.491 301.71 112.201 301.71V301.7Z" fill="url(#paint11_linear_27_41245)"/>
<path d="M118.79 353.66H147.48C147.48 362.8 147.72 371.61 147.4 380.39C147.15 387.04 149.24 392.39 153.59 397.39C164.344 409.777 174.86 422.37 185.14 435.17C186.66 437.04 187.78 440.51 187.06 442.53C186.5 444.12 182.83 444.62 180.54 445.58C180.38 445.65 180.16 445.58 179.98 445.58C162.98 448.58 150.51 442.88 141.27 427.91C135.88 419.17 128.13 411.91 121.58 403.85C120.34 402.33 118.97 400.31 118.94 398.5C118.71 385.1 118.8 371.7 118.79 358.3V353.66Z" fill="url(#paint12_linear_27_41245)"/>
<path d="M158.111 382.14V353.74L177.711 355.38C177.711 362.83 178.091 369.95 177.461 376.98C177.291 378.85 174.181 381.54 172.081 381.91C167.711 382.68 163.121 382.14 158.111 382.14Z" fill="url(#paint13_linear_27_41245)"/>
<path d="M301.331 216.44V222.85C319.607 224.336 336.655 232.645 349.085 246.126C361.515 259.608 368.416 277.273 368.416 295.61C368.416 313.947 361.515 331.612 349.085 345.093C336.655 358.575 319.607 366.884 301.331 368.37V374.77C321.366 373.363 340.123 364.411 353.819 349.72C367.515 335.028 375.131 315.69 375.131 295.605C375.131 275.52 367.515 256.182 353.819 241.49C340.123 226.799 321.366 217.847 301.331 216.44Z" fill="url(#paint14_linear_27_41245)"/>
<path d="M301.331 192.34V198.12C326.254 199.503 349.702 210.378 366.856 228.511C384.011 246.644 393.57 270.658 393.57 295.62C393.57 320.582 384.011 344.596 366.856 362.729C349.702 380.862 326.254 391.737 301.331 393.12V398.89C327.74 397.443 352.591 385.932 370.774 366.725C388.957 347.518 399.091 322.074 399.091 295.625C399.091 269.176 388.957 243.733 370.774 224.525C352.591 205.318 327.74 193.808 301.331 192.36V192.34Z" fill="url(#paint15_linear_27_41245)"/>
<path d="M301.331 168.29V173.44C332.757 174.89 362.416 188.395 384.143 211.148C405.87 233.9 417.993 264.15 417.993 295.61C417.993 327.07 405.87 357.32 384.143 380.073C362.416 402.825 332.757 416.33 301.331 417.78V422.93C369.001 419.93 423.131 363.99 423.131 295.61C423.131 227.23 369.001 171.26 301.331 168.29Z" fill="url(#paint16_linear_27_41245)"/>
<path d="M301.331 144.24V148.77C379.761 151.77 442.641 216.47 442.641 295.61C442.641 374.75 379.761 439.47 301.331 442.45V446.98C382.251 443.98 447.161 377.24 447.161 295.61C447.161 213.98 382.251 147.22 301.331 144.24Z" fill="url(#paint17_linear_27_41245)"/>
<path d="M419.791 171.5C388.328 139.863 345.93 121.498 301.331 120.19V124.1C393.331 127.1 467.331 202.87 467.331 295.61C467.331 388.35 393.391 464.12 301.331 467.12V471.03C335.546 469.93 368.693 458.848 396.69 439.149C424.687 419.449 446.312 391.992 458.902 360.158C471.492 328.324 474.498 293.503 467.548 259.982C460.599 226.462 443.998 195.705 419.791 171.5Z" fill="url(#paint18_linear_27_41245)"/>
<path d="M436.781 154.51C400.824 118.348 352.31 97.4411 301.331 96.1399V99.4299C407.001 102.43 492.001 189.28 492.001 295.61C492.001 401.94 407.001 488.79 301.331 491.79V495.07C340.3 493.968 378.093 481.474 410.042 459.132C441.99 436.79 466.694 405.579 481.101 369.354C495.509 333.128 498.99 293.476 491.113 255.295C483.237 217.114 464.348 182.076 436.781 154.51Z" fill="url(#paint19_linear_27_41245)"/>
<path d="M453.771 137.51C413.318 96.8285 358.687 73.3871 301.331 72.1001V74.7601C420.551 77.7601 516.601 175.68 516.601 295.61C516.601 415.54 420.551 513.45 301.331 516.46V519.12C345.056 518.015 387.498 504.109 423.399 479.123C459.3 454.137 487.083 419.17 503.309 378.551C519.535 337.932 523.49 293.446 514.685 250.602C505.879 207.758 484.7 168.437 453.771 137.51Z" fill="url(#paint20_linear_27_41245)"/>
<path d="M470.771 120.52C425.817 75.3187 365.067 49.3395 301.331 48.0601V50.0601C434.141 53.0601 541.251 162.06 541.251 295.56C541.251 429.06 434.141 538.09 301.331 541.11V543.11C349.801 541.996 396.878 526.677 436.722 499.053C476.566 471.429 507.423 432.716 525.467 387.715C543.51 342.714 547.945 293.406 538.222 245.908C528.499 198.41 505.045 154.811 470.771 120.52Z" fill="url(#paint21_linear_27_41245)"/>
<path d="M487.761 103.53C438.315 53.8029 371.446 25.2878 301.331 24.03V25.45C447.741 28.45 565.911 148.45 565.911 295.61C565.911 442.77 447.741 562.74 301.331 565.76V567.19C354.563 566.083 406.297 549.356 450.102 519.088C493.906 488.82 527.849 446.346 547.712 396.946C567.575 347.545 572.483 293.396 561.824 241.23C551.165 189.063 525.41 141.179 487.761 103.53Z" fill="url(#paint22_linear_27_41245)"/>
<path d="M568.121 180.52C545.897 127.835 508.859 82.7328 461.501 50.6886C414.143 18.6445 358.502 1.03583 301.331 0V0.8C461.331 3.8 590.561 134.9 590.561 295.61C590.561 456.32 461.331 587.39 301.331 590.42V591.22C349.638 590.275 396.979 577.511 439.215 554.044C481.45 530.578 517.295 497.123 543.616 456.605C569.937 416.087 585.932 369.738 590.204 321.61C594.475 273.482 586.893 225.041 568.121 180.52Z" fill="url(#paint23_linear_27_41245)"/>
<path d="M158.321 251.53C175.011 247.85 191.57 246.06 206.68 240.38C223.49 234.06 239.001 224.19 255.001 215.93C265.001 210.75 275.111 205.57 285.251 200.57C292.961 196.76 295.631 198.49 295.641 206.95V384.24C295.641 395.24 293.451 396.7 283.811 391.71C264.73 381.82 245.54 372.11 226.811 361.58C206.867 350.304 184.436 344.154 161.531 343.68C160.591 343.68 159.671 343.51 158.271 343.39L158.321 251.53Z" fill="url(#paint24_linear_27_41245)"/>
<path d="M147.141 343.34C131.461 341.93 116.081 344.54 101.281 339.01C80.3705 331.19 67.4405 314.86 67.6205 296.08C67.8005 277.3 81.5105 260.59 102.621 253.51C117.091 248.66 132.021 250.44 147.171 249.7L147.141 343.34ZM112.561 320.93C117.271 320.93 122.071 321.43 126.671 320.71C128.801 320.38 131.751 317.93 132.211 315.95C133.031 312.39 130.211 310.62 126.641 310.6C117.211 310.6 107.771 310.31 98.3605 310.81C96.3605 310.91 93.4305 313.59 92.9505 315.57C92.0905 319.14 94.8005 320.93 98.4105 320.93H112.561ZM112.491 282.39C117.211 282.39 122.021 282.9 126.621 282.17C128.751 281.82 131.751 279.29 132.141 277.32C132.831 273.84 130.051 272.07 126.441 272.08C117.194 272.08 107.941 272.08 98.6805 272.08C95.1005 272.08 92.7805 273.48 92.8205 277.31C92.8605 281.14 95.4505 282.4 98.9005 282.4L112.491 282.39ZM112.201 301.7C117.09 301.7 122.061 302.21 126.84 301.46C128.91 301.14 130.571 298.21 132.421 296.46C130.561 294.75 128.78 291.66 126.84 291.55C117.257 291.04 107.654 291.04 98.0705 291.55C96.1905 291.65 94.4705 294.76 92.6805 296.49C94.4805 298.22 96.0905 301.12 98.1205 301.49C102.701 302.23 107.491 301.71 112.201 301.71V301.7Z" fill="url(#paint25_linear_27_41245)"/>
<path d="M118.79 353.66H147.48C147.48 362.8 147.72 371.61 147.4 380.39C147.15 387.04 149.24 392.39 153.59 397.39C164.344 409.777 174.86 422.37 185.14 435.17C186.66 437.04 187.78 440.51 187.06 442.53C186.5 444.12 182.83 444.62 180.54 445.58C180.38 445.65 180.16 445.58 179.98 445.58C162.98 448.58 150.51 442.88 141.27 427.91C135.88 419.17 128.13 411.91 121.58 403.85C120.34 402.33 118.97 400.31 118.94 398.5C118.71 385.1 118.8 371.7 118.79 358.3V353.66Z" fill="url(#paint26_linear_27_41245)"/>
<path d="M158.111 382.14V353.74L177.711 355.38C177.711 362.83 178.091 369.95 177.461 376.98C177.291 378.85 174.181 381.54 172.081 381.91C167.711 382.68 163.121 382.14 158.111 382.14Z" fill="url(#paint27_linear_27_41245)"/>
<defs>
<linearGradient id="paint0_linear_27_41245" x1="652.081" y1="295.61" x2="-76.5495" y2="295.61" gradientUnits="userSpaceOnUse">
<stop stop-color="white" stop-opacity="0.8"/>
<stop offset="0.05" stop-color="#CECECE" stop-opacity="0.68"/>
<stop offset="0.11" stop-color="#949494" stop-opacity="0.53"/>
<stop offset="0.18" stop-color="#646464" stop-opacity="0.41"/>
<stop offset="0.24" stop-color="#3F3F3F" stop-opacity="0.32"/>
<stop offset="0.31" stop-color="#242424" stop-opacity="0.25"/>
<stop offset="0.36" stop-color="#141414" stop-opacity="0.21"/>
<stop offset="0.42" stop-color="#0F0F0F" stop-opacity="0.2"/>
</linearGradient>
<linearGradient id="paint1_linear_27_41245" x1="652.081" y1="295.61" x2="-76.5495" y2="295.61" gradientUnits="userSpaceOnUse">
<stop stop-color="white" stop-opacity="0.8"/>
<stop offset="0.07" stop-color="#CECECE" stop-opacity="0.68"/>
<stop offset="0.17" stop-color="#949494" stop-opacity="0.53"/>
<stop offset="0.27" stop-color="#646464" stop-opacity="0.41"/>
<stop offset="0.37" stop-color="#3F3F3F" stop-opacity="0.32"/>
<stop offset="0.46" stop-color="#242424" stop-opacity="0.25"/>
<stop offset="0.55" stop-color="#141414" stop-opacity="0.21"/>
<stop offset="0.63" stop-color="#0F0F0F" stop-opacity="0.2"/>
</linearGradient>
<linearGradient id="paint2_linear_27_41245" x1="652.08" y1="295.61" x2="-76.5495" y2="295.61" gradientUnits="userSpaceOnUse">
<stop stop-color="white" stop-opacity="0.8"/>
<stop offset="0.07" stop-color="#CECECE" stop-opacity="0.68"/>
<stop offset="0.17" stop-color="#949494" stop-opacity="0.53"/>
<stop offset="0.27" stop-color="#646464" stop-opacity="0.41"/>
<stop offset="0.37" stop-color="#3F3F3F" stop-opacity="0.32"/>
<stop offset="0.46" stop-color="#242424" stop-opacity="0.25"/>
<stop offset="0.55" stop-color="#141414" stop-opacity="0.21"/>
<stop offset="0.63" stop-color="#0F0F0F" stop-opacity="0.2"/>
</linearGradient>
<linearGradient id="paint3_linear_27_41245" x1="652.08" y1="295.61" x2="-76.5496" y2="295.61" gradientUnits="userSpaceOnUse">
<stop stop-color="white" stop-opacity="0.8"/>
<stop offset="0.07" stop-color="#CECECE" stop-opacity="0.68"/>
<stop offset="0.17" stop-color="#949494" stop-opacity="0.53"/>
<stop offset="0.27" stop-color="#646464" stop-opacity="0.41"/>
<stop offset="0.37" stop-color="#3F3F3F" stop-opacity="0.32"/>
<stop offset="0.46" stop-color="#242424" stop-opacity="0.25"/>
<stop offset="0.55" stop-color="#141414" stop-opacity="0.21"/>
<stop offset="0.63" stop-color="#0F0F0F" stop-opacity="0.2"/>
</linearGradient>
<linearGradient id="paint4_linear_27_41245" x1="652.081" y1="295.61" x2="-76.5495" y2="295.61" gradientUnits="userSpaceOnUse">
<stop stop-color="white" stop-opacity="0.8"/>
<stop offset="0.07" stop-color="#CECECE" stop-opacity="0.68"/>
<stop offset="0.17" stop-color="#949494" stop-opacity="0.53"/>
<stop offset="0.27" stop-color="#646464" stop-opacity="0.41"/>
<stop offset="0.37" stop-color="#3F3F3F" stop-opacity="0.32"/>
<stop offset="0.46" stop-color="#242424" stop-opacity="0.25"/>
<stop offset="0.55" stop-color="#141414" stop-opacity="0.21"/>
<stop offset="0.63" stop-color="#0F0F0F" stop-opacity="0.2"/>
</linearGradient>
<linearGradient id="paint5_linear_27_41245" x1="652.081" y1="295.61" x2="-76.5494" y2="295.61" gradientUnits="userSpaceOnUse">
<stop stop-color="white" stop-opacity="0.8"/>
<stop offset="0.07" stop-color="#CECECE" stop-opacity="0.68"/>
<stop offset="0.17" stop-color="#949494" stop-opacity="0.53"/>
<stop offset="0.27" stop-color="#646464" stop-opacity="0.41"/>
<stop offset="0.37" stop-color="#3F3F3F" stop-opacity="0.32"/>
<stop offset="0.46" stop-color="#242424" stop-opacity="0.25"/>
<stop offset="0.55" stop-color="#141414" stop-opacity="0.21"/>
<stop offset="0.63" stop-color="#0F0F0F" stop-opacity="0.2"/>
</linearGradient>
<linearGradient id="paint6_linear_27_41245" x1="652.08" y1="295.61" x2="-76.5496" y2="295.61" gradientUnits="userSpaceOnUse">
<stop stop-color="white" stop-opacity="0.8"/>
<stop offset="0.07" stop-color="#CECECE" stop-opacity="0.68"/>
<stop offset="0.17" stop-color="#949494" stop-opacity="0.53"/>
<stop offset="0.27" stop-color="#646464" stop-opacity="0.41"/>
<stop offset="0.37" stop-color="#3F3F3F" stop-opacity="0.32"/>
<stop offset="0.46" stop-color="#242424" stop-opacity="0.25"/>
<stop offset="0.55" stop-color="#141414" stop-opacity="0.21"/>
<stop offset="0.63" stop-color="#0F0F0F" stop-opacity="0.2"/>
</linearGradient>
<linearGradient id="paint7_linear_27_41245" x1="652.08" y1="295.61" x2="-76.5495" y2="295.61" gradientUnits="userSpaceOnUse">
<stop stop-color="white" stop-opacity="0.8"/>
<stop offset="0.07" stop-color="#CECECE" stop-opacity="0.68"/>
<stop offset="0.17" stop-color="#949494" stop-opacity="0.53"/>
<stop offset="0.27" stop-color="#646464" stop-opacity="0.41"/>
<stop offset="0.37" stop-color="#3F3F3F" stop-opacity="0.32"/>
<stop offset="0.46" stop-color="#242424" stop-opacity="0.25"/>
<stop offset="0.55" stop-color="#141414" stop-opacity="0.21"/>
<stop offset="0.63" stop-color="#0F0F0F" stop-opacity="0.2"/>
</linearGradient>
<linearGradient id="paint8_linear_27_41245" x1="652.08" y1="295.61" x2="-76.5496" y2="295.61" gradientUnits="userSpaceOnUse">
<stop stop-color="white" stop-opacity="0.8"/>
<stop offset="0.07" stop-color="#CECECE" stop-opacity="0.68"/>
<stop offset="0.17" stop-color="#949494" stop-opacity="0.53"/>
<stop offset="0.27" stop-color="#646464" stop-opacity="0.41"/>
<stop offset="0.37" stop-color="#3F3F3F" stop-opacity="0.32"/>
<stop offset="0.46" stop-color="#242424" stop-opacity="0.25"/>
<stop offset="0.55" stop-color="#141414" stop-opacity="0.21"/>
<stop offset="0.63" stop-color="#0F0F0F" stop-opacity="0.2"/>
</linearGradient>
<linearGradient id="paint9_linear_27_41245" x1="652.081" y1="295.61" x2="-76.5495" y2="295.61" gradientUnits="userSpaceOnUse">
<stop stop-color="white" stop-opacity="0.8"/>
<stop offset="0.07" stop-color="#CECECE" stop-opacity="0.68"/>
<stop offset="0.17" stop-color="#949494" stop-opacity="0.53"/>
<stop offset="0.27" stop-color="#646464" stop-opacity="0.41"/>
<stop offset="0.37" stop-color="#3F3F3F" stop-opacity="0.32"/>
<stop offset="0.46" stop-color="#242424" stop-opacity="0.25"/>
<stop offset="0.55" stop-color="#141414" stop-opacity="0.21"/>
<stop offset="0.63" stop-color="#0F0F0F" stop-opacity="0.2"/>
</linearGradient>
<linearGradient id="paint10_linear_27_41245" x1="476.041" y1="203.33" x2="-280.829" y2="564.61" gradientUnits="userSpaceOnUse">
<stop stop-color="white" stop-opacity="0.8"/>
<stop offset="0.07" stop-color="#CECECE" stop-opacity="0.68"/>
<stop offset="0.17" stop-color="#949494" stop-opacity="0.53"/>
<stop offset="0.27" stop-color="#646464" stop-opacity="0.41"/>
<stop offset="0.37" stop-color="#3F3F3F" stop-opacity="0.32"/>
<stop offset="0.46" stop-color="#242424" stop-opacity="0.25"/>
<stop offset="0.55" stop-color="#141414" stop-opacity="0.21"/>
<stop offset="0.63" stop-color="#0F0F0F" stop-opacity="0.2"/>
</linearGradient>
<linearGradient id="paint11_linear_27_41245" x1="447.74" y1="144.05" x2="-309.119" y2="505.33" gradientUnits="userSpaceOnUse">
<stop stop-color="white" stop-opacity="0.8"/>
<stop offset="0.07" stop-color="#CECECE" stop-opacity="0.68"/>
<stop offset="0.17" stop-color="#949494" stop-opacity="0.53"/>
<stop offset="0.27" stop-color="#646464" stop-opacity="0.41"/>
<stop offset="0.37" stop-color="#3F3F3F" stop-opacity="0.32"/>
<stop offset="0.46" stop-color="#242424" stop-opacity="0.25"/>
<stop offset="0.55" stop-color="#141414" stop-opacity="0.21"/>
<stop offset="0.63" stop-color="#0F0F0F" stop-opacity="0.2"/>
</linearGradient>
<linearGradient id="paint12_linear_27_41245" x1="491.91" y1="236.57" x2="-264.959" y2="597.85" gradientUnits="userSpaceOnUse">
<stop stop-color="white" stop-opacity="0.8"/>
<stop offset="0.07" stop-color="#CECECE" stop-opacity="0.68"/>
<stop offset="0.17" stop-color="#949494" stop-opacity="0.53"/>
<stop offset="0.27" stop-color="#646464" stop-opacity="0.41"/>
<stop offset="0.37" stop-color="#3F3F3F" stop-opacity="0.32"/>
<stop offset="0.46" stop-color="#242424" stop-opacity="0.25"/>
<stop offset="0.55" stop-color="#141414" stop-opacity="0.21"/>
<stop offset="0.63" stop-color="#0F0F0F" stop-opacity="0.2"/>
</linearGradient>
<linearGradient id="paint13_linear_27_41245" x1="482.321" y1="216.48" x2="-274.55" y2="577.77" gradientUnits="userSpaceOnUse">
<stop stop-color="white" stop-opacity="0.8"/>
<stop offset="0.07" stop-color="#CECECE" stop-opacity="0.68"/>
<stop offset="0.17" stop-color="#949494" stop-opacity="0.53"/>
<stop offset="0.27" stop-color="#646464" stop-opacity="0.41"/>
<stop offset="0.37" stop-color="#3F3F3F" stop-opacity="0.32"/>
<stop offset="0.46" stop-color="#242424" stop-opacity="0.25"/>
<stop offset="0.55" stop-color="#141414" stop-opacity="0.21"/>
<stop offset="0.63" stop-color="#0F0F0F" stop-opacity="0.2"/>
</linearGradient>
<linearGradient id="paint14_linear_27_41245" x1="652.081" y1="295.61" x2="-76.5494" y2="295.61" gradientUnits="userSpaceOnUse">
<stop stop-color="white" stop-opacity="0.8"/>
<stop offset="0.05" stop-color="#CECECE" stop-opacity="0.68"/>
<stop offset="0.11" stop-color="#949494" stop-opacity="0.53"/>
<stop offset="0.18" stop-color="#646464" stop-opacity="0.41"/>
<stop offset="0.24" stop-color="#3F3F3F" stop-opacity="0.32"/>
<stop offset="0.31" stop-color="#242424" stop-opacity="0.25"/>
<stop offset="0.36" stop-color="#141414" stop-opacity="0.21"/>
<stop offset="0.42" stop-color="#0F0F0F" stop-opacity="0.2"/>
</linearGradient>
<linearGradient id="paint15_linear_27_41245" x1="652.081" y1="295.61" x2="-76.5494" y2="295.61" gradientUnits="userSpaceOnUse">
<stop stop-color="white" stop-opacity="0.8"/>
<stop offset="0.07" stop-color="#CECECE" stop-opacity="0.68"/>
<stop offset="0.17" stop-color="#949494" stop-opacity="0.53"/>
<stop offset="0.27" stop-color="#646464" stop-opacity="0.41"/>
<stop offset="0.37" stop-color="#3F3F3F" stop-opacity="0.32"/>
<stop offset="0.46" stop-color="#242424" stop-opacity="0.25"/>
<stop offset="0.55" stop-color="#141414" stop-opacity="0.21"/>
<stop offset="0.63" stop-color="#0F0F0F" stop-opacity="0.2"/>
</linearGradient>
<linearGradient id="paint16_linear_27_41245" x1="652.081" y1="295.61" x2="-76.5495" y2="295.61" gradientUnits="userSpaceOnUse">
<stop stop-color="white" stop-opacity="0.8"/>
<stop offset="0.07" stop-color="#CECECE" stop-opacity="0.68"/>
<stop offset="0.17" stop-color="#949494" stop-opacity="0.53"/>
<stop offset="0.27" stop-color="#646464" stop-opacity="0.41"/>
<stop offset="0.37" stop-color="#3F3F3F" stop-opacity="0.32"/>
<stop offset="0.46" stop-color="#242424" stop-opacity="0.25"/>
<stop offset="0.55" stop-color="#141414" stop-opacity="0.21"/>
<stop offset="0.63" stop-color="#0F0F0F" stop-opacity="0.2"/>
</linearGradient>
<linearGradient id="paint17_linear_27_41245" x1="652.081" y1="295.61" x2="-76.5495" y2="295.61" gradientUnits="userSpaceOnUse">
<stop stop-color="white" stop-opacity="0.8"/>
<stop offset="0.07" stop-color="#CECECE" stop-opacity="0.68"/>
<stop offset="0.17" stop-color="#949494" stop-opacity="0.53"/>
<stop offset="0.27" stop-color="#646464" stop-opacity="0.41"/>
<stop offset="0.37" stop-color="#3F3F3F" stop-opacity="0.32"/>
<stop offset="0.46" stop-color="#242424" stop-opacity="0.25"/>
<stop offset="0.55" stop-color="#141414" stop-opacity="0.21"/>
<stop offset="0.63" stop-color="#0F0F0F" stop-opacity="0.2"/>
</linearGradient>
<linearGradient id="paint18_linear_27_41245" x1="652.081" y1="295.61" x2="-76.5495" y2="295.61" gradientUnits="userSpaceOnUse">
<stop stop-color="white" stop-opacity="0.8"/>
<stop offset="0.07" stop-color="#CECECE" stop-opacity="0.68"/>
<stop offset="0.17" stop-color="#949494" stop-opacity="0.53"/>
<stop offset="0.27" stop-color="#646464" stop-opacity="0.41"/>
<stop offset="0.37" stop-color="#3F3F3F" stop-opacity="0.32"/>
<stop offset="0.46" stop-color="#242424" stop-opacity="0.25"/>
<stop offset="0.55" stop-color="#141414" stop-opacity="0.21"/>
<stop offset="0.63" stop-color="#0F0F0F" stop-opacity="0.2"/>
</linearGradient>
<linearGradient id="paint19_linear_27_41245" x1="652.081" y1="295.61" x2="-76.5495" y2="295.61" gradientUnits="userSpaceOnUse">
<stop stop-color="white" stop-opacity="0.8"/>
<stop offset="0.07" stop-color="#CECECE" stop-opacity="0.68"/>
<stop offset="0.17" stop-color="#949494" stop-opacity="0.53"/>
<stop offset="0.27" stop-color="#646464" stop-opacity="0.41"/>
<stop offset="0.37" stop-color="#3F3F3F" stop-opacity="0.32"/>
<stop offset="0.46" stop-color="#242424" stop-opacity="0.25"/>
<stop offset="0.55" stop-color="#141414" stop-opacity="0.21"/>
<stop offset="0.63" stop-color="#0F0F0F" stop-opacity="0.2"/>
</linearGradient>
<linearGradient id="paint20_linear_27_41245" x1="652.081" y1="295.61" x2="-76.5495" y2="295.61" gradientUnits="userSpaceOnUse">
<stop stop-color="white" stop-opacity="0.8"/>
<stop offset="0.07" stop-color="#CECECE" stop-opacity="0.68"/>
<stop offset="0.17" stop-color="#949494" stop-opacity="0.53"/>
<stop offset="0.27" stop-color="#646464" stop-opacity="0.41"/>
<stop offset="0.37" stop-color="#3F3F3F" stop-opacity="0.32"/>
<stop offset="0.46" stop-color="#242424" stop-opacity="0.25"/>
<stop offset="0.55" stop-color="#141414" stop-opacity="0.21"/>
<stop offset="0.63" stop-color="#0F0F0F" stop-opacity="0.2"/>
</linearGradient>
<linearGradient id="paint21_linear_27_41245" x1="652.081" y1="295.61" x2="-76.5494" y2="295.61" gradientUnits="userSpaceOnUse">
<stop stop-color="white" stop-opacity="0.8"/>
<stop offset="0.07" stop-color="#CECECE" stop-opacity="0.68"/>
<stop offset="0.17" stop-color="#949494" stop-opacity="0.53"/>
<stop offset="0.27" stop-color="#646464" stop-opacity="0.41"/>
<stop offset="0.37" stop-color="#3F3F3F" stop-opacity="0.32"/>
<stop offset="0.46" stop-color="#242424" stop-opacity="0.25"/>
<stop offset="0.55" stop-color="#141414" stop-opacity="0.21"/>
<stop offset="0.63" stop-color="#0F0F0F" stop-opacity="0.2"/>
</linearGradient>
<linearGradient id="paint22_linear_27_41245" x1="652.081" y1="295.61" x2="-76.5494" y2="295.61" gradientUnits="userSpaceOnUse">
<stop stop-color="white" stop-opacity="0.8"/>
<stop offset="0.07" stop-color="#CECECE" stop-opacity="0.68"/>
<stop offset="0.17" stop-color="#949494" stop-opacity="0.53"/>
<stop offset="0.27" stop-color="#646464" stop-opacity="0.41"/>
<stop offset="0.37" stop-color="#3F3F3F" stop-opacity="0.32"/>
<stop offset="0.46" stop-color="#242424" stop-opacity="0.25"/>
<stop offset="0.55" stop-color="#141414" stop-opacity="0.21"/>
<stop offset="0.63" stop-color="#0F0F0F" stop-opacity="0.2"/>
</linearGradient>
<linearGradient id="paint23_linear_27_41245" x1="652.081" y1="295.61" x2="-76.5494" y2="295.61" gradientUnits="userSpaceOnUse">
<stop stop-color="white" stop-opacity="0.8"/>
<stop offset="0.07" stop-color="#CECECE" stop-opacity="0.68"/>
<stop offset="0.17" stop-color="#949494" stop-opacity="0.53"/>
<stop offset="0.27" stop-color="#646464" stop-opacity="0.41"/>
<stop offset="0.37" stop-color="#3F3F3F" stop-opacity="0.32"/>
<stop offset="0.46" stop-color="#242424" stop-opacity="0.25"/>
<stop offset="0.55" stop-color="#141414" stop-opacity="0.21"/>
<stop offset="0.63" stop-color="#0F0F0F" stop-opacity="0.2"/>
</linearGradient>
<linearGradient id="paint24_linear_27_41245" x1="476.041" y1="203.33" x2="-280.829" y2="564.61" gradientUnits="userSpaceOnUse">
<stop stop-color="white" stop-opacity="0.8"/>
<stop offset="0.07" stop-color="#CECECE" stop-opacity="0.68"/>
<stop offset="0.17" stop-color="#949494" stop-opacity="0.53"/>
<stop offset="0.27" stop-color="#646464" stop-opacity="0.41"/>
<stop offset="0.37" stop-color="#3F3F3F" stop-opacity="0.32"/>
<stop offset="0.46" stop-color="#242424" stop-opacity="0.25"/>
<stop offset="0.55" stop-color="#141414" stop-opacity="0.21"/>
<stop offset="0.63" stop-color="#0F0F0F" stop-opacity="0.2"/>
</linearGradient>
<linearGradient id="paint25_linear_27_41245" x1="447.74" y1="144.05" x2="-309.119" y2="505.33" gradientUnits="userSpaceOnUse">
<stop stop-color="white" stop-opacity="0.8"/>
<stop offset="0.07" stop-color="#CECECE" stop-opacity="0.68"/>
<stop offset="0.17" stop-color="#949494" stop-opacity="0.53"/>
<stop offset="0.27" stop-color="#646464" stop-opacity="0.41"/>
<stop offset="0.37" stop-color="#3F3F3F" stop-opacity="0.32"/>
<stop offset="0.46" stop-color="#242424" stop-opacity="0.25"/>
<stop offset="0.55" stop-color="#141414" stop-opacity="0.21"/>
<stop offset="0.63" stop-color="#0F0F0F" stop-opacity="0.2"/>
</linearGradient>
<linearGradient id="paint26_linear_27_41245" x1="491.91" y1="236.57" x2="-264.959" y2="597.85" gradientUnits="userSpaceOnUse">
<stop stop-color="white" stop-opacity="0.8"/>
<stop offset="0.07" stop-color="#CECECE" stop-opacity="0.68"/>
<stop offset="0.17" stop-color="#949494" stop-opacity="0.53"/>
<stop offset="0.27" stop-color="#646464" stop-opacity="0.41"/>
<stop offset="0.37" stop-color="#3F3F3F" stop-opacity="0.32"/>
<stop offset="0.46" stop-color="#242424" stop-opacity="0.25"/>
<stop offset="0.55" stop-color="#141414" stop-opacity="0.21"/>
<stop offset="0.63" stop-color="#0F0F0F" stop-opacity="0.2"/>
</linearGradient>
<linearGradient id="paint27_linear_27_41245" x1="482.321" y1="216.48" x2="-274.55" y2="577.77" gradientUnits="userSpaceOnUse">
<stop stop-color="white" stop-opacity="0.8"/>
<stop offset="0.07" stop-color="#CECECE" stop-opacity="0.68"/>
<stop offset="0.17" stop-color="#949494" stop-opacity="0.53"/>
<stop offset="0.27" stop-color="#646464" stop-opacity="0.41"/>
<stop offset="0.37" stop-color="#3F3F3F" stop-opacity="0.32"/>
<stop offset="0.46" stop-color="#242424" stop-opacity="0.25"/>
<stop offset="0.55" stop-color="#141414" stop-opacity="0.21"/>
<stop offset="0.63" stop-color="#0F0F0F" stop-opacity="0.2"/>
</linearGradient>
</defs>
</svg>
