<svg width="544" height="603" viewBox="0 0 544 603" fill="none" xmlns="http://www.w3.org/2000/svg">
<path d="M116.932 602.875L495.245 353.178L378.311 276L-3.05176e-05 525.695L116.932 602.875Z" fill="#E0E0E0"/>
<path d="M411.318 130.227L411.317 199.17L318.469 145.541L318.439 76.6033L411.318 130.227Z" fill="black"/>
<path d="M411.317 199.17L305.171 260.453L212.267 206.838L318.469 145.541L411.317 199.17Z" fill="black"/>
<path opacity="0.3" d="M411.317 199.17L305.171 260.453L212.267 206.838L318.469 145.541L411.317 199.17Z" fill="white"/>
<path d="M212.267 206.838L212.291 275.774L305.171 329.397V260.452L212.267 206.838Z" fill="black"/>
<path d="M305.171 329.398L199.025 390.681L106.148 337.058L212.293 275.775L305.171 329.398Z" fill="black"/>
<path opacity="0.3" d="M305.171 329.398L199.025 390.681L106.148 337.058L212.293 275.775L305.171 329.398Z" fill="white"/>
<path d="M106.147 337.058V406.003L199.025 459.624V390.681L106.147 337.058Z" fill="black"/>
<path d="M199.025 459.624L92.8777 520.907L0.00183105 467.288L106.149 406.004L199.025 459.624Z" fill="black"/>
<path opacity="0.3" d="M199.025 459.624L92.8777 520.907L0.00183105 467.288L106.149 406.004L199.025 459.624Z" fill="white"/>
<path d="M0.00178528 467.287L7.62939e-06 536.229L92.8777 589.85V520.907L0.00178528 467.287Z" fill="black"/>
<path d="M411.318 130.226L510.829 72.7723L544 91.9248L530.732 7.65996L384.781 0L417.951 19.1508L318.439 76.6031L411.318 130.226Z" fill="black"/>
<path opacity="0.3" d="M411.318 130.226L510.829 72.7723L544 91.9248L530.732 7.65996L384.781 0L417.951 19.1508L318.439 76.6031L411.318 130.226Z" fill="white"/>
<path d="M199.025 459.624V390.681L305.171 329.397V260.452L411.318 199.169V130.226L510.829 72.772L544 91.9245V107.244L510.829 88.0937L424.586 137.883L424.585 206.829L318.439 268.116V337.057L212.293 398.339L212.291 467.284L106.146 528.567V582.19L92.8778 589.85V520.907L199.025 459.624Z" fill="black"/>
<path opacity="0.3" d="M199.025 459.624V390.681L305.171 329.397V260.452L411.318 199.169V130.226L510.829 72.772L544 91.9245V107.244L510.829 88.0937L424.586 137.883L424.585 206.829L318.439 268.116V337.057L212.293 398.339L212.291 467.284L106.146 528.567V582.19L92.8778 589.85V520.907L199.025 459.624Z" fill="black"/>
<path d="M384.781 -0.000244141V15.3197L404.685 26.8105L417.952 19.1505L384.781 -0.000244141Z" fill="black"/>
<path opacity="0.3" d="M384.781 -0.000244141V15.3197L404.685 26.8105L417.952 19.1505L384.781 -0.000244141Z" fill="black"/>
</svg>
