<svg width="1633" height="111" viewBox="0 0 1633 111" fill="none" xmlns="http://www.w3.org/2000/svg">
<mask id="path-1-outside-1_646_13743" maskUnits="userSpaceOnUse" x="-2" y="-3" width="1639" height="116" fill="black">
<rect fill="white" x="-2" y="-3" width="1639" height="116"/>
<path d="M44.528 110.728C37.808 110.728 31.472 109.528 25.52 107.128C19.664 104.632 14.576 101.128 10.256 96.616C6.032 92.104 2.864 86.776 0.752 80.632L19.04 72.424C21.728 78.28 25.424 82.888 30.128 86.248C34.928 89.608 40.208 91.288 45.968 91.288C49.04 91.288 51.68 90.808 53.888 89.848C56.096 88.888 57.824 87.592 59.072 85.96C60.32 84.232 60.944 82.216 60.944 79.912C60.944 77.416 60.176 75.304 58.64 73.576C57.104 71.752 54.704 70.312 51.44 69.256L30.416 62.344C21.872 59.56 15.44 55.624 11.12 50.536C6.8 45.352 4.64 39.16 4.64 31.96C4.64 25.624 6.176 20.056 9.248 15.256C12.416 10.456 16.784 6.712 22.352 4.024C28.016 1.336 34.496 -0.00800419 41.792 -0.00800419C48.224 -0.00800419 54.176 1.096 59.648 3.304C65.12 5.512 69.824 8.632 73.76 12.664C77.792 16.696 80.816 21.544 82.832 27.208L64.688 35.416C62.672 30.424 59.648 26.536 55.616 23.752C51.584 20.872 46.976 19.432 41.792 19.432C38.816 19.432 36.176 19.912 33.872 20.872C31.568 21.832 29.792 23.224 28.544 25.048C27.296 26.776 26.672 28.792 26.672 31.096C26.672 33.592 27.488 35.8 29.12 37.72C30.752 39.544 33.2 40.984 36.464 42.04L57.056 48.664C65.696 51.448 72.128 55.336 76.352 60.328C80.672 65.32 82.832 71.416 82.832 78.616C82.832 84.856 81.2 90.424 77.936 95.32C74.672 100.12 70.16 103.912 64.4 106.696C58.736 109.384 52.112 110.728 44.528 110.728ZM120.914 109L120.914 21.16L93.6984 21.16V1.71999L170.018 1.71999V21.16L143.234 21.16L143.234 109H120.914ZM183.951 109L183.951 1.71999L224.991 1.71999C232.383 1.71999 238.911 3.01599 244.575 5.60799C250.336 8.19999 254.848 12.04 258.111 17.128C261.375 22.216 263.007 28.504 263.007 35.992C263.007 43.288 261.327 49.528 257.968 54.712C254.607 59.8 250.095 63.64 244.431 66.232L268.911 109L243.855 109L217.359 61.624L231.759 70.12L206.271 70.12V109H183.951ZM206.271 50.68L225.135 50.68C228.303 50.68 231.039 50.056 233.343 48.808C235.647 47.56 237.423 45.832 238.671 43.624C240.015 41.416 240.687 38.872 240.687 35.992C240.687 33.016 240.015 30.424 238.671 28.216C237.423 26.008 235.647 24.28 233.343 23.032C231.039 21.784 228.303 21.16 225.135 21.16H206.271V50.68ZM336.59 110.728C328.526 110.728 321.038 109.336 314.126 106.552C307.214 103.768 301.166 99.88 295.982 94.888C290.894 89.8 286.91 83.896 284.03 77.176C281.15 70.456 279.71 63.16 279.71 55.288C279.71 47.416 281.102 40.12 283.886 33.4C286.766 26.68 290.75 20.824 295.838 15.832C301.022 10.84 307.07 6.95199 313.982 4.16799C320.894 1.384 328.43 -0.00800419 336.59 -0.00800419C344.75 -0.00800419 352.286 1.384 359.198 4.16799C366.11 6.95199 372.11 10.84 377.198 15.832C382.382 20.824 386.366 26.68 389.15 33.4C392.03 40.12 393.47 47.416 393.47 55.288C393.47 63.16 392.03 70.456 389.15 77.176C386.27 83.896 382.238 89.8 377.054 94.888C371.966 99.88 365.966 103.768 359.054 106.552C352.142 109.336 344.654 110.728 336.59 110.728ZM336.59 90.568C341.486 90.568 345.998 89.704 350.126 87.976C354.35 86.248 358.046 83.848 361.214 80.776C364.382 77.608 366.83 73.864 368.558 69.544C370.286 65.224 371.15 60.472 371.15 55.288C371.15 50.104 370.286 45.4 368.558 41.176C366.83 36.856 364.382 33.112 361.214 29.944C358.046 26.776 354.35 24.376 350.126 22.744C345.998 21.016 341.486 20.152 336.59 20.152C331.694 20.152 327.134 21.016 322.91 22.744C318.782 24.376 315.134 26.776 311.966 29.944C308.798 33.112 306.35 36.856 304.622 41.176C302.894 45.4 302.03 50.104 302.03 55.288C302.03 60.472 302.894 65.224 304.622 69.544C306.35 73.864 308.798 77.608 311.966 80.776C315.134 83.848 318.782 86.248 322.91 87.976C327.134 89.704 331.694 90.568 336.59 90.568ZM412.18 109V1.71999L429.316 1.71999L486.916 77.608L477.7 79.768V1.71999L500.02 1.71999V109H482.74L426.148 32.536L434.5 30.376V109H412.18ZM573.487 110.728C565.807 110.728 558.655 109.336 552.031 106.552C545.407 103.768 539.599 99.88 534.607 94.888C529.615 89.896 525.727 84.04 522.943 77.32C520.159 70.6 518.767 63.256 518.767 55.288C518.767 47.32 520.111 39.976 522.799 33.256C525.487 26.44 529.279 20.584 534.175 15.688C539.071 10.696 544.783 6.85599 551.311 4.16799C557.935 1.384 565.135 -0.00800419 572.911 -0.00800419C580.687 -0.00800419 587.647 1.288 593.791 3.88C600.031 6.472 605.311 9.928 609.631 14.248C613.951 18.568 617.023 23.368 618.847 28.648L599.119 38.152C597.295 32.968 594.079 28.696 589.471 25.336C584.959 21.88 579.439 20.152 572.911 20.152C566.575 20.152 561.007 21.64 556.207 24.616C551.407 27.592 547.663 31.72 544.975 37C542.383 42.184 541.087 48.28 541.087 55.288C541.087 62.296 542.479 68.44 545.263 73.72C548.047 79 551.839 83.128 556.639 86.104C561.535 89.08 567.151 90.568 573.487 90.568C578.383 90.568 582.943 89.656 587.167 87.832C591.487 85.912 594.943 83.176 597.535 79.624C600.223 76.072 601.567 71.8 601.567 66.808V57.88L611.791 66.52H572.911V47.8H623.887V59.176C623.887 67.912 622.447 75.544 619.567 82.072C616.687 88.504 612.799 93.88 607.903 98.2C603.103 102.424 597.679 105.592 591.631 107.704C585.679 109.72 579.631 110.728 573.487 110.728ZM640.55 109V1.71999L712.694 1.71999V21.16L662.87 21.16V45.496H709.814V64.936H662.87V89.56H712.694V109H640.55ZM728.226 109V1.71999L769.266 1.71999C776.658 1.71999 783.186 3.01599 788.85 5.60799C794.61 8.19999 799.122 12.04 802.386 17.128C805.65 22.216 807.282 28.504 807.282 35.992C807.282 43.288 805.602 49.528 802.242 54.712C798.882 59.8 794.37 63.64 788.706 66.232L813.186 109L788.13 109L761.634 61.624L776.034 70.12H750.546V109H728.226ZM750.546 50.68H769.41C772.578 50.68 775.314 50.056 777.618 48.808C779.922 47.56 781.698 45.832 782.946 43.624C784.29 41.416 784.962 38.872 784.962 35.992C784.962 33.016 784.29 30.424 782.946 28.216C781.698 26.008 779.922 24.28 777.618 23.032C775.314 21.784 772.578 21.16 769.41 21.16L750.546 21.16V50.68ZM875.204 109V21.16L847.988 21.16V1.71999L924.308 1.71999V21.16L897.524 21.16V109H875.204ZM987.594 110.728C979.53 110.728 972.042 109.336 965.13 106.552C958.218 103.768 952.17 99.88 946.986 94.888C941.898 89.8 937.914 83.896 935.034 77.176C932.154 70.456 930.714 63.16 930.714 55.288C930.714 47.416 932.106 40.12 934.89 33.4C937.77 26.68 941.754 20.824 946.842 15.832C952.026 10.84 958.074 6.95199 964.986 4.16799C971.898 1.384 979.434 -0.00800419 987.594 -0.00800419C995.754 -0.00800419 1003.29 1.384 1010.2 4.16799C1017.11 6.95199 1023.11 10.84 1028.2 15.832C1033.39 20.824 1037.37 26.68 1040.15 33.4C1043.03 40.12 1044.47 47.416 1044.47 55.288C1044.47 63.16 1043.03 70.456 1040.15 77.176C1037.27 83.896 1033.24 89.8 1028.06 94.888C1022.97 99.88 1016.97 103.768 1010.06 106.552C1003.15 109.336 995.658 110.728 987.594 110.728ZM987.594 90.568C992.49 90.568 997.002 89.704 1001.13 87.976C1005.35 86.248 1009.05 83.848 1012.22 80.776C1015.39 77.608 1017.83 73.864 1019.56 69.544C1021.29 65.224 1022.15 60.472 1022.15 55.288C1022.15 50.104 1021.29 45.4 1019.56 41.176C1017.83 36.856 1015.39 33.112 1012.22 29.944C1009.05 26.776 1005.35 24.376 1001.13 22.744C997.002 21.016 992.49 20.152 987.594 20.152C982.698 20.152 978.138 21.016 973.914 22.744C969.786 24.376 966.138 26.776 962.97 29.944C959.802 33.112 957.354 36.856 955.626 41.176C953.898 45.4 953.034 50.104 953.034 55.288C953.034 60.472 953.898 65.224 955.626 69.544C957.354 73.864 959.802 77.608 962.97 80.776C966.138 83.848 969.786 86.248 973.914 87.976C978.138 89.704 982.698 90.568 987.594 90.568ZM1114.74 110.728C1107.06 110.728 1099.9 109.336 1093.28 106.552C1086.66 103.768 1080.85 99.88 1075.86 94.888C1070.86 89.896 1066.98 84.04 1064.19 77.32C1061.41 70.6 1060.02 63.256 1060.02 55.288C1060.02 47.32 1061.36 39.976 1064.05 33.256C1066.74 26.44 1070.53 20.584 1075.42 15.688C1080.32 10.696 1086.03 6.85599 1092.56 4.16799C1099.18 1.384 1106.38 -0.00800419 1114.16 -0.00800419C1121.94 -0.00800419 1128.9 1.288 1135.04 3.88C1141.28 6.472 1146.56 9.928 1150.88 14.248C1155.2 18.568 1158.27 23.368 1160.1 28.648L1140.37 38.152C1138.54 32.968 1135.33 28.696 1130.72 25.336C1126.21 21.88 1120.69 20.152 1114.16 20.152C1107.82 20.152 1102.26 21.64 1097.46 24.616C1092.66 27.592 1088.91 31.72 1086.22 37C1083.63 42.184 1082.34 48.28 1082.34 55.288C1082.34 62.296 1083.73 68.44 1086.51 73.72C1089.3 79 1093.09 83.128 1097.89 86.104C1102.78 89.08 1108.4 90.568 1114.74 90.568C1119.63 90.568 1124.19 89.656 1128.42 87.832C1132.74 85.912 1136.19 83.176 1138.78 79.624C1141.47 76.072 1142.82 71.8 1142.82 66.808V57.88L1153.04 66.52H1114.16V47.8H1165.14V59.176C1165.14 67.912 1163.7 75.544 1160.82 82.072C1157.94 88.504 1154.05 93.88 1149.15 98.2C1144.35 102.424 1138.93 105.592 1132.88 107.704C1126.93 109.72 1120.88 110.728 1114.74 110.728ZM1181.8 109V1.71999L1253.94 1.71999V21.16L1204.12 21.16V45.496H1251.06V64.936H1204.12V89.56H1253.94V109H1181.8ZM1288.77 109V21.16H1261.56V1.71999L1337.88 1.71999V21.16H1311.09V109H1288.77ZM1351.81 109V1.71999L1374.13 1.71999V48.088H1415.89V1.71999L1438.21 1.71999V109H1415.89V67.528H1374.13V109H1351.81ZM1460.16 109V1.71999L1532.3 1.71999V21.16L1482.48 21.16V45.496H1529.42V64.936H1482.48V89.56H1532.3V109L1460.16 109ZM1547.83 109V1.71999L1588.87 1.71999C1596.27 1.71999 1602.79 3.01599 1608.46 5.60799C1614.22 8.19999 1618.73 12.04 1621.99 17.128C1625.26 22.216 1626.89 28.504 1626.89 35.992C1626.89 43.288 1625.21 49.528 1621.85 54.712C1618.49 59.8 1613.98 63.64 1608.31 66.232L1632.79 109H1607.74L1581.24 61.624L1595.64 70.12H1570.15V109H1547.83ZM1570.15 50.68H1589.02C1592.19 50.68 1594.92 50.056 1597.23 48.808C1599.53 47.56 1601.31 45.832 1602.55 43.624C1603.9 41.416 1604.57 38.872 1604.57 35.992C1604.57 33.016 1603.9 30.424 1602.55 28.216C1601.31 26.008 1599.53 24.28 1597.23 23.032C1594.92 21.784 1592.19 21.16 1589.02 21.16H1570.15V50.68Z"/>
</mask>
<path d="M25.52 107.128L24.7358 108.968L24.7539 108.976L24.7721 108.983L25.52 107.128ZM10.256 96.616L8.79596 97.9828L8.80363 97.991L8.81139 97.9991L10.256 96.616ZM0.752 80.632L-0.0669367 78.8074L-1.73304 79.5551L-1.13937 81.2822L0.752 80.632ZM19.04 72.424L20.8577 71.5897L20.0303 69.7873L18.2211 70.5993L19.04 72.424ZM30.128 86.248L28.9655 87.8755L28.9733 87.881L28.9811 87.8865L30.128 86.248ZM53.888 89.848L54.6855 91.6821L53.888 89.848ZM59.072 85.96L60.6607 87.1749L60.6773 87.1532L60.6934 87.131L59.072 85.96ZM58.64 73.576L57.1102 74.8643L57.1274 74.8847L57.1452 74.9047L58.64 73.576ZM51.44 69.256L50.8154 71.156L50.8244 71.1589L51.44 69.256ZM30.416 62.344L31.0406 60.444L31.0356 60.4424L30.416 62.344ZM11.12 50.536L9.58356 51.8164L9.58945 51.8234L9.59541 51.8305L11.12 50.536ZM9.248 15.256L7.57878 14.1543L7.57104 14.166L7.56346 14.1779L9.248 15.256ZM22.352 4.02399L21.4945 2.2171L21.4825 2.22289L22.352 4.02399ZM59.648 3.304L60.3964 1.4493L59.648 3.304ZM73.76 12.664L72.3289 14.0611L72.3373 14.0697L72.3458 14.0782L73.76 12.664ZM82.832 27.208L83.6563 29.0302L85.3335 28.2715L84.7162 26.5373L82.832 27.208ZM64.688 35.416L62.8335 36.1649L63.6138 38.0971L65.5123 37.2382L64.688 35.416ZM55.616 23.752L54.4535 25.3795L54.4665 25.3887L54.4796 25.3978L55.616 23.752ZM33.872 20.872L34.6412 22.7181L33.872 20.872ZM28.544 25.048L30.1654 26.219L30.1803 26.1984L30.1946 26.1774L28.544 25.048ZM29.12 37.72L27.5961 39.0153L27.6126 39.0346L27.6295 39.0536L29.12 37.72ZM36.464 42.04L35.8484 43.9429L35.8516 43.9439L36.464 42.04ZM57.056 48.664L57.6694 46.7604L57.6685 46.7601L57.056 48.664ZM76.352 60.328L74.8252 61.6199L74.8324 61.6284L74.8397 61.6367L76.352 60.328ZM77.936 95.32L79.5899 96.4446L79.595 96.437L79.6001 96.4294L77.936 95.32ZM64.4 106.696L65.2575 108.503L65.2639 108.5L65.2703 108.497L64.4 106.696ZM44.528 108.728C38.052 108.728 31.9711 107.573 26.2679 105.273L24.7721 108.983C30.9729 111.483 37.564 112.728 44.528 112.728V108.728ZM26.3042 105.288C20.6921 102.896 15.83 99.5458 11.7006 95.2329L8.81139 97.9991C13.322 102.71 18.6359 106.368 24.7358 108.968L26.3042 105.288ZM11.716 95.2492C7.69455 90.9535 4.66851 85.8731 2.64337 79.9818L-1.13937 81.2822C1.05949 87.6789 4.36946 93.2545 8.79596 97.9828L11.716 95.2492ZM1.57094 82.4566L19.8589 74.2486L18.2211 70.5993L-0.0669367 78.8074L1.57094 82.4566ZM17.2223 73.2583C20.0388 79.3942 23.9462 84.2902 28.9655 87.8755L31.2905 84.6205C26.9018 81.4858 23.4172 77.1658 20.8577 71.5897L17.2223 73.2583ZM28.9811 87.8865C34.1111 91.4774 39.7902 93.288 45.968 93.288L45.968 89.288C40.6258 89.288 35.7449 87.7385 31.2749 84.6095L28.9811 87.8865ZM45.968 93.288C49.2416 93.288 52.1667 92.7773 54.6855 91.6821L53.0905 88.0139C51.1933 88.8387 48.8384 89.288 45.968 89.288L45.968 93.288ZM54.6855 91.6821C57.1517 90.6099 59.1729 89.1204 60.6607 87.1749L57.4833 84.7451C56.4751 86.0636 55.0403 87.1661 53.0905 88.0139L54.6855 91.6821ZM60.6934 87.131C62.2077 85.0341 62.944 82.6005 62.944 79.912H58.944C58.944 81.8315 58.4323 83.4298 57.4506 84.789L60.6934 87.131ZM62.944 79.912C62.944 76.9685 62.0233 74.3718 60.1348 72.2473L57.1452 74.9047C58.3287 76.2362 58.944 77.8635 58.944 79.912H62.944ZM60.1698 72.2877C58.309 70.0779 55.5279 68.4765 52.0556 67.3531L50.8244 71.1589C53.8801 72.1475 55.8991 73.4261 57.1102 74.8643L60.1698 72.2877ZM52.0646 67.356L31.0406 60.444L29.7914 64.2439L50.8154 71.156L52.0646 67.356ZM31.0356 60.4424C22.7255 57.7346 16.6556 53.9656 12.6446 49.2415L9.59541 51.8305C14.2244 57.2824 21.0185 61.3854 29.7964 64.2456L31.0356 60.4424ZM12.6564 49.2556C8.65692 44.4562 6.64 38.7259 6.64 31.96H2.64C2.64 39.5941 4.94308 46.2478 9.58356 51.8164L12.6564 49.2556ZM6.64 31.96C6.64 25.962 8.08911 20.777 10.9325 16.3341L7.56346 14.1779C4.26289 19.335 2.64 25.286 2.64 31.96H6.64ZM10.9172 16.3577C13.8717 11.8812 17.953 8.36852 23.2215 5.8251L21.4825 2.22289C15.615 5.05547 10.9603 9.03075 7.57878 14.1543L10.9172 16.3577ZM23.2095 5.83085C28.565 3.28924 34.7443 1.992 41.792 1.992V-2.008C34.2477 -2.008 27.467 -0.617247 21.4945 2.21714L23.2095 5.83085ZM41.792 1.992C47.9907 1.992 53.6861 3.05499 58.8996 5.1587L60.3964 1.4493C54.6659 -0.862993 48.4573 -2.008 41.792 -2.008V1.992ZM58.8996 5.1587C64.1272 7.26806 68.5954 10.2366 72.3289 14.0611L75.1912 11.2669C71.0526 7.02742 66.1128 3.75593 60.3964 1.4493L58.8996 5.1587ZM72.3458 14.0782C76.1565 17.8889 79.0258 22.4787 80.9478 27.8786L84.7162 26.5373C82.6062 20.6092 79.4275 15.5031 75.1742 11.2498L72.3458 14.0782ZM82.0077 25.3858L63.8637 33.5938L65.5123 37.2382L83.6563 29.0302L82.0077 25.3858ZM66.5425 34.6671C64.3951 29.3496 61.1379 25.1343 56.7524 22.1062L54.4796 25.3978C58.1581 27.9377 60.949 31.4984 62.8335 36.1649L66.5425 34.6671ZM56.7785 22.1245C52.391 18.9906 47.3723 17.432 41.792 17.432V21.432C46.5797 21.432 50.777 22.7534 54.4535 25.3795L56.7785 22.1245ZM41.792 17.432C38.6017 17.432 35.6926 17.9467 33.1028 19.0258L34.6412 22.7181C36.6594 21.8773 39.0303 21.432 41.792 21.432V17.432ZM33.1028 19.0258C30.4895 20.1147 28.3871 21.7355 26.8934 23.9186L30.1946 26.1774C31.1969 24.7125 32.6465 23.5493 34.6412 22.7181L33.1028 19.0258ZM26.9226 23.877C25.4083 25.9739 24.672 28.4075 24.672 31.096H28.672C28.672 29.1765 29.1837 27.5781 30.1654 26.219L26.9226 23.877ZM24.672 31.096C24.672 34.0715 25.66 36.7375 27.5961 39.0153L30.6439 36.4247C29.316 34.8625 28.672 33.1125 28.672 31.096H24.672ZM27.6295 39.0536C29.5738 41.2266 32.3761 42.8195 35.8484 43.9429L37.0796 40.1371C34.0239 39.1485 31.9302 37.8614 30.6105 36.3864L27.6295 39.0536ZM35.8516 43.9439L56.4436 50.5679L57.6685 46.7601L37.0765 40.1361L35.8516 43.9439ZM56.4426 50.5676C64.8594 53.2797 70.919 57.0034 74.8252 61.6199L77.8788 59.0361C73.337 53.6686 66.5326 49.6163 57.6694 46.7604L56.4426 50.5676ZM74.8397 61.6367C78.8157 66.2313 80.832 71.8497 80.832 78.616H84.832C84.832 70.9823 82.5283 64.4087 77.8643 59.0192L74.8397 61.6367ZM80.832 78.616C80.832 84.4863 79.3034 89.6634 76.2719 94.2106L79.6001 96.4294C83.0967 91.1846 84.832 85.2257 84.832 78.616H80.832ZM76.2822 94.1954C73.2352 98.6762 69.0068 102.248 63.5297 104.895L65.2703 108.497C71.3132 105.576 76.1088 101.564 79.5899 96.4446L76.2822 94.1954ZM63.5425 104.889C58.1968 107.426 51.8766 108.728 44.528 108.728V112.728C52.3474 112.728 59.2753 111.342 65.2575 108.503L63.5425 104.889ZM120.914 109H118.914V111H120.914V109ZM120.914 21.16H122.914V19.16H120.914V21.16ZM93.6984 21.16H91.6984V23.16H93.6984V21.16ZM93.6984 1.71999V-0.28001H91.6984V1.71999H93.6984ZM170.018 1.71999H172.018V-0.28001H170.018V1.71999ZM170.018 21.16V23.16H172.018V21.16H170.018ZM143.234 21.16V19.16H141.234V21.16H143.234ZM143.234 109V111H145.234V109H143.234ZM122.914 109L122.914 21.16H118.914L118.914 109H122.914ZM120.914 19.16L93.6984 19.16V23.16L120.914 23.16V19.16ZM95.6984 21.16V1.71999L91.6984 1.71999V21.16H95.6984ZM93.6984 3.71999L170.018 3.71999V-0.28001L93.6984 -0.28001V3.71999ZM168.018 1.71999V21.16H172.018V1.71999H168.018ZM170.018 19.16L143.234 19.16V23.16L170.018 23.16V19.16ZM141.234 21.16L141.234 109H145.234L145.234 21.16H141.234ZM143.234 107L120.914 107V111H143.234V107ZM183.951 109H181.951V111H183.951V109ZM183.951 1.71999V-0.28001L181.951 -0.28001V1.71999L183.951 1.71999ZM244.576 5.60799L243.743 7.42664L243.755 7.43184L244.576 5.60799ZM258.112 17.128L256.428 18.2079L258.112 17.128ZM257.967 54.712L259.636 55.8141L259.641 55.807L259.646 55.7998L257.967 54.712ZM244.432 66.232L243.599 64.4134L241.608 65.3248L242.696 67.2255L244.432 66.232ZM268.911 109V111H272.361L270.647 108.006L268.911 109ZM243.855 109L242.11 109.976L242.683 111H243.855V109ZM217.359 61.624L218.376 59.9015L212.001 56.1404L215.614 62.6002L217.359 61.624ZM231.76 70.12V72.12H239.085L232.776 68.3975L231.76 70.12ZM206.271 70.12L206.271 68.12H204.271L204.271 70.12H206.271ZM206.271 109V111H208.271V109H206.271ZM206.271 50.68H204.271V52.68H206.271V50.68ZM233.343 48.808L234.296 50.5666L233.343 48.808ZM238.671 43.624L236.963 42.5841L236.946 42.6117L236.93 42.6399L238.671 43.624ZM238.671 28.216L236.93 29.2001L236.946 29.2283L236.963 29.2559L238.671 28.216ZM233.343 23.032L232.391 24.7906L233.343 23.032ZM206.271 21.16V19.16H204.271V21.16H206.271ZM185.951 109L185.951 1.71999L181.951 1.71999L181.951 109H185.951ZM183.951 3.71999L224.992 3.71999V-0.28001L183.951 -0.28001V3.71999ZM224.992 3.71999C232.149 3.71999 238.385 4.97436 243.743 7.42661L245.408 3.78938C239.438 1.05762 232.618 -0.28001 224.992 -0.28001V3.71999ZM243.755 7.43184C249.178 9.87225 253.383 13.4614 256.428 18.2079L259.795 16.0481C256.312 10.6186 251.493 6.52774 245.396 3.78415L243.755 7.43184ZM256.428 18.2079C259.441 22.9045 261.008 28.7954 261.008 35.992H265.008C265.008 28.2126 263.31 21.5275 259.795 16.0481L256.428 18.2079ZM261.008 35.992C261.008 42.973 259.404 48.819 256.289 53.6242L259.646 55.7998C263.251 50.237 265.008 43.603 265.008 35.992H261.008ZM256.299 53.6099C253.15 58.3784 248.931 61.9736 243.599 64.4134L245.264 68.0506C251.26 65.3064 256.065 61.2216 259.636 55.8141L256.299 53.6099ZM242.696 67.2255L267.176 109.994L270.647 108.006L246.167 65.2385L242.696 67.2255ZM268.911 107H243.855V111L268.911 111V107ZM245.601 108.024L219.105 60.6478L215.614 62.6002L242.11 109.976L245.601 108.024ZM216.343 63.3465L230.743 71.8425L232.776 68.3975L218.376 59.9015L216.343 63.3465ZM231.76 68.12L206.271 68.12L206.271 72.12L231.76 72.12L231.76 68.12ZM204.271 70.12V109H208.271V70.12H204.271ZM206.271 107H183.951V111H206.271V107ZM206.271 52.68L225.135 52.68V48.68L206.271 48.68V52.68ZM225.135 52.68C228.567 52.68 231.644 52.0029 234.296 50.5666L232.391 47.0494C230.435 48.109 228.04 48.68 225.135 48.68V52.68ZM234.296 50.5666C236.919 49.1459 238.973 47.1544 240.413 44.6081L236.93 42.6399C235.874 44.5096 234.376 45.9741 232.391 47.0494L234.296 50.5666ZM240.38 44.6639C241.936 42.1077 242.688 39.1957 242.688 35.992L238.688 35.992C238.688 38.5482 238.095 40.7243 236.963 42.5841L240.38 44.6639ZM242.688 35.992C242.688 32.7057 241.942 29.7424 240.38 27.1761L236.963 29.2559C238.089 31.1055 238.688 33.3263 238.688 35.992L242.688 35.992ZM240.413 27.2319C238.973 24.6856 236.919 22.6941 234.296 21.2734L232.391 24.7906C234.376 25.8659 235.874 27.3304 236.93 29.2001L240.413 27.2319ZM234.296 21.2734C231.644 19.837 228.567 19.16 225.135 19.16V23.16C228.04 23.16 230.435 23.7309 232.391 24.7906L234.296 21.2734ZM225.135 19.16H206.271V23.16H225.135V19.16ZM204.271 21.16V50.68H208.271V21.16H204.271ZM314.126 106.552L314.874 104.697L314.126 106.552ZM295.982 94.888L294.568 96.3022L294.582 96.3156L294.595 96.3286L295.982 94.888ZM284.03 77.176L285.869 76.3882L284.03 77.176ZM283.886 33.4L282.048 32.6122L282.043 32.6233L282.039 32.6345L283.886 33.4ZM295.838 15.832L294.451 14.3914L294.444 14.3978L294.438 14.4044L295.838 15.832ZM359.198 4.16799L358.451 6.02316L359.198 4.16799ZM377.198 15.832L375.798 17.2596L375.804 17.2662L375.811 17.2726L377.198 15.832ZM389.15 33.4L387.303 34.1655L387.307 34.1767L387.312 34.1878L389.15 33.4ZM389.15 77.176L387.312 76.3882L389.15 77.176ZM377.054 94.888L378.455 96.3156L378.455 96.3154L377.054 94.888ZM359.054 106.552L359.802 108.407L359.054 106.552ZM350.126 87.976L349.369 86.1249L349.362 86.128L349.354 86.1311L350.126 87.976ZM361.214 80.776L362.607 82.2118L362.618 82.2011L362.629 82.1902L361.214 80.776ZM368.558 69.544L366.701 68.8012L368.558 69.544ZM368.558 41.176L366.701 41.9188L366.704 41.926L366.707 41.9333L368.558 41.176ZM350.126 22.744L349.354 24.5889L349.38 24.5996L349.406 24.6096L350.126 22.744ZM322.91 22.744L323.646 24.6039L323.657 24.5996L323.668 24.5951L322.91 22.744ZM311.966 29.944L310.552 28.5298L311.966 29.944ZM304.622 41.176L306.473 41.9333L306.476 41.926L306.479 41.9188L304.622 41.176ZM304.622 69.544L302.765 70.2868L304.622 69.544ZM311.966 80.776L310.552 82.1902L310.563 82.2011L310.574 82.2118L311.966 80.776ZM322.91 87.976L322.138 89.8209L322.146 89.824L322.153 89.8271L322.91 87.976ZM336.59 108.728C328.761 108.728 321.529 107.378 314.874 104.697L313.379 108.407C320.548 111.294 328.292 112.728 336.59 112.728V108.728ZM314.874 104.697C308.191 102.005 302.362 98.2551 297.37 93.4474L294.595 96.3286C299.97 101.505 306.238 105.531 313.379 108.407L314.874 104.697ZM297.397 93.4738C292.491 88.5686 288.65 82.8781 285.869 76.3882L282.192 77.9638C285.171 84.9139 289.297 91.0314 294.568 96.3022L297.397 93.4738ZM285.869 76.3882C283.103 69.9357 281.71 62.9102 281.71 55.288H277.71C277.71 63.4098 279.197 70.9763 282.192 77.9638L285.869 76.3882ZM281.71 55.288C281.71 47.6569 283.059 40.6235 285.734 34.1655L282.039 32.6345C279.146 39.6165 277.71 47.1751 277.71 55.288H281.71ZM285.725 34.1878C288.505 27.7013 292.342 22.0642 297.239 17.2596L294.438 14.4044C289.159 19.5838 285.028 25.6587 282.048 32.6122L285.725 34.1878ZM297.226 17.2726C302.218 12.4649 308.047 8.71478 314.73 6.02316L313.235 2.31282C306.094 5.18921 299.826 9.2151 294.451 14.3914L297.226 17.2726ZM314.73 6.02316C321.382 3.34355 328.662 1.992 336.59 1.992V-2.008C328.199 -2.008 320.406 -0.575562 313.235 2.31282L314.73 6.02316ZM336.59 1.992C344.519 1.992 351.798 3.34355 358.451 6.02316L359.946 2.31282C352.774 -0.575562 344.982 -2.008 336.59 -2.008V1.992ZM358.451 6.02316C365.131 8.7135 370.906 12.46 375.798 17.2596L378.599 14.4044C373.315 9.21998 367.09 5.19048 359.946 2.31282L358.451 6.02316ZM375.811 17.2726C380.795 22.0716 384.623 27.697 387.303 34.1655L390.998 32.6345C388.11 25.663 383.97 19.5764 378.586 14.3914L375.811 17.2726ZM387.312 34.1878C390.077 40.6403 391.47 47.6658 391.47 55.288L395.47 55.288C395.47 47.1662 393.983 39.5997 390.989 32.6122L387.312 34.1878ZM391.47 55.288C391.47 62.9102 390.077 69.9357 387.312 76.3882L390.989 77.9638C393.983 70.9763 395.47 63.4098 395.47 55.288L391.47 55.288ZM387.312 76.3882C384.534 82.8701 380.65 88.5565 375.653 93.4606L378.455 96.3154C383.827 91.0435 388.007 84.9219 390.989 77.9638L387.312 76.3882ZM375.654 93.4604C370.762 98.26 364.987 102.006 358.307 104.697L359.802 108.407C366.946 105.53 373.171 101.5 378.455 96.3156L375.654 93.4604ZM358.307 104.697C351.652 107.378 344.42 108.728 336.59 108.728V112.728C344.889 112.728 352.633 111.294 359.802 108.407L358.307 104.697ZM336.59 92.568C341.726 92.568 346.504 91.6605 350.899 89.8209L349.354 86.1311C345.493 87.7475 341.246 88.568 336.59 88.568V92.568ZM350.884 89.8271C355.336 88.0058 359.249 85.4676 362.607 82.2118L359.822 79.3402C356.844 82.2284 353.365 84.4902 349.369 86.1249L350.884 89.8271ZM362.629 82.1902C365.996 78.8233 368.591 74.8484 370.415 70.2868L366.701 68.8012C365.07 72.8796 362.769 76.3927 359.8 79.3618L362.629 82.1902ZM370.415 70.2868C372.248 65.705 373.15 60.6974 373.15 55.288H369.15C369.15 60.2466 368.325 64.743 366.701 68.8012L370.415 70.2868ZM373.15 55.288C373.15 49.8794 372.248 44.9136 370.409 40.4187L366.707 41.9333C368.324 45.8864 369.15 50.3286 369.15 55.288H373.15ZM370.415 40.4332C368.591 35.8716 365.996 31.8967 362.629 28.5298L359.8 31.3582C362.769 34.3273 365.07 37.8404 366.701 41.9188L370.415 40.4332ZM362.629 28.5298C359.261 25.1625 355.328 22.6098 350.847 20.8784L349.406 24.6096C353.372 26.1422 356.831 28.3895 359.8 31.3582L362.629 28.5298ZM350.899 20.8991C346.504 19.0595 341.726 18.152 336.59 18.152V22.152C341.246 22.152 345.493 22.9725 349.354 24.5889L350.899 20.8991ZM336.59 18.152C331.454 18.152 326.635 19.0596 322.153 20.8929L323.668 24.5951C327.634 22.9724 331.935 22.152 336.59 22.152V18.152ZM322.175 20.8841C317.79 22.6176 313.912 25.1702 310.552 28.5298L313.381 31.3582C316.357 28.3818 319.775 26.1344 323.646 24.6039L322.175 20.8841ZM310.552 28.5298C307.185 31.8967 304.59 35.8716 302.765 40.4332L306.479 41.9188C308.111 37.8404 310.412 34.3273 313.381 31.3582L310.552 28.5298ZM302.771 40.4187C300.932 44.9136 300.03 49.8794 300.03 55.288H304.03C304.03 50.3286 304.856 45.8864 306.473 41.9333L302.771 40.4187ZM300.03 55.288C300.03 60.6974 300.933 65.705 302.765 70.2868L306.479 68.8012C304.856 64.743 304.03 60.2466 304.03 55.288H300.03ZM302.765 70.2868C304.59 74.8484 307.185 78.8233 310.552 82.1902L313.381 79.3618C310.412 76.3927 308.111 72.8796 306.479 68.8012L302.765 70.2868ZM310.574 82.2118C313.924 85.4602 317.783 87.9978 322.138 89.8209L323.683 86.1311C319.782 84.4982 316.345 82.2358 313.359 79.3402L310.574 82.2118ZM322.153 89.8271C326.635 91.6604 331.454 92.568 336.59 92.568V88.568C331.935 88.568 327.634 87.7476 323.668 86.1249L322.153 89.8271ZM412.18 109H410.18V111H412.18V109ZM412.18 1.71999V-0.28001H410.18V1.71999H412.18ZM429.316 1.71999L430.909 0.51082L430.309 -0.28001H429.316V1.71999ZM486.916 77.608L487.373 79.5552L490.372 78.8523L488.509 76.3988L486.916 77.608ZM477.7 79.768H475.7V82.2909L478.157 81.7152L477.7 79.768ZM477.7 1.71999V-0.28001H475.7V1.71999H477.7ZM500.02 1.71999H502.02V-0.28001H500.02V1.71999ZM500.02 109V111H502.02V109H500.02ZM482.74 109L481.133 110.19L481.732 111H482.74V109ZM426.148 32.536L425.647 30.5997L422.776 31.3422L424.541 33.7258L426.148 32.536ZM434.5 30.376H436.5V27.793L433.999 28.4397L434.5 30.376ZM434.5 109V111H436.5V109H434.5ZM414.18 109V1.71999H410.18V109H414.18ZM412.18 3.71999L429.316 3.71999V-0.28001L412.18 -0.28001V3.71999ZM427.723 2.92916L485.323 78.8172L488.509 76.3988L430.909 0.51082L427.723 2.92916ZM486.46 75.6608L477.244 77.8208L478.157 81.7152L487.373 79.5552L486.46 75.6608ZM479.7 79.768V1.71999H475.7V79.768H479.7ZM477.7 3.71999L500.02 3.71999V-0.28001L477.7 -0.28001V3.71999ZM498.02 1.71999V109H502.02V1.71999H498.02ZM500.02 107H482.74V111H500.02V107ZM484.348 107.81L427.756 31.3462L424.541 33.7258L481.133 110.19L484.348 107.81ZM426.649 34.4723L435.001 32.3123L433.999 28.4397L425.647 30.5997L426.649 34.4723ZM432.5 30.376V109H436.5V30.376H432.5ZM434.5 107H412.18V111H434.5V107ZM552.031 106.552L551.256 108.396L552.031 106.552ZM534.607 94.888L536.021 93.4738L534.607 94.888ZM522.943 77.32L524.791 76.5545L522.943 77.32ZM522.799 33.256L524.656 33.9988L524.66 33.9897L522.799 33.256ZM534.175 15.688L535.589 17.1022L535.596 17.0953L535.603 17.0884L534.175 15.688ZM551.311 4.16799L552.073 6.01735L552.079 6.01458L552.086 6.01177L551.311 4.16799ZM593.791 3.88L593.014 5.72275L593.024 5.72699L593.791 3.88ZM618.847 28.648L619.715 30.4498L621.319 29.6773L620.738 27.995L618.847 28.648ZM599.119 38.152L597.233 38.8158L597.974 40.9236L599.987 39.9538L599.119 38.152ZM589.471 25.336L588.255 26.9238L588.274 26.9381L588.293 26.952L589.471 25.336ZM556.207 24.616L557.261 26.3158L556.207 24.616ZM544.975 37L543.193 36.0926L543.19 36.0991L543.186 36.1056L544.975 37ZM545.263 73.72L547.032 72.7872L545.263 73.72ZM556.639 86.104L555.585 87.8038L555.593 87.8085L555.6 87.813L556.639 86.104ZM587.167 87.832L587.96 89.6681L587.97 89.6639L587.98 89.6596L587.167 87.832ZM597.535 79.624L595.94 78.4171L595.93 78.431L595.92 78.4451L597.535 79.624ZM601.567 57.88L602.858 56.3524L599.567 53.5714V57.88H601.567ZM611.791 66.52V68.52H617.257L613.082 64.9924L611.791 66.52ZM572.911 66.52H570.911V68.52H572.911V66.52ZM572.911 47.8V45.8H570.911V47.8H572.911ZM623.887 47.8H625.887V45.8H623.887V47.8ZM619.567 82.072L621.393 82.8893L621.397 82.8793L619.567 82.072ZM607.903 98.2L609.225 99.7014L609.227 99.6997L607.903 98.2ZM591.631 107.704L592.273 109.598L592.282 109.595L592.291 109.592L591.631 107.704ZM573.487 108.728C566.055 108.728 559.168 107.382 552.806 104.708L551.256 108.396C558.142 111.29 565.56 112.728 573.487 112.728V108.728ZM552.806 104.708C546.417 102.023 540.827 98.2792 536.021 93.4738L533.193 96.3022C538.372 101.481 544.398 105.513 551.256 108.396L552.806 104.708ZM536.021 93.4738C531.221 88.6731 527.478 83.0394 524.791 76.5545L521.096 78.0855C523.977 85.0406 528.01 91.1189 533.193 96.3022L536.021 93.4738ZM524.791 76.5545C522.117 70.0994 520.767 63.0185 520.767 55.288H516.767C516.767 63.4935 518.202 71.1006 521.096 78.0855L524.791 76.5545ZM520.767 55.288C520.767 47.5487 522.072 40.4598 524.656 33.9988L520.942 32.5132C518.151 39.4922 516.767 47.0913 516.767 55.288H520.767ZM524.66 33.9897C527.253 27.4137 530.898 21.7932 535.589 17.1022L532.761 14.2738C527.66 19.3748 523.721 25.4663 520.939 32.5223L524.66 33.9897ZM535.603 17.0884C540.308 12.2915 545.792 8.60335 552.073 6.01735L550.55 2.31864C543.774 5.10864 537.835 9.10048 532.747 14.2876L535.603 17.0884ZM552.086 6.01177C558.445 3.33911 565.379 1.992 572.911 1.992V-2.008C564.891 -2.008 557.425 -0.571115 550.536 2.32422L552.086 6.01177ZM572.911 1.992C580.464 1.992 587.153 3.2503 593.014 5.72272L594.569 2.03727C588.141 -0.674303 580.911 -2.008 572.911 -2.008V1.992ZM593.024 5.72699C599.048 8.22917 604.101 11.5462 608.217 15.6622L611.045 12.8338C606.522 8.30983 601.015 4.71482 594.558 2.033L593.024 5.72699ZM608.217 15.6622C612.343 19.7882 615.241 24.3336 616.957 29.301L620.738 27.995C618.806 22.4024 615.559 17.3478 611.045 12.8338L608.217 15.6622ZM617.979 26.8462L598.251 36.3502L599.987 39.9538L619.715 30.4498L617.979 26.8462ZM601.006 37.4882C599.042 31.9074 595.572 27.3089 590.65 23.72L588.293 26.952C592.587 30.0831 595.548 34.0286 597.233 38.8158L601.006 37.4882ZM590.687 23.7482C585.776 19.9861 579.811 18.152 572.911 18.152V22.152C579.068 22.152 584.143 23.7738 588.255 26.9238L590.687 23.7482ZM572.911 18.152C566.25 18.152 560.307 19.7207 555.153 22.9162L557.261 26.3158C561.707 23.5592 566.901 22.152 572.911 22.152V18.152ZM555.153 22.9162C550.027 26.0945 546.038 30.5036 543.193 36.0926L546.758 37.9074C549.288 32.9364 552.787 29.0895 557.261 26.3158L555.153 22.9162ZM543.186 36.1056C540.43 41.6194 539.087 48.0336 539.087 55.288H543.087C543.087 48.5264 544.337 42.7486 546.764 37.8944L543.186 36.1056ZM539.087 55.288C539.087 62.5645 540.534 69.039 543.494 74.6528L547.032 72.7872C544.424 67.841 543.087 62.0275 543.087 55.288H539.087ZM543.494 74.6528C546.434 80.2289 550.466 84.6295 555.585 87.8038L557.693 84.4042C553.213 81.6265 549.66 77.7711 547.032 72.7872L543.494 74.6528ZM555.6 87.813C560.842 90.9991 566.825 92.568 573.487 92.568V88.568C567.478 88.568 562.229 87.1609 557.678 84.395L555.6 87.813ZM573.487 92.568C578.638 92.568 583.47 91.6071 587.96 89.6681L586.374 85.9959C582.417 87.7049 578.128 88.568 573.487 88.568V92.568ZM587.98 89.6596C592.595 87.6085 596.337 84.6589 599.151 80.8029L595.92 78.4451C593.549 81.6931 590.38 84.2155 586.355 86.0044L587.98 89.6596ZM599.13 80.8309C602.112 76.8898 603.567 72.1804 603.567 66.808H599.567C599.567 71.4196 598.334 75.2542 595.94 78.4171L599.13 80.8309ZM603.567 66.808V57.88H599.567V66.808H603.567ZM600.276 59.4076L610.5 68.0476L613.082 64.9924L602.858 56.3524L600.276 59.4076ZM611.791 64.52H572.911V68.52H611.791V64.52ZM574.911 66.52V47.8H570.911V66.52H574.911ZM572.911 49.8H623.887V45.8H572.911V49.8ZM621.887 47.8V59.176H625.887V47.8H621.887ZM621.887 59.176C621.887 67.6949 620.483 75.0414 617.737 81.2647L621.397 82.8793C624.412 76.0466 625.887 68.1291 625.887 59.176H621.887ZM617.742 81.2547C614.969 87.447 611.245 92.5839 606.58 96.7003L609.227 99.6997C614.353 95.1761 618.405 89.561 621.393 82.8893L617.742 81.2547ZM606.582 96.6986C601.976 100.752 596.777 103.789 590.972 105.816L592.291 109.592C598.582 107.395 604.231 104.096 609.225 99.7014L606.582 96.6986ZM590.99 105.81C585.24 107.757 579.408 108.728 573.487 108.728V112.728C579.854 112.728 586.119 111.683 592.273 109.598L590.99 105.81ZM640.55 109H638.55V111H640.55V109ZM640.55 1.71999V-0.28001H638.55V1.71999H640.55ZM712.694 1.71999L714.694 1.71999V-0.28001L712.694 -0.28001V1.71999ZM712.694 21.16V23.16H714.694V21.16H712.694ZM662.87 21.16V19.16H660.87V21.16H662.87ZM662.87 45.496H660.87V47.496H662.87V45.496ZM709.814 45.496H711.814V43.496H709.814V45.496ZM709.814 64.936V66.936H711.814V64.936H709.814ZM662.87 64.936V62.936H660.87V64.936H662.87ZM662.87 89.56H660.87V91.56H662.87V89.56ZM712.694 89.56H714.694V87.56H712.694V89.56ZM712.694 109V111H714.694V109H712.694ZM642.55 109V1.71999H638.55V109H642.55ZM640.55 3.71999L712.694 3.71999V-0.28001L640.55 -0.28001V3.71999ZM710.694 1.71999V21.16H714.694V1.71999L710.694 1.71999ZM712.694 19.16L662.87 19.16V23.16L712.694 23.16V19.16ZM660.87 21.16V45.496H664.87V21.16H660.87ZM662.87 47.496H709.814V43.496L662.87 43.496V47.496ZM707.814 45.496V64.936H711.814V45.496H707.814ZM709.814 62.936H662.87V66.936H709.814V62.936ZM660.87 64.936V89.56H664.87V64.936H660.87ZM662.87 91.56H712.694V87.56H662.87V91.56ZM710.694 89.56V109H714.694V89.56H710.694ZM712.694 107L640.55 107V111H712.694V107ZM728.227 109H726.227V111H728.227V109ZM728.227 1.71999V-0.28001H726.227V1.71999H728.227ZM788.85 5.60799L788.018 7.42664L788.03 7.43184L788.85 5.60799ZM802.386 17.128L800.703 18.2079L802.386 17.128ZM802.242 54.712L803.911 55.8141L803.916 55.807L803.921 55.7998L802.242 54.712ZM788.706 66.232L787.874 64.4134L785.883 65.3248L786.971 67.2255L788.706 66.232ZM813.186 109V111H816.636L814.922 108.006L813.186 109ZM788.13 109L786.385 109.976L786.957 111H788.13V109ZM761.634 61.624L762.651 59.9015L756.276 56.1404L759.889 62.6002L761.634 61.624ZM776.034 70.12V72.12H783.36L777.051 68.3975L776.034 70.12ZM750.546 70.12V68.12H748.546V70.12H750.546ZM750.546 109V111H752.546V109H750.546ZM750.546 50.68H748.546V52.68H750.546V50.68ZM777.618 48.808L778.571 50.5666L777.618 48.808ZM782.946 43.624L781.238 42.5841L781.221 42.6117L781.205 42.6399L782.946 43.624ZM782.946 28.216L781.205 29.2001L781.221 29.2283L781.238 29.2559L782.946 28.216ZM777.618 23.032L776.666 24.7906L777.618 23.032ZM750.546 21.16V19.16H748.546V21.16H750.546ZM730.227 109V1.71999H726.227V109H730.227ZM728.227 3.71999L769.266 3.71999V-0.28001L728.227 -0.28001V3.71999ZM769.266 3.71999C776.424 3.71999 782.66 4.97436 788.018 7.42661L789.683 3.78938C783.713 1.05762 776.893 -0.28001 769.266 -0.28001V3.71999ZM788.03 7.43184C793.453 9.87225 797.658 13.4614 800.703 18.2079L804.07 16.0481C800.587 10.6186 795.768 6.52774 789.671 3.78415L788.03 7.43184ZM800.703 18.2079C803.716 22.9045 805.282 28.7954 805.282 35.992H809.282C809.282 28.2126 807.585 21.5275 804.07 16.0481L800.703 18.2079ZM805.282 35.992C805.282 42.973 803.679 48.819 800.564 53.6242L803.921 55.7998C807.526 50.237 809.282 43.603 809.282 35.992H805.282ZM800.574 53.6099C797.424 58.3784 793.206 61.9736 787.874 64.4134L789.539 68.0506C795.535 65.3064 800.34 61.2216 803.911 55.8141L800.574 53.6099ZM786.971 67.2255L811.451 109.994L814.922 108.006L790.442 65.2385L786.971 67.2255ZM813.186 107H788.13V111L813.186 111V107ZM789.876 108.024L763.38 60.6478L759.889 62.6002L786.385 109.976L789.876 108.024ZM760.618 63.3465L775.018 71.8425L777.051 68.3975L762.651 59.9015L760.618 63.3465ZM776.034 68.12H750.546V72.12H776.034V68.12ZM748.546 70.12V109H752.546V70.12H748.546ZM750.546 107L728.227 107V111H750.546V107ZM750.546 52.68H769.41V48.68H750.546V52.68ZM769.41 52.68C772.842 52.68 775.919 52.0029 778.571 50.5666L776.666 47.0494C774.71 48.109 772.315 48.68 769.41 48.68V52.68ZM778.571 50.5666C781.194 49.1459 783.248 47.1544 784.688 44.6081L781.205 42.6399C780.149 44.5096 778.651 45.9741 776.666 47.0494L778.571 50.5666ZM784.655 44.6639C786.211 42.1077 786.962 39.1957 786.962 35.992H782.962C782.962 38.5482 782.37 40.7243 781.238 42.5841L784.655 44.6639ZM786.962 35.992C786.962 32.7057 786.217 29.7424 784.655 27.1761L781.238 29.2559C782.364 31.1055 782.962 33.3263 782.962 35.992H786.962ZM784.688 27.2319C783.248 24.6856 781.194 22.6941 778.571 21.2734L776.666 24.7906C778.651 25.8659 780.149 27.3304 781.205 29.2001L784.688 27.2319ZM778.571 21.2734C775.919 19.837 772.842 19.16 769.41 19.16V23.16C772.315 23.16 774.71 23.7309 776.666 24.7906L778.571 21.2734ZM769.41 19.16L750.546 19.16V23.16L769.41 23.16V19.16ZM748.546 21.16V50.68H752.546V21.16H748.546ZM875.204 109H873.204V111H875.204V109ZM875.204 21.16H877.204V19.16H875.204V21.16ZM847.988 21.16H845.988V23.16H847.988V21.16ZM847.988 1.71999V-0.28001L845.988 -0.28001V1.71999L847.988 1.71999ZM924.308 1.71999H926.308V-0.28001H924.308V1.71999ZM924.308 21.16V23.16H926.308V21.16H924.308ZM897.524 21.16V19.16H895.524V21.16H897.524ZM897.524 109V111H899.524V109H897.524ZM877.204 109V21.16H873.204V109H877.204ZM875.204 19.16L847.988 19.16V23.16L875.204 23.16V19.16ZM849.988 21.16V1.71999L845.988 1.71999V21.16H849.988ZM847.988 3.71999L924.308 3.71999V-0.28001L847.988 -0.28001V3.71999ZM922.308 1.71999V21.16H926.308V1.71999H922.308ZM924.308 19.16L897.524 19.16V23.16L924.308 23.16V19.16ZM895.524 21.16V109H899.524V21.16H895.524ZM897.524 107H875.204V111H897.524V107ZM965.13 106.552L965.877 104.697L965.13 106.552ZM946.986 94.888L945.572 96.3022L945.585 96.3156L945.599 96.3286L946.986 94.888ZM935.034 77.176L936.872 76.3882L935.034 77.176ZM934.89 33.4L933.052 32.6122L933.047 32.6233L933.042 32.6345L934.89 33.4ZM946.842 15.832L945.455 14.3914L945.448 14.3978L945.441 14.4044L946.842 15.832ZM1010.2 4.16799L1009.45 6.02316L1010.2 4.16799ZM1028.2 15.832L1026.8 17.2596L1026.81 17.2662L1026.81 17.2726L1028.2 15.832ZM1040.15 33.4L1038.31 34.1655L1038.31 34.1767L1038.32 34.1878L1040.15 33.4ZM1040.15 77.176L1038.32 76.3882L1040.15 77.176ZM1028.06 94.888L1029.46 96.3156L1029.46 96.3154L1028.06 94.888ZM1010.06 106.552L1010.81 108.407L1010.06 106.552ZM1001.13 87.976L1000.37 86.1249L1000.37 86.128L1000.36 86.1311L1001.13 87.976ZM1012.22 80.776L1013.61 82.2118L1013.62 82.2011L1013.63 82.1902L1012.22 80.776ZM1019.56 69.544L1017.71 68.8012L1019.56 69.544ZM1019.56 41.176L1017.71 41.9188L1017.71 41.926L1017.71 41.9333L1019.56 41.176ZM1001.13 22.744L1000.36 24.5889L1000.38 24.5996L1000.41 24.6096L1001.13 22.744ZM973.914 22.744L974.649 24.6039L974.66 24.5996L974.671 24.5951L973.914 22.744ZM962.97 29.944L961.556 28.5298L962.97 29.944ZM955.626 41.176L957.477 41.9333L957.48 41.926L957.483 41.9188L955.626 41.176ZM955.626 69.544L953.769 70.2868L955.626 69.544ZM962.97 80.776L961.556 82.1902L961.567 82.2011L961.578 82.2118L962.97 80.776ZM973.914 87.976L973.142 89.8209L973.149 89.824L973.157 89.8271L973.914 87.976ZM987.594 108.728C979.765 108.728 972.533 107.378 965.877 104.697L964.383 108.407C971.551 111.294 979.295 112.728 987.594 112.728V108.728ZM965.877 104.697C959.195 102.005 953.366 98.2551 948.373 93.4474L945.599 96.3286C950.974 101.505 957.242 105.531 964.383 108.407L965.877 104.697ZM948.4 93.4738C943.495 88.5686 939.654 82.8781 936.872 76.3882L933.196 77.9638C936.174 84.9139 940.301 91.0314 945.572 96.3022L948.4 93.4738ZM936.872 76.3882C934.107 69.9357 932.714 62.9102 932.714 55.288H928.714C928.714 63.4098 930.201 70.9763 933.196 77.9638L936.872 76.3882ZM932.714 55.288C932.714 47.6569 934.062 40.6235 936.738 34.1655L933.042 32.6345C930.15 39.6165 928.714 47.1751 928.714 55.288H932.714ZM936.728 34.1878C939.508 27.7013 943.346 22.0642 948.243 17.2596L945.441 14.4044C940.162 19.5838 936.032 25.6587 933.052 32.6122L936.728 34.1878ZM948.229 17.2726C953.222 12.4649 959.051 8.71478 965.733 6.02316L964.239 2.31282C957.098 5.18921 950.83 9.2151 945.455 14.3914L948.229 17.2726ZM965.733 6.02316C972.386 3.34355 979.666 1.992 987.594 1.992V-2.008C979.203 -2.008 971.41 -0.575562 964.239 2.31282L965.733 6.02316ZM987.594 1.992C995.523 1.992 1002.8 3.34355 1009.45 6.02316L1010.95 2.31282C1003.78 -0.575562 995.986 -2.008 987.594 -2.008V1.992ZM1009.45 6.02316C1016.13 8.7135 1021.91 12.46 1026.8 17.2596L1029.6 14.4044C1024.32 9.21998 1018.09 5.19048 1010.95 2.31282L1009.45 6.02316ZM1026.81 17.2726C1031.8 22.0716 1035.63 27.697 1038.31 34.1655L1042 32.6345C1039.11 25.663 1034.97 19.5764 1029.59 14.3914L1026.81 17.2726ZM1038.32 34.1878C1041.08 40.6403 1042.47 47.6658 1042.47 55.288H1046.47C1046.47 47.1662 1044.99 39.5997 1041.99 32.6122L1038.32 34.1878ZM1042.47 55.288C1042.47 62.9102 1041.08 69.9357 1038.32 76.3882L1041.99 77.9638C1044.99 70.9763 1046.47 63.4098 1046.47 55.288H1042.47ZM1038.32 76.3882C1035.54 82.8701 1031.65 88.5565 1026.66 93.4606L1029.46 96.3154C1034.83 91.0435 1039.01 84.9219 1041.99 77.9638L1038.32 76.3882ZM1026.66 93.4604C1021.77 98.26 1015.99 102.006 1009.31 104.697L1010.81 108.407C1017.95 105.53 1024.17 101.5 1029.46 96.3156L1026.66 93.4604ZM1009.31 104.697C1002.66 107.378 995.423 108.728 987.594 108.728V112.728C995.893 112.728 1003.64 111.294 1010.81 108.407L1009.31 104.697ZM987.594 92.568C992.73 92.568 997.508 91.6605 1001.9 89.8209L1000.36 86.1311C996.497 87.7475 992.25 88.568 987.594 88.568V92.568ZM1001.89 89.8271C1006.34 88.0058 1010.25 85.4676 1013.61 82.2118L1010.83 79.3402C1007.85 82.2284 1004.37 84.4902 1000.37 86.1249L1001.89 89.8271ZM1013.63 82.1902C1017 78.8233 1019.59 74.8484 1021.42 70.2868L1017.71 68.8012C1016.07 72.8796 1013.77 76.3927 1010.8 79.3618L1013.63 82.1902ZM1021.42 70.2868C1023.25 65.705 1024.15 60.6974 1024.15 55.288H1020.15C1020.15 60.2466 1019.33 64.743 1017.71 68.8012L1021.42 70.2868ZM1024.15 55.288C1024.15 49.8794 1023.25 44.9136 1021.41 40.4187L1017.71 41.9333C1019.33 45.8864 1020.15 50.3286 1020.15 55.288H1024.15ZM1021.42 40.4332C1019.59 35.8716 1017 31.8967 1013.63 28.5298L1010.8 31.3582C1013.77 34.3273 1016.07 37.8404 1017.71 41.9188L1021.42 40.4332ZM1013.63 28.5298C1010.27 25.1625 1006.33 22.6098 1001.85 20.8784L1000.41 24.6096C1004.38 26.1422 1007.84 28.3895 1010.8 31.3582L1013.63 28.5298ZM1001.9 20.8991C997.508 19.0595 992.73 18.152 987.594 18.152V22.152C992.25 22.152 996.497 22.9725 1000.36 24.5889L1001.9 20.8991ZM987.594 18.152C982.458 18.152 977.638 19.0596 973.157 20.8929L974.671 24.5951C978.638 22.9724 982.939 22.152 987.594 22.152V18.152ZM973.179 20.8841C968.794 22.6176 964.915 25.1702 961.556 28.5298L964.384 31.3582C967.361 28.3818 970.778 26.1344 974.649 24.6039L973.179 20.8841ZM961.556 28.5298C958.189 31.8967 955.594 35.8716 953.769 40.4332L957.483 41.9188C959.114 37.8404 961.415 34.3273 964.384 31.3582L961.556 28.5298ZM953.775 40.4187C951.936 44.9136 951.034 49.8794 951.034 55.288H955.034C955.034 50.3286 955.86 45.8864 957.477 41.9333L953.775 40.4187ZM951.034 55.288C951.034 60.6974 951.936 65.705 953.769 70.2868L957.483 68.8012C955.86 64.743 955.034 60.2466 955.034 55.288H951.034ZM953.769 70.2868C955.594 74.8484 958.189 78.8233 961.556 82.1902L964.384 79.3618C961.415 76.3927 959.114 72.8796 957.483 68.8012L953.769 70.2868ZM961.578 82.2118C964.928 85.4602 968.787 87.9978 973.142 89.8209L974.686 86.1311C970.785 84.4982 967.349 82.2358 964.362 79.3402L961.578 82.2118ZM973.157 89.8271C977.638 91.6604 982.458 92.568 987.594 92.568V88.568C982.939 88.568 978.638 87.7476 974.671 86.1249L973.157 89.8271ZM1093.28 106.552L1092.51 108.396L1093.28 106.552ZM1075.86 94.888L1077.27 93.4738L1075.86 94.888ZM1064.19 77.32L1066.04 76.5545L1064.19 77.32ZM1064.05 33.256L1065.91 33.9988L1065.91 33.9897L1064.05 33.256ZM1075.42 15.688L1076.84 17.1022L1076.85 17.0953L1076.85 17.0884L1075.42 15.688ZM1092.56 4.16799L1093.32 6.01735L1093.33 6.01458L1093.33 6.01177L1092.56 4.16799ZM1135.04 3.88L1134.26 5.72275L1134.27 5.72699L1135.04 3.88ZM1160.1 28.648L1160.96 30.4498L1162.57 29.6773L1161.99 27.995L1160.1 28.648ZM1140.37 38.152L1138.48 38.8158L1139.22 40.9236L1141.24 39.9538L1140.37 38.152ZM1130.72 25.336L1129.5 26.9238L1129.52 26.9381L1129.54 26.952L1130.72 25.336ZM1097.46 24.616L1098.51 26.3158L1097.46 24.616ZM1086.22 37L1084.44 36.0926L1084.44 36.0991L1084.44 36.1056L1086.22 37ZM1086.51 73.72L1088.28 72.7872L1086.51 73.72ZM1097.89 86.104L1096.83 87.8038L1096.84 87.8085L1096.85 87.813L1097.89 86.104ZM1128.42 87.832L1129.21 89.6681L1129.22 89.6639L1129.23 89.6596L1128.42 87.832ZM1138.78 79.624L1137.19 78.4171L1137.18 78.431L1137.17 78.4451L1138.78 79.624ZM1142.82 57.88L1144.11 56.3524L1140.82 53.5714V57.88H1142.82ZM1153.04 66.52V68.52H1158.51L1154.33 64.9924L1153.04 66.52ZM1114.16 66.52H1112.16V68.52H1114.16V66.52ZM1114.16 47.8V45.8H1112.16V47.8H1114.16ZM1165.14 47.8H1167.14V45.8H1165.14V47.8ZM1160.82 82.072L1162.64 82.8893L1162.65 82.8793L1160.82 82.072ZM1149.15 98.2L1150.47 99.7014L1150.48 99.6997L1149.15 98.2ZM1132.88 107.704L1133.52 109.598L1133.53 109.595L1133.54 109.592L1132.88 107.704ZM1114.74 108.728C1107.3 108.728 1100.42 107.382 1094.05 104.708L1092.51 108.396C1099.39 111.29 1106.81 112.728 1114.74 112.728V108.728ZM1094.05 104.708C1087.67 102.023 1082.08 98.2792 1077.27 93.4738L1074.44 96.3022C1079.62 101.481 1085.65 105.513 1092.51 108.396L1094.05 104.708ZM1077.27 93.4738C1072.47 88.6731 1068.73 83.0394 1066.04 76.5545L1062.34 78.0855C1065.23 85.0406 1069.26 91.1189 1074.44 96.3022L1077.27 93.4738ZM1066.04 76.5545C1063.37 70.0994 1062.02 63.0185 1062.02 55.288H1058.02C1058.02 63.4935 1059.45 71.1006 1062.34 78.0855L1066.04 76.5545ZM1062.02 55.288C1062.02 47.5487 1063.32 40.4598 1065.91 33.9988L1062.19 32.5132C1059.4 39.4922 1058.02 47.0913 1058.02 55.288H1062.02ZM1065.91 33.9897C1068.5 27.4137 1072.15 21.7932 1076.84 17.1022L1074.01 14.2738C1068.91 19.3748 1064.97 25.4663 1062.19 32.5223L1065.91 33.9897ZM1076.85 17.0884C1081.56 12.2915 1087.04 8.60335 1093.32 6.01735L1091.8 2.31864C1085.02 5.10864 1079.08 9.10048 1074 14.2876L1076.85 17.0884ZM1093.33 6.01177C1099.69 3.33911 1106.63 1.992 1114.16 1.992V-2.008C1106.14 -2.008 1098.67 -0.571115 1091.79 2.32422L1093.33 6.01177ZM1114.16 1.992C1121.71 1.992 1128.4 3.2503 1134.26 5.72272L1135.82 2.03727C1129.39 -0.674303 1122.16 -2.008 1114.16 -2.008V1.992ZM1134.27 5.72699C1140.3 8.22917 1145.35 11.5462 1149.47 15.6622L1152.29 12.8338C1147.77 8.30983 1142.26 4.71482 1135.81 2.033L1134.27 5.72699ZM1149.47 15.6622C1153.59 19.7882 1156.49 24.3336 1158.21 29.301L1161.99 27.995C1160.05 22.4024 1156.81 17.3478 1152.29 12.8338L1149.47 15.6622ZM1159.23 26.8462L1139.5 36.3502L1141.24 39.9538L1160.96 30.4498L1159.23 26.8462ZM1142.25 37.4882C1140.29 31.9074 1136.82 27.3089 1131.9 23.72L1129.54 26.952C1133.84 30.0831 1136.8 34.0286 1138.48 38.8158L1142.25 37.4882ZM1131.94 23.7482C1127.02 19.9861 1121.06 18.152 1114.16 18.152V22.152C1120.32 22.152 1125.39 23.7738 1129.5 26.9238L1131.94 23.7482ZM1114.16 18.152C1107.5 18.152 1101.56 19.7207 1096.4 22.9162L1098.51 26.3158C1102.96 23.5592 1108.15 22.152 1114.16 22.152V18.152ZM1096.4 22.9162C1091.28 26.0945 1087.29 30.5036 1084.44 36.0926L1088.01 37.9074C1090.54 32.9364 1094.04 29.0895 1098.51 26.3158L1096.4 22.9162ZM1084.44 36.1056C1081.68 41.6194 1080.34 48.0336 1080.34 55.288H1084.34C1084.34 48.5264 1085.59 42.7486 1088.01 37.8944L1084.44 36.1056ZM1080.34 55.288C1080.34 62.5645 1081.78 69.039 1084.74 74.6528L1088.28 72.7872C1085.67 67.841 1084.34 62.0275 1084.34 55.288H1080.34ZM1084.74 74.6528C1087.68 80.2289 1091.71 84.6295 1096.83 87.8038L1098.94 84.4042C1094.46 81.6265 1090.91 77.7711 1088.28 72.7872L1084.74 74.6528ZM1096.85 87.813C1102.09 90.9991 1108.07 92.568 1114.74 92.568V88.568C1108.73 88.568 1103.48 87.1609 1098.93 84.395L1096.85 87.813ZM1114.74 92.568C1119.89 92.568 1124.72 91.6071 1129.21 89.6681L1127.62 85.9959C1123.67 87.7049 1119.38 88.568 1114.74 88.568V92.568ZM1129.23 89.6596C1133.84 87.6085 1137.59 84.6589 1140.4 80.8029L1137.17 78.4451C1134.8 81.6931 1131.63 84.2155 1127.6 86.0044L1129.23 89.6596ZM1140.38 80.8309C1143.36 76.8898 1144.82 72.1804 1144.82 66.808H1140.82C1140.82 71.4196 1139.58 75.2542 1137.19 78.4171L1140.38 80.8309ZM1144.82 66.808V57.88H1140.82V66.808H1144.82ZM1141.53 59.4076L1151.75 68.0476L1154.33 64.9924L1144.11 56.3524L1141.53 59.4076ZM1153.04 64.52H1114.16V68.52H1153.04V64.52ZM1116.16 66.52V47.8H1112.16V66.52H1116.16ZM1114.16 49.8H1165.14V45.8H1114.16V49.8ZM1163.14 47.8V59.176H1167.14V47.8H1163.14ZM1163.14 59.176C1163.14 67.6949 1161.73 75.0414 1158.99 81.2647L1162.65 82.8793C1165.66 76.0466 1167.14 68.1291 1167.14 59.176H1163.14ZM1158.99 81.2547C1156.22 87.447 1152.49 92.5839 1147.83 96.7003L1150.48 99.6997C1155.6 95.1761 1159.65 89.561 1162.64 82.8893L1158.99 81.2547ZM1147.83 96.6986C1143.22 100.752 1138.03 103.789 1132.22 105.816L1133.54 109.592C1139.83 107.395 1145.48 104.096 1150.47 99.7014L1147.83 96.6986ZM1132.24 105.81C1126.49 107.757 1120.66 108.728 1114.74 108.728V112.728C1121.1 112.728 1127.37 111.683 1133.52 109.598L1132.24 105.81ZM1181.8 109H1179.8V111H1181.8V109ZM1181.8 1.71999V-0.28001H1179.8V1.71999H1181.8ZM1253.94 1.71999H1255.94V-0.28001H1253.94V1.71999ZM1253.94 21.16V23.16L1255.94 23.16V21.16L1253.94 21.16ZM1204.12 21.16V19.16H1202.12V21.16H1204.12ZM1204.12 45.496H1202.12V47.496H1204.12V45.496ZM1251.06 45.496H1253.06V43.496H1251.06V45.496ZM1251.06 64.936V66.936H1253.06V64.936H1251.06ZM1204.12 64.936V62.936H1202.12V64.936H1204.12ZM1204.12 89.56H1202.12V91.56H1204.12V89.56ZM1253.94 89.56H1255.94V87.56H1253.94V89.56ZM1253.94 109V111H1255.94V109H1253.94ZM1183.8 109V1.71999H1179.8V109H1183.8ZM1181.8 3.71999L1253.94 3.71999V-0.28001L1181.8 -0.28001V3.71999ZM1251.94 1.71999V21.16L1255.94 21.16V1.71999H1251.94ZM1253.94 19.16L1204.12 19.16V23.16L1253.94 23.16V19.16ZM1202.12 21.16V45.496H1206.12V21.16H1202.12ZM1204.12 47.496H1251.06V43.496L1204.12 43.496V47.496ZM1249.06 45.496V64.936H1253.06V45.496H1249.06ZM1251.06 62.936H1204.12V66.936H1251.06V62.936ZM1202.12 64.936V89.56H1206.12V64.936H1202.12ZM1204.12 91.56H1253.94V87.56H1204.12V91.56ZM1251.94 89.56V109H1255.94V89.56H1251.94ZM1253.94 107L1181.8 107V111H1253.94V107ZM1288.77 109H1286.77V111H1288.77V109ZM1288.77 21.16H1290.77V19.16H1288.77V21.16ZM1261.56 21.16H1259.56V23.16H1261.56V21.16ZM1261.56 1.71999V-0.28001H1259.56V1.71999H1261.56ZM1337.88 1.71999H1339.88V-0.28001H1337.88V1.71999ZM1337.88 21.16V23.16H1339.88V21.16H1337.88ZM1311.09 21.16V19.16H1309.09V21.16H1311.09ZM1311.09 109V111H1313.09V109H1311.09ZM1290.77 109V21.16H1286.77V109H1290.77ZM1288.77 19.16H1261.56V23.16H1288.77V19.16ZM1263.56 21.16V1.71999H1259.56V21.16H1263.56ZM1261.56 3.71999L1337.88 3.71999V-0.28001L1261.56 -0.28001V3.71999ZM1335.88 1.71999V21.16H1339.88V1.71999H1335.88ZM1337.88 19.16H1311.09V23.16H1337.88V19.16ZM1309.09 21.16V109H1313.09V21.16H1309.09ZM1311.09 107H1288.77V111H1311.09V107ZM1351.81 109H1349.81V111H1351.81V109ZM1351.81 1.71999V-0.28001H1349.81V1.71999H1351.81ZM1374.13 1.71999H1376.13V-0.28001H1374.13V1.71999ZM1374.13 48.088H1372.13V50.088H1374.13V48.088ZM1415.89 48.088V50.088H1417.89V48.088H1415.89ZM1415.89 1.71999V-0.28001H1413.89V1.71999H1415.89ZM1438.21 1.71999H1440.21V-0.28001H1438.21V1.71999ZM1438.21 109V111H1440.21V109H1438.21ZM1415.89 109H1413.89V111H1415.89V109ZM1415.89 67.528H1417.89V65.528H1415.89V67.528ZM1374.13 67.528V65.528H1372.13V67.528H1374.13ZM1374.13 109V111H1376.13V109H1374.13ZM1353.81 109V1.71999H1349.81V109H1353.81ZM1351.81 3.71999L1374.13 3.71999V-0.28001L1351.81 -0.28001V3.71999ZM1372.13 1.71999V48.088H1376.13V1.71999H1372.13ZM1374.13 50.088H1415.89V46.088H1374.13V50.088ZM1417.89 48.088V1.71999H1413.89V48.088H1417.89ZM1415.89 3.71999L1438.21 3.71999V-0.28001L1415.89 -0.28001V3.71999ZM1436.21 1.71999V109H1440.21V1.71999H1436.21ZM1438.21 107H1415.89V111H1438.21V107ZM1417.89 109V67.528H1413.89V109H1417.89ZM1415.89 65.528H1374.13V69.528H1415.89V65.528ZM1372.13 67.528V109H1376.13V67.528H1372.13ZM1374.13 107L1351.81 107V111H1374.13V107ZM1460.16 109H1458.16V111H1460.16V109ZM1460.16 1.71999V-0.28001H1458.16V1.71999H1460.16ZM1532.3 1.71999H1534.3V-0.28001H1532.3V1.71999ZM1532.3 21.16V23.16H1534.3V21.16H1532.3ZM1482.48 21.16V19.16H1480.48V21.16H1482.48ZM1482.48 45.496H1480.48V47.496H1482.48V45.496ZM1529.42 45.496H1531.42V43.496H1529.42V45.496ZM1529.42 64.936V66.936H1531.42V64.936H1529.42ZM1482.48 64.936V62.936H1480.48V64.936H1482.48ZM1482.48 89.56H1480.48V91.56H1482.48V89.56ZM1532.3 89.56H1534.3V87.56H1532.3V89.56ZM1532.3 109V111H1534.3V109H1532.3ZM1462.16 109V1.71999H1458.16V109H1462.16ZM1460.16 3.71999L1532.3 3.71999V-0.28001L1460.16 -0.28001V3.71999ZM1530.3 1.71999V21.16H1534.3V1.71999L1530.3 1.71999ZM1532.3 19.16L1482.48 19.16V23.16L1532.3 23.16V19.16ZM1480.48 21.16V45.496H1484.48V21.16H1480.48ZM1482.48 47.496H1529.42V43.496L1482.48 43.496V47.496ZM1527.42 45.496V64.936H1531.42V45.496H1527.42ZM1529.42 62.936H1482.48V66.936H1529.42V62.936ZM1480.48 64.936V89.56H1484.48V64.936H1480.48ZM1482.48 91.56H1532.3V87.56H1482.48V91.56ZM1530.3 89.56V109H1534.3V89.56H1530.3ZM1532.3 107H1460.16V111L1532.3 111V107ZM1547.83 109H1545.83V111H1547.83V109ZM1547.83 1.71999V-0.28001H1545.83V1.71999H1547.83ZM1608.46 5.60799L1607.63 7.42664L1607.64 7.43184L1608.46 5.60799ZM1621.99 17.128L1620.31 18.2079L1621.99 17.128ZM1621.85 54.712L1623.52 55.8141L1623.52 55.807L1623.53 55.7998L1621.85 54.712ZM1608.31 66.232L1607.48 64.4134L1605.49 65.3248L1606.58 67.2255L1608.31 66.232ZM1632.79 109V111H1636.24L1634.53 108.006L1632.79 109ZM1607.74 109L1605.99 109.976L1606.56 111H1607.74V109ZM1581.24 61.624L1582.26 59.9015L1575.88 56.1404L1579.5 62.6002L1581.24 61.624ZM1595.64 70.12V72.12H1602.97L1596.66 68.3975L1595.64 70.12ZM1570.15 70.12V68.12H1568.15V70.12H1570.15ZM1570.15 109V111H1572.15V109H1570.15ZM1570.15 50.68H1568.15V52.68H1570.15V50.68ZM1597.23 48.808L1598.18 50.5666L1597.23 48.808ZM1602.55 43.624L1600.85 42.5841L1600.83 42.6117L1600.81 42.6399L1602.55 43.624ZM1602.55 28.216L1600.81 29.2001L1600.83 29.2283L1600.85 29.2559L1602.55 28.216ZM1597.23 23.032L1596.27 24.7906L1597.23 23.032ZM1570.15 21.16V19.16H1568.15V21.16H1570.15ZM1549.83 109V1.71999H1545.83V109H1549.83ZM1547.83 3.71999L1588.87 3.71999V-0.28001L1547.83 -0.28001V3.71999ZM1588.87 3.71999C1596.03 3.71999 1602.27 4.97436 1607.63 7.42661L1609.29 3.78938C1603.32 1.05762 1596.5 -0.28001 1588.87 -0.28001V3.71999ZM1607.64 7.43184C1613.06 9.87225 1617.27 13.4614 1620.31 18.2079L1623.68 16.0481C1620.19 10.6186 1615.38 6.52774 1609.28 3.78415L1607.64 7.43184ZM1620.31 18.2079C1623.32 22.9045 1624.89 28.7954 1624.89 35.992H1628.89C1628.89 28.2126 1627.19 21.5275 1623.68 16.0481L1620.31 18.2079ZM1624.89 35.992C1624.89 42.973 1623.29 48.819 1620.17 53.6242L1623.53 55.7998C1627.13 50.237 1628.89 43.603 1628.89 35.992H1624.89ZM1620.18 53.6099C1617.03 58.3784 1612.81 61.9736 1607.48 64.4134L1609.15 68.0506C1615.14 65.3064 1619.95 61.2216 1623.52 55.8141L1620.18 53.6099ZM1606.58 67.2255L1631.06 109.994L1634.53 108.006L1610.05 65.2385L1606.58 67.2255ZM1632.79 107L1607.74 107V111H1632.79V107ZM1609.48 108.024L1582.99 60.6478L1579.5 62.6002L1605.99 109.976L1609.48 108.024ZM1580.23 63.3465L1594.63 71.8425L1596.66 68.3975L1582.26 59.9015L1580.23 63.3465ZM1595.64 68.12H1570.15V72.12H1595.64V68.12ZM1568.15 70.12V109H1572.15V70.12H1568.15ZM1570.15 107H1547.83V111H1570.15V107ZM1570.15 52.68H1589.02V48.68H1570.15V52.68ZM1589.02 52.68C1592.45 52.68 1595.53 52.0029 1598.18 50.5666L1596.27 47.0494C1594.32 48.109 1591.92 48.68 1589.02 48.68V52.68ZM1598.18 50.5666C1600.8 49.1459 1602.86 47.1544 1604.3 44.6081L1600.81 42.6399C1599.76 44.5096 1598.26 45.9741 1596.27 47.0494L1598.18 50.5666ZM1604.26 44.6639C1605.82 42.1077 1606.57 39.1957 1606.57 35.992H1602.57C1602.57 38.5482 1601.98 40.7243 1600.85 42.5841L1604.26 44.6639ZM1606.57 35.992C1606.57 32.7057 1605.82 29.7424 1604.26 27.1761L1600.85 29.2559C1601.97 31.1055 1602.57 33.3263 1602.57 35.992H1606.57ZM1604.3 27.2319C1602.86 24.6856 1600.8 22.6941 1598.18 21.2734L1596.27 24.7906C1598.26 25.8659 1599.76 27.3304 1600.81 29.2001L1604.3 27.2319ZM1598.18 21.2734C1595.53 19.837 1592.45 19.16 1589.02 19.16V23.16C1591.92 23.16 1594.32 23.7309 1596.27 24.7906L1598.18 21.2734ZM1589.02 19.16H1570.15V23.16H1589.02V19.16ZM1568.15 21.16V50.68H1572.15V21.16H1568.15Z" fill="#777777" mask="url(#path-1-outside-1_646_13743)"/>
</svg>
