<svg width="752" height="99" viewBox="0 0 752 99" fill="none" xmlns="http://www.w3.org/2000/svg">
<mask id="path-1-outside-1_122_3024" maskUnits="userSpaceOnUse" x="-3" y="-2" width="757" height="103" fill="black">
<rect fill="white" x="-3" y="-2" width="757" height="103"/>
<path d="M25.368 97L0.408 1.63999L21.912 1.63999L40.728 81.512H34.968L54.808 1.63999L75.288 1.63999L95.128 81.512H89.368L108.184 1.63999L129.688 1.63999L104.728 97L81.688 97L61.72 20.2L68.376 20.2L48.408 97H25.368ZM154.672 98.536C149.637 98.536 145.285 97.7253 141.616 96.104C137.947 94.4827 135.131 92.1787 133.168 89.192C131.205 86.12 130.224 82.4933 130.224 78.312C130.224 74.3867 131.12 70.9307 132.912 67.944C134.704 64.872 137.435 62.312 141.104 60.264C144.859 58.216 149.509 56.7653 155.056 55.912L176.432 52.456V66.536L158.512 69.736C155.781 70.248 153.691 71.144 152.24 72.424C150.789 73.6187 150.064 75.368 150.064 77.672C150.064 79.8053 150.875 81.4693 152.496 82.664C154.117 83.8587 156.123 84.456 158.512 84.456C161.669 84.456 164.443 83.7733 166.832 82.408C169.221 81.0427 171.056 79.208 172.336 76.904C173.701 74.5147 174.384 71.912 174.384 69.096L174.384 50.92C174.384 48.2747 173.317 46.056 171.184 44.264C169.136 42.472 166.32 41.576 162.736 41.576C159.323 41.576 156.293 42.5147 153.648 44.392C151.088 46.2693 149.211 48.744 148.016 51.816L132.656 44.52C134.021 40.5947 136.197 37.224 139.184 34.408C142.171 31.592 145.755 29.416 149.936 27.88C154.117 26.344 158.683 25.576 163.632 25.576C169.52 25.576 174.725 26.6427 179.248 28.776C183.771 30.9093 187.269 33.896 189.744 37.736C192.304 41.4907 193.584 45.8853 193.584 50.92L193.584 97H175.664V85.736L180.016 84.968C177.968 88.04 175.707 90.6 173.232 92.648C170.757 94.6107 167.984 96.0613 164.912 97C161.84 98.024 158.427 98.536 154.672 98.536ZM207.665 97L207.665 27.112H225.585V40.936L224.561 37.864C226.182 33.6827 228.785 30.6107 232.369 28.648C236.038 26.6 240.305 25.576 245.169 25.576C250.46 25.576 255.068 26.6853 258.993 28.904C263.004 31.1227 266.118 34.2373 268.337 38.248C270.556 42.1733 271.665 46.7813 271.665 52.072V97L252.465 97V56.168C252.465 53.4373 251.91 51.0907 250.801 49.128C249.777 47.1653 248.284 45.6293 246.321 44.52C244.444 43.4107 242.225 42.856 239.665 42.856C237.19 42.856 234.972 43.4107 233.009 44.52C231.046 45.6293 229.51 47.1653 228.401 49.128C227.377 51.0907 226.865 53.4373 226.865 56.168V97H207.665ZM317.954 97.768C309.506 97.768 302.935 95.5067 298.242 90.984C293.634 86.376 291.33 79.976 291.33 71.784V43.752H279.554V27.112H280.194C283.778 27.112 286.509 26.216 288.386 24.424C290.349 22.632 291.33 19.944 291.33 16.36V11.24H310.53V27.112H326.914V43.752H310.53V70.504C310.53 72.8933 310.957 74.8987 311.81 76.52C312.663 78.056 313.986 79.208 315.778 79.976C317.57 80.744 319.789 81.128 322.434 81.128C323.031 81.128 323.714 81.0853 324.482 81C325.25 80.9147 326.061 80.8293 326.914 80.744V97C325.634 97.1707 324.183 97.3413 322.562 97.512C320.941 97.6827 319.405 97.768 317.954 97.768ZM362.573 97V1.63999L381.773 1.63999L417.485 49H408.525L443.213 1.63999H462.413V97H442.573V23.528L450.509 25.32L413.773 72.68H411.213L375.757 25.32L382.413 23.528V97H362.573ZM512.603 98.536C505.691 98.536 499.376 96.9573 493.659 93.8C488.027 90.6427 483.504 86.3333 480.091 80.872C476.763 75.3253 475.099 69.0533 475.099 62.056C475.099 54.9733 476.763 48.7013 480.091 43.24C483.504 37.7787 488.027 33.4693 493.659 30.312C499.376 27.1547 505.691 25.576 512.603 25.576C519.515 25.576 525.787 27.1547 531.419 30.312C537.051 33.4693 541.531 37.7787 544.859 43.24C548.272 48.7013 549.979 54.9733 549.979 62.056C549.979 69.0533 548.272 75.3253 544.859 80.872C541.531 86.3333 537.051 90.6427 531.419 93.8C525.787 96.9573 519.515 98.536 512.603 98.536ZM512.603 81.256C516.102 81.256 519.131 80.4453 521.691 78.824C524.336 77.2027 526.384 74.9413 527.835 72.04C529.371 69.1387 530.139 65.8107 530.139 62.056C530.139 58.3013 529.371 55.016 527.835 52.2C526.384 49.2987 524.336 47.0373 521.691 45.416C519.131 43.7093 516.102 42.856 512.603 42.856C509.104 42.856 506.032 43.7093 503.387 45.416C500.742 47.0373 498.651 49.2987 497.115 52.2C495.664 55.016 494.939 58.3013 494.939 62.056C494.939 65.8107 495.664 69.1387 497.115 72.04C498.651 74.9413 500.742 77.2027 503.387 78.824C506.032 80.4453 509.104 81.256 512.603 81.256ZM561.29 97V27.112H579.21V43.88L577.93 41.448C579.466 35.56 581.983 31.592 585.482 29.544C589.066 27.4107 593.29 26.344 598.154 26.344H602.25V42.984H596.234C591.541 42.984 587.743 44.4347 584.842 47.336C581.941 50.152 580.49 54.1627 580.49 59.368V97H561.29ZM644.329 98.536C636.905 98.536 630.462 96.9147 625.001 93.672C619.54 90.344 615.316 85.9067 612.329 80.36C609.342 74.8133 607.849 68.6693 607.849 61.928C607.849 54.9307 609.385 48.7013 612.457 43.24C615.614 37.7787 619.838 33.4693 625.129 30.312C630.42 27.1547 636.393 25.576 643.049 25.576C648.596 25.576 653.502 26.472 657.769 28.264C662.036 29.9707 665.62 32.4027 668.521 35.56C671.508 38.7173 673.769 42.3867 675.305 46.568C676.841 50.664 677.609 55.144 677.609 60.008C677.609 61.3733 677.524 62.7387 677.353 64.104C677.268 65.384 677.054 66.4933 676.713 67.432L624.361 67.432V53.352L665.833 53.352L656.745 60.008C657.598 56.3387 657.556 53.096 656.617 50.28C655.678 47.3787 654.014 45.1173 651.625 43.496C649.321 41.7893 646.462 40.936 643.049 40.936C639.721 40.936 636.862 41.7467 634.473 43.368C632.084 44.9893 630.292 47.3787 629.097 50.536C627.902 53.6933 627.433 57.5333 627.689 62.056C627.348 65.9813 627.817 69.4373 629.097 72.424C630.377 75.4107 632.34 77.7573 634.985 79.464C637.63 81.0853 640.83 81.896 644.585 81.896C647.998 81.896 650.9 81.2133 653.289 79.848C655.764 78.4827 657.684 76.6053 659.049 74.216L674.409 81.512C673.044 84.9253 670.868 87.912 667.881 90.472C664.98 93.032 661.524 95.0373 657.513 96.488C653.502 97.8533 649.108 98.536 644.329 98.536ZM710.675 67.56V64.616C710.675 60.8613 711.187 57.576 712.211 54.76C713.32 51.8587 714.728 49.2987 716.435 47.08C718.142 44.8613 719.891 42.856 721.683 41.064C724.158 38.5893 726.376 36.3707 728.339 34.408C730.302 32.36 731.283 30.0133 731.283 27.368C731.283 25.576 730.856 23.9973 730.003 22.632C729.15 21.1813 727.87 20.072 726.163 19.304C724.542 18.4507 722.494 18.024 720.019 18.024C716.862 18.024 714.088 19.0053 711.699 20.968C709.395 22.8453 707.987 25.4053 707.475 28.648L689.683 24.168C690.451 19.3893 692.2 15.208 694.931 11.624C697.747 8.03999 701.331 5.22399 705.683 3.17599C710.12 1.128 715.07 0.103996 720.531 0.103996C727.187 0.103996 732.776 1.42666 737.299 4.072C741.907 6.632 745.363 9.96 747.667 14.056C749.971 18.0667 751.123 22.3333 751.123 26.856C751.123 30.0987 750.483 33 749.203 35.56C748.008 38.0347 746.472 40.3387 744.595 42.472C742.718 44.52 740.755 46.5253 738.707 48.488C736.062 50.9627 733.715 53.5653 731.667 56.296C729.619 59.0267 728.595 62.2267 728.595 65.896V67.56H710.675ZM710.163 97V77.8H729.363V97H710.163Z"/>
</mask>
<path d="M25.368 97L23.4332 97.5064L23.8241 99H25.368V97ZM0.408 1.63999L0.408 -0.360008H-2.18287L-1.52682 2.14642L0.408 1.63999ZM21.912 1.63999L23.8587 1.18139L23.4956 -0.360008H21.912V1.63999ZM40.728 81.512V83.512L43.2539 83.512L42.6747 81.0534L40.728 81.512ZM34.968 81.512L33.027 81.0299L32.4104 83.512H34.968V81.512ZM54.808 1.63999V-0.360008H53.244L52.867 1.15785L54.808 1.63999ZM75.288 1.63999L77.229 1.15785L76.852 -0.360008H75.288V1.63999ZM95.128 81.512V83.512H97.6856L97.069 81.0299L95.128 81.512ZM89.368 81.512L87.4213 81.0534L86.8421 83.512H89.368V81.512ZM108.184 1.63999V-0.360008H106.6L106.237 1.18139L108.184 1.63999ZM129.688 1.63999L131.623 2.14642L132.279 -0.360008H129.688V1.63999ZM104.728 97V99H106.272L106.663 97.5064L104.728 97ZM81.688 97L79.7524 97.5033L80.1415 99H81.688V97ZM61.72 20.2V18.2H59.1335L59.7844 20.7033L61.72 20.2ZM68.376 20.2L70.3117 20.7033L70.9625 18.2H68.376V20.2ZM48.408 97V99H49.9545L50.3436 97.5033L48.408 97ZM27.3028 96.4936L2.34282 1.13356L-1.52682 2.14642L23.4332 97.5064L27.3028 96.4936ZM0.408 3.63999L21.912 3.63999V-0.360008L0.408 -0.360008L0.408 3.63999ZM19.9653 2.09859L38.7813 81.9706L42.6747 81.0534L23.8587 1.18139L19.9653 2.09859ZM40.728 79.512H34.968V83.512H40.728V79.512ZM36.909 81.9941L56.749 2.12214L52.867 1.15785L33.027 81.0299L36.909 81.9941ZM54.808 3.63999L75.288 3.63999V-0.360008L54.808 -0.360008V3.63999ZM73.347 2.12214L93.187 81.9941L97.069 81.0299L77.229 1.15785L73.347 2.12214ZM95.128 79.512H89.368V83.512H95.128V79.512ZM91.3147 81.9706L110.131 2.09859L106.237 1.18139L87.4213 81.0534L91.3147 81.9706ZM108.184 3.63999L129.688 3.63999V-0.360008L108.184 -0.360008V3.63999ZM127.753 1.13356L102.793 96.4936L106.663 97.5064L131.623 2.14642L127.753 1.13356ZM104.728 95L81.688 95L81.688 99L104.728 99L104.728 95ZM83.6236 96.4967L63.6556 19.6967L59.7844 20.7033L79.7524 97.5033L83.6236 96.4967ZM61.72 22.2L68.376 22.2V18.2L61.72 18.2V22.2ZM66.4404 19.6967L46.4724 96.4967L50.3436 97.5033L70.3117 20.7033L66.4404 19.6967ZM48.408 95H25.368V99H48.408V95ZM141.616 96.104L142.424 94.2746L141.616 96.104ZM133.168 89.192L131.483 90.2688L131.49 90.2796L131.497 90.2904L133.168 89.192ZM132.912 67.944L134.627 68.973L134.633 68.9624L134.64 68.9517L132.912 67.944ZM141.104 60.264L140.146 58.5082L140.138 58.5129L140.129 58.5176L141.104 60.264ZM155.056 55.912L155.36 57.8887L155.368 57.8876L155.375 57.8864L155.056 55.912ZM176.432 52.456H178.432L178.432 50.1067L176.113 50.4816L176.432 52.456ZM176.432 66.536L176.784 68.5049L178.432 68.2105V66.536H176.432ZM158.512 69.736L158.16 67.7671L158.152 67.7687L158.143 67.7703L158.512 69.736ZM152.24 72.424L153.511 73.9679L153.538 73.9462L153.563 73.9237L152.24 72.424ZM152.496 82.664L153.682 81.0539L152.496 82.664ZM172.336 76.904L170.6 75.9117L170.594 75.9222L170.588 75.9327L172.336 76.904ZM171.184 44.264L169.867 45.7691L169.882 45.7824L169.898 45.7954L171.184 44.264ZM153.648 44.392L152.491 42.761L152.478 42.77L152.465 42.7792L153.648 44.392ZM148.016 51.816L147.158 53.6226L149.101 54.5453L149.88 52.5409L148.016 51.816ZM132.656 44.52L130.767 43.863L130.178 45.557L131.798 46.3266L132.656 44.52ZM139.184 34.408L137.812 32.9528L139.184 34.408ZM149.936 27.88L149.246 26.0027L149.936 27.88ZM179.248 28.776L180.101 26.9671L179.248 28.776ZM189.744 37.736L188.063 38.8194L188.077 38.8412L188.092 38.8627L189.744 37.736ZM193.584 97V99H195.584V97H193.584ZM175.664 97H173.664V99H175.664V97ZM175.664 85.736L175.316 83.7664L173.664 84.058V85.736H175.664ZM180.016 84.968L181.68 86.0774L184.275 82.1856L179.668 82.9984L180.016 84.968ZM173.232 92.648L174.475 94.215L174.491 94.2021L174.507 94.1888L173.232 92.648ZM164.912 97L164.328 95.0873L164.303 95.0947L164.28 95.1026L164.912 97ZM154.672 96.536C149.847 96.536 145.783 95.7587 142.424 94.2746L140.808 97.9334C144.788 99.692 149.428 100.536 154.672 100.536V96.536ZM142.424 94.2746C139.063 92.7892 136.565 90.7203 134.839 88.0936L131.497 90.2904C133.696 93.637 136.831 96.1761 140.808 97.9334L142.424 94.2746ZM134.853 88.1152C133.125 85.41 132.224 82.1692 132.224 78.312L128.224 78.312C128.224 82.8175 129.286 86.83 131.483 90.2688L134.853 88.1152ZM132.224 78.312C132.224 74.702 133.044 71.6108 134.627 68.973L131.197 66.915C129.196 70.2506 128.224 74.0713 128.224 78.312L132.224 78.312ZM134.64 68.9517C136.221 66.2409 138.665 63.9159 142.079 62.0104L140.129 58.5176C136.205 60.7081 133.187 63.5031 131.184 66.9363L134.64 68.9517ZM142.062 62.0198C145.561 60.1113 149.975 58.7172 155.36 57.8887L154.752 53.9353C149.044 54.8134 144.157 56.3207 140.146 58.5082L142.062 62.0198ZM155.375 57.8864L176.751 54.4304L176.113 50.4816L154.737 53.9376L155.375 57.8864ZM174.432 52.456V66.536H178.432V52.456H174.432ZM176.08 64.5671L158.16 67.7671L158.864 71.7049L176.784 68.5049L176.08 64.5671ZM158.143 67.7703C155.204 68.3214 152.731 69.3237 150.917 70.9243L153.563 73.9237C154.651 72.9643 156.358 72.1746 158.881 71.7017L158.143 67.7703ZM150.969 70.8801C148.953 72.5399 148.064 74.9187 148.064 77.672H152.064C152.064 75.8173 152.625 74.6974 153.511 73.9679L150.969 70.8801ZM148.064 77.672C148.064 80.3967 149.142 82.6771 151.31 84.2741L153.682 81.0539C152.607 80.2616 152.064 79.2139 152.064 77.672H148.064ZM151.31 84.2741C153.335 85.7667 155.778 86.456 158.512 86.456V82.456C156.468 82.456 154.899 81.9506 153.682 81.0539L151.31 84.2741ZM158.512 86.456C161.965 86.456 165.091 85.7066 167.824 84.1445L165.84 80.6715C163.795 81.8401 161.373 82.456 158.512 82.456V86.456ZM167.824 84.1445C170.516 82.6063 172.619 80.513 174.084 77.8753L170.588 75.9327C169.493 77.903 167.927 79.479 165.84 80.6715L167.824 84.1445ZM174.072 77.8963C175.615 75.1975 176.384 72.2516 176.384 69.096H172.384C172.384 71.5724 171.788 73.8319 170.6 75.9117L174.072 77.8963ZM176.384 69.096L176.384 50.92H172.384L172.384 69.096H176.384ZM176.384 50.92C176.384 47.6488 175.029 44.8814 172.47 42.7326L169.898 45.7954C171.606 47.2305 172.384 48.9006 172.384 50.92H176.384ZM172.501 42.7588C169.986 40.5581 166.648 39.576 162.736 39.576V43.576C165.992 43.576 168.286 44.3859 169.867 45.7691L172.501 42.7588ZM162.736 39.576C158.931 39.576 155.492 40.6306 152.491 42.761L154.805 46.023C157.094 44.3987 159.714 43.576 162.736 43.576V39.576ZM152.465 42.7792C149.586 44.8905 147.479 47.6786 146.152 51.0911L149.88 52.5409C150.942 49.8094 152.59 47.6481 154.831 46.0048L152.465 42.7792ZM148.874 50.0094L133.514 42.7134L131.798 46.3266L147.158 53.6226L148.874 50.0094ZM134.545 45.177C135.806 41.5515 137.806 38.4557 140.556 35.8632L137.812 32.9528C134.588 35.9923 132.237 39.6378 130.767 43.863L134.545 45.177ZM140.556 35.8632C143.33 33.2478 146.676 31.2082 150.626 29.7573L149.246 26.0027C144.833 27.6238 141.011 29.9361 137.812 32.9528L140.556 35.8632ZM150.626 29.7573C154.563 28.311 158.892 27.576 163.632 27.576V23.576C158.473 23.576 153.672 24.377 149.246 26.0027L150.626 29.7573ZM163.632 27.576C169.277 27.576 174.182 28.5978 178.395 30.5849L180.101 26.9671C175.268 24.6875 169.763 23.576 163.632 23.576V27.576ZM178.395 30.5849C182.612 32.5742 185.81 35.3234 188.063 38.8194L191.425 36.6526C188.729 32.4686 184.929 29.2444 180.101 26.9671L178.395 30.5849ZM188.092 38.8627C190.401 42.2498 191.584 46.2421 191.584 50.92H195.584C195.584 45.5286 194.207 40.7316 191.396 36.6093L188.092 38.8627ZM191.584 50.92L191.584 97H195.584L195.584 50.92H191.584ZM193.584 95H175.664V99H193.584V95ZM177.664 97V85.736H173.664V97H177.664ZM176.012 87.7056L180.364 86.9376L179.668 82.9984L175.316 83.7664L176.012 87.7056ZM178.352 83.8586C176.396 86.7923 174.261 89.2002 171.957 91.1072L174.507 94.1888C177.152 91.9998 179.54 89.2877 181.68 86.0774L178.352 83.8586ZM171.989 91.081C169.714 92.8856 167.165 94.2204 164.328 95.0873L165.496 98.9127C168.803 97.9022 171.801 96.3357 174.475 94.215L171.989 91.081ZM164.28 95.1026C161.441 96.0488 158.245 96.536 154.672 96.536V100.536C158.608 100.536 162.239 99.9992 165.544 98.8974L164.28 95.1026ZM207.665 97H205.665V99H207.665V97ZM207.665 27.112V25.112H205.665V27.112H207.665ZM225.585 27.112H227.585V25.112H225.585V27.112ZM225.585 40.936L223.688 41.5685L227.585 40.936H225.585ZM224.561 37.864L222.696 37.1409L222.436 37.8128L222.664 38.4965L224.561 37.864ZM232.369 28.648L233.33 30.4022L233.337 30.3983L233.344 30.3944L232.369 28.648ZM258.993 28.904L258.009 30.6451L258.017 30.6496L258.025 30.6541L258.993 28.904ZM268.337 38.248L266.587 39.2161L266.591 39.2241L266.596 39.2321L268.337 38.248ZM271.665 97V99H273.665V97H271.665ZM252.465 97H250.465V99H252.465V97ZM250.801 49.128L249.028 50.0531L249.043 50.0829L249.06 50.1121L250.801 49.128ZM246.321 44.52L245.304 46.2419L245.32 46.2516L245.337 46.2611L246.321 44.52ZM233.009 44.52L232.025 42.7789L233.009 44.52ZM228.401 49.128L226.66 48.1439L226.643 48.1731L226.628 48.2029L228.401 49.128ZM226.865 97V99H228.865V97H226.865ZM209.665 97L209.665 27.112H205.665L205.665 97H209.665ZM207.665 29.112L225.585 29.112V25.112H207.665V29.112ZM223.585 27.112V40.936H227.585V27.112H223.585ZM227.482 40.3035L226.458 37.2315L222.664 38.4965L223.688 41.5685L227.482 40.3035ZM226.426 38.5871C227.894 34.7993 230.2 32.1158 233.33 30.4022L231.408 26.8938C227.37 29.1055 224.47 32.566 222.696 37.1409L226.426 38.5871ZM233.344 30.3944C236.671 28.5373 240.592 27.576 245.169 27.576V23.576C240.018 23.576 235.406 24.6627 231.394 26.9016L233.344 30.3944ZM245.169 27.576C250.175 27.576 254.432 28.6235 258.009 30.6451L259.977 27.1629C255.703 24.7472 250.744 23.576 245.169 23.576V27.576ZM258.025 30.6541C261.707 32.6908 264.55 35.5344 266.587 39.2161L270.087 37.2799C267.686 32.9402 264.301 29.5546 259.961 27.1539L258.025 30.6541ZM266.596 39.2321C268.618 42.8089 269.665 47.066 269.665 52.072H273.665C273.665 46.4966 272.494 41.5378 270.078 37.2639L266.596 39.2321ZM269.665 52.072V97H273.665V52.072H269.665ZM271.665 95L252.465 95V99L271.665 99V95ZM254.465 97V56.168H250.465V97H254.465ZM254.465 56.168C254.465 53.165 253.854 50.4642 252.542 48.1439L249.06 50.1121C249.967 51.7171 250.465 53.7096 250.465 56.168H254.465ZM252.574 48.2029C251.368 45.8911 249.598 44.0746 247.305 42.7789L245.337 46.2611C246.97 47.1841 248.186 48.4396 249.028 50.0531L252.574 48.2029ZM247.338 42.7981C245.103 41.4772 242.52 40.856 239.665 40.856V44.856C241.93 44.856 243.784 45.3441 245.304 46.2419L247.338 42.7981ZM239.665 40.856C236.88 40.856 234.316 41.4836 232.025 42.7789L233.993 46.2611C235.627 45.3377 237.501 44.856 239.665 44.856V40.856ZM232.025 42.7789C229.746 44.0671 227.948 45.8648 226.66 48.1439L230.142 50.1121C231.073 48.4659 232.347 47.1916 233.993 46.2611L232.025 42.7789ZM226.628 48.2029C225.424 50.5103 224.865 53.1892 224.865 56.168H228.865C228.865 53.6854 229.33 51.6711 230.174 50.0531L226.628 48.2029ZM224.865 56.168V97H228.865V56.168H224.865ZM226.865 95H207.665V99H226.865V95ZM298.242 90.984L296.828 92.3982L296.841 92.4113L296.854 92.4241L298.242 90.984ZM291.33 43.752H293.33V41.752H291.33V43.752ZM279.554 43.752H277.554V45.752H279.554V43.752ZM279.554 27.112V25.112H277.554V27.112H279.554ZM288.386 24.424L287.037 22.947L287.021 22.962L287.005 22.9773L288.386 24.424ZM291.33 11.24V9.24H289.33V11.24H291.33ZM310.53 11.24H312.53V9.24H310.53V11.24ZM310.53 27.112H308.53V29.112H310.53V27.112ZM326.914 27.112H328.914V25.112H326.914V27.112ZM326.914 43.752V45.752H328.914V43.752H326.914ZM310.53 43.752V41.752H308.53V43.752H310.53ZM311.81 76.52L310.04 77.4515L310.051 77.4715L310.062 77.4913L311.81 76.52ZM315.778 79.976L316.566 78.1377H316.566L315.778 79.976ZM324.482 81L324.703 82.9878H324.703L324.482 81ZM326.914 80.744H328.914V78.534L326.715 78.7539L326.914 80.744ZM326.914 97L327.178 98.9825L328.914 98.751V97H326.914ZM322.562 97.512L322.353 95.523L322.562 97.512ZM317.954 95.768C309.865 95.768 303.85 93.6104 299.63 89.5438L296.854 92.4241C302.021 97.403 309.147 99.768 317.954 99.768V95.768ZM299.656 89.5698C295.514 85.4276 293.33 79.5893 293.33 71.784H289.33C289.33 80.3627 291.754 87.3244 296.828 92.3982L299.656 89.5698ZM293.33 71.784V43.752H289.33V71.784H293.33ZM291.33 41.752H279.554V45.752H291.33V41.752ZM281.554 43.752V27.112H277.554V43.752H281.554ZM279.554 29.112H280.194V25.112H279.554V29.112ZM280.194 29.112C284.094 29.112 287.395 28.1346 289.767 25.8707L287.005 22.9773C285.622 24.2974 283.462 25.112 280.194 25.112V29.112ZM289.735 25.901C292.242 23.6112 293.33 20.3015 293.33 16.36H289.33C289.33 19.5865 288.455 21.6528 287.037 22.947L289.735 25.901ZM293.33 16.36V11.24H289.33V16.36H293.33ZM291.33 13.24H310.53V9.24H291.33V13.24ZM308.53 11.24V27.112H312.53V11.24H308.53ZM310.53 29.112H326.914V25.112H310.53V29.112ZM324.914 27.112V43.752H328.914V27.112H324.914ZM326.914 41.752H310.53V45.752H326.914V41.752ZM308.53 43.752V70.504H312.53V43.752H308.53ZM308.53 70.504C308.53 73.1225 308.997 75.4689 310.04 77.4515L313.58 75.5885C312.917 74.3284 312.53 72.6642 312.53 70.504H308.53ZM310.062 77.4913C311.154 79.4573 312.838 80.8919 314.99 81.8143L316.566 78.1377C315.134 77.5241 314.173 76.6547 313.558 75.5487L310.062 77.4913ZM314.99 81.8143C317.103 82.7198 319.609 83.128 322.434 83.128V79.128C319.969 79.128 318.037 78.7682 316.566 78.1377L314.99 81.8143ZM322.434 83.128C323.123 83.128 323.882 83.079 324.703 82.9878L324.261 79.0122C323.546 79.0916 322.94 79.128 322.434 79.128V83.128ZM324.703 82.9878C325.463 82.9033 326.266 82.8188 327.113 82.7341L326.715 78.7539C325.855 78.8399 325.037 78.926 324.261 79.0122L324.703 82.9878ZM324.914 80.744V97H328.914V80.744H324.914ZM326.65 95.0175C325.392 95.1852 323.96 95.3538 322.353 95.523L322.771 99.501C324.407 99.3289 325.876 99.1561 327.178 98.9825L326.65 95.0175ZM322.353 95.523C320.792 95.6872 319.327 95.768 317.954 95.768V99.768C319.483 99.768 321.089 99.6781 322.771 99.501L322.353 95.523ZM362.573 97H360.573V99H362.573V97ZM362.573 1.63999V-0.360008H360.573V1.63999H362.573ZM381.773 1.63999L383.37 0.435852L382.77 -0.360008H381.773V1.63999ZM417.485 49V51H421.498L419.082 47.7959L417.485 49ZM408.525 49L406.911 47.8182L404.581 51H408.525V49ZM443.213 1.63999V-0.360008H442.199L441.599 0.45821L443.213 1.63999ZM462.413 1.63999L464.413 1.63999V-0.360008L462.413 -0.360008V1.63999ZM462.413 97V99H464.413V97H462.413ZM442.573 97L440.573 97V99L442.573 99V97ZM442.573 23.528L443.014 21.5771L440.573 21.026V23.528H442.573ZM450.509 25.32L452.089 26.5458L454.016 24.0616L450.95 23.3691L450.509 25.32ZM413.773 72.68V74.68H414.753L415.353 73.9058L413.773 72.68ZM411.213 72.68L409.612 73.8786L410.212 74.68H411.213V72.68ZM375.757 25.32L375.237 23.3888L372.387 24.156L374.156 26.5186L375.757 25.32ZM382.413 23.528H384.413V20.9183L381.893 21.5968L382.413 23.528ZM382.413 97V99H384.413V97H382.413ZM364.573 97V1.63999H360.573V97H364.573ZM362.573 3.63999L381.773 3.63999V-0.360008L362.573 -0.360008V3.63999ZM380.176 2.84413L415.888 50.2041L419.082 47.7959L383.37 0.435852L380.176 2.84413ZM417.485 47H408.525V51H417.485V47ZM410.139 50.1818L444.827 2.82177L441.599 0.45821L406.911 47.8182L410.139 50.1818ZM443.213 3.63999H462.413V-0.360008H443.213V3.63999ZM460.413 1.63999V97H464.413V1.63999L460.413 1.63999ZM462.413 95H442.573V99H462.413V95ZM444.573 97V23.528H440.573V97L444.573 97ZM442.132 25.4789L450.068 27.2709L450.95 23.3691L443.014 21.5771L442.132 25.4789ZM448.929 24.0942L412.193 71.4542L415.353 73.9058L452.089 26.5458L448.929 24.0942ZM413.773 70.68H411.213V74.68H413.773V70.68ZM412.814 71.4814L377.358 24.1214L374.156 26.5186L409.612 73.8786L412.814 71.4814ZM376.277 27.2512L382.933 25.4592L381.893 21.5968L375.237 23.3888L376.277 27.2512ZM380.413 23.528V97H384.413V23.528H380.413ZM382.413 95H362.573V99H382.413V95ZM493.659 93.8L492.681 95.5446L492.692 95.5508L493.659 93.8ZM480.091 80.872L478.376 81.901L478.385 81.9166L478.395 81.932L480.091 80.872ZM480.091 43.24L478.395 42.18L478.389 42.1896L478.383 42.1993L480.091 43.24ZM493.659 30.312L492.692 28.5612L492.681 28.5674L493.659 30.312ZM544.859 43.24L543.151 44.2807L543.157 44.2904L543.163 44.3L544.859 43.24ZM544.859 80.872L543.156 79.8238L543.151 79.8313L544.859 80.872ZM531.419 93.8L532.397 95.5446L531.419 93.8ZM521.691 78.824L520.646 77.1188L520.633 77.1265L520.621 77.1344L521.691 78.824ZM527.835 72.04L526.067 71.1042L526.057 71.1248L526.046 71.1456L527.835 72.04ZM527.835 52.2L526.046 53.0944L526.062 53.1264L526.079 53.1577L527.835 52.2ZM521.691 45.416L520.582 47.0801L520.613 47.1013L520.646 47.1212L521.691 45.416ZM503.387 45.416L504.432 47.1212L504.452 47.1091L504.471 47.0966L503.387 45.416ZM497.115 52.2L495.347 51.2642L495.342 51.2741L495.337 51.2841L497.115 52.2ZM497.115 72.04L495.326 72.9344L495.337 72.9552L495.347 72.9758L497.115 72.04ZM503.387 78.824L502.342 80.5292L503.387 78.824ZM512.603 96.536C506.009 96.536 500.03 95.0335 494.626 92.0492L492.692 95.5508C498.723 98.8812 505.373 100.536 512.603 100.536V96.536ZM494.637 92.0554C489.297 89.0619 485.022 84.9877 481.787 79.812L478.395 81.932C481.987 87.679 486.757 92.2234 492.681 95.5446L494.637 92.0554ZM481.806 79.843C478.68 74.6325 477.099 68.7215 477.099 62.056H473.099C473.099 69.3851 474.846 76.0182 478.376 81.901L481.806 79.843ZM477.099 62.056C477.099 55.2998 478.682 49.3956 481.799 44.2807L478.383 42.1993C474.844 48.0071 473.099 54.6468 473.099 62.056H477.099ZM481.787 44.3C485.022 39.1243 489.297 35.0501 494.637 32.0566L492.681 28.5674C486.757 31.8886 481.987 36.433 478.395 42.18L481.787 44.3ZM494.626 32.0628C500.03 29.0785 506.009 27.576 512.603 27.576V23.576C505.373 23.576 498.723 25.2308 492.692 28.5612L494.626 32.0628ZM512.603 27.576C519.197 27.576 525.129 29.0785 530.441 32.0566L532.397 28.5674C526.445 25.2308 519.833 23.576 512.603 23.576V27.576ZM530.441 32.0566C535.776 35.0476 540.004 39.1157 543.151 44.2807L546.567 42.1993C543.058 36.4416 538.326 31.8911 532.397 28.5674L530.441 32.0566ZM543.163 44.3C546.358 49.4122 547.979 55.3095 547.979 62.056H551.979C551.979 54.6372 550.187 47.9905 546.555 42.18L543.163 44.3ZM547.979 62.056C547.979 68.7119 546.361 74.6159 543.156 79.8238L546.562 81.9202C550.184 76.0348 551.979 69.3948 551.979 62.056H547.979ZM543.151 79.8313C540.004 84.9963 535.776 89.0644 530.441 92.0554L532.397 95.5446C538.326 92.2209 543.058 87.6704 546.567 81.9127L543.151 79.8313ZM530.441 92.0554C525.129 95.0335 519.197 96.536 512.603 96.536V100.536C519.833 100.536 526.445 98.8812 532.397 95.5446L530.441 92.0554ZM512.603 83.256C516.421 83.256 519.834 82.3675 522.761 80.5136L520.621 77.1344C518.428 78.5232 515.783 79.256 512.603 79.256V83.256ZM522.736 80.5292C525.715 78.7033 528.014 76.1543 529.624 72.9344L526.046 71.1456C524.755 73.7284 522.958 75.702 520.646 77.1188L522.736 80.5292ZM529.603 72.9758C531.312 69.7471 532.139 66.0896 532.139 62.056H528.139C528.139 65.5317 527.43 68.5303 526.067 71.1042L529.603 72.9758ZM532.139 62.056C532.139 58.024 531.312 54.3986 529.591 51.2423L526.079 53.1577C527.43 55.6334 528.139 58.5787 528.139 62.056H532.139ZM529.624 51.3056C528.014 48.0857 525.715 45.5367 522.736 43.7108L520.646 47.1212C522.958 48.538 524.755 50.5116 526.046 53.0944L529.624 51.3056ZM522.8 43.7519C519.868 41.7971 516.441 40.856 512.603 40.856V44.856C515.763 44.856 518.394 45.6215 520.582 47.0801L522.8 43.7519ZM512.603 40.856C508.764 40.856 505.307 41.7974 502.303 43.7354L504.471 47.0966C506.758 45.6212 509.445 44.856 512.603 44.856V40.856ZM502.342 43.7108C499.373 45.5303 497.041 48.0655 495.347 51.2642L498.883 53.1358C500.261 50.5319 502.11 48.5444 504.432 47.1212L502.342 43.7108ZM495.337 51.2841C493.716 54.4314 492.939 58.0415 492.939 62.056H496.939C496.939 58.5612 497.613 55.6006 498.893 53.1159L495.337 51.2841ZM492.939 62.056C492.939 66.0722 493.716 69.7147 495.326 72.9344L498.904 71.1456C497.612 68.5626 496.939 65.5491 496.939 62.056H492.939ZM495.347 72.9758C497.041 76.1745 499.373 78.7097 502.342 80.5292L504.432 77.1188C502.11 75.6956 500.261 73.7081 498.883 71.1042L495.347 72.9758ZM502.342 80.5292C505.341 82.3671 508.784 83.256 512.603 83.256V79.256C509.425 79.256 506.724 78.5236 504.432 77.1188L502.342 80.5292ZM561.29 97H559.29V99H561.29V97ZM561.29 27.112V25.112H559.29V27.112H561.29ZM579.21 27.112H581.21V25.112H579.21V27.112ZM579.21 43.88L577.44 44.8115L581.21 43.88H579.21ZM577.93 41.448L575.995 40.9432L575.799 41.6934L576.16 42.3795L577.93 41.448ZM585.482 29.544L586.492 31.27L586.499 31.2663L586.505 31.2626L585.482 29.544ZM602.25 26.344H604.25V24.344H602.25V26.344ZM602.25 42.984V44.984H604.25V42.984H602.25ZM584.842 47.336L586.235 48.7712L586.246 48.7608L586.256 48.7502L584.842 47.336ZM580.49 97V99H582.49V97H580.49ZM563.29 97V27.112H559.29V97H563.29ZM561.29 29.112L579.21 29.112V25.112H561.29V29.112ZM577.21 27.112V43.88H581.21V27.112H577.21ZM580.98 42.9485L579.7 40.5165L576.16 42.3795L577.44 44.8115L580.98 42.9485ZM579.865 41.9528C581.334 36.3242 583.637 32.9412 586.492 31.27L584.472 27.818C580.329 30.2428 577.598 34.7958 575.995 40.9432L579.865 41.9528ZM586.505 31.2626C589.731 29.3421 593.59 28.344 598.154 28.344V24.344C592.99 24.344 588.401 25.4792 584.459 27.8254L586.505 31.2626ZM598.154 28.344H602.25V24.344H598.154V28.344ZM600.25 26.344V42.984H604.25V26.344H600.25ZM602.25 40.984H596.234V44.984H602.25V40.984ZM596.234 40.984C591.093 40.984 586.759 42.5906 583.428 45.9218L586.256 48.7502C588.728 46.2788 591.988 44.984 596.234 44.984V40.984ZM583.449 45.9008C580.056 49.1938 578.49 53.7852 578.49 59.368H582.49C582.49 54.5401 583.825 51.1102 586.235 48.7712L583.449 45.9008ZM578.49 59.368V97H582.49V59.368H578.49ZM580.49 95H561.29V99H580.49V95ZM625.001 93.672L623.96 95.3799L623.97 95.3858L623.98 95.3917L625.001 93.672ZM612.329 80.36L614.09 79.4118L612.329 80.36ZM612.457 43.24L610.726 42.239L610.72 42.2492L610.714 42.2595L612.457 43.24ZM625.129 30.312L626.154 32.0294L625.129 30.312ZM657.769 28.264L656.995 30.108L657.01 30.1146L657.026 30.121L657.769 28.264ZM668.521 35.56L667.048 36.9132L667.058 36.9239L667.068 36.9344L668.521 35.56ZM675.305 46.568L673.428 47.2576L673.432 47.2702L675.305 46.568ZM677.353 64.104L675.368 63.8559L675.361 63.9133L675.357 63.971L677.353 64.104ZM676.713 67.432V69.432H678.114L678.593 68.1155L676.713 67.432ZM624.361 67.432H622.361V69.432H624.361V67.432ZM624.361 53.352V51.352H622.361V53.352H624.361ZM665.833 53.352L667.015 54.9655L671.949 51.352H665.833V53.352ZM656.745 60.008L654.797 59.555L653.575 64.8086L657.927 61.6215L656.745 60.008ZM656.617 50.28L654.714 50.8956L654.717 50.9041L654.72 50.9125L656.617 50.28ZM651.625 43.496L650.435 45.1031L650.468 45.1277L650.502 45.1509L651.625 43.496ZM634.473 43.368L633.35 41.713L634.473 43.368ZM629.097 50.536L630.968 51.2438L629.097 50.536ZM627.689 62.056L629.681 62.2293L629.694 62.0863L629.686 61.943L627.689 62.056ZM629.097 72.424L627.259 73.2118L629.097 72.424ZM634.985 79.464L633.901 81.1446L633.92 81.1571L633.94 81.1692L634.985 79.464ZM653.289 79.848L652.323 78.0968L652.31 78.1041L652.297 78.1115L653.289 79.848ZM659.049 74.216L659.907 72.4094L658.232 71.6139L657.312 73.2237L659.049 74.216ZM674.409 81.512L676.266 82.2548L676.963 80.5112L675.267 79.7054L674.409 81.512ZM667.881 90.472L666.579 88.9535L666.569 88.9628L666.558 88.9723L667.881 90.472ZM657.513 96.488L658.158 98.3813L658.175 98.3752L658.193 98.3688L657.513 96.488ZM644.329 96.536C637.203 96.536 631.126 94.9825 626.022 91.9523L623.98 95.3917C629.799 98.8468 636.607 100.536 644.329 100.536V96.536ZM626.042 91.9641C620.879 88.818 616.906 84.6408 614.09 79.4118L610.568 81.3082C613.726 87.1725 618.201 91.87 623.96 95.3799L626.042 91.9641ZM614.09 79.4118C611.271 74.1769 609.849 68.3622 609.849 61.928H605.849C605.849 68.9764 607.414 75.4498 610.568 81.3082L614.09 79.4118ZM609.849 61.928C609.849 55.2332 611.316 49.3487 614.2 44.2205L610.714 42.2595C607.454 48.0539 605.849 54.6281 605.849 61.928H609.849ZM614.188 44.241C617.179 39.0674 621.163 35.0078 626.154 32.0294L624.104 28.5946C618.513 31.9309 614.049 36.4899 610.726 42.239L614.188 44.241ZM626.154 32.0294C631.11 29.0718 636.724 27.576 643.049 27.576V23.576C636.062 23.576 629.729 25.2375 624.104 28.5946L626.154 32.0294ZM643.049 27.576C648.381 27.576 653.017 28.4372 656.995 30.108L658.543 26.42C653.988 24.5067 648.81 23.576 643.049 23.576V27.576ZM657.026 30.121C661.035 31.7246 664.364 33.9919 667.048 36.9132L669.994 34.2067C666.875 30.8134 663.036 28.2168 658.512 26.407L657.026 30.121ZM667.068 36.9344C669.864 39.8896 671.983 43.3245 673.428 47.2576L677.182 45.8784C675.555 41.4489 673.152 37.545 669.974 34.1856L667.068 36.9344ZM673.432 47.2702C674.875 51.118 675.609 55.3571 675.609 60.008H679.609C679.609 54.9309 678.807 50.21 677.178 45.8658L673.432 47.2702ZM675.609 60.008C675.609 61.2898 675.529 62.5723 675.368 63.8559L679.338 64.3521C679.518 62.9051 679.609 61.4569 679.609 60.008H675.609ZM675.357 63.971C675.281 65.1134 675.095 66.0289 674.833 66.7485L678.593 68.1155C679.014 66.9577 679.254 65.6546 679.349 64.237L675.357 63.971ZM676.713 65.432L624.361 65.432V69.432L676.713 69.432V65.432ZM626.361 67.432V53.352H622.361V67.432H626.361ZM624.361 55.352L665.833 55.352V51.352L624.361 51.352V55.352ZM664.651 51.7385L655.563 58.3945L657.927 61.6215L667.015 54.9655L664.651 51.7385ZM658.693 60.461C659.608 56.5278 659.597 52.8965 658.514 49.6475L654.72 50.9125C655.514 53.2955 655.589 56.1495 654.797 59.555L658.693 60.461ZM658.52 49.6644C657.452 46.3649 655.527 43.727 652.748 41.841L650.502 45.1509C652.501 46.5077 653.904 48.3924 654.714 50.8956L658.52 49.6644ZM652.815 41.8889C650.105 39.8812 646.807 38.936 643.049 38.936V42.936C646.118 42.936 648.537 43.6975 650.435 45.1031L652.815 41.8889ZM643.049 38.936C639.383 38.936 636.119 39.834 633.35 41.713L635.596 45.0229C637.606 43.6594 640.059 42.936 643.049 42.936V38.936ZM633.35 41.713C630.565 43.6028 628.541 46.3527 627.226 49.8282L630.968 51.2438C632.042 48.4046 633.602 46.3758 635.596 45.0229L633.35 41.713ZM627.226 49.8282C625.905 53.3205 625.425 57.4574 625.692 62.169L629.686 61.943C629.44 57.6093 629.9 54.0662 630.968 51.2438L627.226 49.8282ZM625.697 61.8827C625.333 66.0671 625.824 69.8644 627.259 73.2118L630.935 71.6362C629.81 69.0102 629.363 65.8956 629.681 62.2293L625.697 61.8827ZM627.259 73.2118C628.69 76.552 630.91 79.2148 633.901 81.1446L636.069 77.7834C633.77 76.2999 632.064 74.2693 630.935 71.6362L627.259 73.2118ZM633.94 81.1692C636.96 83.0203 640.539 83.896 644.585 83.896V79.896C641.121 79.896 638.301 79.1504 636.03 77.7588L633.94 81.1692ZM644.585 83.896C648.264 83.896 651.525 83.1594 654.281 81.5845L652.297 78.1115C650.274 79.2673 647.733 79.896 644.585 79.896V83.896ZM654.255 81.5992C657.042 80.0614 659.233 77.9255 660.785 75.2083L657.312 73.2237C656.135 75.2852 654.485 76.9039 652.323 78.0968L654.255 81.5992ZM658.191 76.0226L673.551 83.3186L675.267 79.7054L659.907 72.4094L658.191 76.0226ZM672.552 80.7692C671.315 83.8621 669.339 86.5884 666.579 88.9535L669.183 91.9905C672.397 89.2356 674.772 85.9885 676.266 82.2548L672.552 80.7692ZM666.558 88.9723C663.863 91.3498 660.631 93.2333 656.833 94.6073L658.193 98.3688C662.416 96.8413 666.096 94.7142 669.204 91.9717L666.558 88.9723ZM656.868 94.5947C653.09 95.881 648.916 96.536 644.329 96.536V100.536C649.299 100.536 653.915 99.8257 658.158 98.3813L656.868 94.5947ZM710.675 67.56H708.675V69.56H710.675V67.56ZM712.211 54.76L710.343 54.0457L710.337 54.0611L710.331 54.0765L712.211 54.76ZM721.683 41.064L723.097 42.4782L721.683 41.064ZM728.339 34.408L729.753 35.8222L729.768 35.8072L729.783 35.7918L728.339 34.408ZM730.003 22.632L728.279 23.646L728.293 23.6692L728.307 23.692L730.003 22.632ZM726.163 19.304L725.232 21.0738L725.286 21.1025L725.342 21.1278L726.163 19.304ZM711.699 20.968L712.962 22.5185L712.969 22.5134L711.699 20.968ZM707.475 28.648L706.987 30.5875L709.109 31.1219L709.451 28.9599L707.475 28.648ZM689.683 24.168L687.708 23.8506L687.418 25.66L689.195 26.1075L689.683 24.168ZM694.931 11.624L693.358 10.3884L693.349 10.4001L693.34 10.4119L694.931 11.624ZM705.683 3.17599L704.845 1.36008L704.838 1.36319L704.831 1.36636L705.683 3.17599ZM737.299 4.072L736.289 5.79837L736.308 5.80956L736.328 5.82031L737.299 4.072ZM747.667 14.056L745.924 15.0365L745.928 15.0444L745.933 15.0522L747.667 14.056ZM749.203 35.56L747.414 34.6656L747.408 34.678L747.402 34.6905L749.203 35.56ZM744.595 42.472L746.069 43.8234L746.083 43.8085L746.096 43.7933L744.595 42.472ZM738.707 48.488L740.073 49.9485L740.082 49.9403L740.091 49.932L738.707 48.488ZM731.667 56.296L733.267 57.496L731.667 56.296ZM728.595 67.56V69.56H730.595V67.56H728.595ZM710.163 97H708.163V99H710.163V97ZM710.163 77.8V75.8H708.163V77.8H710.163ZM729.363 77.8H731.363V75.8H729.363V77.8ZM729.363 97V99H731.363V97H729.363ZM712.675 67.56V64.616H708.675V67.56H712.675ZM712.675 64.616C712.675 61.0379 713.164 57.9929 714.091 55.4435L710.331 54.0765C709.21 57.1591 708.675 60.6848 708.675 64.616H712.675ZM714.079 55.4743C715.127 52.7345 716.444 50.3485 718.02 48.2994L714.85 45.8606C713.013 48.2488 711.514 50.9828 710.343 54.0457L714.079 55.4743ZM718.02 48.2994C719.68 46.1423 721.372 44.2031 723.097 42.4782L720.269 39.6498C718.41 41.5089 716.604 43.5804 714.85 45.8606L718.02 48.2994ZM723.097 42.4782C725.572 40.0035 727.791 37.7849 729.753 35.8222L726.925 32.9938C724.962 34.9565 722.743 37.1751 720.269 39.6498L723.097 42.4782ZM729.783 35.7918C732.074 33.4011 733.283 30.5686 733.283 27.368H729.283C729.283 29.458 728.529 31.3189 726.895 33.0242L729.783 35.7918ZM733.283 27.368C733.283 25.2448 732.773 23.2903 731.699 21.572L728.307 23.692C728.94 24.7044 729.283 25.9072 729.283 27.368H733.283ZM731.727 21.618C730.64 19.7708 729.024 18.3982 726.984 17.4801L725.342 21.1278C726.716 21.7458 727.659 22.5919 728.279 23.646L731.727 21.618ZM727.094 17.5342C725.103 16.486 722.71 16.024 720.019 16.024V20.024C722.278 20.024 723.98 20.4153 725.232 21.0738L727.094 17.5342ZM720.019 16.024C716.409 16.024 713.185 17.1593 710.43 19.4225L712.969 22.5134C714.992 20.8514 717.314 20.024 720.019 20.024V16.024ZM710.436 19.4175C707.709 21.6394 706.08 24.6619 705.499 28.3361L709.451 28.9599C709.894 26.1488 711.081 24.0513 712.962 22.5185L710.436 19.4175ZM707.963 26.7085L690.171 22.2285L689.195 26.1075L706.987 30.5875L707.963 26.7085ZM691.658 24.4854C692.377 20.0072 694.006 16.1387 696.522 12.8361L693.34 10.4119C690.395 14.2773 688.525 18.7715 687.708 23.8506L691.658 24.4854ZM696.504 12.8596C699.117 9.53402 702.448 6.90857 706.535 4.98563L704.831 1.36636C700.214 3.53942 696.377 6.54596 693.358 10.3884L696.504 12.8596ZM706.521 4.99191C710.666 3.07875 715.325 2.104 720.531 2.104V-1.896C714.814 -1.896 709.574 -0.822754 704.845 1.36008L706.521 4.99191ZM720.531 2.104C726.927 2.104 732.145 3.37453 736.289 5.79837L738.309 2.34562C733.407 -0.521206 727.448 -1.896 720.531 -1.896V2.104ZM736.328 5.82031C740.653 8.22313 743.823 11.301 745.924 15.0365L749.41 13.0755C746.903 8.61904 743.161 5.04086 738.27 2.32368L736.328 5.82031ZM745.933 15.0522C748.067 18.767 749.123 22.6912 749.123 26.856H753.123C753.123 21.9755 751.875 17.3664 749.401 13.0597L745.933 15.0522ZM749.123 26.856C749.123 29.8297 748.538 32.4182 747.414 34.6656L750.992 36.4544C752.428 33.5818 753.123 30.3676 753.123 26.856H749.123ZM747.402 34.6905C746.289 36.9962 744.855 39.149 743.094 41.1507L746.096 43.7933C748.09 41.5283 749.728 39.0732 751.004 36.4295L747.402 34.6905ZM743.121 41.1205C741.273 43.1361 739.341 45.1106 737.323 47.044L740.091 49.932C742.169 47.9401 744.162 45.9039 746.069 43.8234L743.121 41.1205ZM737.341 47.0275C734.615 49.5771 732.189 52.2663 730.067 55.096L733.267 57.496C735.241 54.8643 737.508 52.3482 740.073 49.9485L737.341 47.0275ZM730.067 55.096C727.739 58.1995 726.595 61.8284 726.595 65.896H730.595C730.595 62.6249 731.499 59.8539 733.267 57.496L730.067 55.096ZM726.595 65.896V67.56H730.595V65.896H726.595ZM728.595 65.56H710.675V69.56H728.595V65.56ZM712.163 97V77.8H708.163V97H712.163ZM710.163 79.8H729.363V75.8H710.163V79.8ZM727.363 77.8V97H731.363V77.8H727.363ZM729.363 95H710.163V99H729.363V95Z" fill="#777777" mask="url(#path-1-outside-1_122_3024)"/>
</svg>
