<svg width="315" height="141" viewBox="0 0 315 141" fill="none" xmlns="http://www.w3.org/2000/svg">
<mask id="path-1-outside-1_790_2111" maskUnits="userSpaceOnUse" x="28" y="36" width="263" height="78" fill="black">
<rect fill="white" x="28" y="36" width="263" height="78"/>
<path d="M30.336 110L30.336 38.48H41.76L80.16 89.072L74.016 90.512L74.016 38.48L88.896 38.48L88.896 110H77.376L39.648 59.024L45.216 57.584L45.216 110H30.336ZM125.778 111.152C120.21 111.152 115.378 109.936 111.282 107.504C107.186 105.008 104.018 101.68 101.778 97.52C99.538 93.36 98.418 88.752 98.418 83.696C98.418 78.448 99.57 73.776 101.874 69.68C104.242 65.584 107.41 62.352 111.378 59.984C115.346 57.616 119.826 56.432 124.818 56.432C128.978 56.432 132.658 57.104 135.858 58.448C139.058 59.728 141.746 61.552 143.922 63.92C146.162 66.288 147.858 69.04 149.01 72.176C150.162 75.248 150.738 78.608 150.738 82.256C150.738 83.28 150.674 84.304 150.546 85.328C150.482 86.288 150.322 87.12 150.066 87.824H110.802V77.264H141.906L135.09 82.256C135.73 79.504 135.698 77.072 134.994 74.96C134.29 72.784 133.042 71.088 131.25 69.872C129.522 68.592 127.378 67.952 124.818 67.952C122.322 67.952 120.178 68.56 118.386 69.776C116.594 70.992 115.25 72.784 114.354 75.152C113.458 77.52 113.106 80.4 113.298 83.792C113.042 86.736 113.394 89.328 114.354 91.568C115.314 93.808 116.786 95.568 118.77 96.848C120.754 98.064 123.154 98.672 125.97 98.672C128.53 98.672 130.706 98.16 132.498 97.136C134.354 96.112 135.794 94.704 136.818 92.912L148.338 98.384C147.314 100.944 145.682 103.184 143.442 105.104C141.266 107.024 138.674 108.528 135.666 109.616C132.658 110.64 129.362 111.152 125.778 111.152ZM173.042 110L154.994 57.584H169.874L182.546 95.408L177.362 95.312L191.474 57.584H203.954L217.97 95.312L212.786 95.408L225.458 57.584H240.434L222.29 110H209.81L195.218 69.488H200.21L185.522 110H173.042ZM267.324 111.152C261.564 111.152 256.54 109.808 252.252 107.12C248.028 104.368 245.148 100.688 243.612 96.08L254.172 91.088C255.516 93.904 257.34 96.112 259.644 97.712C261.948 99.312 264.508 100.112 267.324 100.112C269.372 100.112 270.94 99.696 272.028 98.864C273.116 98.032 273.66 96.88 273.66 95.408C273.66 94.64 273.468 94 273.084 93.488C272.7 92.912 272.124 92.4 271.356 91.952C270.588 91.504 269.628 91.12 268.476 90.8L259.548 88.304C255.26 87.088 251.964 85.136 249.66 82.448C247.356 79.696 246.204 76.464 246.204 72.752C246.204 69.488 247.036 66.64 248.7 64.208C250.364 61.776 252.7 59.888 255.708 58.544C258.716 57.136 262.172 56.432 266.076 56.432C271.196 56.432 275.676 57.648 279.516 60.08C283.42 62.448 286.172 65.808 287.772 70.16L277.116 75.152C276.348 72.976 274.94 71.248 272.892 69.968C270.908 68.624 268.636 67.952 266.076 67.952C264.22 67.952 262.748 68.336 261.66 69.104C260.636 69.872 260.124 70.928 260.124 72.272C260.124 72.976 260.316 73.616 260.7 74.192C261.084 74.768 261.692 75.28 262.524 75.728C263.42 76.176 264.508 76.592 265.788 76.976L274.14 79.472C278.492 80.752 281.82 82.704 284.124 85.328C286.428 87.888 287.58 91.056 287.58 94.832C287.58 98.096 286.716 100.944 284.988 103.376C283.324 105.808 280.988 107.728 277.98 109.136C274.972 110.48 271.42 111.152 267.324 111.152Z"/>
</mask>
<path d="M30.336 110L30.336 38.48H41.76L80.16 89.072L74.016 90.512L74.016 38.48L88.896 38.48L88.896 110H77.376L39.648 59.024L45.216 57.584L45.216 110H30.336ZM125.778 111.152C120.21 111.152 115.378 109.936 111.282 107.504C107.186 105.008 104.018 101.68 101.778 97.52C99.538 93.36 98.418 88.752 98.418 83.696C98.418 78.448 99.57 73.776 101.874 69.68C104.242 65.584 107.41 62.352 111.378 59.984C115.346 57.616 119.826 56.432 124.818 56.432C128.978 56.432 132.658 57.104 135.858 58.448C139.058 59.728 141.746 61.552 143.922 63.92C146.162 66.288 147.858 69.04 149.01 72.176C150.162 75.248 150.738 78.608 150.738 82.256C150.738 83.28 150.674 84.304 150.546 85.328C150.482 86.288 150.322 87.12 150.066 87.824H110.802V77.264H141.906L135.09 82.256C135.73 79.504 135.698 77.072 134.994 74.96C134.29 72.784 133.042 71.088 131.25 69.872C129.522 68.592 127.378 67.952 124.818 67.952C122.322 67.952 120.178 68.56 118.386 69.776C116.594 70.992 115.25 72.784 114.354 75.152C113.458 77.52 113.106 80.4 113.298 83.792C113.042 86.736 113.394 89.328 114.354 91.568C115.314 93.808 116.786 95.568 118.77 96.848C120.754 98.064 123.154 98.672 125.97 98.672C128.53 98.672 130.706 98.16 132.498 97.136C134.354 96.112 135.794 94.704 136.818 92.912L148.338 98.384C147.314 100.944 145.682 103.184 143.442 105.104C141.266 107.024 138.674 108.528 135.666 109.616C132.658 110.64 129.362 111.152 125.778 111.152ZM173.042 110L154.994 57.584H169.874L182.546 95.408L177.362 95.312L191.474 57.584H203.954L217.97 95.312L212.786 95.408L225.458 57.584H240.434L222.29 110H209.81L195.218 69.488H200.21L185.522 110H173.042ZM267.324 111.152C261.564 111.152 256.54 109.808 252.252 107.12C248.028 104.368 245.148 100.688 243.612 96.08L254.172 91.088C255.516 93.904 257.34 96.112 259.644 97.712C261.948 99.312 264.508 100.112 267.324 100.112C269.372 100.112 270.94 99.696 272.028 98.864C273.116 98.032 273.66 96.88 273.66 95.408C273.66 94.64 273.468 94 273.084 93.488C272.7 92.912 272.124 92.4 271.356 91.952C270.588 91.504 269.628 91.12 268.476 90.8L259.548 88.304C255.26 87.088 251.964 85.136 249.66 82.448C247.356 79.696 246.204 76.464 246.204 72.752C246.204 69.488 247.036 66.64 248.7 64.208C250.364 61.776 252.7 59.888 255.708 58.544C258.716 57.136 262.172 56.432 266.076 56.432C271.196 56.432 275.676 57.648 279.516 60.08C283.42 62.448 286.172 65.808 287.772 70.16L277.116 75.152C276.348 72.976 274.94 71.248 272.892 69.968C270.908 68.624 268.636 67.952 266.076 67.952C264.22 67.952 262.748 68.336 261.66 69.104C260.636 69.872 260.124 70.928 260.124 72.272C260.124 72.976 260.316 73.616 260.7 74.192C261.084 74.768 261.692 75.28 262.524 75.728C263.42 76.176 264.508 76.592 265.788 76.976L274.14 79.472C278.492 80.752 281.82 82.704 284.124 85.328C286.428 87.888 287.58 91.056 287.58 94.832C287.58 98.096 286.716 100.944 284.988 103.376C283.324 105.808 280.988 107.728 277.98 109.136C274.972 110.48 271.42 111.152 267.324 111.152Z" fill="white"/>
<path d="M30.336 110H28.336V112H30.336V110ZM30.336 38.48V36.48H28.336V38.48H30.336ZM41.76 38.48L43.3531 37.2708L42.7528 36.48H41.76V38.48ZM80.16 89.072L80.6164 91.0192L83.6153 90.3164L81.7531 87.8628L80.16 89.072ZM74.016 90.512H72.016V93.0349L74.4724 92.4592L74.016 90.512ZM74.016 38.48V36.48H72.016V38.48H74.016ZM88.896 38.48H90.896V36.48H88.896V38.48ZM88.896 110V112H90.896V110H88.896ZM77.376 110L75.7684 111.19L76.368 112H77.376V110ZM39.648 59.024L39.1472 57.0877L36.2763 57.8302L38.0404 60.2138L39.648 59.024ZM45.216 57.584L47.216 57.584V55.001L44.7152 55.6477L45.216 57.584ZM45.216 110V112H47.216V110H45.216ZM32.336 110L32.336 38.48H28.336L28.336 110H32.336ZM30.336 40.48H41.76V36.48H30.336L30.336 40.48ZM40.1669 39.6892L78.5669 90.2812L81.7531 87.8628L43.3531 37.2708L40.1669 39.6892ZM79.7036 87.1248L73.5596 88.5648L74.4724 92.4592L80.6164 91.0192L79.7036 87.1248ZM76.016 90.512L76.016 38.48H72.016L72.016 90.512H76.016ZM74.016 40.48L88.896 40.48V36.48L74.016 36.48V40.48ZM86.896 38.48L86.896 110H90.896L90.896 38.48H86.896ZM88.896 108H77.376V112H88.896V108ZM78.9836 108.81L41.2556 57.8342L38.0404 60.2138L75.7684 111.19L78.9836 108.81ZM40.1488 60.9603L45.7168 59.5203L44.7152 55.6477L39.1472 57.0877L40.1488 60.9603ZM43.216 57.584L43.216 110H47.216L47.216 57.584L43.216 57.584ZM45.216 108H30.336V112H45.216V108ZM111.282 107.504L110.241 109.212L110.251 109.218L110.261 109.224L111.282 107.504ZM101.778 97.52L103.539 96.5718L101.778 97.52ZM101.874 69.68L100.143 68.679L100.137 68.6892L100.131 68.6995L101.874 69.68ZM111.378 59.984L112.403 61.7014L111.378 59.984ZM135.858 58.448L135.084 60.292L135.099 60.2986L135.115 60.305L135.858 58.448ZM143.922 63.92L142.449 65.2733L142.459 65.2839L142.469 65.2944L143.922 63.92ZM149.01 72.176L147.133 72.8656L147.137 72.8782L149.01 72.176ZM150.546 85.328L148.561 85.0799L148.554 85.1373L148.55 85.195L150.546 85.328ZM150.066 87.824V89.824H151.467L151.946 88.5075L150.066 87.824ZM110.802 87.824H108.802V89.824H110.802V87.824ZM110.802 77.264V75.264H108.802V77.264H110.802ZM141.906 77.264L143.088 78.8775L148.022 75.264H141.906V77.264ZM135.09 82.256L133.142 81.803L131.92 87.0566L136.272 83.8695L135.09 82.256ZM134.994 74.96L133.091 75.5756L133.094 75.5841L133.097 75.5925L134.994 74.96ZM131.25 69.872L130.06 71.4791L130.093 71.5037L130.127 71.527L131.25 69.872ZM118.386 69.776L117.263 68.121V68.121L118.386 69.776ZM114.354 75.152L116.225 75.8598L114.354 75.152ZM113.298 83.792L115.29 83.9653L115.303 83.8223L115.295 83.679L113.298 83.792ZM114.354 91.568L112.516 92.3558L114.354 91.568ZM118.77 96.848L117.686 98.5286L117.705 98.5411L117.725 98.5532L118.77 96.848ZM132.498 97.136L131.532 95.3848L131.519 95.3921L131.506 95.3995L132.498 97.136ZM136.818 92.912L137.676 91.1054L136.001 90.31L135.082 91.9197L136.818 92.912ZM148.338 98.384L150.195 99.1268L150.892 97.3832L149.196 96.5774L148.338 98.384ZM143.442 105.104L142.14 103.585L142.13 103.595L142.119 103.604L143.442 105.104ZM135.666 109.616L136.311 111.509L136.328 111.503L136.346 111.497L135.666 109.616ZM125.778 109.152C120.508 109.152 116.041 108.004 112.303 105.784L110.261 109.224C114.715 111.868 119.912 113.152 125.778 113.152V109.152ZM112.323 105.796C108.525 103.482 105.608 100.414 103.539 96.5718L100.017 98.4682C102.428 102.946 105.847 106.534 110.241 109.212L112.323 105.796ZM103.539 96.5718C101.467 92.7235 100.418 88.4449 100.418 83.696H96.418C96.418 89.0591 97.6092 93.9965 100.017 98.4682L103.539 96.5718ZM100.418 83.696C100.418 78.7506 101.501 74.4234 103.617 70.6605L100.131 68.6995C97.6395 73.1286 96.418 78.1454 96.418 83.696H100.418ZM103.605 70.681C105.807 66.8728 108.735 63.8904 112.403 61.7014L110.353 58.2666C106.085 60.8136 102.677 64.2952 100.143 68.679L103.605 70.681ZM112.403 61.7014C116.036 59.5332 120.157 58.432 124.818 58.432V54.432C119.495 54.432 114.656 55.6988 110.353 58.2666L112.403 61.7014ZM124.818 58.432C128.764 58.432 132.172 59.0693 135.084 60.292L136.632 56.604C133.144 55.1387 129.192 54.432 124.818 54.432V58.432ZM135.115 60.305C138.058 61.4819 140.49 63.1412 142.449 65.2733L145.395 62.5667C143.002 59.9628 140.058 57.9741 136.601 56.591L135.115 60.305ZM142.469 65.2944C144.518 67.4603 146.072 69.9778 147.133 72.8656L150.887 71.4864C149.644 68.1022 147.806 65.1157 145.375 62.5456L142.469 65.2944ZM147.137 72.8782C148.196 75.702 148.738 78.8211 148.738 82.256H152.738C152.738 78.3949 152.128 74.794 150.883 71.4738L147.137 72.8782ZM148.738 82.256C148.738 83.1964 148.679 84.1376 148.561 85.0799L152.531 85.5761C152.669 84.4704 152.738 83.3636 152.738 82.256H148.738ZM148.55 85.195C148.496 86.0174 148.363 86.6556 148.186 87.1405L151.946 88.5075C152.281 87.5844 152.468 86.5586 152.542 85.461L148.55 85.195ZM150.066 85.824H110.802V89.824H150.066V85.824ZM112.802 87.824V77.264H108.802V87.824H112.802ZM110.802 79.264H141.906V75.264H110.802V79.264ZM140.724 75.6505L133.908 80.6425L136.272 83.8695L143.088 78.8775L140.724 75.6505ZM137.038 82.709C137.739 79.6931 137.74 76.8725 136.891 74.3275L133.097 75.5925C133.656 77.2715 133.721 79.3149 133.142 81.803L137.038 82.709ZM136.897 74.3444C136.064 71.7702 134.555 69.6977 132.373 68.217L130.127 71.527C131.529 72.4783 132.516 73.7978 133.091 75.5756L136.897 74.3444ZM132.44 68.2649C130.306 66.6839 127.723 65.952 124.818 65.952V69.952C127.033 69.952 128.738 70.5001 130.06 71.4791L132.44 68.2649ZM124.818 65.952C121.984 65.952 119.435 66.6473 117.263 68.121L119.509 71.431C120.921 70.4727 122.66 69.952 124.818 69.952V65.952ZM117.263 68.121C115.075 69.6055 113.5 71.7581 112.483 74.4442L116.225 75.8598C117 73.8099 118.113 72.3785 119.509 71.4309L117.263 68.121ZM112.483 74.4442C111.461 77.1472 111.099 80.324 111.301 83.905L115.295 83.679C115.114 80.476 115.455 77.8928 116.225 75.8598L112.483 74.4442ZM111.306 83.6187C111.027 86.8217 111.401 89.7551 112.516 92.3558L116.192 90.7802C115.387 88.9009 115.057 86.6503 115.29 83.9653L111.306 83.6187ZM112.516 92.3558C113.627 94.9494 115.356 97.0255 117.686 98.5286L119.854 95.1674C118.216 94.1105 117.001 92.6666 116.192 90.7802L112.516 92.3558ZM117.725 98.5532C120.084 99.9989 122.863 100.672 125.97 100.672V96.672C123.445 96.672 121.424 96.1291 119.815 95.1428L117.725 98.5532ZM125.97 100.672C128.795 100.672 131.332 100.106 133.49 98.8725L131.506 95.3995C130.08 96.2139 128.265 96.672 125.97 96.672V100.672ZM133.464 98.8872C135.633 97.6908 137.343 96.0241 138.554 93.9043L135.082 91.9197C134.245 93.3839 133.075 94.5332 131.532 95.3848L133.464 98.8872ZM135.96 94.7186L147.48 100.191L149.196 96.5774L137.676 91.1054L135.96 94.7186ZM146.481 97.6412C145.585 99.8808 144.153 101.86 142.14 103.585L144.744 106.623C147.211 104.508 149.043 102.007 150.195 99.1268L146.481 97.6412ZM142.119 103.604C140.15 105.342 137.782 106.724 134.986 107.735L136.346 111.497C139.566 110.332 142.382 108.706 144.765 106.604L142.119 103.604ZM135.021 107.723C132.246 108.668 129.17 109.152 125.778 109.152V113.152C129.554 113.152 133.07 112.612 136.311 111.509L135.021 107.723ZM173.042 110L171.15 110.651L171.615 112H173.042V110ZM154.993 57.584V55.584H152.19L153.102 58.2351L154.993 57.584ZM169.874 57.584L171.77 56.9487L171.313 55.584H169.874V57.584ZM182.546 95.408L182.508 97.4077L185.342 97.4601L184.442 94.7727L182.546 95.408ZM177.361 95.312L175.488 94.6113L174.498 97.2593L177.324 97.3117L177.361 95.312ZM191.474 57.584V55.584H190.086L189.6 56.8833L191.474 57.584ZM203.954 57.584L205.828 56.8875L205.344 55.584H203.954V57.584ZM217.97 95.312L218.007 97.3117L220.827 97.2594L219.844 94.6155L217.97 95.312ZM212.786 95.408L210.889 94.7727L209.989 97.4601L212.823 97.4077L212.786 95.408ZM225.458 57.584V55.584H224.018L223.561 56.9487L225.458 57.584ZM240.434 57.584L242.323 58.2382L243.242 55.584H240.434V57.584ZM222.29 110V112H223.714L224.179 110.654L222.29 110ZM209.81 110L207.928 110.678L208.404 112H209.81V110ZM195.217 69.488V67.488H192.371L193.336 70.1658L195.217 69.488ZM200.21 69.488L202.09 70.1697L203.062 67.488H200.21V69.488ZM185.521 110V112H186.924L187.402 110.682L185.521 110ZM174.933 109.349L156.885 56.9329L153.102 58.2351L171.15 110.651L174.933 109.349ZM154.993 59.584H169.874V55.584H154.993V59.584ZM167.977 58.2193L180.649 96.0433L184.442 94.7727L171.77 56.9487L167.977 58.2193ZM182.583 93.4083L177.399 93.3123L177.324 97.3117L182.508 97.4077L182.583 93.4083ZM179.235 96.0127L193.347 58.2847L189.6 56.8833L175.488 94.6113L179.235 96.0127ZM191.474 59.584H203.954V55.584H191.474V59.584ZM202.079 58.2805L216.095 96.0085L219.844 94.6155L205.828 56.8875L202.079 58.2805ZM217.932 93.3123L212.748 93.4083L212.823 97.4077L218.007 97.3117L217.932 93.3123ZM214.682 96.0433L227.354 58.2193L223.561 56.9487L210.889 94.7727L214.682 96.0433ZM225.458 59.584H240.434V55.584H225.458V59.584ZM238.544 56.9298L220.4 109.346L224.179 110.654L242.323 58.2382L238.544 56.9298ZM222.29 108H209.81V112H222.29V108ZM211.691 109.322L197.099 68.8102L193.336 70.1658L207.928 110.678L211.691 109.322ZM195.217 71.488H200.21V67.488H195.217V71.488ZM198.329 68.8063L183.641 109.318L187.402 110.682L202.09 70.1697L198.329 68.8063ZM185.521 108H173.042V112H185.521V108ZM252.252 107.12L251.16 108.796L251.175 108.805L251.19 108.815L252.252 107.12ZM243.612 96.08L242.757 94.2719L241.154 95.0299L241.715 96.7125L243.612 96.08ZM254.172 91.088L255.977 90.2265L255.119 88.4283L253.317 89.2799L254.172 91.088ZM259.644 97.712L258.503 99.3547L259.644 97.712ZM272.028 98.864L273.243 100.453L272.028 98.864ZM273.084 93.488L271.42 94.5974L271.451 94.6436L271.484 94.688L273.084 93.488ZM268.476 90.8L267.938 92.7261L267.941 92.727L268.476 90.8ZM259.548 88.304L259.002 90.2281L259.01 90.2301L259.548 88.304ZM249.66 82.448L248.126 83.7319L248.134 83.7408L248.141 83.7496L249.66 82.448ZM255.708 58.544L256.524 60.37L256.54 60.3628L256.556 60.3554L255.708 58.544ZM279.516 60.08L278.446 61.7696L278.462 61.78L278.479 61.79L279.516 60.08ZM287.772 70.16L288.62 71.9711L290.282 71.1925L289.649 69.4699L287.772 70.16ZM277.116 75.152L275.23 75.8176L275.965 77.8998L277.964 76.9631L277.116 75.152ZM272.892 69.968L271.77 71.6238L271.801 71.6445L271.832 71.664L272.892 69.968ZM261.66 69.104L260.507 67.4701L260.483 67.4867L260.46 67.504L261.66 69.104ZM260.7 74.192L259.036 75.3014L260.7 74.192ZM262.524 75.728L261.576 77.4889L261.602 77.5033L261.63 77.5169L262.524 75.728ZM265.788 76.976L265.213 78.8917L265.215 78.8923L265.788 76.976ZM274.14 79.472L273.567 81.3883L273.576 81.3907L274.14 79.472ZM284.124 85.328L282.621 86.6476L282.629 86.6568L282.637 86.6659L284.124 85.328ZM284.988 103.376L283.358 102.218L283.347 102.232L283.337 102.247L284.988 103.376ZM277.98 109.136L278.796 110.962L278.812 110.955L278.828 110.947L277.98 109.136ZM267.324 109.152C261.887 109.152 257.242 107.887 253.314 105.425L251.19 108.815C255.838 111.729 261.241 113.152 267.324 113.152V109.152ZM253.344 105.444C249.483 102.929 246.897 99.6095 245.509 95.4475L241.715 96.7125C243.399 101.766 246.573 105.807 251.16 108.796L253.344 105.444ZM244.467 97.8881L255.027 92.8961L253.317 89.2799L242.757 94.2719L244.467 97.8881ZM252.367 91.9495C253.844 95.0431 255.883 97.5348 258.503 99.3547L260.785 96.0693C258.797 94.6891 257.188 92.7649 255.977 90.2265L252.367 91.9495ZM258.503 99.3547C261.144 101.188 264.102 102.112 267.324 102.112V98.112C264.914 98.112 262.752 97.4357 260.785 96.0693L258.503 99.3547ZM267.324 102.112C269.604 102.112 271.671 101.655 273.243 100.453L270.813 97.2753C270.209 97.7372 269.14 98.112 267.324 98.112V102.112ZM273.243 100.453C274.867 99.2107 275.66 97.4491 275.66 95.408H271.66C271.66 96.3109 271.365 96.8533 270.813 97.2753L273.243 100.453ZM275.66 95.408C275.66 94.2963 275.376 93.2112 274.684 92.288L271.484 94.688C271.56 94.7888 271.66 94.9837 271.66 95.408H275.66ZM274.748 92.3786C274.154 91.4878 273.322 90.7837 272.364 90.2244L270.348 93.6796C270.926 94.0163 271.246 94.3362 271.42 94.5974L274.748 92.3786ZM272.364 90.2244C271.407 89.6661 270.276 89.2242 269.011 88.873L267.941 92.727C268.98 93.0158 269.769 93.3419 270.348 93.6796L272.364 90.2244ZM269.014 88.8739L260.086 86.3779L259.01 90.2301L267.938 92.7261L269.014 88.8739ZM260.094 86.3799C256.086 85.2434 253.167 83.4669 251.179 81.1464L248.141 83.7496C250.761 86.8051 254.434 88.9326 259.002 90.2281L260.094 86.3799ZM251.194 81.1641C249.202 78.7853 248.204 76.012 248.204 72.752H244.204C244.204 76.9159 245.51 80.6067 248.126 83.7319L251.194 81.1641ZM248.204 72.752C248.204 69.8458 248.938 67.4012 250.351 65.3374L247.049 63.0786C245.134 65.8787 244.204 69.1302 244.204 72.752H248.204ZM250.351 65.3374C251.782 63.2452 253.812 61.5816 256.524 60.37L254.892 56.718C251.588 58.1944 248.946 60.3068 247.049 63.0786L250.351 65.3374ZM256.556 60.3554C259.256 59.0915 262.414 58.432 266.076 58.432V54.432C261.93 54.432 258.176 55.1805 254.86 56.7326L256.556 60.3554ZM266.076 58.432C270.866 58.432 274.965 59.5652 278.446 61.7696L280.586 58.3904C276.387 55.7308 271.526 54.432 266.076 54.432V58.432ZM278.479 61.79C281.989 63.9191 284.449 66.9163 285.895 70.8501L289.649 69.4699C287.895 64.6997 284.851 60.9769 280.553 58.37L278.479 61.79ZM286.924 68.3489L276.268 73.3409L277.964 76.9631L288.62 71.9711L286.924 68.3489ZM279.002 74.4864C278.076 71.8623 276.365 69.78 273.952 68.272L271.832 71.664C273.515 72.716 274.62 74.0897 275.23 75.8176L279.002 74.4864ZM274.014 68.3122C271.676 66.7283 269.007 65.952 266.076 65.952V69.952C268.265 69.952 270.14 70.5197 271.77 71.6238L274.014 68.3122ZM266.076 65.952C263.965 65.952 262.041 66.3867 260.507 67.4701L262.813 70.7379C263.455 70.2853 264.475 69.952 266.076 69.952V65.952ZM260.46 67.504C258.904 68.6713 258.124 70.3353 258.124 72.272H262.124C262.124 71.5207 262.368 71.0727 262.86 70.704L260.46 67.504ZM258.124 72.272C258.124 73.3637 258.429 74.391 259.036 75.3014L262.364 73.0826C262.203 72.841 262.124 72.5883 262.124 72.272H258.124ZM259.036 75.3014C259.656 76.2311 260.556 76.9396 261.576 77.4889L263.472 73.9671C262.828 73.6204 262.512 73.3049 262.364 73.0826L259.036 75.3014ZM261.63 77.5169C262.656 78.0299 263.857 78.4848 265.213 78.8917L266.363 75.0603C265.159 74.6992 264.184 74.3221 263.418 73.9391L261.63 77.5169ZM265.215 78.8923L273.567 81.3883L274.713 77.5557L266.361 75.0597L265.215 78.8923ZM273.576 81.3907C277.671 82.5953 280.631 84.3816 282.621 86.6476L285.627 84.0084C283.009 81.0264 279.313 78.9087 274.704 77.5533L273.576 81.3907ZM282.637 86.6659C284.578 88.8221 285.58 91.4986 285.58 94.832H289.58C289.58 90.6134 288.278 86.9539 285.611 83.9901L282.637 86.6659ZM285.58 94.832C285.58 97.7219 284.822 100.156 283.358 102.218L286.618 104.534C288.61 101.732 289.58 98.4701 289.58 94.832H285.58ZM283.337 102.247C281.9 104.348 279.858 106.048 277.132 107.325L278.828 110.947C282.118 109.408 284.748 107.268 286.639 104.505L283.337 102.247ZM277.164 107.31C274.467 108.515 271.205 109.152 267.324 109.152V113.152C271.635 113.152 275.477 112.445 278.796 110.962L277.164 107.31Z" fill="#777777" mask="url(#path-1-outside-1_790_2111)"/>
</svg>
