<svg width="258" height="74" viewBox="0 0 258 74" fill="none" xmlns="http://www.w3.org/2000/svg">
<mask id="path-1-outside-1_192_806" maskUnits="userSpaceOnUse" x="-2" y="-2" width="263" height="78" fill="black">
<rect fill="white" x="-2" y="-2" width="263" height="78"/>
<path d="M0.336 72L0.336 0.479994L11.76 0.479994L50.16 51.072L44.016 52.512L44.016 0.479994L58.896 0.479994L58.896 72H47.376L9.648 21.024L15.216 19.584L15.216 72H0.336ZM95.778 73.152C90.21 73.152 85.378 71.936 81.282 69.504C77.186 67.008 74.018 63.68 71.778 59.52C69.538 55.36 68.418 50.752 68.418 45.696C68.418 40.448 69.57 35.776 71.874 31.68C74.242 27.584 77.41 24.352 81.378 21.984C85.346 19.616 89.826 18.432 94.818 18.432C98.978 18.432 102.658 19.104 105.858 20.448C109.058 21.728 111.746 23.552 113.922 25.92C116.162 28.288 117.858 31.04 119.01 34.176C120.162 37.248 120.738 40.608 120.738 44.256C120.738 45.28 120.674 46.304 120.546 47.328C120.482 48.288 120.322 49.12 120.066 49.824H80.802V39.264H111.906L105.09 44.256C105.73 41.504 105.698 39.072 104.994 36.96C104.29 34.784 103.042 33.088 101.25 31.872C99.522 30.592 97.378 29.952 94.818 29.952C92.322 29.952 90.178 30.56 88.386 31.776C86.594 32.992 85.25 34.784 84.354 37.152C83.458 39.52 83.106 42.4 83.298 45.792C83.042 48.736 83.394 51.328 84.354 53.568C85.314 55.808 86.786 57.568 88.77 58.848C90.754 60.064 93.154 60.672 95.97 60.672C98.53 60.672 100.706 60.16 102.498 59.136C104.354 58.112 105.794 56.704 106.818 54.912L118.338 60.384C117.314 62.944 115.682 65.184 113.442 67.104C111.266 69.024 108.674 70.528 105.666 71.616C102.658 72.64 99.362 73.152 95.778 73.152ZM143.042 72L124.994 19.584H139.874L152.546 57.408L147.362 57.312L161.474 19.584H173.954L187.97 57.312L182.786 57.408L195.458 19.584H210.434L192.29 72H179.81L165.218 31.488H170.21L155.522 72H143.042ZM237.324 73.152C231.564 73.152 226.54 71.808 222.252 69.12C218.028 66.368 215.148 62.688 213.612 58.08L224.172 53.088C225.516 55.904 227.34 58.112 229.644 59.712C231.948 61.312 234.508 62.112 237.324 62.112C239.372 62.112 240.94 61.696 242.028 60.864C243.116 60.032 243.66 58.88 243.66 57.408C243.66 56.64 243.468 56 243.084 55.488C242.7 54.912 242.124 54.4 241.356 53.952C240.588 53.504 239.628 53.12 238.476 52.8L229.548 50.304C225.26 49.088 221.964 47.136 219.66 44.448C217.356 41.696 216.204 38.464 216.204 34.752C216.204 31.488 217.036 28.64 218.7 26.208C220.364 23.776 222.7 21.888 225.708 20.544C228.716 19.136 232.172 18.432 236.076 18.432C241.196 18.432 245.676 19.648 249.516 22.08C253.42 24.448 256.172 27.808 257.772 32.16L247.116 37.152C246.348 34.976 244.94 33.248 242.892 31.968C240.908 30.624 238.636 29.952 236.076 29.952C234.22 29.952 232.748 30.336 231.66 31.104C230.636 31.872 230.124 32.928 230.124 34.272C230.124 34.976 230.316 35.616 230.7 36.192C231.084 36.768 231.692 37.28 232.524 37.728C233.42 38.176 234.508 38.592 235.788 38.976L244.14 41.472C248.492 42.752 251.82 44.704 254.124 47.328C256.428 49.888 257.58 53.056 257.58 56.832C257.58 60.096 256.716 62.944 254.988 65.376C253.324 67.808 250.988 69.728 247.98 71.136C244.972 72.48 241.42 73.152 237.324 73.152Z"/>
</mask>
<path d="M0.336 72L0.336 0.479994L11.76 0.479994L50.16 51.072L44.016 52.512L44.016 0.479994L58.896 0.479994L58.896 72H47.376L9.648 21.024L15.216 19.584L15.216 72H0.336ZM95.778 73.152C90.21 73.152 85.378 71.936 81.282 69.504C77.186 67.008 74.018 63.68 71.778 59.52C69.538 55.36 68.418 50.752 68.418 45.696C68.418 40.448 69.57 35.776 71.874 31.68C74.242 27.584 77.41 24.352 81.378 21.984C85.346 19.616 89.826 18.432 94.818 18.432C98.978 18.432 102.658 19.104 105.858 20.448C109.058 21.728 111.746 23.552 113.922 25.92C116.162 28.288 117.858 31.04 119.01 34.176C120.162 37.248 120.738 40.608 120.738 44.256C120.738 45.28 120.674 46.304 120.546 47.328C120.482 48.288 120.322 49.12 120.066 49.824H80.802V39.264H111.906L105.09 44.256C105.73 41.504 105.698 39.072 104.994 36.96C104.29 34.784 103.042 33.088 101.25 31.872C99.522 30.592 97.378 29.952 94.818 29.952C92.322 29.952 90.178 30.56 88.386 31.776C86.594 32.992 85.25 34.784 84.354 37.152C83.458 39.52 83.106 42.4 83.298 45.792C83.042 48.736 83.394 51.328 84.354 53.568C85.314 55.808 86.786 57.568 88.77 58.848C90.754 60.064 93.154 60.672 95.97 60.672C98.53 60.672 100.706 60.16 102.498 59.136C104.354 58.112 105.794 56.704 106.818 54.912L118.338 60.384C117.314 62.944 115.682 65.184 113.442 67.104C111.266 69.024 108.674 70.528 105.666 71.616C102.658 72.64 99.362 73.152 95.778 73.152ZM143.042 72L124.994 19.584H139.874L152.546 57.408L147.362 57.312L161.474 19.584H173.954L187.97 57.312L182.786 57.408L195.458 19.584H210.434L192.29 72H179.81L165.218 31.488H170.21L155.522 72H143.042ZM237.324 73.152C231.564 73.152 226.54 71.808 222.252 69.12C218.028 66.368 215.148 62.688 213.612 58.08L224.172 53.088C225.516 55.904 227.34 58.112 229.644 59.712C231.948 61.312 234.508 62.112 237.324 62.112C239.372 62.112 240.94 61.696 242.028 60.864C243.116 60.032 243.66 58.88 243.66 57.408C243.66 56.64 243.468 56 243.084 55.488C242.7 54.912 242.124 54.4 241.356 53.952C240.588 53.504 239.628 53.12 238.476 52.8L229.548 50.304C225.26 49.088 221.964 47.136 219.66 44.448C217.356 41.696 216.204 38.464 216.204 34.752C216.204 31.488 217.036 28.64 218.7 26.208C220.364 23.776 222.7 21.888 225.708 20.544C228.716 19.136 232.172 18.432 236.076 18.432C241.196 18.432 245.676 19.648 249.516 22.08C253.42 24.448 256.172 27.808 257.772 32.16L247.116 37.152C246.348 34.976 244.94 33.248 242.892 31.968C240.908 30.624 238.636 29.952 236.076 29.952C234.22 29.952 232.748 30.336 231.66 31.104C230.636 31.872 230.124 32.928 230.124 34.272C230.124 34.976 230.316 35.616 230.7 36.192C231.084 36.768 231.692 37.28 232.524 37.728C233.42 38.176 234.508 38.592 235.788 38.976L244.14 41.472C248.492 42.752 251.82 44.704 254.124 47.328C256.428 49.888 257.58 53.056 257.58 56.832C257.58 60.096 256.716 62.944 254.988 65.376C253.324 67.808 250.988 69.728 247.98 71.136C244.972 72.48 241.42 73.152 237.324 73.152Z" fill="white"/>
<path d="M0.336 72H-1.664V74H0.336V72ZM0.336 0.479994V-1.52001H-1.664V0.479994H0.336ZM11.76 0.479994L13.3531 -0.729176L12.7528 -1.52001H11.76V0.479994ZM50.16 51.072L50.6164 53.0192L53.6153 52.3164L51.7531 49.8628L50.16 51.072ZM44.016 52.512H42.016V55.0349L44.4724 54.4592L44.016 52.512ZM44.016 0.479994V-1.52001H42.016V0.479994H44.016ZM58.896 0.479994H60.896V-1.52001H58.896V0.479994ZM58.896 72V74H60.896V72H58.896ZM47.376 72L45.7684 73.1898L46.368 74H47.376V72ZM9.648 21.024L9.14723 19.0877L6.27627 19.8302L8.0404 22.2138L9.648 21.024ZM15.216 19.584L17.216 19.584V17.001L14.7152 17.6477L15.216 19.584ZM15.216 72V74H17.216V72H15.216ZM2.336 72L2.336 0.479994H-1.664L-1.664 72H2.336ZM0.336 2.47999L11.76 2.47999V-1.52001L0.336 -1.52001L0.336 2.47999ZM10.1669 1.68916L48.5669 52.2812L51.7531 49.8628L13.3531 -0.729176L10.1669 1.68916ZM49.7036 49.1248L43.5596 50.5648L44.4724 54.4592L50.6164 53.0192L49.7036 49.1248ZM46.016 52.512L46.016 0.479994H42.016L42.016 52.512H46.016ZM44.016 2.47999L58.896 2.47999V-1.52001L44.016 -1.52001V2.47999ZM56.896 0.479994L56.896 72H60.896L60.896 0.479994H56.896ZM58.896 70H47.376V74H58.896V70ZM48.9836 70.8102L11.2556 19.8342L8.0404 22.2138L45.7684 73.1898L48.9836 70.8102ZM10.1488 22.9603L15.7168 21.5203L14.7152 17.6477L9.14723 19.0877L10.1488 22.9603ZM13.216 19.584L13.216 72H17.216L17.216 19.584L13.216 19.584ZM15.216 70H0.336V74H15.216L15.216 70ZM81.282 69.504L80.2413 71.2119L80.2511 71.2178L80.2609 71.2237L81.282 69.504ZM71.778 59.52L73.5389 58.5718L71.778 59.52ZM71.874 31.68L70.1425 30.679L70.1366 30.6892L70.1309 30.6995L71.874 31.68ZM81.378 21.984L82.4029 23.7014L81.378 21.984ZM105.858 20.448L105.084 22.292L105.099 22.2986L105.115 22.305L105.858 20.448ZM113.922 25.92L112.449 27.2733L112.459 27.2839L112.469 27.2944L113.922 25.92ZM119.01 34.176L117.133 34.8656L117.137 34.8782L119.01 34.176ZM120.546 47.328L118.561 47.0799L118.554 47.1373L118.55 47.195L120.546 47.328ZM120.066 49.824V51.824H121.467L121.946 50.5075L120.066 49.824ZM80.802 49.824H78.802V51.824H80.802V49.824ZM80.802 39.264V37.264H78.802V39.264H80.802ZM111.906 39.264L113.088 40.8775L118.022 37.264H111.906V39.264ZM105.09 44.256L103.142 43.803L101.92 49.0566L106.272 45.8695L105.09 44.256ZM104.994 36.96L103.091 37.5756L103.094 37.5841L103.097 37.5925L104.994 36.96ZM101.25 31.872L100.06 33.4791L100.093 33.5037L100.127 33.527L101.25 31.872ZM88.386 31.776L87.263 30.121V30.121L88.386 31.776ZM84.354 37.152L86.2246 37.8598L84.354 37.152ZM83.298 45.792L85.2905 45.9653L85.3029 45.8223L85.2948 45.679L83.298 45.792ZM84.354 53.568L82.5157 54.3558L84.354 53.568ZM88.77 58.848L87.6857 60.5286L87.7052 60.5411L87.7249 60.5532L88.77 58.848ZM102.498 59.136L101.532 57.3848L101.519 57.3921L101.506 57.3995L102.498 59.136ZM106.818 54.912L107.676 53.1054L106.001 52.31L105.082 53.9197L106.818 54.912ZM118.338 60.384L120.195 61.1268L120.892 59.3832L119.196 58.5774L118.338 60.384ZM113.442 67.104L112.14 65.5855L112.13 65.5948L112.119 65.6043L113.442 67.104ZM105.666 71.616L106.311 73.5093L106.328 73.5032L106.346 73.4967L105.666 71.616ZM95.778 71.152C90.508 71.152 86.0413 70.0038 82.3031 67.7843L80.2609 71.2237C84.7148 73.8682 89.912 75.152 95.778 75.152V71.152ZM82.3227 67.7961C78.5252 65.482 75.6079 62.4142 73.5389 58.5718L70.0171 60.4682C72.4281 64.9458 75.8468 68.534 80.2413 71.2119L82.3227 67.7961ZM73.5389 58.5718C71.4668 54.7235 70.418 50.4449 70.418 45.696H66.418C66.418 51.0591 67.6092 55.9965 70.0171 60.4682L73.5389 58.5718ZM70.418 45.696C70.418 40.7506 71.5005 36.4234 73.6171 32.6605L70.1309 30.6995C67.6395 35.1286 66.418 40.1454 66.418 45.696H70.418ZM73.6055 32.681C75.8071 28.8728 78.7349 25.8904 82.4029 23.7014L80.3531 20.2666C76.0851 22.8136 72.6769 26.2952 70.1425 30.679L73.6055 32.681ZM82.4029 23.7014C86.0362 21.5332 90.1569 20.432 94.818 20.432V16.432C89.4951 16.432 84.6558 17.6988 80.3531 20.2666L82.4029 23.7014ZM94.818 20.432C98.7638 20.432 102.172 21.0693 105.084 22.292L106.632 18.604C103.144 17.1387 99.1922 16.432 94.818 16.432V20.432ZM105.115 22.305C108.058 23.4819 110.49 25.1412 112.449 27.2733L115.395 24.5667C113.002 21.9628 110.058 19.9741 106.601 18.591L105.115 22.305ZM112.469 27.2944C114.518 29.4603 116.072 31.9778 117.133 34.8656L120.887 33.4864C119.644 30.1022 117.806 27.1157 115.375 24.5456L112.469 27.2944ZM117.137 34.8782C118.196 37.702 118.738 40.8211 118.738 44.256H122.738C122.738 40.3949 122.128 36.794 120.883 33.4738L117.137 34.8782ZM118.738 44.256C118.738 45.1964 118.679 46.1376 118.561 47.0799L122.531 47.5761C122.669 46.4704 122.738 45.3636 122.738 44.256H118.738ZM118.55 47.195C118.496 48.0174 118.363 48.6556 118.186 49.1405L121.946 50.5075C122.281 49.5844 122.468 48.5586 122.542 47.461L118.55 47.195ZM120.066 47.824H80.802V51.824H120.066V47.824ZM82.802 49.824V39.264H78.802V49.824H82.802ZM80.802 41.264H111.906V37.264H80.802V41.264ZM110.724 37.6505L103.908 42.6425L106.272 45.8695L113.088 40.8775L110.724 37.6505ZM107.038 44.709C107.739 41.6931 107.74 38.8725 106.891 36.3275L103.097 37.5925C103.656 39.2715 103.721 41.3149 103.142 43.803L107.038 44.709ZM106.897 36.3444C106.064 33.7702 104.555 31.6977 102.373 30.217L100.127 33.527C101.529 34.4783 102.516 35.7978 103.091 37.5756L106.897 36.3444ZM102.44 30.2649C100.306 28.6839 97.7226 27.952 94.818 27.952V31.952C97.0334 31.952 98.7379 32.5001 100.06 33.4791L102.44 30.2649ZM94.818 27.952C91.9845 27.952 89.4348 28.6473 87.263 30.121L89.509 33.431C90.9212 32.4727 92.6596 31.952 94.818 31.952V27.952ZM87.263 30.121C85.0754 31.6055 83.4998 33.7581 82.4834 36.4442L86.2246 37.8598C87.0002 35.8099 88.1126 34.3785 89.509 33.4309L87.263 30.121ZM82.4834 36.4442C81.4607 39.1472 81.0985 42.324 81.3012 45.905L85.2948 45.679C85.1135 42.476 85.4553 39.8928 86.2246 37.8598L82.4834 36.4442ZM81.3055 45.6187C81.027 48.8217 81.4011 51.7551 82.5157 54.3558L86.1923 52.7802C85.3869 50.9009 85.057 48.6503 85.2905 45.9653L81.3055 45.6187ZM82.5157 54.3558C83.6272 56.9494 85.3559 59.0255 87.6857 60.5286L89.8543 57.1674C88.2161 56.1105 87.0008 54.6666 86.1923 52.7802L82.5157 54.3558ZM87.7249 60.5532C90.0837 61.9989 92.8629 62.672 95.97 62.672V58.672C93.4451 58.672 91.4243 58.1291 89.8151 57.1428L87.7249 60.5532ZM95.97 62.672C98.7953 62.672 101.332 62.1061 103.49 60.8725L101.506 57.3995C100.08 58.2139 98.2647 58.672 95.97 58.672V62.672ZM103.464 60.8872C105.633 59.6908 107.343 58.0241 108.554 55.9043L105.082 53.9197C104.245 55.3839 103.075 56.5332 101.532 57.3848L103.464 60.8872ZM105.96 56.7186L117.48 62.1906L119.196 58.5774L107.676 53.1054L105.96 56.7186ZM116.481 59.6412C115.585 61.8808 114.153 63.8604 112.14 65.5855L114.744 68.6225C117.211 66.5076 119.043 64.0072 120.195 61.1268L116.481 59.6412ZM112.119 65.6043C110.15 67.3418 107.782 68.724 104.986 69.7352L106.346 73.4967C109.566 72.332 112.382 70.7062 114.765 68.6037L112.119 65.6043ZM105.021 69.7227C102.246 70.6676 99.1705 71.152 95.778 71.152V75.152C99.5535 75.152 103.07 74.6124 106.311 73.5093L105.021 69.7227ZM143.042 72L141.15 72.6511L141.615 74H143.042V72ZM124.993 19.584V17.584H122.19L123.102 20.2351L124.993 19.584ZM139.874 19.584L141.77 18.9487L141.313 17.584H139.874V19.584ZM152.546 57.408L152.508 59.4077L155.342 59.4601L154.442 56.7727L152.546 57.408ZM147.361 57.312L145.488 56.6113L144.498 59.2593L147.324 59.3117L147.361 57.312ZM161.474 19.584V17.584H160.086L159.6 18.8833L161.474 19.584ZM173.954 19.584L175.828 18.8875L175.344 17.584H173.954V19.584ZM187.97 57.312L188.007 59.3117L190.827 59.2594L189.844 56.6155L187.97 57.312ZM182.786 57.408L180.889 56.7727L179.989 59.4601L182.823 59.4077L182.786 57.408ZM195.458 19.584V17.584H194.018L193.561 18.9487L195.458 19.584ZM210.434 19.584L212.323 20.2382L213.242 17.584H210.434V19.584ZM192.29 72V74H193.714L194.179 72.6542L192.29 72ZM179.81 72L177.928 72.6778L178.404 74H179.81V72ZM165.217 31.488V29.488H162.371L163.336 32.1658L165.217 31.488ZM170.21 31.488L172.09 32.1697L173.062 29.488H170.21V31.488ZM155.521 72V74H156.924L157.402 72.6817L155.521 72ZM144.933 71.3489L126.885 18.9329L123.102 20.2351L141.15 72.6511L144.933 71.3489ZM124.993 21.584H139.874V17.584H124.993V21.584ZM137.977 20.2193L150.649 58.0433L154.442 56.7727L141.77 18.9487L137.977 20.2193ZM152.583 55.4083L147.399 55.3123L147.324 59.3117L152.508 59.4077L152.583 55.4083ZM149.235 58.0127L163.347 20.2847L159.6 18.8833L145.488 56.6113L149.235 58.0127ZM161.474 21.584H173.954V17.584H161.474V21.584ZM172.079 20.2805L186.095 58.0085L189.844 56.6155L175.828 18.8875L172.079 20.2805ZM187.932 55.3123L182.748 55.4083L182.823 59.4077L188.007 59.3117L187.932 55.3123ZM184.682 58.0433L197.354 20.2193L193.561 18.9487L180.889 56.7727L184.682 58.0433ZM195.458 21.584H210.434V17.584H195.458V21.584ZM208.544 18.9298L190.4 71.3458L194.179 72.6542L212.323 20.2382L208.544 18.9298ZM192.29 70H179.81V74H192.29V70ZM181.691 71.3222L167.099 30.8102L163.336 32.1658L177.928 72.6778L181.691 71.3222ZM165.217 33.488H170.21V29.488H165.217V33.488ZM168.329 30.8063L153.641 71.3183L157.402 72.6817L172.09 32.1697L168.329 30.8063ZM155.521 70H143.042V74H155.521V70ZM222.252 69.12L221.16 70.7957L221.175 70.8053L221.19 70.8146L222.252 69.12ZM213.612 58.08L212.757 56.2719L211.154 57.0299L211.715 58.7125L213.612 58.08ZM224.172 53.088L225.977 52.2265L225.119 50.4283L223.317 51.2799L224.172 53.088ZM229.644 59.712L228.503 61.3547L229.644 59.712ZM242.028 60.864L243.243 62.4527L242.028 60.864ZM243.084 55.488L241.42 56.5974L241.451 56.6436L241.484 56.688L243.084 55.488ZM238.476 52.8L237.938 54.7261L237.941 54.727L238.476 52.8ZM229.548 50.304L229.002 52.2281L229.01 52.2301L229.548 50.304ZM219.66 44.448L218.126 45.7319L218.134 45.7408L218.141 45.7496L219.66 44.448ZM225.708 20.544L226.524 22.37L226.54 22.3628L226.556 22.3554L225.708 20.544ZM249.516 22.08L248.446 23.7696L248.462 23.78L248.479 23.79L249.516 22.08ZM257.772 32.16L258.62 33.9711L260.282 33.1925L259.649 31.4699L257.772 32.16ZM247.116 37.152L245.23 37.8176L245.965 39.8998L247.964 38.9631L247.116 37.152ZM242.892 31.968L241.77 33.6238L241.801 33.6445L241.832 33.664L242.892 31.968ZM231.66 31.104L230.507 29.4701L230.483 29.4867L230.46 29.504L231.66 31.104ZM230.7 36.192L229.036 37.3014L230.7 36.192ZM232.524 37.728L231.576 39.4889L231.602 39.5033L231.63 39.5169L232.524 37.728ZM235.788 38.976L235.213 40.8917L235.215 40.8923L235.788 38.976ZM244.14 41.472L243.567 43.3883L243.576 43.3907L244.14 41.472ZM254.124 47.328L252.621 48.6476L252.629 48.6568L252.637 48.6659L254.124 47.328ZM254.988 65.376L253.358 64.2176L253.347 64.232L253.337 64.2466L254.988 65.376ZM247.98 71.136L248.796 72.962L248.812 72.9548L248.828 72.9474L247.98 71.136ZM237.324 71.152C231.887 71.152 227.242 69.8874 223.314 67.4254L221.19 70.8146C225.838 73.7286 231.241 75.152 237.324 75.152V71.152ZM223.344 67.4443C219.483 64.9289 216.897 61.6095 215.509 57.4475L211.715 58.7125C213.399 63.7665 216.573 67.8071 221.16 70.7957L223.344 67.4443ZM214.467 59.8881L225.027 54.8961L223.317 51.2799L212.757 56.2719L214.467 59.8881ZM222.367 53.9495C223.844 57.0431 225.883 59.5348 228.503 61.3547L230.785 58.0693C228.797 56.6891 227.188 54.7649 225.977 52.2265L222.367 53.9495ZM228.503 61.3547C231.144 63.1883 234.102 64.112 237.324 64.112L237.324 60.112C234.914 60.112 232.752 59.4357 230.785 58.0693L228.503 61.3547ZM237.324 64.112C239.604 64.112 241.671 63.6548 243.243 62.4527L240.813 59.2753C240.209 59.7372 239.14 60.112 237.324 60.112L237.324 64.112ZM243.243 62.4527C244.867 61.2107 245.66 59.4491 245.66 57.408H241.66C241.66 58.3109 241.365 58.8533 240.813 59.2753L243.243 62.4527ZM245.66 57.408C245.66 56.2963 245.376 55.2112 244.684 54.288L241.484 56.688C241.56 56.7888 241.66 56.9837 241.66 57.408H245.66ZM244.748 54.3786C244.154 53.4878 243.322 52.7837 242.364 52.2244L240.348 55.6796C240.926 56.0163 241.246 56.3362 241.42 56.5974L244.748 54.3786ZM242.364 52.2244C241.407 51.6661 240.276 51.2242 239.011 50.873L237.941 54.727C238.98 55.0158 239.769 55.3419 240.348 55.6796L242.364 52.2244ZM239.014 50.8739L230.086 48.3779L229.01 52.2301L237.938 54.7261L239.014 50.8739ZM230.094 48.3799C226.086 47.2434 223.167 45.4669 221.179 43.1464L218.141 45.7496C220.761 48.8051 224.434 50.9326 229.002 52.2281L230.094 48.3799ZM221.194 43.1641C219.202 40.7853 218.204 38.012 218.204 34.752H214.204C214.204 38.9159 215.51 42.6067 218.126 45.7319L221.194 43.1641ZM218.204 34.752C218.204 31.8458 218.938 29.4012 220.351 27.3374L217.049 25.0786C215.134 27.8787 214.204 31.1302 214.204 34.752H218.204ZM220.351 27.3374C221.782 25.2452 223.812 23.5816 226.524 22.37L224.892 18.718C221.588 20.1944 218.946 22.3068 217.049 25.0786L220.351 27.3374ZM226.556 22.3554C229.256 21.0915 232.414 20.432 236.076 20.432V16.432C231.93 16.432 228.176 17.1805 224.86 18.7326L226.556 22.3554ZM236.076 20.432C240.866 20.432 244.965 21.5652 248.446 23.7696L250.586 20.3904C246.387 17.7308 241.526 16.432 236.076 16.432V20.432ZM248.479 23.79C251.989 25.9191 254.449 28.9163 255.895 32.8501L259.649 31.4699C257.895 26.6997 254.851 22.9769 250.553 20.37L248.479 23.79ZM256.924 30.3489L246.268 35.3409L247.964 38.9631L258.62 33.9711L256.924 30.3489ZM249.002 36.4864C248.076 33.8623 246.365 31.78 243.952 30.272L241.832 33.664C243.515 34.716 244.62 36.0897 245.23 37.8176L249.002 36.4864ZM244.014 30.3122C241.676 28.7283 239.007 27.952 236.076 27.952V31.952C238.265 31.952 240.14 32.5197 241.77 33.6238L244.014 30.3122ZM236.076 27.952C233.965 27.952 232.041 28.3867 230.507 29.4701L232.813 32.7379C233.455 32.2853 234.475 31.952 236.076 31.952V27.952ZM230.46 29.504C228.904 30.6713 228.124 32.3353 228.124 34.272H232.124C232.124 33.5207 232.368 33.0727 232.86 32.704L230.46 29.504ZM228.124 34.272C228.124 35.3637 228.429 36.391 229.036 37.3014L232.364 35.0826C232.203 34.841 232.124 34.5883 232.124 34.272H228.124ZM229.036 37.3014C229.656 38.2311 230.556 38.9396 231.576 39.4889L233.472 35.9671C232.828 35.6204 232.512 35.3049 232.364 35.0826L229.036 37.3014ZM231.63 39.5169C232.656 40.0299 233.857 40.4848 235.213 40.8917L236.363 37.0603C235.159 36.6992 234.184 36.3221 233.418 35.9391L231.63 39.5169ZM235.215 40.8923L243.567 43.3883L244.713 39.5557L236.361 37.0597L235.215 40.8923ZM243.576 43.3907C247.671 44.5953 250.631 46.3816 252.621 48.6476L255.627 46.0084C253.009 43.0264 249.313 40.9087 244.704 39.5533L243.576 43.3907ZM252.637 48.6659C254.578 50.8221 255.58 53.4986 255.58 56.832H259.58C259.58 52.6134 258.278 48.9539 255.611 45.9901L252.637 48.6659ZM255.58 56.832C255.58 59.7219 254.822 62.156 253.358 64.2176L256.618 66.5344C258.61 63.732 259.58 60.4701 259.58 56.832H255.58ZM253.337 64.2466C251.9 66.3476 249.858 68.0485 247.132 69.3246L248.828 72.9474C252.118 71.4075 254.748 69.2684 256.639 66.5054L253.337 64.2466ZM247.164 69.31C244.467 70.515 241.205 71.152 237.324 71.152V75.152C241.635 75.152 245.477 74.445 248.796 72.962L247.164 69.31Z" fill="#777777" mask="url(#path-1-outside-1_192_806)"/>
</svg>
